<svg id="레이어_1" data-name="레이어 1" xmlns="http://www.w3.org/2000/svg" viewBox="0 0 942.96 1480.65"><defs><style>.cls-1{fill:#4b3728;}.cls-2{fill:#302118;}.cls-3{fill:#f1e8e1;}.cls-4{fill:#e1d9d5;}</style></defs><rect class="cls-1" x="-264.85" y="272.85" width="1472.65" height="934.96" rx="56.46" transform="translate(1211.81 268.85) rotate(90)"/><path class="cls-2" d="M882.5,1480.65h-822A60.53,60.53,0,0,1,0,1420.19V60.46A60.53,60.53,0,0,1,60.46,0h822A60.53,60.53,0,0,1,943,60.46V1420.19A60.53,60.53,0,0,1,882.5,1480.65ZM60.46,8A52.51,52.51,0,0,0,8,60.46V1420.19a52.51,52.51,0,0,0,52.46,52.46h822A52.51,52.51,0,0,0,935,1420.19V60.46A52.51,52.51,0,0,0,882.5,8Z"/><path class="cls-3" d="M675.42,4H267.54A35.74,35.74,0,0,0,231.8,39.74v68a35.74,35.74,0,0,1-35.73,35.74H39.74A35.74,35.74,0,0,0,4,179.19v1241a56.46,56.46,0,0,0,56.46,56.46h822A56.46,56.46,0,0,0,939,1420.19v-1241a35.74,35.74,0,0,0-35.74-35.74H746.9a35.74,35.74,0,0,1-35.74-35.74v-68A35.74,35.74,0,0,0,675.42,4Z"/><path class="cls-2" d="M882.5,1480.65h-822A60.53,60.53,0,0,1,0,1420.19v-1241a39.79,39.79,0,0,1,39.74-39.74H196.07a31.76,31.76,0,0,0,31.73-31.74v-68A39.79,39.79,0,0,1,267.54,0H675.42a39.79,39.79,0,0,1,39.74,39.74v68a31.77,31.77,0,0,0,31.74,31.74H903.22A39.79,39.79,0,0,1,943,179.19v1241A60.53,60.53,0,0,1,882.5,1480.65ZM39.74,147.45A31.78,31.78,0,0,0,8,179.19v1241a52.51,52.51,0,0,0,52.46,52.46h822A52.51,52.51,0,0,0,935,1420.19v-1241a31.78,31.78,0,0,0-31.74-31.74H746.9a39.78,39.78,0,0,1-39.74-39.74v-68A31.78,31.78,0,0,0,675.42,8H267.54A31.78,31.78,0,0,0,235.8,39.74v68a39.77,39.77,0,0,1-39.73,39.74Z"/><rect class="cls-4" x="52.47" y="590.07" width="838.02" height="838.02" rx="14.56"/><path class="cls-2" d="M875.93,1432.08H67a18.58,18.58,0,0,1-18.56-18.56V604.63A18.58,18.58,0,0,1,67,586.07h808.9a18.58,18.58,0,0,1,18.56,18.56v808.89A18.58,18.58,0,0,1,875.93,1432.08ZM67,594.07a10.57,10.57,0,0,0-10.56,10.56v808.89A10.57,10.57,0,0,0,67,1424.08h808.9a10.57,10.57,0,0,0,10.56-10.56V604.63a10.57,10.57,0,0,0-10.56-10.56Z"/></svg>