<svg id="레이어_1" data-name="레이어 1" xmlns="http://www.w3.org/2000/svg" xmlns:xlink="http://www.w3.org/1999/xlink" viewBox="0 0 942.96 1480.65"><defs><style>.cls-1{fill:none;}.cls-2{opacity:0.4;}.cls-3{fill:#e1d9d5;}.cls-4{fill:#302118;}.cls-5{clip-path:url(#clip-path);}.cls-6{fill:#f0b350;}.cls-7{fill:#040000;}.cls-8{fill:#ecca88;}.cls-9{fill:#db273c;}.cls-10{clip-path:url(#clip-path-2);}.cls-11{fill:#c02039;}.cls-12{fill:#e6d751;}.cls-13{fill:#4b3728;}.cls-14{fill:#f1e8e1;}</style><clipPath id="clip-path"><polygon class="cls-1" points="344.67 840.34 268.72 840.34 236.08 889.3 268.72 938.26 344.67 938.26 377.31 889.3 344.67 840.34"/></clipPath><clipPath id="clip-path-2"><rect class="cls-1" x="268.38" y="813.07" width="75.95" height="125"/></clipPath></defs><g class="cls-2"><rect class="cls-3" x="178.63" y="747.81" width="256.14" height="256.14" rx="14.56"/><path class="cls-4" d="M420.2,1008h-227a18.59,18.59,0,0,1-18.57-18.56v-227a18.59,18.59,0,0,1,18.57-18.56h227a18.59,18.59,0,0,1,18.56,18.56v227A18.59,18.59,0,0,1,420.2,1008Zm-227-256.14a10.58,10.58,0,0,0-10.57,10.56v227A10.58,10.58,0,0,0,193.19,1000h227a10.58,10.58,0,0,0,10.56-10.56v-227a10.58,10.58,0,0,0-10.56-10.56Z"/></g><g class="cls-2"><g class="cls-5"><rect class="cls-6" x="190.47" y="879.89" width="107.29" height="4.08" transform="translate(-625.1 595.8) rotate(-56.31)"/><path class="cls-7" d="M216.33,929.09l-5.06-3.37,60.63-90.94,5.06,3.37ZM214,925.16l1.74,1.15,58.4-87.6-1.73-1.15Z"/><rect class="cls-8" x="193.86" y="882.16" width="107.29" height="4.08" transform="translate(-625.47 599.63) rotate(-56.31)"/><path class="cls-7" d="M219.73,931.35,214.67,928l60.62-90.93,5.06,3.37Zm-2.29-3.93,1.73,1.16L277.58,841l-1.73-1.15Z"/><rect class="cls-6" x="197.26" y="884.42" width="107.29" height="4.08" transform="translate(-625.84 603.47) rotate(-56.31)"/><path class="cls-7" d="M223.12,933.61l-5.06-3.37,60.63-90.93,5.06,3.37Zm-2.29-3.92,1.74,1.15,58.4-87.6-1.73-1.16Z"/><rect class="cls-8" x="200.65" y="886.69" width="107.29" height="4.08" transform="translate(-626.21 607.3) rotate(-56.31)"/><path class="cls-7" d="M226.51,935.88l-5-3.37,60.62-90.94,5.06,3.38ZM224.23,932,226,933.1l58.41-87.6-1.73-1.15Z"/><rect class="cls-6" x="204.05" y="888.95" width="107.29" height="4.08" transform="translate(-626.58 611.13) rotate(-56.31)"/><path class="cls-7" d="M229.91,938.14l-5.06-3.37,60.63-90.93,5.06,3.37Zm-2.29-3.93,1.73,1.16,58.41-87.61L286,846.61Z"/><rect class="cls-8" x="207.44" y="891.21" width="107.29" height="4.08" transform="translate(-626.95 614.96) rotate(-56.31)"/><path class="cls-7" d="M233.3,940.41,228.25,937l60.62-90.93,5.06,3.37ZM231,936.48l1.73,1.15L291.16,850l-1.73-1.16Z"/><rect class="cls-6" x="210.84" y="893.48" width="107.29" height="4.08" transform="translate(-627.33 618.79) rotate(-56.31)"/><path class="cls-7" d="M236.7,942.67l-5.06-3.37,60.63-90.94,5.06,3.38Zm-2.29-3.93,1.73,1.15,58.41-87.6-1.73-1.15Z"/><rect class="cls-8" x="214.23" y="895.74" width="107.29" height="4.08" transform="translate(-627.7 622.63) rotate(-56.31)"/><path class="cls-7" d="M240.09,944.93,235,941.56l60.62-90.93,5.06,3.37ZM237.81,941l1.73,1.16L298,854.55l-1.73-1.15Z"/><rect class="cls-6" x="217.63" y="898" width="107.29" height="4.08" transform="translate(-628.07 626.46) rotate(-56.31)"/><path class="cls-7" d="M243.49,947.2l-5.06-3.38,60.63-90.93,5.06,3.37Zm-2.29-3.93,1.73,1.15,58.41-87.6-1.73-1.16Z"/><rect class="cls-8" x="221.27" y="900.43" width="107.29" height="4.08" transform="translate(-628.47 630.57) rotate(-56.31)"/><path class="cls-7" d="M247.13,949.62l-5.06-3.37,60.63-90.93,5.06,3.37Zm-2.29-3.93,1.73,1.16L305,859.24l-1.73-1.15Z"/><rect class="cls-6" x="224.66" y="902.69" width="107.29" height="4.08" transform="translate(-628.84 634.4) rotate(-56.31)"/><path class="cls-7" d="M250.52,951.88l-5.06-3.37,60.63-90.93,5.06,3.37ZM248.24,948l1.73,1.15,58.41-87.6-1.73-1.16Z"/><rect class="cls-8" x="228.06" y="904.96" width="107.29" height="4.08" transform="translate(-629.21 638.23) rotate(-56.31)"/><path class="cls-7" d="M253.92,954.15l-5.06-3.37,60.63-90.94,5.05,3.38Zm-2.29-3.93,1.73,1.15,58.41-87.6L310,862.62Z"/><rect class="cls-6" x="231.45" y="907.22" width="107.29" height="4.08" transform="translate(-629.58 642.06) rotate(-56.31)"/><path class="cls-7" d="M257.31,956.41,252.25,953l60.63-90.93,5.06,3.37ZM255,952.48l1.73,1.16L315.17,866l-1.73-1.15Z"/><rect class="cls-8" x="234.85" y="909.48" width="107.29" height="4.08" transform="translate(-629.95 645.9) rotate(-56.31)"/><path class="cls-7" d="M260.71,958.68l-5.06-3.38,60.63-90.93,5.05,3.37Zm-2.29-3.93,1.73,1.15,58.41-87.6-1.73-1.16Z"/><rect class="cls-6" x="238.24" y="911.75" width="107.29" height="4.08" transform="translate(-630.33 649.73) rotate(-56.31)"/><path class="cls-7" d="M264.1,960.94,259,957.57l60.63-90.94,5.06,3.38ZM261.82,957l1.73,1.15L322,870.56l-1.73-1.15Z"/><rect class="cls-8" x="241.63" y="914.01" width="107.29" height="4.08" transform="translate(-630.7 653.56) rotate(-56.31)"/><path class="cls-7" d="M267.5,963.2l-5.06-3.37,60.63-90.93,5.05,3.37Zm-2.29-3.93,1.73,1.16,58.41-87.61-1.73-1.15Z"/><rect class="cls-6" x="245.03" y="916.27" width="107.29" height="4.08" transform="translate(-631.07 657.39) rotate(-56.31)"/><path class="cls-7" d="M270.89,965.47l-5.06-3.38,60.63-90.93,5.06,3.37Zm-2.28-3.93,1.73,1.15,58.41-87.6L327,873.93Z"/><rect class="cls-6" x="315.63" y="879.89" width="107.29" height="4.08" transform="translate(-159.67 1678.42) rotate(-123.69)"/><path class="cls-7" d="M397.06,929.09l-60.63-90.94,5.06-3.37,60.62,90.94ZM339.2,838.71l58.41,87.6,1.73-1.15-58.41-87.6Z"/><rect class="cls-8" x="312.23" y="882.16" width="107.29" height="4.08" transform="translate(-166.83 1679.12) rotate(-123.69)"/><path class="cls-7" d="M393.66,931.35,333,840.42l5.06-3.37L398.72,928ZM335.81,841l58.41,87.61,1.73-1.16-58.41-87.6Z"/><rect class="cls-6" x="308.84" y="884.42" width="107.29" height="4.08" transform="translate(-173.99 1679.81) rotate(-123.69)"/><path class="cls-7" d="M390.27,933.61l-60.63-90.93,5.06-3.37,60.63,90.93Zm-57.86-90.37,58.41,87.6,1.73-1.15-58.41-87.61Z"/><rect class="cls-8" x="305.44" y="886.69" width="107.29" height="4.08" transform="translate(-181.15 1680.51) rotate(-123.69)"/><path class="cls-7" d="M386.87,935.88,326.24,845l5.06-3.38,60.63,90.94ZM329,845.5l58.41,87.6,1.73-1.15-58.41-87.6Z"/><rect class="cls-6" x="302.05" y="888.95" width="107.29" height="4.08" transform="translate(-188.32 1681.2) rotate(-123.69)"/><path class="cls-7" d="M383.48,938.14l-60.63-90.93,5.06-3.37,60.63,90.93Zm-57.86-90.38L384,935.37l1.73-1.16-58.41-87.6Z"/><rect class="cls-8" x="298.65" y="891.21" width="107.29" height="4.08" transform="translate(-195.48 1681.89) rotate(-123.69)"/><path class="cls-7" d="M380.08,940.41l-60.63-90.94,5.06-3.37L385.14,937ZM322.23,850l58.41,87.6,1.73-1.15L324,848.87Z"/><rect class="cls-6" x="295.26" y="893.48" width="107.29" height="4.08" transform="translate(-202.64 1682.59) rotate(-123.69)"/><path class="cls-7" d="M376.69,942.67l-60.63-90.93,5.06-3.38,60.63,90.94Zm-57.86-90.38,58.41,87.6,1.73-1.15-58.41-87.6Z"/><rect class="cls-8" x="291.86" y="895.74" width="107.29" height="4.08" transform="translate(-209.8 1683.28) rotate(-123.69)"/><path class="cls-7" d="M373.29,944.93,312.66,854l5.06-3.37,60.63,90.93Zm-57.85-90.38,58.41,87.61,1.73-1.16-58.41-87.6Z"/><rect class="cls-6" x="288.47" y="898" width="107.29" height="4.08" transform="translate(-216.96 1683.98) rotate(-123.69)"/><path class="cls-7" d="M369.9,947.2l-60.63-90.94,5.06-3.37L375,943.82ZM312,856.82l58.41,87.6,1.73-1.15-58.41-87.61Z"/><rect class="cls-8" x="284.83" y="900.43" width="107.29" height="4.08" transform="translate(-224.64 1684.72) rotate(-123.69)"/><path class="cls-7" d="M366.26,949.62l-60.63-90.93,5.06-3.37,60.63,90.93ZM308.4,859.24l58.41,87.61,1.73-1.16-58.4-87.6Z"/><rect class="cls-6" x="281.43" y="902.69" width="107.29" height="4.08" transform="translate(-231.8 1685.42) rotate(-123.69)"/><path class="cls-7" d="M362.86,951.88,302.24,861l5.06-3.37,60.62,90.93ZM305,861.51l58.41,87.6,1.73-1.15-58.41-87.61Z"/><rect class="cls-8" x="278.04" y="904.96" width="107.29" height="4.08" transform="translate(-238.96 1686.11) rotate(-123.69)"/><path class="cls-7" d="M359.47,954.15l-60.63-90.93,5.06-3.38,60.63,90.94Zm-57.86-90.38L360,951.37l1.74-1.15-58.41-87.6Z"/><rect class="cls-6" x="274.64" y="907.22" width="107.29" height="4.08" transform="translate(-246.12 1686.81) rotate(-123.69)"/><path class="cls-7" d="M356.07,956.41l-60.62-90.93,5.06-3.37L361.13,953ZM298.22,866l58.41,87.61,1.73-1.16L300,864.88Z"/><rect class="cls-8" x="271.25" y="909.48" width="107.29" height="4.08" transform="translate(-253.28 1687.5) rotate(-123.69)"/><path class="cls-7" d="M352.68,958.68l-60.63-90.94,5.06-3.37,60.63,90.93ZM294.83,868.3l58.4,87.6,1.74-1.15-58.41-87.61Z"/><rect class="cls-6" x="267.85" y="911.75" width="107.29" height="4.08" transform="translate(-260.44 1688.19) rotate(-123.69)"/><path class="cls-7" d="M349.29,960.94,288.66,870l5.06-3.38,60.62,90.94Zm-57.86-90.38,58.41,87.6,1.73-1.15-58.41-87.6Z"/><rect class="cls-8" x="264.46" y="914.01" width="107.29" height="4.08" transform="translate(-267.6 1688.89) rotate(-123.69)"/><path class="cls-7" d="M345.89,963.2l-60.63-90.93,5.06-3.37L351,959.83ZM288,872.82l58.41,87.61,1.73-1.16-58.41-87.6Z"/><rect class="cls-6" x="261.07" y="916.27" width="107.29" height="4.08" transform="translate(-274.77 1689.58) rotate(-123.69)"/><path class="cls-7" d="M342.5,965.47l-60.63-90.94,5.06-3.37,60.62,90.93Zm-57.86-90.38,58.41,87.6,1.73-1.15-58.41-87.61Z"/></g><path class="cls-7" d="M345.47,939.76H267.92L234.27,889.3l33.65-50.46h77.55l33.64,50.46Zm-76-3h74.35l31.64-47.46-31.64-47.46H269.52L237.88,889.3Z"/><rect class="cls-9" x="268.72" y="813.26" width="75.95" height="125"/><path class="cls-7" d="M346.17,939.76H267.22v-128h78.95Zm-75.95-3h72.95v-122H270.22Z"/><path class="cls-7" d="M346.17,939.76H267.22v-128h78.95Zm-75.95-3h72.95v-122H270.22Z"/><g class="cls-10"><ellipse class="cls-11" cx="272.2" cy="804.84" rx="1.62" ry="4.53"/><ellipse class="cls-11" cx="267.89" cy="807.97" rx="1.62" ry="4.53" transform="translate(-583.32 813.07) rotate(-72)"/><ellipse class="cls-11" cx="269.54" cy="813.03" rx="4.53" ry="1.62" transform="translate(-546.65 553.2) rotate(-54)"/><ellipse class="cls-11" cx="274.86" cy="813.03" rx="1.62" ry="4.53" transform="matrix(0.81, -0.59, 0.59, 0.81, -425.4, 316.83)"/><ellipse class="cls-11" cx="276.5" cy="807.97" rx="4.53" ry="1.62" transform="translate(-236.14 124.99) rotate(-18)"/><ellipse class="cls-11" cx="340.45" cy="804.84" rx="1.62" ry="4.53"/><ellipse class="cls-11" cx="336.15" cy="807.97" rx="1.62" ry="4.53" transform="translate(-536.15 877.99) rotate(-72)"/><ellipse class="cls-11" cx="337.79" cy="813.03" rx="4.53" ry="1.62" transform="translate(-518.51 608.42) rotate(-54)"/><ellipse class="cls-11" cx="343.11" cy="813.03" rx="1.62" ry="4.53" transform="translate(-412.36 356.95) rotate(-36)"/><ellipse class="cls-11" cx="344.76" cy="807.97" rx="4.53" ry="1.62" transform="translate(-232.8 146.08) rotate(-18)"/><ellipse class="cls-11" cx="306.33" cy="817.14" rx="1.62" ry="4.53"/><ellipse class="cls-11" cx="302.02" cy="820.27" rx="1.62" ry="4.53" transform="translate(-571.44 854.03) rotate(-72)"/><ellipse class="cls-11" cx="303.66" cy="825.34" rx="4.53" ry="1.62" transform="translate(-542.54 585.88) rotate(-54)"/><ellipse class="cls-11" cx="308.99" cy="825.34" rx="1.62" ry="4.53" transform="translate(-426.11 339.24) rotate(-36)"/><ellipse class="cls-11" cx="310.63" cy="820.27" rx="4.53" ry="1.62" transform="translate(-238.28 136.14) rotate(-18)"/><ellipse class="cls-11" cx="272.2" cy="829.86" rx="1.62" ry="4.53"/><ellipse class="cls-11" cx="267.89" cy="832.99" rx="1.62" ry="4.53" transform="translate(-607.12 830.36) rotate(-72)"/><ellipse class="cls-11" cx="269.54" cy="838.06" rx="4.53" ry="1.62" transform="translate(-566.89 563.52) rotate(-54)"/><ellipse class="cls-11" cx="274.86" cy="838.06" rx="1.62" ry="4.53" transform="matrix(0.81, -0.59, 0.59, 0.81, -440.1, 321.61)"/><ellipse class="cls-11" cx="276.5" cy="832.99" rx="4.53" ry="1.62" transform="translate(-243.88 126.21) rotate(-18)"/><ellipse class="cls-11" cx="340.45" cy="829.86" rx="1.62" ry="4.53"/><ellipse class="cls-11" cx="336.15" cy="832.99" rx="1.62" ry="4.53" transform="translate(-559.95 895.28) rotate(-72)"/><ellipse class="cls-11" cx="337.79" cy="838.06" rx="4.53" ry="1.62" transform="translate(-538.76 618.74) rotate(-54)"/><ellipse class="cls-11" cx="343.11" cy="838.06" rx="1.62" ry="4.53" transform="translate(-427.07 361.73) rotate(-36)"/><ellipse class="cls-11" cx="344.76" cy="832.99" rx="4.53" ry="1.62" transform="translate(-240.54 147.31) rotate(-18)"/><ellipse class="cls-11" cx="306.33" cy="842.17" rx="1.62" ry="4.53"/><ellipse class="cls-11" cx="302.02" cy="845.3" rx="1.62" ry="4.53" transform="translate(-595.23 871.32) rotate(-72)"/><ellipse class="cls-11" cx="303.66" cy="850.36" rx="4.53" ry="1.62" transform="translate(-562.78 596.2) rotate(-54)"/><ellipse class="cls-11" cx="308.99" cy="850.36" rx="1.62" ry="4.53" transform="translate(-440.82 344.02) rotate(-36)"/><ellipse class="cls-11" cx="310.63" cy="845.3" rx="4.53" ry="1.62" transform="translate(-246.01 137.36) rotate(-18)"/><ellipse class="cls-11" cx="272.2" cy="854.89" rx="1.62" ry="4.53"/><ellipse class="cls-11" cx="267.89" cy="858.02" rx="1.62" ry="4.53" transform="translate(-630.91 847.65) rotate(-72)"/><ellipse class="cls-11" cx="269.54" cy="863.08" rx="4.53" ry="1.62" transform="translate(-587.14 573.83) rotate(-54)"/><ellipse class="cls-11" cx="274.86" cy="863.08" rx="1.62" ry="4.53" transform="matrix(0.81, -0.59, 0.59, 0.81, -454.81, 326.39)"/><ellipse class="cls-11" cx="276.5" cy="858.02" rx="4.53" ry="1.62" transform="translate(-251.61 127.44) rotate(-18)"/><ellipse class="cls-11" cx="340.45" cy="854.89" rx="1.62" ry="4.53"/><ellipse class="cls-11" cx="336.15" cy="858.02" rx="1.62" ry="4.53" transform="translate(-583.75 912.57) rotate(-72)"/><ellipse class="cls-11" cx="337.79" cy="863.08" rx="4.53" ry="1.62" transform="translate(-559 629.05) rotate(-54)"/><ellipse class="cls-11" cx="343.11" cy="863.08" rx="1.62" ry="4.53" transform="translate(-441.78 366.51) rotate(-36)"/><ellipse class="cls-11" cx="344.76" cy="858.02" rx="4.53" ry="1.62" transform="translate(-248.27 148.53) rotate(-18)"/><ellipse class="cls-11" cx="306.33" cy="867.19" rx="1.62" ry="4.53"/><ellipse class="cls-11" cx="302.02" cy="870.32" rx="1.62" ry="4.53" transform="translate(-619.03 888.61) rotate(-72)"/><ellipse class="cls-11" cx="303.66" cy="875.38" rx="4.53" ry="1.62" transform="translate(-583.02 606.51) rotate(-54)"/><ellipse class="cls-11" cx="308.99" cy="875.38" rx="1.62" ry="4.53" transform="translate(-455.53 348.8) rotate(-36)"/><ellipse class="cls-11" cx="310.63" cy="870.32" rx="4.53" ry="1.62" transform="translate(-253.74 138.59) rotate(-18)"/><ellipse class="cls-11" cx="272.2" cy="879.91" rx="1.62" ry="4.53"/><ellipse class="cls-11" cx="267.89" cy="883.04" rx="1.62" ry="4.53" transform="translate(-654.71 864.94) rotate(-72)"/><ellipse class="cls-11" cx="269.54" cy="888.1" rx="4.53" ry="1.62" transform="translate(-607.38 584.15) rotate(-54)"/><ellipse class="cls-11" cx="274.86" cy="888.1" rx="1.62" ry="4.53" transform="matrix(0.81, -0.59, 0.59, 0.81, -469.52, 331.17)"/><ellipse class="cls-11" cx="276.5" cy="883.04" rx="4.53" ry="1.62" transform="translate(-259.34 128.66) rotate(-18)"/><ellipse class="cls-11" cx="340.45" cy="879.91" rx="1.62" ry="4.53"/><ellipse class="cls-11" cx="336.15" cy="883.04" rx="1.62" ry="4.53" transform="translate(-607.55 929.86) rotate(-72)"/><ellipse class="cls-11" cx="337.79" cy="888.1" rx="4.53" ry="1.62" transform="translate(-579.25 639.37) rotate(-54)"/><ellipse class="cls-11" cx="343.11" cy="888.1" rx="1.62" ry="4.53" transform="translate(-456.48 371.29) rotate(-36)"/><ellipse class="cls-11" cx="344.76" cy="883.04" rx="4.53" ry="1.62" transform="translate(-256 149.76) rotate(-18)"/><ellipse class="cls-11" cx="306.33" cy="892.21" rx="1.62" ry="4.53"/><ellipse class="cls-11" cx="302.02" cy="895.34" rx="1.62" ry="4.53" transform="translate(-642.83 905.9) rotate(-72)"/><ellipse class="cls-11" cx="303.66" cy="900.4" rx="4.53" ry="1.62" transform="translate(-603.27 616.83) rotate(-54)"/><ellipse class="cls-11" cx="308.99" cy="900.4" rx="1.62" ry="4.53" transform="translate(-470.23 353.58) rotate(-36)"/><ellipse class="cls-11" cx="310.63" cy="895.34" rx="4.53" ry="1.62" transform="translate(-261.47 139.81) rotate(-18)"/><ellipse class="cls-11" cx="272.2" cy="904.93" rx="1.62" ry="4.53"/><ellipse class="cls-11" cx="267.89" cy="908.06" rx="1.62" ry="4.53" transform="translate(-678.51 882.23) rotate(-72)"/><ellipse class="cls-11" cx="269.54" cy="913.12" rx="4.53" ry="1.62" transform="translate(-627.63 594.46) rotate(-54)"/><ellipse class="cls-11" cx="274.86" cy="913.12" rx="1.62" ry="4.53" transform="matrix(0.81, -0.59, 0.59, 0.81, -484.23, 335.95)"/><ellipse class="cls-11" cx="276.5" cy="908.06" rx="4.53" ry="1.62" transform="translate(-267.07 129.89) rotate(-18)"/><ellipse class="cls-11" cx="340.45" cy="904.93" rx="1.62" ry="4.53"/><ellipse class="cls-11" cx="336.15" cy="908.06" rx="1.62" ry="4.53" transform="translate(-631.35 947.15) rotate(-72)"/><ellipse class="cls-11" cx="337.79" cy="913.12" rx="4.53" ry="1.62" transform="translate(-599.49 649.68) rotate(-54)"/><ellipse class="cls-11" cx="343.11" cy="913.12" rx="1.62" ry="4.53" transform="translate(-471.19 376.07) rotate(-36)"/><ellipse class="cls-11" cx="344.76" cy="908.06" rx="4.53" ry="1.62" transform="translate(-263.73 150.98) rotate(-18)"/><ellipse class="cls-11" cx="306.33" cy="917.24" rx="1.62" ry="4.53"/><ellipse class="cls-11" cx="302.02" cy="920.36" rx="1.62" ry="4.53" transform="translate(-666.63 923.19) rotate(-72)"/><ellipse class="cls-11" cx="303.66" cy="925.43" rx="4.53" ry="1.62" transform="translate(-623.51 627.14) rotate(-54)"/><ellipse class="cls-11" cx="308.99" cy="925.43" rx="1.62" ry="4.53" transform="translate(-484.94 358.36) rotate(-36)"/><ellipse class="cls-11" cx="310.63" cy="920.36" rx="4.53" ry="1.62" transform="translate(-269.2 141.04) rotate(-18)"/><ellipse class="cls-11" cx="272.2" cy="929.95" rx="1.62" ry="4.53"/><ellipse class="cls-11" cx="267.89" cy="933.08" rx="1.62" ry="4.53" transform="translate(-702.31 899.52) rotate(-72)"/><ellipse class="cls-11" cx="269.54" cy="938.15" rx="4.53" ry="1.62" transform="translate(-647.87 604.78) rotate(-54)"/><ellipse class="cls-11" cx="274.86" cy="938.15" rx="1.62" ry="4.53" transform="matrix(0.81, -0.59, 0.59, 0.81, -498.93, 340.73)"/><ellipse class="cls-11" cx="276.5" cy="933.08" rx="4.53" ry="1.62" transform="translate(-274.81 131.11) rotate(-18)"/><ellipse class="cls-11" cx="340.45" cy="929.95" rx="1.62" ry="4.53"/><ellipse class="cls-11" cx="336.15" cy="933.08" rx="1.62" ry="4.53" transform="translate(-655.14 964.44) rotate(-72)"/><ellipse class="cls-11" cx="337.79" cy="938.15" rx="4.53" ry="1.62" transform="translate(-619.73 660) rotate(-54)"/><ellipse class="cls-11" cx="343.11" cy="938.15" rx="1.62" ry="4.53" transform="translate(-485.9 380.85) rotate(-36)"/><ellipse class="cls-11" cx="344.76" cy="933.08" rx="4.53" ry="1.62" transform="translate(-271.46 152.2) rotate(-18)"/><ellipse class="cls-11" cx="306.33" cy="942.26" rx="1.62" ry="4.53"/><ellipse class="cls-11" cx="302.02" cy="945.39" rx="1.62" ry="4.53" transform="translate(-690.43 940.48) rotate(-72)"/><ellipse class="cls-11" cx="303.66" cy="950.45" rx="4.53" ry="1.62" transform="translate(-643.75 637.46) rotate(-54)"/><ellipse class="cls-11" cx="308.99" cy="950.45" rx="1.62" ry="4.53" transform="translate(-499.65 363.14) rotate(-36)"/><ellipse class="cls-11" cx="310.63" cy="945.39" rx="4.53" ry="1.62" transform="translate(-276.94 142.26) rotate(-18)"/></g><rect class="cls-8" x="269.18" y="933.71" width="75.11" height="4.08"/><path class="cls-7" d="M345.3,938.79H268.18v-6.08H345.3Zm-75.12-2H343.3v-2.08H270.18Z"/><rect class="cls-8" x="269.18" y="847.52" width="75.11" height="4.08"/><path class="cls-7" d="M345.3,852.6H268.18v-6.08H345.3Zm-75.12-2H343.3v-2.08H270.18Z"/><path class="cls-7" d="M346.22,939.76h-79v-128h79Zm-76-3h73v-122h-73Z"/><circle class="cls-12" cx="306.74" cy="892.07" r="28.43"/><path class="cls-7" d="M306.74,921.5a29.43,29.43,0,1,1,29.43-29.43A29.47,29.47,0,0,1,306.74,921.5Zm0-56.86a27.43,27.43,0,1,0,27.43,27.43A27.46,27.46,0,0,0,306.74,864.64Z"/><path class="cls-7" d="M327.16,894.74c-.63,1.73-1.88,1.63-3.85,1.49-7.79-.58-16.41.1-31.18.72a11.68,11.68,0,0,1-3.36-.38c-1.21-.34-2.51-1.78-2.51-2.41,0-1.2,2.55-3.13,4.29-3.22.81-.05,7-.24,13.32-.39V889a2.56,2.56,0,0,0-.14-.91l-3,.19a3.48,3.48,0,0,1-1.64.58c-1.25-.05-2.84-1.11-2.79-2.26a61.83,61.83,0,0,0-.24-7.8,3.63,3.63,0,0,0-1.11-2.35c-.38-.44-.52-.87-.28-1.25a11.89,11.89,0,0,1,3-2.46,1.47,1.47,0,0,1,1.59.19,7.44,7.44,0,0,1,2.74,3.52c2-.15,4.76-.39,6.16-.44,1,0,2.21,1.11,2.69,1.93s.34,1.2,0,1.59a4,4,0,0,1-3.32,1.3c-1,0-2.93,0-4.91.14l.15,2.21c2.89.05,6,.1,8.95,0,.05-2.69,0-5.38-.1-7.26a2.83,2.83,0,0,0-1-1.83c-.39-.38-.24-.91.24-1.39a7.12,7.12,0,0,1,2.79-1.74,2.16,2.16,0,0,1,1.59.39c1,.67,2.4,2,2.4,3.13,0,3.36.68,7.45.44,11.11a3.69,3.69,0,0,1-2.75,3.08,5.07,5.07,0,0,1-2.4-.67c-.72,0-1.54,0-2.41,0v.33c.05.53.05,1.3.05,2.12,5.63-.14,9.77-.29,7.89-.29a31,31,0,0,1,4,.24,8.47,8.47,0,0,1,3.9,1.88C327.45,893.1,327.64,893.39,327.16,894.74Zm-7.22,7.65a38.21,38.21,0,0,1-.38,4.57c-.39,2-.92,3.41-1.83,4.23-.58.53-1.11,1-1.59,1.4a18.7,18.7,0,0,0-1.73,1.68A5.86,5.86,0,0,1,313,912a15.23,15.23,0,0,1-.43-3.17c0-1.11-.05-2.89,0-4.62-4.09,0-10.29.19-12.51.29s-4.09-.82-6.2-2.31a.81.81,0,0,1-.39-1,6.28,6.28,0,0,1,.87-2.26c.48-.77.91-.81,1.44-.67a15.78,15.78,0,0,0,4.23.43c1.4,0,11.36-.33,12-.33a45.49,45.49,0,0,0,4.53-.44,3.16,3.16,0,0,1,1.92.53c.87.58,1.88,1.35,1.93,2.17A3.82,3.82,0,0,1,319.94,902.39Z"/></g><rect class="cls-13" x="-264.85" y="272.85" width="1472.65" height="934.96" rx="56.46" transform="translate(1211.81 268.85) rotate(90)"/><path class="cls-4" d="M882.5,1480.65h-822A60.53,60.53,0,0,1,0,1420.19V60.46A60.53,60.53,0,0,1,60.46,0h822A60.53,60.53,0,0,1,943,60.46V1420.19A60.53,60.53,0,0,1,882.5,1480.65ZM60.46,8A52.51,52.51,0,0,0,8,60.46V1420.19a52.51,52.51,0,0,0,52.46,52.46h822A52.51,52.51,0,0,0,935,1420.19V60.46A52.51,52.51,0,0,0,882.5,8Z"/><path class="cls-14" d="M675.42,4H267.54A35.74,35.74,0,0,0,231.8,39.74v68a35.74,35.74,0,0,1-35.73,35.74H39.74A35.74,35.74,0,0,0,4,179.19v1241a56.46,56.46,0,0,0,56.46,56.46h822A56.46,56.46,0,0,0,939,1420.19v-1241a35.74,35.74,0,0,0-35.74-35.74H746.9a35.74,35.74,0,0,1-35.74-35.74v-68A35.74,35.74,0,0,0,675.42,4Z"/><path class="cls-4" d="M882.5,1480.65h-822A60.53,60.53,0,0,1,0,1420.19v-1241a39.79,39.79,0,0,1,39.74-39.74H196.07a31.76,31.76,0,0,0,31.73-31.74v-68A39.79,39.79,0,0,1,267.54,0H675.42a39.79,39.79,0,0,1,39.74,39.74v68a31.77,31.77,0,0,0,31.74,31.74H903.22A39.79,39.79,0,0,1,943,179.19v1241A60.53,60.53,0,0,1,882.5,1480.65ZM39.74,147.45A31.78,31.78,0,0,0,8,179.19v1241a52.51,52.51,0,0,0,52.46,52.46h822A52.51,52.51,0,0,0,935,1420.19v-1241a31.78,31.78,0,0,0-31.74-31.74H746.9a39.78,39.78,0,0,1-39.74-39.74v-68A31.78,31.78,0,0,0,675.42,8H267.54A31.78,31.78,0,0,0,235.8,39.74v68a39.77,39.77,0,0,1-39.73,39.74Z"/><path class="cls-7" d="M208.92,334.8a5,5,0,0,1-4.46,1.58,11,11,0,0,1-3.67-1.28,4.92,4.92,0,0,0,2.62-1.31,21.69,21.69,0,0,0,5.61-8.52c.32-.95.45-1.32.06-1.87s-.42-.62-.29-.95a4.71,4.71,0,0,1,1-1.18c.46-.36.59-.4,1.25-.07a7.11,7.11,0,0,1,2.1,1.44c.88.92.88,1.84.42,3.35a28.33,28.33,0,0,1-1,2.75l3.77,2.66a2.89,2.89,0,0,1,1.31,2.75c0,.75-.26,1.74-.65,1.93a3.56,3.56,0,0,1-2,0,4.94,4.94,0,0,1-2.13-1.54c-.46-.46-1.38-1.44-2.06-2.29A12.65,12.65,0,0,1,208.92,334.8Zm16.71,10.59c-1.54,1.31-2.49,1.31-4.52,1.38-1,0-5-.07-6.13-.13a4.15,4.15,0,0,1-3.54-1.61c-1.05-1.11-2.23-2.43-2.85-3.11a5.8,5.8,0,0,0-1.61-1.31,1.25,1.25,0,0,1-.82-1.18c0-.76.43-1.05,1.41-1.38a13.4,13.4,0,0,1,2.2-.56,1.7,1.7,0,0,1,1.67.46c1,1.18,1.93,2.36,2.85,3.28a2.73,2.73,0,0,0,2.1.92c.79.06,3.05.09,4.33,0a8.14,8.14,0,0,0,2.36-.43c1.11-.46,1.24-.36,1.83.17a5.71,5.71,0,0,1,1.18,1.63C226.52,344.47,226.29,344.83,225.63,345.39Zm-10.88-18.32c0-.92,2.23-1.28,3.05-1.31.56,0,1.54,0,2.46,0v-2.85a2.61,2.61,0,0,0-.66-1.8c-.16-.23-.42-.69-.65-1s-.07-.63.19-1a3.63,3.63,0,0,1,1.31-1.05,1.77,1.77,0,0,1,1.18.1,11.17,11.17,0,0,1,2,1.44,2.89,2.89,0,0,1,1.11,2,15.89,15.89,0,0,1,.13,2.65c-.1,2.69,0,8.17-.13,10.1-.16,2.29-1.44,4.85-2.85,5.51-.59-1.25-1.9-2.4-2-3.77a23.75,23.75,0,0,1,.07-4.1c.06-.56.09-1.18.13-1.87a7.55,7.55,0,0,1-1.15.1,4.07,4.07,0,0,1-2.82-.75A3.13,3.13,0,0,1,214.75,327.07Z"/><path class="cls-7" d="M256.63,332.57a5.54,5.54,0,0,1-1.57.89,3.9,3.9,0,0,1-2,.23c-1-.13-3.53-.3-4.39-.33-1.31,0-2.68-.06-4.09-.06v.55a4.23,4.23,0,0,1-.2,1.31h2.39a15.33,15.33,0,0,1,2.39-.13,2,2,0,0,1,1.41.56c.46.46.56.75.46,1.15a1.36,1.36,0,0,1-.52.78,19.15,19.15,0,0,1-.95,3.35V341a1.94,1.94,0,0,1-.4.78,1.37,1.37,0,0,1-1.21.53c-.85,0-4.46-.16-6.13-.2-.95,0-2.42,0-3.77.07a1.26,1.26,0,0,0,.2.2,2.75,2.75,0,0,0,1.51,1c.88.13,5.34.23,6.45.2a14.85,14.85,0,0,0,3.28-.49,1.89,1.89,0,0,1,1.54.16,9.67,9.67,0,0,1,1.38,1c.26.26.56.56.56.72a4.84,4.84,0,0,1-1.58,1.41,10.52,10.52,0,0,1-4.75.95,47.16,47.16,0,0,1-5.54,0,8.13,8.13,0,0,1-4.55-1.38,18.11,18.11,0,0,1-4.13-4.69,1.27,1.27,0,0,1,.29-1.41,5,5,0,0,1,2-.65,1.47,1.47,0,0,1,.82.32c2-.19,4.09-.29,6.09-.29,1,0,3,.13,3.94.2a6.28,6.28,0,0,1,.23-1.25h-.1c-1.28-.1-7.08-.1-8.29-.1a4.46,4.46,0,0,1-1.61-.23,11.46,11.46,0,0,1-1.71-.91c-.45-.33-.68-.66-.39-1.25a2.59,2.59,0,0,1,.85-1.11,1.23,1.23,0,0,1,1.12,0,3.58,3.58,0,0,0,2.1.49c.55,0,1.5,0,2.62,0a4.74,4.74,0,0,1-.3-1.22c0-.13,0-.39,0-.68H240c-.91,0-6.16.19-7,.26a8.54,8.54,0,0,1-3.37-.46c-.89-.39-1.84-1-1.84-1.31a1,1,0,0,1,.1-.62c.26-.4.66-1.12,1-1.51a1,1,0,0,1,1-.17,3.93,3.93,0,0,0,1.57.33c2,0,8.66,0,10.85,0,1.08,0,5.44,0,6.65-.07.73,0,2.4-.16,2.82-.13a10.27,10.27,0,0,1,2.43.49,6.58,6.58,0,0,1,2.36,1.54A.79.79,0,0,1,256.63,332.57ZM234.15,321.5a1.36,1.36,0,0,1-.39-.92c.1-.66,1.5-1.44,2.32-1.51a3.18,3.18,0,0,1,1.71.46c2.59-.07,6.91-.2,8.68-.29.63,0,1.28-.14,1.74-.14a1.5,1.5,0,0,1,1.48.86,2.05,2.05,0,0,1,.19,1.63,7.25,7.25,0,0,0-.23.92c-.29,1.58-.59,3.64-.88,5a1.75,1.75,0,0,1-1.61,1.28,1.85,1.85,0,0,1-1-.26,74.69,74.69,0,0,0-8.06,0,1.41,1.41,0,0,1-.89.46,1.92,1.92,0,0,1-1.77-1.21c-.33-1.12-.62-3.77-.85-4.92A3,3,0,0,0,234.15,321.5Zm11.41,1.18c-1.68.1-4.62.16-6.82.19.06.82.1,1.61.13,2.33l6.59-.23C245.49,324.18,245.49,323.36,245.56,322.68Z"/><path class="cls-7" d="M258.66,325.69c-.75-.06-.88-.46-.92-.82a2.62,2.62,0,0,1,.49-1.28,1.61,1.61,0,0,1,1.18-.72c.66,0,2.13-.06,3.74-.16A1.45,1.45,0,0,0,263,322a3.89,3.89,0,0,0-.85-1.05.88.88,0,0,1-.26-1.18,3.88,3.88,0,0,1,1.77-1.11,2.1,2.1,0,0,1,1.27.06,6.15,6.15,0,0,1,2.33,2.07,8.45,8.45,0,0,1,.2,1.6l1.54-.13c1.67-.13,2,.07,2.85,1s1.08,1.22.92,1.58a1.32,1.32,0,0,1-1.31.88C269,325.82,260.14,325.82,258.66,325.69Zm1,5.34c-.32-2.32,2.23-4.09,5.08-4.42a3,3,0,0,1,1.18-.26c2.82,0,5.51,1.24,5.61,3.83s-2,3.77-4.69,4.16a2.46,2.46,0,0,1-.88.17C263.32,334.51,260,333.39,259.64,331Zm24.13-.85c0,.33-1.25,1.08-2.13,1.28a4.16,4.16,0,0,1-1.64.07l-1.28-.23v.06a9.72,9.72,0,0,1-1.34,4c.95.2,1.11,1.58.91,2.72a17.23,17.23,0,0,1-.82,3.38c-.23.49-1.14.72-1.86.62-1.64.2-5.35.3-8.53.3l.79.62a2.21,2.21,0,0,0,1.18.56c2.2.1,5.8.1,7.18,0,.49,0,2.13-.26,2.52-.33.56-.1,2.46,1.18,2.46,1.87s-1.51,1.77-2.33,2.1a8.08,8.08,0,0,1-2,.2c-1.24.06-6.62,0-8,0a3.24,3.24,0,0,1-2.36-.66c-1.21-1-2.69-2.56-3.84-3.47a8.69,8.69,0,0,0-1.67-1.05c-.62-.3-1.05-.59-1-1.08a1.65,1.65,0,0,1,.49-1.12,3.32,3.32,0,0,1,1.94-.62,3,3,0,0,1,1.44.23.54.54,0,0,1,.19.13c2.49.06,7-.07,9.67-.2l.07-1.41-8,.3a7.13,7.13,0,0,1-2.42-.33c-1.05-.43-2.46-1.31-2.46-1.74s.39-.65.78-.95a2.67,2.67,0,0,1,1.74-.49,14.6,14.6,0,0,0,2,.56c1.84.1,6.33-.13,7.83-.2.53,0,1,0,1.54,0a4.82,4.82,0,0,1-1-2.23c-.2-3,.42-7.38.33-10.23,0-1.11-.5-1.57-1.58-3-.16-.23-.09-.62.2-1a3.17,3.17,0,0,1,1.31-1,1.48,1.48,0,0,1,1.18.09c1.93,1.09,3.31,2.36,3.64,3.87a15.75,15.75,0,0,1-.1,2.39c0,1.12-.06,2-.06,2.89l.95-.16c1.41-.27,2.32.45,3.31,1.73A3.28,3.28,0,0,1,283.77,330.18Zm-20.16.17c0,.78.79,1.18,1.74,1.31,1.34-.13,2.06-.69,2.06-1.51s-1.21-1.38-2-1.41l-.46.13A1.76,1.76,0,0,0,263.61,330.35Z"/><path class="cls-7" d="M320.6,334.71c-.43,1.18-1.28,1.11-2.62,1-5.31-.39-11.18.07-21.24.49a7.47,7.47,0,0,1-2.29-.26c-.82-.23-1.71-1.21-1.71-1.64,0-.82,1.74-2.13,2.92-2.19.56,0,4.75-.17,9.08-.27v-1.08a1.74,1.74,0,0,0-.1-.62l-2.07.13a2.38,2.38,0,0,1-1.11.39c-.85,0-1.93-.75-1.9-1.54a42.5,42.5,0,0,0-.17-5.31,2.42,2.42,0,0,0-.75-1.6c-.26-.3-.36-.59-.2-.85a8.43,8.43,0,0,1,2-1.68,1,1,0,0,1,1.08.14,5.08,5.08,0,0,1,1.87,2.39c1.37-.1,3.24-.26,4.19-.3.69,0,1.51.76,1.84,1.31s.23.82,0,1.09a2.76,2.76,0,0,1-2.26.88c-.69,0-2,0-3.35.1l.1,1.51c2,0,4.1.06,6.1,0,0-1.83,0-3.67-.07-4.95a1.88,1.88,0,0,0-.65-1.24c-.27-.26-.17-.62.16-.95a4.84,4.84,0,0,1,1.9-1.18,1.43,1.43,0,0,1,1.08.26c.69.46,1.64,1.34,1.64,2.13,0,2.3.46,5.08.3,7.57a2.51,2.51,0,0,1-1.87,2.1,3.4,3.4,0,0,1-1.64-.46c-.49,0-1,0-1.64,0v.23c0,.36,0,.88,0,1.44a52.63,52.63,0,0,0,5.38-.2,21.66,21.66,0,0,1,2.72.17,5.58,5.58,0,0,1,2.65,1.28C320.8,333.59,320.93,333.79,320.6,334.71Zm-4.92,5.21a25.41,25.41,0,0,1-.26,3.11,5.12,5.12,0,0,1-1.24,2.88c-.4.37-.76.69-1.09,1a14.5,14.5,0,0,0-1.18,1.14,4.07,4.07,0,0,1-1-1.57,10.62,10.62,0,0,1-.29-2.16c0-.76,0-2,0-3.15-2.79,0-7,.13-8.52.2a6.54,6.54,0,0,1-4.23-1.58.53.53,0,0,1-.26-.65,4.08,4.08,0,0,1,.59-1.54c.33-.53.62-.56,1-.46a10.86,10.86,0,0,0,2.89.29c.95,0,7.73-.23,8.16-.23,1.05,0,2.39-.23,3.08-.29a2.16,2.16,0,0,1,1.31.36c.59.39,1.28.92,1.31,1.47A2.57,2.57,0,0,1,315.68,339.92Z"/><path class="cls-7" d="M348.88,334.8a2.37,2.37,0,0,1-.82,1.41,4.31,4.31,0,0,1-2.92,1.18c-.59-.06-2.45-.19-3.5-.23-.66,0-2,0-3.74,0v5.11a5.71,5.71,0,0,1-1.54,4.23,9.06,9.06,0,0,0-1.28,1.37,4.28,4.28,0,0,0-.72-1.37,7.43,7.43,0,0,1-1.38-3c-.13-.85-.09-3.63-.06-6.26-2.85.1-5.47.2-6.33.3a4.72,4.72,0,0,1-3.44-.82,5.53,5.53,0,0,1-1.6-1.61.76.76,0,0,1,0-.82,9.1,9.1,0,0,1,1.08-1.57,1,1,0,0,1,1.21-.06,5,5,0,0,0,2.75.52c2.69-.1,13.74-.23,16.23-.43a14.67,14.67,0,0,1,5,.66A1.45,1.45,0,0,1,348.88,334.8ZM328.66,331a11.39,11.39,0,0,1-3.41-1.83,5.44,5.44,0,0,0,2.88-.59,34.82,34.82,0,0,0,6.56-4.56c-1.31.1-2.49.13-3,.13a5.06,5.06,0,0,1-2.32-.82,5.69,5.69,0,0,1-1.41-1.44.69.69,0,0,1,.06-.78,6.74,6.74,0,0,1,1.18-1.12.94.94,0,0,1,.92,0,3.83,3.83,0,0,0,1.67.49c.89.07,4.56-.06,6.79-.19a4.09,4.09,0,0,1,1.54-.33,1.89,1.89,0,0,1,.85.2,4.13,4.13,0,0,1,1.38,1.27,1,1,0,0,1-.14,1c-.26.36-1.14,1.34-1.5,1.7s-1,1-1.64,1.54a29.76,29.76,0,0,1,3.6,1,2.92,2.92,0,0,1,1.41,1.68,2.76,2.76,0,0,1,.07,1.34,2.68,2.68,0,0,1-2.66,1.31,3.86,3.86,0,0,1-1.7-.75c-.85-.53-2.53-1.61-3.57-2.23a31.21,31.21,0,0,1-2.95,2.19A5.43,5.43,0,0,1,328.66,331Z"/><path class="cls-7" d="M374.11,327.33c0,2.33.07,5.47,0,7.54,0,1.28-.13,4.56-.19,5.67a4.83,4.83,0,0,1-.76,2.69c-.62.85-1.7,2.06-2.1,2.68a3.58,3.58,0,0,0-.62,1.58,2.75,2.75,0,0,1-.78-1.8c-.1-.69-.3-2.3-.37-3.64-.09-2.26-.13-3.25-.06-6.72,0-.26,0-.66,0-1.15a12.57,12.57,0,0,1-2.33.1,5.68,5.68,0,0,1-1.93-1c0,1-.1,2.1-.2,3.08a2,2,0,0,1,.69,2c-.1.85-1.93,1.38-3.44,1.38-.69,0-4.92-.1-7.08-.26a1.86,1.86,0,0,1-1.28.45c-1.31,0-1.83-1.18-1.93-2.62-.1-1.24-.23-8.49-.26-10.65a4.16,4.16,0,0,1-.43-.66,1.21,1.21,0,0,1-.06-1.24,9.18,9.18,0,0,1,1.63-1.61c.59-.42.95-.23,1.51.1a4.37,4.37,0,0,0,2.3.53c.78,0,2.78,0,3.8-.07a15.9,15.9,0,0,0,1.64-.26c2.23-.2,2.91.78,3.54,2.29a1.52,1.52,0,0,1-.2,1.35l-.07,2.59a15.35,15.35,0,0,1,2.53-.37c.39,0,1.08,0,1.7.1.07-2.82.17-5.67.13-6.65,0-1.28-.36-1.38-.82-2.2-.29-.52-.46-.65-.32-1.05.29-.85,1.77-1.44,2.78-1.5a1.35,1.35,0,0,1,1.12.32,8.72,8.72,0,0,1,1.47,1.74,3.2,3.2,0,0,1,.4,1.67Zm-18.12.53c0,1.86.1,5.34.1,7.5,1.08,0,2.91,0,4.52.1,0-1.87.1-5.8.06-7.57C360.18,327.89,358,327.92,356,327.86Z"/><path class="cls-7" d="M399.28,339.06c0,1.41-.2,3.38-1.08,4.43a21.2,21.2,0,0,0-2.82,4.23,23.54,23.54,0,0,1-1.31-6.49c0-1.28,0-2.92,0-4.69a10,10,0,0,1-2.82,1.64,16.56,16.56,0,0,1-3.37.56c-1,0-3.48,0-5.25.19a10,10,0,0,1-3,.07c-.95-.39-1.24-1.54-1.44-2.39a1.88,1.88,0,0,1,1.08-2.13c0-1.71,0-3.61-.1-5.15a3.12,3.12,0,0,0-.69-2.29c-.52-.69-.59-1.18.63-2.36,1.37-1.32,1.8-1.35,3.18-.17,1.6,1.38,1.9,1.71,2,3.94.07,1.93.1,4.29.07,5.76,2.42-.09,5-.19,7.7-.45l2.06-.17c.07-3.64.1-7.34-.13-9.64a4.56,4.56,0,0,0-1.08-3c-.82-.92-.55-1.48.53-2.43s1.64-1.08,2.72-.23a6.43,6.43,0,0,1,2.95,5.51C399.24,328.31,399.34,336.05,399.28,339.06Z"/><path class="cls-7" d="M430.18,333.85a5.81,5.81,0,0,1-1.57.82,6.81,6.81,0,0,1-2,0c-1-.1-3.54-.3-4.39-.33-2.75-.1-5.8.06-8.72.06-.92,0-5.18.23-6,.3a8.54,8.54,0,0,1-3.37-.46c-.89-.39-1.84-1-1.84-1.31a1,1,0,0,1,.1-.62,9.67,9.67,0,0,1,1.7-1.58c.23-.16.73,0,1.05.1a2.13,2.13,0,0,0,.82.23c2,0,7.67.1,9.87,0,1.08,0,5.44-.06,6.65-.13.72,0,2.4-.13,2.82-.1a9.9,9.9,0,0,1,2.43.5,6.47,6.47,0,0,1,2.36,1.5A.79.79,0,0,1,430.18,333.85Zm-3.31,10.92c.49.72.49,1.05-.92,1.87s-2.85.82-4.75.95a44.86,44.86,0,0,1-5.54,0,8.05,8.05,0,0,1-4.55-1.38,17.78,17.78,0,0,1-4-4.32,1.45,1.45,0,0,1-.1-1.41,4.27,4.27,0,0,1,2.36-.66,1.24,1.24,0,0,1,1,.43,39.77,39.77,0,0,1,6-.26l3.93.19a5.32,5.32,0,0,1,.19-1.34h-.06c-1.28-.1-7.08-.1-8.29-.1a4.49,4.49,0,0,1-1.61-.23,10.34,10.34,0,0,1-1.7-.92c-.46-.33-.69-.59-.4-1.18a2.59,2.59,0,0,1,.85-1.11,1.23,1.23,0,0,1,1.12,0,3.51,3.51,0,0,0,2.1.49c1.47,0,5.7-.06,9-.06a15.39,15.39,0,0,1,2.4-.13,1.93,1.93,0,0,1,1.41.55c.45.46.55.76.45,1.15a1.26,1.26,0,0,1-.55.79,23.22,23.22,0,0,1-.92,3.37v.13a2.09,2.09,0,0,1-.39.79,1.36,1.36,0,0,1-1.22.46c-.85,0-4.45-.16-6.13-.2-.91,0-2.36,0-3.67.07l.07.06a2.88,2.88,0,0,0,1.57,1.05c.89.13,5.35.23,6.46.2a13.32,13.32,0,0,0,3.28-.49,1.54,1.54,0,0,1,1.54.16A3.69,3.69,0,0,1,426.87,344.77Zm-18.58-20a1.28,1.28,0,0,1,0-1.05c.23-.46.39-.46,1-.59a15.35,15.35,0,0,1,2.86-.32c1.76.09,5.7,0,7.34,0l.13-1.38a14.55,14.55,0,0,1-1.61.13c-1.34,0-4.26.13-5.34.1a4,4,0,0,1-1.87-.4c-.26-.13-1.28-.72-1.64-1s-.82-.49-.62-.85a3.89,3.89,0,0,1,1.41-1.34.84.84,0,0,1,.75,0,8.47,8.47,0,0,1,1,.49,2.63,2.63,0,0,0,1.38.3c.62,0,2.85-.13,3.47-.16,1.35-.07,2.4-.17,3.09-.23a17.41,17.41,0,0,1,3,0,3.64,3.64,0,0,1,1.83,1.08c.2.33.33.46.17.78a26.5,26.5,0,0,0-1.38,3.64c.13.13.1.3,0,.53a1.94,1.94,0,0,1-.85.85,2.47,2.47,0,0,1-1.34.2c-.82,0-2.66,0-4.92.06-.69,0-1.9,0-3.15,0l.07,1.22c1.28,0,4,.06,5.08.06,1.21,0,2.46-.1,3.47-.19a8.78,8.78,0,0,1,2.27,0,3.57,3.57,0,0,1,1.5,1.12,3,3,0,0,1,.72,1.28c0,.13-.06.29-.42.55a2.09,2.09,0,0,1-1.31.33c-.62,0-1.74,0-2.36,0-1.74-.1-4.69-.23-6.52-.16a20.28,20.28,0,0,0-2.4.16,7.58,7.58,0,0,1-2,0,3.35,3.35,0,0,1-1.68-.49,1.32,1.32,0,0,1-.59-.92,1.9,1.9,0,0,1,.43-1c-.07-.69-.16-1.51-.26-2.06C408.65,325.4,408.48,325.23,408.29,324.74Z"/><path class="cls-7" d="M467.67,332.05a5.48,5.48,0,0,1-1.54.92,4.28,4.28,0,0,1-2,.23c-1-.1-3.54-.23-4.39-.26-2.75-.1-5.8,0-8.72,0-.92,0-5.18.26-6,.33a9.26,9.26,0,0,1-3.37-.43c-.92-.36-1.87-1-1.87-1.28a.91.91,0,0,1,.1-.62c.26-.39.62-1.31.92-1.71a1,1,0,0,1,1-.19,4.12,4.12,0,0,0,1.58.33c1.14,0,3.54,0,5.77-.07a11.83,11.83,0,0,0,0-1.21c0-.79-.39-1.05-.42-1.54,0-.69.69-1.15,1.73-1.38a5.71,5.71,0,0,1,2.33,0c.49.17,1,.46.95,1.08a7.18,7.18,0,0,0-.06,1.28c0,.4,0,1,0,1.64.82,0,2.29,0,3.6-.06a34.73,34.73,0,0,1-.16-5.71c-2.49.07-5.83.17-7.18.1a5.69,5.69,0,0,1-2.39-.36,4.92,4.92,0,0,1-2-1.31.68.68,0,0,1-.17-.72,4.87,4.87,0,0,1,1.09-1.74c.55-.56.85-.42,1.63-.13a6,6,0,0,0,2.07.36c.95,0,6.29-.16,6.72-.2.82-.06,2.78-.32,3.28-.32a2.32,2.32,0,0,1,1.27.39,3.11,3.11,0,0,1,1.38,1.61,1.54,1.54,0,0,1,0,.95,6.23,6.23,0,0,1-.56,1.05c-.19,1.93-.59,4.49-.88,5.86a11.27,11.27,0,0,1,1.38-.06,9.34,9.34,0,0,1,2.42.46,6.42,6.42,0,0,1,2.39,1.7A.79.79,0,0,1,467.67,332.05Zm-3.21,12.29c.42.79.26,1.35-1,2.13a9.55,9.55,0,0,1-4.75,1c-2,.06-4.46.09-5.84,0a7.58,7.58,0,0,1-4.55-1.64,17.17,17.17,0,0,1-3.25-4.76,1.52,1.52,0,0,1,0-1.41c.3-.36,1.61-.45,2.4-.45a1.43,1.43,0,0,1,.39.09c4.06,0,7.51,0,9.9-.23l.1-1.21h-.1c-1.28-.1-7.47,0-8.69,0a6.39,6.39,0,0,1-2.88-.65,1,1,0,0,1-.53-1.25,3.55,3.55,0,0,1,.79-1.57,1,1,0,0,1,1.05-.13,6.36,6.36,0,0,0,2.26.36c1.48.06,6.36,0,8.72-.13a19.66,19.66,0,0,1,2.49-.14c1.41.1,2,.79,1.84,1.68a2.81,2.81,0,0,1-.27.72h0a20.19,20.19,0,0,1-.79,3.7c0,.07,0,.1,0,.17a1.84,1.84,0,0,1-.33.78,1.5,1.5,0,0,1-1.21.62c-3.41,0-6.62,0-10.1,0l.2.27a2.6,2.6,0,0,0,1.51,1.14c.88.13,5.34.17,6.45.13a9.76,9.76,0,0,0,3.74-.68,1.25,1.25,0,0,1,1.41.36A6.61,6.61,0,0,1,464.46,344.34Z"/><path class="cls-7" d="M495.56,335.79c0,1-1.48,1.8-2.92,1.87-.46,0-1.15,0-1.77,0,0,.52,0,1,0,1.41a14.88,14.88,0,0,1-3.74,8.62,8.06,8.06,0,0,0-.92-3.28,12.12,12.12,0,0,1-.56-5.28l.07-1.6a14.85,14.85,0,0,1-3.21,1.8,8.1,8.1,0,0,1-2.36.66c-1.93.19-4.33.32-5.87.42-1.21.07-3.24.13-3.7-.26a2.66,2.66,0,0,1-.59-1.71,1.81,1.81,0,0,1,.26-1,1.37,1.37,0,0,1,.46-.56c-.1-1.34-.13-2.82-.2-4.16a4.78,4.78,0,0,1-.72-2.27,2.09,2.09,0,0,1,1.84-1,11.5,11.5,0,0,1,1.73.2c.56,0,2.3,0,3,0h1.24l0-2.1c-1.67,0-3.18,0-3.51,0a4.88,4.88,0,0,1-3.41-1.64c-.55-.59-.55-1.08.3-2.17.56-.68.92-.85,1.31-.75.56.13,1.15.29,1.77.49,1.15,0,4.29-.13,5.24-.26a7.26,7.26,0,0,1,1.38-.13,2,2,0,0,1,1.9,2.33c-.23.68-.42,1.41-.59,1.93a5.36,5.36,0,0,0-.06.69c0,.23.06,1.28.09,2a6.55,6.55,0,0,1,.14,1.41,2.59,2.59,0,0,1-.79,1.54,1.7,1.7,0,0,1-1.54.59c-1,0-3.18,0-4.95,0,0,.62.06,1.54.13,2.46,3.11-.26,7.15-.52,8.46-.52a18.34,18.34,0,0,1,2.36.16c.09-4.26.13-9.21,0-12-.1-1.7-.32-2.39-.91-3.08-.79-.91-.43-1.31.68-2.23s1.51-1.08,2.63-.26c2.06,1.54,2.49,2.43,2.62,4.85.16,2.59.2,6.36.2,9.74.26-.07.52-.1.72-.17a2.15,2.15,0,0,1,2,.59C494.38,333.89,495.56,335.16,495.56,335.79Z"/><path class="cls-7" d="M523.12,334.8a2.42,2.42,0,0,1-.82,1.41,4.35,4.35,0,0,1-2.92,1.18c-.59-.06-2.46-.19-3.51-.23-.65,0-2,0-3.73,0v5.11a5.68,5.68,0,0,1-1.55,4.23,8.55,8.55,0,0,0-1.27,1.37,4.28,4.28,0,0,0-.72-1.37,7.18,7.18,0,0,1-1.38-3c-.13-.85-.1-3.63-.07-6.26-2.85.1-5.47.2-6.32.3a4.71,4.71,0,0,1-3.44-.82,5.6,5.6,0,0,1-1.61-1.61.81.81,0,0,1,0-.82,9.1,9.1,0,0,1,1.08-1.57,1,1,0,0,1,1.21-.06,5.06,5.06,0,0,0,2.76.52c2.69-.1,13.73-.23,16.22-.43a14.67,14.67,0,0,1,5,.66A1.46,1.46,0,0,1,523.12,334.8ZM502.89,331a11.51,11.51,0,0,1-3.41-1.83,5.48,5.48,0,0,0,2.89-.59,34.47,34.47,0,0,0,6.55-4.56c-1.31.1-2.49.13-3,.13a5.1,5.1,0,0,1-2.33-.82,5.86,5.86,0,0,1-1.41-1.44.69.69,0,0,1,.07-.78,6.11,6.11,0,0,1,1.18-1.12.92.92,0,0,1,.91,0,3.88,3.88,0,0,0,1.68.49c.88.07,4.55-.06,6.78-.19a4.13,4.13,0,0,1,1.54-.33,1.89,1.89,0,0,1,.85.2,4,4,0,0,1,1.38,1.27,1,1,0,0,1-.13,1c-.26.36-1.15,1.34-1.51,1.7s-1,1-1.64,1.54a30.58,30.58,0,0,1,3.61,1,3,3,0,0,1,1.41,1.68,2.73,2.73,0,0,1,.06,1.34,2.67,2.67,0,0,1-2.65,1.31,3.89,3.89,0,0,1-1.71-.75c-.85-.53-2.52-1.61-3.57-2.23a28.83,28.83,0,0,1-2.95,2.19A5.42,5.42,0,0,1,502.89,331Z"/><path class="cls-7" d="M537.89,338.11a1.8,1.8,0,0,1-1.21,1.61,2.82,2.82,0,0,1-3.08-1.34L531.73,336a17,17,0,0,1-1.77,2.49,3.81,3.81,0,0,1-3.67,1.47A9.46,9.46,0,0,1,523,338.7a3.73,3.73,0,0,0,2-1.18,22.77,22.77,0,0,0,5.11-8.58c.33-1,.43-1.48,0-1.87s-.59-.56-.49-.95a5.76,5.76,0,0,1,.92-1.57c.32-.4.62-.4,1.21-.2a9.11,9.11,0,0,1,2.69,1.34c1,.89.69,2.13.26,3.77a21.1,21.1,0,0,1-1.18,3.21c.88.66,2.92,2.4,3.44,2.89A2.57,2.57,0,0,1,537.89,338.11Zm5.74-12.22c.06,3.83,0,9.31-.07,11.63a10.86,10.86,0,0,1-.85,4.26c-.79,1.45-1.74,2.92-2.36,4a20.65,20.65,0,0,1-1.18-6.19c0-1.61,0-3.48.1-5.35-.3,0-.56,0-.79,0a4.32,4.32,0,0,1-2.42-1c-.53-.46-1.25-1.34-1-1.83a2,2,0,0,1,1-1,8.72,8.72,0,0,1,3.31-.33c0-1.31,0-2.55,0-3.67a4.33,4.33,0,0,0-1-3.05c-.46-.62-.49-1.31.4-2.13,1.05-1,1.47-1.11,2.49-.29C543.2,322.48,543.59,323.5,543.63,325.89Zm6.22-2.66c-.06,4.49,0,12.85-.09,15.87a12.42,12.42,0,0,1-3.51,8.62,17.17,17.17,0,0,0-.62-3,15.55,15.55,0,0,1-.5-3.31c-.26-4.43.43-13.47.27-17.57a4.71,4.71,0,0,0-.89-3.15c-.69-.82-.49-1.31.43-2.19s1.51-1,2.46-.27C549.36,319.79,549.89,320.81,549.85,323.23Z"/><path class="cls-7" d="M581.25,341.82c-.1,1.24-2.62,1.9-4.33,1.57a37.1,37.1,0,0,0-4-.36c-2.56-.06-13,.16-15.17.36a3.85,3.85,0,0,1-3.48-1.18,6.21,6.21,0,0,1-1.34-2.13.67.67,0,0,1,.23-.79,11.29,11.29,0,0,1,1.64-1.27,1.22,1.22,0,0,1,1.37.19,3.4,3.4,0,0,0,2.53.76l2.65-.07a10.34,10.34,0,0,0-.26-1.67c-.3-1-.66-1-.33-2a2.41,2.41,0,0,1,1.34-1.18,5.81,5.81,0,0,1-3.67-5.31c0-3.18,3.9-5.6,7.08-6.16a2.89,2.89,0,0,1,1.81-.56,10.41,10.41,0,0,1,5.67,2,6.88,6.88,0,0,1,2.82,5.67,5.39,5.39,0,0,1-3.38,4.56,1.92,1.92,0,0,1,1.31,2.06c0,.36-.1,1.28-.2,2.23,1.38-.1,2.82-.2,3.41-.26,1.25-.13,2.59,1,3.48,1.83A2.38,2.38,0,0,1,581.25,341.82Zm-18.06-13.28c0,1.41,1.64,2.3,3.47,2.36a6.6,6.6,0,0,1,2.2.3,2.37,2.37,0,0,0,2.1-2.43,2.68,2.68,0,0,0-1.74-2.26,6,6,0,0,0-1.64-.49,11.58,11.58,0,0,0-1.67.2C564.24,326.58,563.19,327.4,563.19,328.54ZM566,338.8l2.88-.06A16.85,16.85,0,0,0,569,337c0-.53-.29-1-.13-1.54a1.33,1.33,0,0,1,.36-.59,7.23,7.23,0,0,1-.79-.07,8.7,8.7,0,0,1-2.23.16c-.32,0-.65,0-1,0A11.63,11.63,0,0,1,566,338.8Z"/><path d="M180.54,343.6c.17-.62.36-.84,1.14-.84a5.38,5.38,0,0,0,2.91-.26c.23-.12.69.17,1.09.28a4.56,4.56,0,0,1,.12.71.85.85,0,0,1-.75.94c-.75.09-1,.57-1.29,1s-.37.7-.93.73c-.17,0-.4.22-.57.37-.91.82-1.85,1.64-2.72,2.5s-1.49,1.59-2.21,2.41c-.24.26-.39.58-.61.86a1.15,1.15,0,0,1-1.35.5l-2,2.75a3.9,3.9,0,0,0-.25.36c-.53.88-.82,1-1.93.8-.22-1.41.1-1.91,1.28-2.06a2.91,2.91,0,0,1,1.38-2.22,6.39,6.39,0,0,0,1.67-1.51A28.52,28.52,0,0,1,179,346.8a6.22,6.22,0,0,0,.45-.53c-1.28-.25-2.14.46-3.05.81a18.56,18.56,0,0,1-3.49,1.36.94.94,0,0,0-.32.15,27.73,27.73,0,0,1-4.41,2.25,20.26,20.26,0,0,0-2.95,1.72c-1.44.95-2.82,2-4.22,3a9.3,9.3,0,0,1-1,.64,2.44,2.44,0,0,0-1.31,1.21.94.94,0,0,1-.45.49c-1.53.6-2.17,1.92-3.18,2.92a43.1,43.1,0,0,0-4.77,6c-.33.47-.85.85-.85,1.45,0,.23-.36.53-.58.78-.35.41-.86.74-.72,1.33.05.19-.23.51-.42.74a5.7,5.7,0,0,0-1.09,2.75,12.51,12.51,0,0,1-.66,1.82,3.31,3.31,0,0,0-.22.47,38.53,38.53,0,0,0-.61,4.33c0,.76-.21,1.51-.28,2.25a14.42,14.42,0,0,0,.24,2.7,11.33,11.33,0,0,1,.06,1.65c0,.18-.28.38-.43.57-.21-.12-.58-.2-.61-.37-.25-2-.88-3.87-.23-6a7.94,7.94,0,0,0,.11-1c.4-2,.2-3.93,1-5.92a24.09,24.09,0,0,1,2-4.35c.6-.91,1-1.91,1.6-2.82.7-1.06,1.69-2,2.27-3.12a7.52,7.52,0,0,1,2.05-2.34,2.48,2.48,0,0,0,.28-.36c.76-.88,1.47-1.8,2.3-2.63a34.48,34.48,0,0,1,3.37-3.12,31.91,31.91,0,0,1,4-2.9,11,11,0,0,0,2-1.47,2.55,2.55,0,0,1,2.22-.59c.27-.47.4-1,.75-1.22a4.11,4.11,0,0,1,1.65-.53,1.24,1.24,0,0,0,.91-.37,8.79,8.79,0,0,1,1.39-.92c.78-.61,1.82-.52,2.52-1.23.21-.22.73-.21,1.11-.32s.54-.2.94-.35c-.23-.12-.3-.21-.38-.2l-2.72.4a11.75,11.75,0,0,1-4.06.4,1.71,1.71,0,0,0-1,.08,4.78,4.78,0,0,1-2.47.17c-.54,0-.51-.32-.37-.69l1.49-.53a8.51,8.51,0,0,1,1-1.37c.47-.4.63-.31.83.38l1.21-.33a6.32,6.32,0,0,1,3.52-.11,2.74,2.74,0,0,0,1.32-.17,5.91,5.91,0,0,1,2-.23,8,8,0,0,0,1.19,0C178.88,343.44,179.78,343.07,180.54,343.6Z"/></svg>