<svg id="레이어_1" data-name="레이어 1" xmlns="http://www.w3.org/2000/svg" xmlns:xlink="http://www.w3.org/1999/xlink" viewBox="0 0 769.21 159.24"><defs><style>.cls-1{fill:none;}.cls-2{clip-path:url(#clip-path);}.cls-3{fill:#c18563;}.cls-3,.cls-4{stroke:#a46c4a;stroke-miterlimit:10;stroke-width:3px;}.cls-4{fill:#c58968;}.cls-5{fill:#f3f5de;}.cls-6{font-size:64.35px;fill:#5e3618;font-family:BMEULJIRO-KSCpc-EUC-H, BM EULJIRO;}.cls-7{letter-spacing:-0.02em;}</style><clipPath id="clip-path"><path class="cls-1" d="M-1269.09-854.4H129.74a14.17,14.17,0,0,1,14.17,14.17V131.43a14.17,14.17,0,0,1-14.17,14.17H-1269.09a14.18,14.18,0,0,1-14.18-14.18V-840.22A14.17,14.17,0,0,1-1269.09-854.4Z" transform="translate(-924.08 215.28) rotate(90)"/></clipPath></defs><g class="cls-2"><rect class="cls-3" x="-172.73" y="-59.29" width="299.65" height="69.91"/><rect class="cls-4" x="-296.82" y="10.63" width="299.65" height="69.91"/><rect class="cls-3" x="-172.73" y="80.54" width="299.65" height="69.91"/><rect class="cls-3" x="-296.82" y="150.45" width="299.65" height="69.91"/></g><path class="cls-5" d="M27.64,62.71a5.71,5.71,0,0,0-.58-1c-.16-.23-.31-.46-.44-.68l-.34-.52A15.51,15.51,0,0,1,23.5,54a46.78,46.78,0,0,1-.13-6.54c0-.4,0-.8,0-1.22-5.11.13-8.85.28-10,.37-.55,0-1.05.06-1.54.06a12.12,12.12,0,0,1-7.12-2.1,14,14,0,0,1-4-3.81,4.35,4.35,0,0,1-.16-4.69A25.81,25.81,0,0,1,3.24,32.5a4.5,4.5,0,0,1,3.23-1.38,5.73,5.73,0,0,1,2.62.69,5.71,5.71,0,0,0,2.95.67l1,0,.65,0a7.34,7.34,0,0,1-.95-2.84,5.57,5.57,0,0,1,1.38-4.32c0-.9-.05-1.82-.08-2.73a4.53,4.53,0,0,1-.66-1.42,5.65,5.65,0,0,1,1-4.83,8.24,8.24,0,0,1,1.8-1.65c-.28-.22-.55-.45-.83-.7-1.21-1-2.39-3-1-6A23.32,23.32,0,0,1,16,5.21L16,5.12a4.3,4.3,0,0,1,3.4-1.61A7.3,7.3,0,0,1,21.82,4a13.07,13.07,0,0,0,3.65.68h.85c2.27,0,6.33-.13,8.76-.21l1.66-.06c.58,0,1.17-.09,1.72-.15a19,19,0,0,1,2.29-.17h.52l.66,0a6.73,6.73,0,0,1,.89,0l.27,0a6.63,6.63,0,0,1,3.83,1.74c2.65,2.17,2.42,4.54,2,5.76a8,8,0,0,1-.8,1.95c0,1.08-.06,2.19-.06,3.15l.28.37.11.77a7.68,7.68,0,0,1-.61,4.82,6.2,6.2,0,0,1-.44.69,9,9,0,0,1,2.59,3c.58,1.09,1.64,3.1,1.06,5.1a12.21,12.21,0,0,1,4,.91,17.77,17.77,0,0,1,6.65,5.88,5.14,5.14,0,0,1,.46,4A4.33,4.33,0,0,1,60.05,45a12.66,12.66,0,0,1-5.63,1.24,15.53,15.53,0,0,1-1.8-.11c-.73-.08-3.22-.19-6.62-.3-.4,0-.92,0-1.58,0-1.26,0-3.07,0-5.3.07v5.32c0,4.32-1.31,7.83-3.9,10.42l-.54.51a13.22,13.22,0,0,0-1.52,1.61L29.1,70.47Z"/><path class="cls-5" d="M98.66,63.59C95.2,59,93.22,53.51,93.35,48.82c0-.52,0-1.12.06-1.78a18.08,18.08,0,0,1-7.08,1.78h-.72c-1.48,0-4.91.16-7.93.31-1.75.09-3.4.17-4.57.21h-.49a17.68,17.68,0,0,1-6.36-1.16L65.91,48c-1.82-.8-4.32-1.91-4.53-6.1a7.83,7.83,0,0,1,1-4.64c0-3.44-.14-7.15-.35-11.3-.28-.51-.87-1.46-1.15-1.91l-.31-.49a4.59,4.59,0,0,1,.09-5.51,15.31,15.31,0,0,1,2.44-2.57,4.84,4.84,0,0,1,3.11-1.1,8.05,8.05,0,0,1,2.38.43,12.78,12.78,0,0,0,3.33.28,38.15,38.15,0,0,0,3.81-.2l8.38-.9a8.55,8.55,0,0,1,.93,0c3.18,0,4.71,1.59,6.33,3.27l.17.19a11.48,11.48,0,0,1,2.23,3.26c0-2.19,0-4.15-.05-5.74,0-2.52-.64-3.21-1.47-4.17a5.55,5.55,0,0,1-1.53-4c.18-2.12,1.81-3.47,3.25-4.65s2.8-2.24,4.78-2.24a6.92,6.92,0,0,1,4.06,1.62C107.62,5.09,109,7.76,109,13.45c0,8.87.26,25.12.39,31.34a25.42,25.42,0,0,1-1.84,9.78c-.5,1.19-1.14,2.39-1.75,3.55A18.81,18.81,0,0,0,104,62.05l-.72,7.67ZM78,29.44c0,1.64,0,3.29,0,4.77,2.48-.1,4.88-.22,6.86-.39,1.63-.14,3.75-.21,5.82-.21.87,0,1.91,0,3,0,0-3,.09-6,.11-8.83-1.3,2.44-4.87,4-7,4.21-2.74.27-5.59.4-8.49.4Z"/><path class="cls-5" d="M137,62.71a4.66,4.66,0,0,0-.58-1L136,61l-.33-.52a15.52,15.52,0,0,1-2.79-6.5,50.19,50.19,0,0,1-.13-6.54c0-.4,0-.8,0-1.22-5.11.13-8.85.28-10,.37-.54,0-1,.06-1.54.06a12.15,12.15,0,0,1-7.12-2.1,13.77,13.77,0,0,1-4-3.81,4.33,4.33,0,0,1-.17-4.69,25.11,25.11,0,0,1,2.64-3.58,4.48,4.48,0,0,1,3.23-1.38,5.73,5.73,0,0,1,2.61.69,5.77,5.77,0,0,0,3,.67l1,0,.65,0a7.52,7.52,0,0,1-1-2.84,5.61,5.61,0,0,1,1.38-4.32c0-.9,0-1.82-.07-2.73a4.53,4.53,0,0,1-.66-1.42,5.64,5.64,0,0,1,1-4.83,8.62,8.62,0,0,1,1.81-1.65c-.28-.22-.56-.45-.84-.7-1.21-1-2.39-3-1-6a22,22,0,0,1,1.61-2.73l.07-.09a4.32,4.32,0,0,1,3.4-1.61,7.25,7.25,0,0,1,2.38.47,13.24,13.24,0,0,0,3.66.68h.85c2.27,0,6.32-.13,8.75-.21l1.67-.06c.58,0,1.16-.09,1.71-.15a19.29,19.29,0,0,1,2.3-.17h.52l.65,0a6.88,6.88,0,0,1,.9,0l.26,0a6.66,6.66,0,0,1,3.84,1.74c2.64,2.17,2.41,4.54,2,5.76a8,8,0,0,1-.81,1.95c0,1.08-.06,2.19-.05,3.15l.28.37.1.77a7.62,7.62,0,0,1-.6,4.82,5.1,5.1,0,0,1-.45.69,9,9,0,0,1,2.6,3c.57,1.09,1.63,3.1,1,5.1a12.32,12.32,0,0,1,4,.91,17.81,17.81,0,0,1,6.64,5.88,5.15,5.15,0,0,1,.47,4A4.34,4.34,0,0,1,169.44,45a12.66,12.66,0,0,1-5.63,1.24,15.66,15.66,0,0,1-1.8-.11c-.73-.08-3.21-.19-6.61-.3-.41,0-.93,0-1.58,0-1.27,0-3.07,0-5.3.07v5.32a14.15,14.15,0,0,1-3.91,10.42l-.53.51a12.6,12.6,0,0,0-1.53,1.61l-4.06,6.77Z"/><path class="cls-5" d="M208.06,63.59c-3.46-4.56-5.45-10.08-5.31-14.77,0-.52,0-1.12.05-1.78a18,18,0,0,1-7.08,1.78H195c-1.49,0-4.91.16-7.94.31-1.75.09-3.4.17-4.57.21H182a17.72,17.72,0,0,1-6.36-1.16L175.3,48c-1.82-.8-4.31-1.91-4.53-6.1a8,8,0,0,1,1-4.64c0-3.44-.13-7.15-.35-11.3-.27-.51-.87-1.46-1.15-1.91l-.3-.49a4.59,4.59,0,0,1,.08-5.51,15.72,15.72,0,0,1,2.44-2.57,4.84,4.84,0,0,1,3.11-1.1,8.06,8.06,0,0,1,2.39.43,12.73,12.73,0,0,0,3.32.28c1.27,0,2.69-.08,3.82-.2l8.37-.9a8.72,8.72,0,0,1,.94,0c3.17,0,4.7,1.59,6.32,3.27l.18.19a11.48,11.48,0,0,1,2.23,3.26c0-2.19,0-4.15-.06-5.74,0-2.52-.64-3.21-1.46-4.17a5.55,5.55,0,0,1-1.54-4c.19-2.12,1.82-3.47,3.26-4.65s2.8-2.24,4.77-2.24a6.92,6.92,0,0,1,4.06,1.62c4.8,3.58,6.18,6.25,6.18,11.94,0,8.87.25,25.12.38,31.34a25.23,25.23,0,0,1-1.84,9.78c-.5,1.19-1.13,2.39-1.74,3.55a18.94,18.94,0,0,0-1.77,3.93l-.71,7.67ZM187.42,29.44c0,1.64,0,3.29,0,4.77,2.47-.1,4.88-.22,6.86-.39,1.63-.14,3.74-.21,5.81-.21.88,0,1.91,0,3,0,0-3,.08-6,.11-8.83-1.31,2.44-4.88,4-7,4.21-2.75.27-5.59.4-8.49.4Z"/><path class="cls-5" d="M255.8,64c-1.48,0-6.43-.56-7.93-7.77-.14-.57-.49-2.28-1-5-.31-1.53-.61-3-.77-3.75a4,4,0,0,0-.68-1.74,5.63,5.63,0,0,1-1.69-3.42v-.19a5.29,5.29,0,0,1,1.42-3.8,8.39,8.39,0,0,1-3.87-2.64A6.36,6.36,0,0,1,239.58,31a82.19,82.19,0,0,0,.49-9.17,3.65,3.65,0,0,0-.57-2.33c-2.13-2.49-1.33-4.72-.39-6.38a11.32,11.32,0,0,1,4.45-4.33,5.19,5.19,0,0,1,2.71-.75,7,7,0,0,1,4.18,1.57c2.34,1.76,4.82,4.82,4.82,8.21,0,1.59,0,4.07,0,6.32A123.86,123.86,0,0,0,270.1,22.6c.15-2.38.25-5.21.34-8.72.06-2.47-.05-2.72-.72-3.83-.79-1.27-2.13-3.44-.18-6.1A12.89,12.89,0,0,1,273.32.79a6.82,6.82,0,0,1,3.08-.88,5.62,5.62,0,0,1,3.39,1.28,18.72,18.72,0,0,1,3.9,3.9c1.85,2.37,1.84,4.86,1.83,7.76v.73c0,6.48-.06,11.41-.2,16a17.34,17.34,0,0,1-2.25,7.52,6.1,6.1,0,0,1,2.05,3.39,5.53,5.53,0,0,1-.74,4.67c-.26,2.46-.67,5.57-1.07,8A4.86,4.86,0,0,1,284,55.6,7.43,7.43,0,0,1,281.88,61a7.54,7.54,0,0,1-5.48,2.24c-8,0-14,.06-17.89.11a4.71,4.71,0,0,1-1.76.63A6.63,6.63,0,0,1,255.8,64Zm5.61-13.89,5.23-.32,2.47-.15,0-.39h-.7c-2,0-4.22.07-7.11.21Zm9.08-14.3h.43l-.06-.13Z"/><path class="cls-5" d="M332.19,63.3a31.29,31.29,0,0,1-4.23-11c-.65,1.15-1.34,2.27-2,3.35-.82,1.34-1.6,2.6-2.08,3.56l-2.93,5.88-2.52-6.07c-.75-1.8-3.19-8.09-3.19-13.31,0-1.59,0-3.25,0-5a18.48,18.48,0,0,1-6.92,6.9,9,9,0,0,1-2.71,1,9.05,9.05,0,0,1-4,.85c-7.9-.17-14.51-7.73-14.51-16.51,0-7.2,4.18-14.71,10-18.19a7.22,7.22,0,0,1,5.64-2.57c5.4.07,10,4.28,12.7,9.42V20c0-2.62-.55-3.3-1.2-4.1-2.31-2.76-1.83-5.62,1.47-8.47a7.55,7.55,0,0,1,4.82-2.24,6.63,6.63,0,0,1,4.17,1.73l.83.68c-.24-2.58,1.89-4.5,2.75-5.27a7.14,7.14,0,0,1,4.76-2.35,6.75,6.75,0,0,1,4.11,1.7c4.62,3.61,5.9,6.16,6,11.84.1,7.22.08,18.84.07,26.54v4.84a24.93,24.93,0,0,1-1.82,9.81c-.52,1.13-1.15,2.27-1.76,3.37a22.05,22.05,0,0,0-2,4.21l-1.29,8.24ZM302.77,27.41a10.36,10.36,0,0,0-1.23,4.64,3.78,3.78,0,0,0,1,2.8,4.63,4.63,0,0,0,1.23-3.94A9.32,9.32,0,0,0,302.77,27.41Z"/><path class="cls-5" d="M390,63.3a31.48,31.48,0,0,1-4.22-11c-.65,1.15-1.34,2.27-2,3.35-.82,1.34-1.6,2.6-2.08,3.56l-2.94,5.88-2.51-6.07C375.46,57.26,373,51,373,45.75c0-1.43,0-2.92.05-4.46h0A10.33,10.33,0,0,1,368.4,40c-1.36,2.52-2.71,4.79-4,6.68a11.41,11.41,0,0,1-9.93,5.3c-.47,0-1,0-1.45-.06a29,29,0,0,1-9.09-2.52l1.81-5.63h0a5.19,5.19,0,0,0,2-.94l.61-.39c2.49-1.55,5.69-6.31,8.7-12.84-3.49-.1-7.52-2.54-9.45-4.89a4.61,4.61,0,0,1-.46-5,13.39,13.39,0,0,1,2.45-3.59,5.85,5.85,0,0,1,3.71-1.29,4.82,4.82,0,0,1,1.66.27l.9.35a4.64,4.64,0,0,0,2.48.56c1.2,0,4.1-.15,6.39-.33a8.3,8.3,0,0,1,2.86-.82h.4a8.88,8.88,0,0,1,4.72,1.71,6,6,0,0,0-.55-.75c-2.32-2.76-1.84-5.62,1.47-8.47a7.53,7.53,0,0,1,4.82-2.24,6.63,6.63,0,0,1,4.17,1.73l.83.68c-.25-2.58,1.89-4.5,2.74-5.27a7.19,7.19,0,0,1,4.76-2.35,6.81,6.81,0,0,1,4.12,1.7c4.61,3.61,5.9,6.16,6,11.84.11,7.22.09,18.84.07,26.53v4.85a24.93,24.93,0,0,1-1.82,9.81c-.53,1.13-1.15,2.27-1.76,3.37a21.45,21.45,0,0,0-2,4.21l-1.29,8.24Z"/><path class="cls-5" d="M7.51,146.79a4.8,4.8,0,0,1-4.16-2.27,11.92,11.92,0,0,1-2.21-6.08A6.07,6.07,0,0,1,6,132.35a24.41,24.41,0,0,1,4.45-.5s0-.75,0-.75c0-.53,0-1.63,0-3,0-4.41,0-11.78,0-13.77,0-.71,0-1.47,0-2.27a7.72,7.72,0,0,1-1.68.2,5.46,5.46,0,0,1-4-1.7,18.58,18.58,0,0,1-2.87-4.29,4.93,4.93,0,0,1-.41-4,4.38,4.38,0,0,1,2.46-2.57c2.38-1.06,9.49-4.37,11.06-5.18a7.82,7.82,0,0,1,3.65-1.09A5.48,5.48,0,0,1,22.28,95a12.18,12.18,0,0,1,3.34,5,4.6,4.6,0,0,1-.15,3.08,11.54,11.54,0,0,1,.07,1.34c0,1.11,0,2.24,0,3.37s0,2.31,0,3.45c0,2,0,3.87,0,5.69s0,3.62,0,5.64c0,1,0,2,0,3a60.1,60.1,0,0,1-.13,6.14c3.73.1,5.62,2.54,7.11,4.84.92,1.46,2.28,4.76.95,7-1.86,3.26-5.89,3.26-7.22,3.26h-.51l-8.09-.33-1.92,0c-2,0-3.42.12-5.53.3L8,146.77Z"/><path class="cls-5" d="M50.31,147.74A17.15,17.15,0,0,1,37.92,142c-4.77-5.06-7.52-13-7.17-20.62.34-9.37,4.66-19,10.59-23.78a3.84,3.84,0,0,1,.64-.86,10.42,10.42,0,0,1,8.11-3.26c10.64,0,20.15,9.83,21.19,21.92,1.27,14.3-3.4,25.81-12.17,30a11.25,11.25,0,0,1-3.31,1,10.68,10.68,0,0,1-5.46,1.28Zm.44-39.18a22.85,22.85,0,0,0-4.61,12.75c-.14,8.32,3,10.25,5.45,11a5.08,5.08,0,0,1,.51.17c2.38-1.46,4.53-6.24,4.25-13.2C56.18,114.49,54,110.43,50.75,108.56Z"/><path class="cls-5" d="M115.33,152.06c-1.91-3.22-4.12-7.89-4.39-12.53-.15.32-.3.63-.47.92-.73,1.32-1.57,2.65-2.39,3.94s-1.67,2.65-2.16,3.62l-3,6.06-2.46-6.31c-.91-2.35-3-8.34-3-13.31.07-4.14.22-9,.37-13.69,0-.15,0-.29,0-.44a111,111,0,0,1-7.47,14.59,12,12,0,0,1-10.43,5.55,12.75,12.75,0,0,1-1.38-.07,29.51,29.51,0,0,1-9.21-2.7l1.8-5.63h0A5,5,0,0,0,73.27,131l.31-.21c2.28-1.63,5.4-6.25,8.46-12.46A11.29,11.29,0,0,1,76,116a18.33,18.33,0,0,1-3.07-2.58,4.61,4.61,0,0,1-.47-5,12.31,12.31,0,0,1,2.46-4,5.86,5.86,0,0,1,3.71-1.3,4.76,4.76,0,0,1,1.65.28l1.29.51a3.22,3.22,0,0,0,1.84.39c1.21,0,4.42-.16,6.9-.34a10.08,10.08,0,0,1,3-.81h.36a7.2,7.2,0,0,1,2.75.63,5,5,0,0,1-.8-3.14c.17-2,1.59-3.44,3-4.58a7.4,7.4,0,0,1,4.74-2.17,6.71,6.71,0,0,1,4.21,1.76c.49.4.94.8,1.36,1.19-.6-2.84,1.76-5,2.67-5.79,1.25-1.13,2.75-2.34,4.76-2.34a6.75,6.75,0,0,1,4.11,1.7c4.62,3.61,5.9,6.16,6,11.84.1,7.22.08,18.84.07,26.53v4.85a24.93,24.93,0,0,1-1.82,9.81c-.52,1.13-1.15,2.27-1.75,3.37a21.33,21.33,0,0,0-2,4.21l-1.29,8.24Z"/><path class="cls-5" d="M167,151.28a19,19,0,0,0-1.57-3.51,29.6,29.6,0,0,1-1.49-3.13,20,20,0,0,1-1.22-6.75,56.37,56.37,0,0,1-6.67,1.57,168.83,168.83,0,0,1-19.6,1.46,17,17,0,0,1-4.11-.56,9.25,9.25,0,0,1-5.1-3.41,6.48,6.48,0,0,1-1-3.53c0-3.18,1.24-5.7,3.33-6.74a5,5,0,0,1,2.29-.57,6.77,6.77,0,0,1,1.71.26,9.9,9.9,0,0,0,2,.19c1,0,2.94-.07,5.18-.17-5.44-2.23-9.11-6.91-9.27-12.58-.18-5.91,5.06-12.69,10.78-14l.29-.07a3.07,3.07,0,0,1,.49-.43,6.89,6.89,0,0,1,4.18-1.45,8,8,0,0,1,1.35.12c6,1,12.44,5.57,14.64,11.36,0-2.21,0-4.16,0-5.73-.05-2.48-.65-3.17-1.47-4.13a5.55,5.55,0,0,1-1.53-4c.18-2.13,1.81-3.47,3.25-4.66s2.8-2.24,4.78-2.24a7,7,0,0,1,4.06,1.63c4.79,3.58,6.17,6.25,6.17,11.94,0,8.89.19,26.63.39,32.59.23,7.54-1.82,12.88-6.88,17.87l-3.71,3.66Zm-3.85-32.85a14.06,14.06,0,0,1-5.81,6.82c2-.21,3.83-.46,5.7-.75C163.08,122.44,163.12,120.4,163.15,118.43Zm-17.41-5.37a2.49,2.49,0,0,0,2,.88c1.38,0,2.14-.74,2.14-1a2.41,2.41,0,0,0-1.09-1.63,3.75,3.75,0,0,1-1.13.18,3.65,3.65,0,0,1-.93-.12A3.15,3.15,0,0,0,145.74,113.06Z"/><path class="cls-5" d="M236.14,154c-2.52-.72-3.92-5.11-3.93-5.15a22.93,22.93,0,0,1-.7-5.07c0-.44,0-.95,0-1.51s0-1.05,0-1.63c-5.08.09-11.11.24-13.58.34h-.58c-4.06,0-7.07-1.88-9.58-3.64A4,4,0,0,1,206,133.2a11,11,0,0,1,.61-2.24h0a18.86,18.86,0,0,1-4.7-.62c-2.61-.74-5.58-3.56-5.58-6.12,0-3.71,5.25-7.13,8.56-7.31.56,0,2.66-.11,5.57-.19a5,5,0,0,1-.75-2.8,80.82,80.82,0,0,0-.31-10c0-.59-.1-.71-.76-1.47a4.25,4.25,0,0,1-.66-5.23,17.09,17.09,0,0,1,5.58-4.54,5.62,5.62,0,0,1,1.91-.34,4.79,4.79,0,0,1,3,1,13.88,13.88,0,0,1,3.69,4l.7-.06c2.1-.16,4.27-.33,5.61-.38h.17a3.8,3.8,0,0,1,.07-1.11,4.85,4.85,0,0,1,1.42-2.51c.74-.75,3.15-2.77,5.33-3.15a5.58,5.58,0,0,1,1-.09,6,6,0,0,1,3.27,1c1.12.74,4.61,3.33,4.61,6.71,0,1.74.14,3.68.3,5.73a67.55,67.55,0,0,1,.27,9.33,6.89,6.89,0,0,1-.88,2.87,28.3,28.3,0,0,1,4.37.37,14.21,14.21,0,0,1,6.6,3.22c2.11,1.84,3.06,3.47,1.9,6.71-1,2.71-3,4.08-6.11,4.08-.66,0-1.34-.05-2.06-.1s-1.22-.09-1.84-.12a4.91,4.91,0,0,1,1.11,2.8,7.1,7.1,0,0,1-.6,3.25,46.69,46.69,0,0,1-.55,6c-.46,2.41-1.28,5.43-3.38,7.31-.84.76-1.55,1.41-2.25,2a25.2,25.2,0,0,0-2,1.9L238,154.51Z"/><path class="cls-5" d="M279.7,151.47a5.37,5.37,0,0,0-.58-1c-.16-.23-.31-.46-.44-.68l-.34-.52a15.51,15.51,0,0,1-2.78-6.5,84,84,0,0,1-.2-9.59c-3.54.13-7.72.3-9,.45-.66.06-1.22.09-1.76.09a11.74,11.74,0,0,1-7.05-2.22,14,14,0,0,1-4-4,4.46,4.46,0,0,1-.21-4.47l0-.1a19.33,19.33,0,0,1,2.83-4,4.63,4.63,0,0,1,3.12-1.22,5.7,5.7,0,0,1,2.58.67,6.11,6.11,0,0,0,3.15.73h.44a21,21,0,0,1-4.23-2.74l-6.33-6,8.67.81.58,0a8.46,8.46,0,0,0,3.58-.94,40.92,40.92,0,0,0,5.56-3.39,13.75,13.75,0,0,1-3.62-1.67,14.22,14.22,0,0,1-3.71-3.84,4.35,4.35,0,0,1,.48-5h0a14.84,14.84,0,0,1,3.12-2.83,4.81,4.81,0,0,1,2.37-.62,4.7,4.7,0,0,1,2.43.67,4.86,4.86,0,0,0,1.89.54c.34,0,.77,0,1.3,0,2.73,0,7.79-.2,11.2-.39a11.55,11.55,0,0,1,3.69-.67,7,7,0,0,1,3,.7c.73.39,3.32,2.09,4.13,4a5.06,5.06,0,0,1-.66,5c-.49.67-1.77,2.1-2.63,3,.91.29,1.69.56,2.2.75a8.66,8.66,0,0,1,4.56,5.11,8.09,8.09,0,0,1,.08,4.74,6.44,6.44,0,0,1-1.21,1.9,33.71,33.71,0,0,1,6.56,1.34,5.82,5.82,0,0,1,4.19,5.69,7.6,7.6,0,0,1-2.84,5c-1.59,1.16-4,2.93-7,2.93a6.77,6.77,0,0,1-.89-.06c-1-.11-4.65-.37-6.62-.43-.39,0-.84,0-1.38,0l-2.86,0v7.1c0,4.32-1.31,7.83-3.9,10.42l-.54.51a12.49,12.49,0,0,0-1.52,1.61l-4.07,6.78Zm5.37-35.76c-1.33,1.05-2.85,2.19-4.22,3.06l8.76-.2-1.77-1.12Z"/><path class="cls-5" d="M350.47,152.48c-1.84-1.38-2.4-3.54-2.71-5.47-.21-1.51-.6-4.72-.74-7.46-.18-4.17-.25-6.23-.15-12.35h-.51a9.36,9.36,0,0,1-1.4-.08l-.64-.15a.31.31,0,0,1,0,.1,7.32,7.32,0,0,1,1.23,5.33c-.49,4.24-6.35,5.37-9.74,5.37-1.38,0-8.57-.17-13.06-.45a6.85,6.85,0,0,1-3.35.83c-1.47,0-6.29-.57-6.79-7.94-.19-2.41-.43-15.45-.51-20.14q-.25-.42-.45-.78a5.36,5.36,0,0,1-.12-5.44,21.1,21.1,0,0,1,4.05-4.07,5.1,5.1,0,0,1,3-1,6.21,6.21,0,0,1,3.23,1.09,5.66,5.66,0,0,0,3,.61c1.47,0,5.37,0,7.27-.12a10.15,10.15,0,0,0,1.8-.28,10.43,10.43,0,0,1,1.34-.23q.71-.06,1.32-.06c6,0,7.81,4.33,8.67,6.41a5.67,5.67,0,0,1-.18,4.57l0,.73a15.87,15.87,0,0,1,1.87-.14h.42c0-.52,0-1,0-1.53.1-3.57.18-7,.14-8.24a2.36,2.36,0,0,0-.5-1.78c-.22-.33-.46-.7-.73-1.17l-.25-.43a4.5,4.5,0,0,1-.62-4c1.17-3.37,5.5-4.84,8.12-5l.57,0A5.43,5.43,0,0,1,358,90.63a18.85,18.85,0,0,1,3.42,4.13,9.21,9.21,0,0,1,1.12,4.68l-.06,11.09c0,1.46,0,3.1,0,4.79,0,3.58.06,7.29,0,10.08-.06,2.16-.25,8.87-.39,11.22v.23a11.78,11.78,0,0,1-2,6.6c-.61.84-1.36,1.76-2.08,2.64s-1.62,2-2,2.51a6.5,6.5,0,0,0-.76,1.58v5.9Zm-23.4-29.18,2.92.07c0-.91,0-1.88,0-2.87,0-2,.06-4.07.08-5.88h-.48l-2.68,0C327,117.31,327.05,120.51,327.07,123.3Z"/><path class="cls-5" d="M398.58,151.45c-1.23-3.83-2.65-8.84-2.72-13.61,0-1.17,0-2.43,0-3.79a11.46,11.46,0,0,1-1.69.65,35.09,35.09,0,0,1-7.44,1.2c-2.22,0-6.83.08-10,.38l-.87.08c-1.28.11-2.61.24-3.73.24a6.43,6.43,0,0,1-2.64-.43c-3.33-1.37-4.17-5-4.58-6.78a6.69,6.69,0,0,1,2.05-6.45c0-2.84,0-5.85-.19-8.32-.1-2-.15-2.1-.74-2.87-2.76-3.63-.64-6.5,1.52-8.6,1.58-1.51,3.16-2.85,5.31-2.85s3.56,1.18,5,2.4c3.78,3.23,4.75,4.63,4.91,9.91.09,2.77.15,5.77.15,8.29,3.79-.17,7.7-.37,11.81-.76l1.39-.12c.09-6.16.09-12.08-.29-15.84-.29-3.08-.84-3.69-1.37-4.28a5.85,5.85,0,0,1-1.7-4.19c.12-2,1.51-3.53,3-4.83,1.33-1.13,2.88-2.31,4.92-2.31a6.93,6.93,0,0,1,4.26,1.76c4.79,3.67,6.93,7.74,6.93,13.17.19,8.43.4,23.91.26,30.11-.07,3.18-.45,7.73-2.83,10.56a39.1,39.1,0,0,0-5.13,7.67l-3.27,6.74Z"/><path class="cls-5" d="M452.78,152.35c-3.46-4.56-5.44-10.08-5.31-14.77v-.22c.11-5.33.29-13.38.38-20.7-2.25,7.25-7.3,16.85-12,20.9-3.26,2.83-5.7,3.84-9.31,3.84-.66,0-1.38,0-2.27-.1a49.63,49.63,0,0,1-11.16-2.62l1-5.82a6.77,6.77,0,0,0,3-.73,31.88,31.88,0,0,0,14-14.22h-.52c-.61,0-1.2,0-1.75,0-4.5-.14-7.68-1.2-10.59-6.18a4.56,4.56,0,0,1,.62-5.64l.07-.08a12.74,12.74,0,0,1,2.73-2.42,4.8,4.8,0,0,1,2.5-.76,5.07,5.07,0,0,1,2.77,1A1.89,1.89,0,0,0,428,104h.23A74.6,74.6,0,0,0,439,102.83a9.58,9.58,0,0,1,2.18-.28c3.06,0,4.89,2,6.36,3.85.12.15.24.3.35.46,0-1.16,0-2.22,0-3.16-.05-2.52-.65-3.21-1.47-4.17a5.51,5.51,0,0,1-1.53-4c.18-2.13,1.81-3.47,3.25-4.66s2.8-2.24,4.78-2.24a6.9,6.9,0,0,1,4.05,1.63c4.8,3.58,6.18,6.25,6.18,11.94,0,3.76,0,8.83.09,13.74h.39a7.54,7.54,0,0,1,4.91,2c1.13,1,4.78,4.35,4.78,7.23,0,3.93-4.37,6.47-8.59,6.66-.36,0-.77,0-1.21,0,0,.63,0,1.21,0,1.72a25.34,25.34,0,0,1-1.85,9.72c-.5,1.19-1.13,2.39-1.74,3.55a18.3,18.3,0,0,0-1.76,3.93l-.72,7.67Z"/><path class="cls-5" d="M524.82,151.68c-3,0-9.19-.16-11.14-.28-4.26-.23-6.1-1.07-8.95-4.08-1.86-2-3.88-4.2-5.21-5.68l-.44-.48a8.68,8.68,0,0,0-2.2-1.88,5.42,5.42,0,0,1-3.33-5,5.08,5.08,0,0,1,1.08-3.29,12.85,12.85,0,0,1-3.49-.69,17.24,17.24,0,0,1-5.72-4,3.7,3.7,0,0,1-1-3.74,3.33,3.33,0,0,1,2.73-2.25,8.12,8.12,0,0,0,2.91-.81,40.52,40.52,0,0,0,7.56-7.11h-.34c-4.07-.18-7.36-2.91-9.09-5.41a4.79,4.79,0,0,1,.48-6.34l.39-.4c.45-.46,1.05-1.09,1.59-1.57a4.58,4.58,0,0,1,3.14-1.3,5.49,5.49,0,0,1,2.46.65,5.18,5.18,0,0,0,2.71.65l.66,0c3,0,9.67-.57,11.85-.76l.23,0a5.28,5.28,0,0,1,.61,0,6.26,6.26,0,0,1,5.12,2.77c1.51,2.16,2,4,1.39,6.19a14,14,0,0,1,1.45-.12h.9c0-1.55,0-3.2,0-4.9,0-.73,0-.76-.74-1.82-.14-.19-.33-.49-.54-.82s-.48-.76-.66-1l-.07-.1c-1.06-1.48-.94-3.5.33-5.4a9.68,9.68,0,0,1,4.19-3.26,6,6,0,0,1,1.74-.26,7,7,0,0,1,2.57.53,24.11,24.11,0,0,1,5,3.5,8.51,8.51,0,0,1,3,5.56,35.24,35.24,0,0,1,.29,5.76c-.09,2.36-.09,6-.1,9.44,0,4.28,0,8.31-.16,10.45a20.1,20.1,0,0,1-4.27,10.9,5.26,5.26,0,0,1,3.53,1.65,14.45,14.45,0,0,1,3,4.18c1.7,3.65,0,5.75-1.67,7.17-3.75,3.19-6.42,3.28-10.45,3.41h-1.44ZM509.18,129.4l.91,1.1c1.6,1.92,3.11,3.74,4.53,5.17.83.83,1,.84,2.22.93.9.08,2.91.13,4.83.13,1.31,0,2.45,0,3.29-.07h0l-.19-.41a17.22,17.22,0,0,0-1.39-2.19c-1.24-1.75-2.64-3.74-2.82-6.29l0-.45a7.23,7.23,0,0,1-1.14,1.7,6.63,6.63,0,0,1-4.88,1.78,10.36,10.36,0,0,1-5.49-1.56Zm-4.64-2a6.19,6.19,0,0,1,3,.71c-.21-.21-.41-.42-.6-.65s-.78-.9-1.32-1.6c-.57.61-1.09,1.13-1.57,1.55Z"/><path class="cls-5" d="M574.09,153.21c-2,0-11.76-.2-13.93-.26-4.36-.16-6.21-1-9-4-2.14-2.26-4.36-4.76-6.06-6.86a5.82,5.82,0,0,0-2-1.2,5,5,0,0,1-3-4.39c-.12-1.15.13-4,4.62-6.06a14.89,14.89,0,0,1-1.25-1.12,4.5,4.5,0,0,1-.61-5.58c.13-.21.31-.49.54-.8a5.83,5.83,0,0,1-4-5.54,7,7,0,0,1,1-4.29c-.07-3-.18-5.24-.33-7a10.71,10.71,0,0,1-.91-1.31,4.37,4.37,0,0,1,.08-5,11.39,11.39,0,0,1,2-2.12l.39-.35.07-.06a4.92,4.92,0,0,1,3.15-1.05,8.37,8.37,0,0,1,1.74.2,14.33,14.33,0,0,0,2.79.29c.26,0,.53,0,.81,0,2.09-.12,4.91-.42,7.77-.82a8.86,8.86,0,0,1,1.25-.09c3,0,4.92,1.72,6.28,3a10,10,0,0,1,2.5,3.24,10.42,10.42,0,0,0-.19-2.68c-.17-.2-.46-.51-.63-.69-.32-.35-.61-.66-.8-.91l-.08-.09c-1-1.49-.93-3.51.34-5.41a11.18,11.18,0,0,1,3.81-3.12A6.35,6.35,0,0,1,573,88.5a5.25,5.25,0,0,1,1.92.37,20.91,20.91,0,0,1,4.45,2.9,10.31,10.31,0,0,1,3.45,6.73,30,30,0,0,1,.29,5.25S583,105,583,105.58a7.65,7.65,0,0,1,4.74,2c4.65,4,4.65,6.19,4.65,6.91,0,3.55-3.53,6.18-8.59,6.41l-1.59,0a22.47,22.47,0,0,1-1.21,3.46l.27.33.1.14a5.94,5.94,0,0,1,1.63,3.64,6.68,6.68,0,0,1-1.12,3.36c-.35,1-1.34,4-1.73,5.2l-.21.64h.21a5.16,5.16,0,0,1,3.58,1.69,15.93,15.93,0,0,1,2.17,2.48l.33.43c3,3.95-.16,6.64-1.2,7.53C581.27,153.05,578.42,153.21,574.09,153.21Zm-18.7-42.83c1.29-.08,2.61-.18,3.91-.29,1.5-.13,3.5-.21,5.47-.21.83,0,1.83,0,2.84.06.1-1.55.17-3,.21-4.51-1.43,2.92-6.32,3.92-6.37,3.93a47.12,47.12,0,0,1-6.07.4C555.39,110,555.39,110.18,555.39,110.38Z"/><path class="cls-5" d="M635,153.05a8.29,8.29,0,0,1-5.09-1.6l-.77-.62c-1-.84-2.23-1.81-3.45-2.76a30,30,0,0,1-3,2.55,13.78,13.78,0,0,1-8,2.36,14.38,14.38,0,0,1-3.39-.37,18.36,18.36,0,0,1-5.36-2.2l-.89-.57a14,14,0,0,1-6.25,1.46,12.87,12.87,0,0,1-4-.62,19.2,19.2,0,0,1-5.33-2.86l-6-4.67,7.57-.69a7.88,7.88,0,0,0,3.78-1.45,32.36,32.36,0,0,0,8.17-8.8l.11-.17c.11-.18.31-.49.43-.71-2.16.18-4.21.27-6,.27h-1c-3.32-.09-5.46-1.67-7.34-3.07a5.32,5.32,0,0,1-2.13-5.24,7.54,7.54,0,0,1,1.77-4,4.57,4.57,0,0,1,3.17-1.46,7.45,7.45,0,0,1-.8-5.16,7.86,7.86,0,0,1,.56-1.81l-.25-5.21a6.33,6.33,0,0,1-.72-1.71,6.25,6.25,0,0,1,.8-5l.07-.13a5.15,5.15,0,0,1,4.61-3,5.55,5.55,0,0,1,1.26.15,6.2,6.2,0,0,0,1.4.15l.89,0c.83,0,2.09.06,3.51.06,2.1,0,4.35,0,5.33-.13A13.94,13.94,0,0,0,610,95.9a10.72,10.72,0,0,1,1.56-.15,5.52,5.52,0,0,1,2.33.5l.23.11a3.74,3.74,0,0,1,.24-.74,7.83,7.83,0,0,1,4.24-3.55,7,7,0,0,1,2.88-.65,5.28,5.28,0,0,1,3.66,1.38l.36.35a8.1,8.1,0,0,1,3.85-3.21,6.29,6.29,0,0,1,2.93-.72,5.33,5.33,0,0,1,3.82,1.54l.45.44c1.67,1.65,3.74,3.7,3.83,7.13.14,5.13-.07,21.9-.25,27.09-.16,5-4.15,8.56-6.79,10.57a11.2,11.2,0,0,1-.34,1.09c1.14.52,2.21,1,2.89,1.41a11.2,11.2,0,0,1,5.42,5.34c1.09,2.67.59,5.08-1.52,7.38A6.54,6.54,0,0,1,635,153.05ZM617,136l0-.65c-.07.17-.14.35-.22.51Zm-.73-6.43a2.29,2.29,0,0,1-.07-.28l-.13,0Z"/><path class="cls-5" d="M678.91,152.48c-2.09-1.56-2.5-4.2-2.71-5.47-.21-1.52-.6-4.75-.74-7.46-.18-4.22-.25-6.2-.16-11.83a7.17,7.17,0,0,1-1.32-.1,7,7,0,0,1-1-.27,19.62,19.62,0,0,1-9,9.38,8.07,8.07,0,0,1-2.07.79,8.37,8.37,0,0,1-4.85,1.54h-.36c-8.32-.16-15.68-8.24-15.68-17.28,0-7.58,4.47-15.5,10.74-19.21,1.67-2.46,4.3-2.8,5.78-3a6.24,6.24,0,0,1,.83,0,13.67,13.67,0,0,1,6,1.91,19.74,19.74,0,0,1,8.65,10.68,23.86,23.86,0,0,1,2.67-.28c0-.52,0-1,0-1.54.1-3.8.19-7.38.14-8.75a2.31,2.31,0,0,0-.5-1.77c-.22-.33-.46-.7-.73-1.17l-.25-.43a4.5,4.5,0,0,1-.62-4c1.17-3.37,5.5-4.84,8.12-5l.57,0a5.41,5.41,0,0,1,3.94,1.54,18.85,18.85,0,0,1,3.42,4.13A9.21,9.21,0,0,1,691,99.44l-.06,11.09c0,1.46,0,3.1,0,4.79,0,3.58.06,7.29,0,10.08-.06,2.17-.26,8.89-.39,11.22v.23a11.78,11.78,0,0,1-2,6.6c-.61.84-1.36,1.76-2.08,2.64s-1.62,2-1.95,2.5a6.67,6.67,0,0,0-.76,1.59v5.9ZM658,114.57a11.19,11.19,0,0,0-2.07,6.23,3.44,3.44,0,0,0,1.81,3.3,4.42,4.42,0,0,0,2-4.44A10.67,10.67,0,0,0,658,114.57Z"/><path class="cls-5" d="M743.17,145.2a13.34,13.34,0,0,1-2.41-.21,71.18,71.18,0,0,0-7.43-.66l-2.31,0c-7.37,0-23.49.39-27.13.72-.53,0-1,.06-1.48.06a10.08,10.08,0,0,1-7.73-3.25,14.81,14.81,0,0,1-3.18-4.91l-.08-.19a4.32,4.32,0,0,1,1.07-4.87,25.07,25.07,0,0,1,4-3.07,5,5,0,0,1,2.33-.58,6,6,0,0,1,3.41,1.18c1.41,1,1.75,1,2.57,1l.59,0,1.76,0c-.08-.19-.15-.35-.23-.52a5.57,5.57,0,0,1-.23-4.69,4.83,4.83,0,0,1,.46-1A13.7,13.7,0,0,1,702,113.28c0-8.13,9-13.51,15.71-14.93a8.91,8.91,0,0,1,4.73-1.26,23.43,23.43,0,0,1,13,4.58c4.59,3.71,7,8.7,6.65,13.69a13.34,13.34,0,0,1-4.77,9.24,7.76,7.76,0,0,1,.72,3.63c0,.25,0,.6,0,1,1.31-.1,2.44-.18,3-.25a6.06,6.06,0,0,1,.73,0c3.47,0,6.51,2.55,8.5,4.46a7.54,7.54,0,0,1,2.59,5.71C752.5,143.14,747.73,145.2,743.17,145.2ZM722.4,128.42c.09.49.16,1,.23,1.55h.12c0-.19,0-.37,0-.54a5.07,5.07,0,0,0-.11-.53c0-.15-.07-.31-.1-.49Zm.41-17.47a23.54,23.54,0,0,0-2.51.31c-1.89.41-2.93,1.15-2.93,1.63s1.49,1.55,3.93,1.64a19.31,19.31,0,0,1,4.38.46,1.78,1.78,0,0,0,.94-1.56c0-.26,0-1-1.75-1.85A8.45,8.45,0,0,0,722.81,111Z"/><path class="cls-5" d="M759,150.16a6.31,6.31,0,0,1-5.86-3.06c-1.88-3.43-.86-6,.53-8.19a11.28,11.28,0,0,1,3.2-3.16q.28-.19.57-.36v0a14.29,14.29,0,0,0-1.28-2.57,15.68,15.68,0,0,1-2.47-7,50.42,50.42,0,0,1,0-5.77c0-1.16.08-2.45.11-3.85.06-4.35-.08-10.19-.13-12.1a11.1,11.1,0,0,0-.78-4.47c-1.43-2.86-.59-5.24,2.5-7.07a9.77,9.77,0,0,1,5-1.67,6.17,6.17,0,0,1,4.48,2c2.87,2.88,4.16,4.93,4.16,9.46,0,2.36,0,5,0,7.71,0,5.38,0,11,0,14.18-.13,5.45-2,7.66-4.52,10.15a7.46,7.46,0,0,1,4.48,5.2c1,3.67-.83,7.33-4.68,9.31A12.3,12.3,0,0,1,759,150.16Z"/><text class="cls-6" transform="translate(2.28 51.48)">루디루디 님에게<tspan class="cls-7" x="0" y="88.76">1</tspan><tspan x="29.02" y="88.76">0개의 복주머니가 전달됐어요!</tspan></text></svg>