<svg id="레이어_1" data-name="레이어 1" xmlns="http://www.w3.org/2000/svg" xmlns:xlink="http://www.w3.org/1999/xlink" viewBox="0 0 144.84 128"><defs><style>.cls-1{fill:none;}.cls-2{clip-path:url(#clip-path);}.cls-3{fill:#f0b350;}.cls-4{fill:#040000;}.cls-5{fill:#ecca88;}.cls-6{fill:#db273c;}.cls-7{clip-path:url(#clip-path-2);}.cls-8{fill:#c02039;}.cls-9{fill:#e6d751;}</style><clipPath id="clip-path"><polygon class="cls-1" points="110.39 28.59 34.44 28.59 1.8 77.54 34.44 126.5 110.39 126.5 143.04 77.54 110.39 28.59"/></clipPath><clipPath id="clip-path-2"><rect class="cls-1" x="34.1" y="1.31" width="75.95" height="125"/></clipPath></defs><g class="cls-2"><rect class="cls-3" x="-43.8" y="68.14" width="107.29" height="4.08" transform="translate(-54.01 39.44) rotate(-56.31)"/><path class="cls-4" d="M-17.94,117.33-23,114,37.63,23l5,3.37Zm-2.29-3.92,1.73,1.15L39.91,27,38.18,25.8Z"/><rect class="cls-5" x="-40.41" y="70.4" width="107.29" height="4.08" transform="matrix(0.55, -0.83, 0.83, 0.55, -54.38, 43.27)"/><path class="cls-4" d="M-14.55,119.6l-5.06-3.38L41,25.29l5.06,3.37Zm-2.28-3.93,1.73,1.15,58.41-87.6-1.74-1.16Z"/><rect class="cls-3" x="-37.02" y="72.67" width="107.29" height="4.08" transform="translate(-54.75 47.1) rotate(-56.31)"/><path class="cls-4" d="M-11.15,121.86l-5.06-3.37L44.42,27.55l5,3.38Zm-2.29-3.93,1.73,1.16L46.7,31.48,45,30.33Z"/><rect class="cls-5" x="-33.62" y="74.93" width="107.29" height="4.08" transform="matrix(0.55, -0.83, 0.83, 0.55, -55.12, 50.93)"/><path class="cls-4" d="M-7.76,124.12l-5.06-3.37L47.81,29.82l5.06,3.37ZM-10,120.2l1.73,1.15L50.1,33.74l-1.74-1.15Z"/><rect class="cls-3" x="-30.23" y="77.19" width="107.29" height="4.08" transform="translate(-55.5 54.77) rotate(-56.31)"/><path class="cls-4" d="M-4.36,126.39-9.42,123,51.2,32.08l5.06,3.37Zm-2.29-3.93,1.73,1.15L53.49,36l-1.73-1.16Z"/><rect class="cls-5" x="-26.83" y="79.46" width="107.29" height="4.08" transform="translate(-55.87 58.6) rotate(-56.31)"/><path class="cls-4" d="M-1,128.65-6,125.28,54.6,34.34l5.06,3.38Zm-2.28-3.93,1.73,1.16L56.89,38.27l-1.74-1.15Z"/><rect class="cls-3" x="-23.44" y="81.72" width="107.29" height="4.08" transform="translate(-56.24 62.43) rotate(-56.31)"/><path class="cls-4" d="M2.43,130.91l-5.06-3.37L58,36.61,63.05,40ZM.14,127l1.73,1.15L60.28,40.53l-1.73-1.15Z"/><rect class="cls-5" x="-20.04" y="83.98" width="107.29" height="4.08" transform="translate(-56.61 66.26) rotate(-56.31)"/><path class="cls-4" d="M5.82,133.18.76,129.8,61.39,38.87l5.06,3.37Zm-2.29-3.93,1.74,1.15,58.4-87.6-1.73-1.16Z"/><rect class="cls-3" x="-16.65" y="86.25" width="107.29" height="4.08" transform="matrix(0.55, -0.83, 0.83, 0.55, -56.98, 70.1)"/><path class="cls-4" d="M9.22,135.44l-5.06-3.37L64.78,41.13l5.06,3.38Zm-2.29-3.93,1.73,1.16L67.07,45.06l-1.73-1.15Z"/><rect class="cls-5" x="-13.01" y="88.67" width="107.29" height="4.08" transform="translate(-57.38 74.2) rotate(-56.31)"/><path class="cls-4" d="M12.85,137.87l-5.06-3.38L68.42,43.56l5.06,3.37Zm-2.28-3.93,1.73,1.15,58.41-87.6L69,46.33Z"/><rect class="cls-3" x="-9.61" y="90.94" width="107.29" height="4.08" transform="translate(-57.75 78.04) rotate(-56.31)"/><path class="cls-4" d="M16.25,140.13l-5.06-3.37L71.82,45.82l5.06,3.38ZM14,136.2l1.73,1.16L74.1,49.75,72.37,48.6Z"/><rect class="cls-5" x="-6.22" y="93.2" width="107.29" height="4.08" transform="translate(-58.12 81.87) rotate(-56.31)"/><path class="cls-4" d="M19.64,142.39,14.58,139,75.21,48.09l5.06,3.37Zm-2.28-3.92,1.73,1.15L77.5,52l-1.73-1.15Z"/><rect class="cls-3" x="-2.82" y="95.46" width="107.29" height="4.08" transform="translate(-58.5 85.7) rotate(-56.31)"/><path class="cls-4" d="M23,144.66,18,141.28,78.61,50.35l5.06,3.37Zm-2.29-3.93,1.73,1.15,58.41-87.6-1.73-1.16Z"/><rect class="cls-5" x="0.57" y="97.73" width="107.29" height="4.08" transform="matrix(0.55, -0.83, 0.83, 0.55, -58.87, 89.53)"/><path class="cls-4" d="M26.43,146.92l-5.06-3.37L82,52.61,87.06,56ZM24.15,143l1.73,1.16L84.29,56.54l-1.73-1.15Z"/><rect class="cls-3" x="3.97" y="99.99" width="107.29" height="4.08" transform="translate(-59.24 93.36) rotate(-56.31)"/><path class="cls-4" d="M29.83,149.18l-5.06-3.37L85.4,54.88l5.06,3.37Zm-2.29-3.92,1.73,1.15,58.41-87.6L86,57.65Z"/><rect class="cls-5" x="7.36" y="102.25" width="107.29" height="4.08" transform="translate(-59.61 97.2) rotate(-56.31)"/><path class="cls-4" d="M33.22,151.45l-5.06-3.38L88.79,57.14l5.06,3.37Zm-2.28-3.93,1.73,1.15,58.41-87.6-1.73-1.16Z"/><rect class="cls-3" x="10.76" y="104.52" width="107.29" height="4.08" transform="translate(-59.98 101.03) rotate(-56.31)"/><path class="cls-4" d="M36.62,153.71l-5.06-3.37L92.19,59.4l5.06,3.38Zm-2.29-3.93,1.73,1.16L94.47,63.33l-1.73-1.15Z"/><rect class="cls-3" x="81.35" y="68.14" width="107.29" height="4.08" transform="translate(151.49 221.43) rotate(-123.69)"/><path class="cls-4" d="M162.78,117.33,102.15,26.4,107.21,23,167.84,114ZM104.93,27l58.41,87.61,1.73-1.15L106.66,25.8Z"/><rect class="cls-5" x="77.96" y="70.4" width="107.29" height="4.08" transform="translate(144.33 222.13) rotate(-123.69)"/><path class="cls-4" d="M159.39,119.6,98.76,28.66l5.06-3.37,60.63,90.93ZM101.53,29.22l58.41,87.6,1.73-1.15L103.26,28.06Z"/><rect class="cls-3" x="74.56" y="72.67" width="107.29" height="4.08" transform="translate(137.17 222.82) rotate(-123.69)"/><path class="cls-4" d="M156,121.86,95.36,30.93l5.06-3.38,60.63,90.94ZM98.14,31.48l58.41,87.61,1.73-1.16L99.87,30.33Z"/><rect class="cls-5" x="71.17" y="74.93" width="107.29" height="4.08" transform="translate(130.01 223.52) rotate(-123.69)"/><path class="cls-4" d="M152.6,124.12,92,33.19,97,29.82l60.63,90.93ZM94.74,33.74l58.41,87.61,1.73-1.15L96.47,32.59Z"/><rect class="cls-3" x="67.77" y="77.19" width="107.29" height="4.08" transform="translate(122.85 224.21) rotate(-123.69)"/><path class="cls-4" d="M149.2,126.39,88.57,35.45l5.06-3.37L154.26,123ZM91.35,36l58.41,87.6,1.73-1.15L93.08,34.85Z"/><rect class="cls-5" x="64.38" y="79.46" width="107.29" height="4.08" transform="translate(115.69 224.91) rotate(-123.69)"/><path class="cls-4" d="M145.81,128.65,85.18,37.72l5.06-3.38,60.63,90.94ZM88,38.27l58.41,87.61,1.73-1.16L89.68,37.12Z"/><rect class="cls-3" x="60.98" y="81.72" width="107.29" height="4.08" transform="translate(108.53 225.6) rotate(-123.69)"/><path class="cls-4" d="M142.41,130.91,81.79,40l5-3.37,60.63,90.93ZM84.56,40.53,143,128.14,144.7,127,86.29,39.38Z"/><rect class="cls-5" x="57.59" y="83.98" width="107.29" height="4.08" transform="translate(101.37 226.29) rotate(-123.69)"/><path class="cls-4" d="M139,133.18,78.39,42.24l5.06-3.37,60.63,90.93ZM81.16,42.8l58.41,87.6,1.73-1.15L82.89,41.64Z"/><rect class="cls-3" x="54.19" y="86.25" width="107.29" height="4.08" transform="translate(94.2 226.99) rotate(-123.69)"/><path class="cls-4" d="M135.62,135.44,75,44.51l5-3.38,60.63,90.94ZM77.77,45.06l58.41,87.61,1.73-1.16L79.5,43.91Z"/><rect class="cls-5" x="50.56" y="88.67" width="107.29" height="4.08" transform="translate(86.53 227.73) rotate(-123.69)"/><path class="cls-4" d="M132,137.87,71.36,46.93l5.06-3.37L137,134.49ZM74.13,47.49l58.41,87.6,1.73-1.15L75.86,46.33Z"/><rect class="cls-3" x="47.16" y="90.94" width="107.29" height="4.08" transform="translate(79.37 228.43) rotate(-123.69)"/><path class="cls-4" d="M128.59,140.13,68,49.2,73,45.82l60.63,90.94ZM70.74,49.75l58.41,87.61,1.73-1.16L72.47,48.6Z"/><rect class="cls-5" x="43.77" y="93.2" width="107.29" height="4.08" transform="matrix(-0.55, -0.83, 0.83, -0.55, 72.21, 229.12)"/><path class="cls-4" d="M125.2,142.39,64.57,51.46l5.06-3.37L130.25,139ZM67.34,52l58.41,87.61,1.73-1.15L69.07,50.86Z"/><rect class="cls-3" x="40.37" y="95.46" width="107.29" height="4.08" transform="translate(65.05 229.82) rotate(-123.69)"/><path class="cls-4" d="M121.8,144.66,61.17,53.72l5.06-3.37,60.63,90.93ZM64,54.28l58.41,87.6,1.73-1.15L65.68,53.12Z"/><rect class="cls-5" x="36.98" y="97.73" width="107.29" height="4.08" transform="translate(57.88 230.51) rotate(-123.69)"/><path class="cls-4" d="M118.41,146.92,57.78,56l5.06-3.38,60.62,90.94ZM60.55,56.54,119,144.15l1.73-1.16L62.28,55.39Z"/><rect class="cls-3" x="33.58" y="99.99" width="107.29" height="4.08" transform="translate(50.72 231.21) rotate(-123.69)"/><path class="cls-4" d="M115,149.18,54.38,58.25l5.06-3.37,60.63,90.93ZM57.16,58.81l58.41,87.6,1.73-1.15L58.89,57.65Z"/><rect class="cls-5" x="30.19" y="102.25" width="107.29" height="4.08" transform="translate(43.56 231.9) rotate(-123.69)"/><path class="cls-4" d="M111.62,151.45,51,60.51l5.06-3.37,60.63,90.93ZM53.76,61.07l58.41,87.6,1.73-1.15L55.49,59.91Z"/><rect class="cls-3" x="26.79" y="104.52" width="107.29" height="4.08" transform="translate(36.4 232.59) rotate(-123.69)"/><path class="cls-4" d="M108.22,153.71,47.59,62.78l5.06-3.38,60.63,90.94ZM50.37,63.33l58.41,87.61,1.73-1.16L52.1,62.18Z"/></g><path class="cls-4" d="M111.2,128H33.64L0,77.54,33.64,27.09H111.2l33.64,50.45Zm-75.95-3h74.34l31.64-47.46L109.59,30.09H35.25L3.61,77.54Z"/><rect class="cls-6" x="34.44" y="1.5" width="75.95" height="125"/><path class="cls-4" d="M111.89,128H32.94V0h79Zm-75.95-3h73V3H35.94Z"/><path class="cls-4" d="M111.89,128H32.94V0h79Zm-75.95-3h73V3H35.94Z"/><g class="cls-7"><ellipse class="cls-8" cx="35.26" cy="1.28" rx="4.53" ry="1.62" transform="translate(13.5 29.05) rotate(-54)"/><ellipse class="cls-8" cx="40.58" cy="1.28" rx="1.62" ry="4.53" transform="translate(7 24.1) rotate(-36)"/><ellipse class="cls-8" cx="103.52" cy="1.28" rx="4.53" ry="1.62" transform="translate(41.64 84.27) rotate(-54)"/><ellipse class="cls-8" cx="108.84" cy="1.28" rx="1.62" ry="4.53" transform="translate(20.04 64.22) rotate(-36)"/><ellipse class="cls-8" cx="72.05" cy="5.39" rx="1.62" ry="4.53"/><ellipse class="cls-8" cx="67.74" cy="8.52" rx="1.62" ry="4.53" transform="translate(38.71 70.32) rotate(-72)"/><ellipse class="cls-8" cx="69.39" cy="13.58" rx="4.53" ry="1.62" transform="translate(17.62 61.74) rotate(-54)"/><ellipse class="cls-8" cx="74.71" cy="13.58" rx="1.62" ry="4.53" transform="translate(6.29 46.51) rotate(-36)"/><ellipse class="cls-8" cx="76.36" cy="8.52" rx="4.53" ry="1.62" transform="translate(1.1 24.01) rotate(-18)"/><ellipse class="cls-8" cx="37.92" cy="18.11" rx="1.62" ry="4.53"/><ellipse class="cls-8" cx="33.62" cy="21.24" rx="1.62" ry="4.53" transform="translate(3.03 46.65) rotate(-72)"/><ellipse class="cls-8" cx="35.26" cy="26.3" rx="4.53" ry="1.62" transform="translate(-6.74 39.37) rotate(-54)"/><ellipse class="cls-8" cx="40.58" cy="26.3" rx="1.62" ry="4.53" transform="translate(-7.71 28.88) rotate(-36)"/><ellipse class="cls-8" cx="42.23" cy="21.24" rx="4.53" ry="1.62" transform="translate(-4.5 14.09) rotate(-18)"/><ellipse class="cls-8" cx="106.18" cy="18.11" rx="1.62" ry="4.53"/><ellipse class="cls-8" cx="101.87" cy="21.24" rx="1.62" ry="4.53" transform="matrix(0.31, -0.95, 0.95, 0.31, 50.19, 111.56)"/><ellipse class="cls-8" cx="103.52" cy="26.3" rx="4.53" ry="1.62" transform="translate(21.39 94.59) rotate(-54)"/><ellipse class="cls-8" cx="108.84" cy="26.3" rx="1.62" ry="4.53" transform="translate(5.33 69) rotate(-36)"/><ellipse class="cls-8" cx="110.49" cy="21.24" rx="4.53" ry="1.62" transform="translate(-1.16 35.18) rotate(-18)"/><ellipse class="cls-8" cx="72.05" cy="30.41" rx="1.62" ry="4.53"/><ellipse class="cls-8" cx="67.74" cy="33.54" rx="1.62" ry="4.53" transform="translate(14.91 87.61) rotate(-72)"/><ellipse class="cls-8" cx="69.39" cy="38.6" rx="4.53" ry="1.62" transform="translate(-2.63 72.05) rotate(-54)"/><ellipse class="cls-8" cx="74.71" cy="38.6" rx="1.62" ry="4.53" transform="translate(-8.42 51.29) rotate(-36)"/><ellipse class="cls-8" cx="76.36" cy="33.54" rx="4.53" ry="1.62" transform="translate(-6.63 25.24) rotate(-18)"/><ellipse class="cls-8" cx="37.92" cy="43.13" rx="1.62" ry="4.53"/><ellipse class="cls-8" cx="33.62" cy="46.26" rx="1.62" ry="4.53" transform="translate(-20.77 63.94) rotate(-72)"/><ellipse class="cls-8" cx="35.26" cy="51.32" rx="4.53" ry="1.62" transform="translate(-26.99 49.68) rotate(-54)"/><ellipse class="cls-8" cx="40.58" cy="51.32" rx="1.62" ry="4.53" transform="translate(-22.42 33.66) rotate(-36)"/><ellipse class="cls-8" cx="42.23" cy="46.26" rx="4.53" ry="1.62" transform="translate(-12.23 15.31) rotate(-18)"/><ellipse class="cls-8" cx="106.18" cy="43.13" rx="1.62" ry="4.53"/><ellipse class="cls-8" cx="101.87" cy="46.26" rx="1.62" ry="4.53" transform="translate(26.4 128.85) rotate(-72)"/><ellipse class="cls-8" cx="103.52" cy="51.32" rx="4.53" ry="1.62" transform="translate(1.15 104.9) rotate(-54)"/><ellipse class="cls-8" cx="108.84" cy="51.32" rx="1.62" ry="4.53" transform="translate(-9.38 73.78) rotate(-36)"/><ellipse class="cls-8" cx="110.49" cy="46.26" rx="4.53" ry="1.62" transform="translate(-8.89 36.41) rotate(-18)"/><ellipse class="cls-8" cx="72.05" cy="55.43" rx="1.62" ry="4.53"/><ellipse class="cls-8" cx="67.74" cy="58.56" rx="1.62" ry="4.53" transform="translate(-8.89 104.9) rotate(-72)"/><ellipse class="cls-8" cx="69.39" cy="63.63" rx="4.53" ry="1.62" transform="translate(-22.87 82.37) rotate(-54)"/><ellipse class="cls-8" cx="74.71" cy="63.63" rx="1.62" ry="4.53" transform="translate(-23.13 56.07) rotate(-36)"/><ellipse class="cls-8" cx="76.36" cy="58.56" rx="4.53" ry="1.62" transform="translate(-14.36 26.46) rotate(-18)"/><ellipse class="cls-8" cx="37.92" cy="68.15" rx="1.62" ry="4.53"/><ellipse class="cls-8" cx="33.62" cy="71.28" rx="1.62" ry="4.53" transform="translate(-44.57 81.23) rotate(-72)"/><ellipse class="cls-8" cx="35.26" cy="76.35" rx="4.53" ry="1.62" transform="translate(-47.23 60) rotate(-54)"/><ellipse class="cls-8" cx="40.58" cy="76.35" rx="1.62" ry="4.53" transform="translate(-37.12 38.44) rotate(-36)"/><ellipse class="cls-8" cx="42.23" cy="71.28" rx="4.53" ry="1.62" transform="translate(-19.96 16.54) rotate(-18)"/><ellipse class="cls-8" cx="106.18" cy="68.15" rx="1.62" ry="4.53"/><ellipse class="cls-8" cx="101.87" cy="71.28" rx="1.62" ry="4.53" transform="translate(2.6 146.14) rotate(-72)"/><ellipse class="cls-8" cx="103.52" cy="76.35" rx="4.53" ry="1.62" transform="translate(-19.09 115.22) rotate(-54)"/><ellipse class="cls-8" cx="108.84" cy="76.35" rx="1.62" ry="4.53" transform="translate(-24.09 78.56) rotate(-36)"/><ellipse class="cls-8" cx="110.49" cy="71.28" rx="4.53" ry="1.62" transform="translate(-16.62 37.63) rotate(-18)"/><ellipse class="cls-8" cx="72.05" cy="80.46" rx="1.62" ry="4.53"/><ellipse class="cls-8" cx="67.74" cy="83.59" rx="1.62" ry="4.53" transform="translate(-32.68 122.19) rotate(-72)"/><ellipse class="cls-8" cx="69.39" cy="88.65" rx="4.53" ry="1.62" transform="translate(-43.11 92.68) rotate(-54)"/><ellipse class="cls-8" cx="74.71" cy="88.65" rx="1.62" ry="4.53" transform="translate(-37.84 60.85) rotate(-36)"/><ellipse class="cls-8" cx="76.36" cy="83.59" rx="4.53" ry="1.62" transform="translate(-22.09 27.69) rotate(-18)"/><ellipse class="cls-8" cx="37.92" cy="93.18" rx="1.62" ry="4.53"/><ellipse class="cls-8" cx="33.62" cy="96.31" rx="1.62" ry="4.53" transform="translate(-68.36 98.52) rotate(-72)"/><ellipse class="cls-8" cx="35.26" cy="101.37" rx="4.53" ry="1.62" transform="translate(-67.47 70.31) rotate(-54)"/><ellipse class="cls-8" cx="40.58" cy="101.37" rx="1.62" ry="4.53" transform="translate(-51.83 43.21) rotate(-36)"/><ellipse class="cls-8" cx="42.23" cy="96.31" rx="4.53" ry="1.62" transform="translate(-27.69 17.76) rotate(-18)"/><ellipse class="cls-8" cx="106.18" cy="93.18" rx="1.62" ry="4.53"/><ellipse class="cls-8" cx="101.87" cy="96.31" rx="1.62" ry="4.53" transform="translate(-21.2 163.43) rotate(-72)"/><ellipse class="cls-8" cx="103.52" cy="101.37" rx="4.53" ry="1.62" transform="translate(-39.34 125.53) rotate(-54)"/><ellipse class="cls-8" cx="108.84" cy="101.37" rx="1.62" ry="4.53" transform="translate(-38.8 83.33) rotate(-36)"/><ellipse class="cls-8" cx="110.49" cy="96.31" rx="4.53" ry="1.62" transform="translate(-24.35 38.86) rotate(-18)"/><ellipse class="cls-8" cx="72.05" cy="105.48" rx="1.62" ry="4.53"/><ellipse class="cls-8" cx="67.74" cy="108.61" rx="1.62" ry="4.53" transform="translate(-56.48 139.48) rotate(-72)"/><ellipse class="cls-8" cx="69.39" cy="113.67" rx="4.53" ry="1.62" transform="translate(-63.36 102.99) rotate(-54)"/><ellipse class="cls-8" cx="74.71" cy="113.67" rx="1.62" ry="4.53" transform="translate(-52.55 65.62) rotate(-36)"/><ellipse class="cls-8" cx="76.36" cy="108.61" rx="4.53" ry="1.62" transform="translate(-29.82 28.91) rotate(-18)"/><ellipse class="cls-8" cx="37.92" cy="118.2" rx="1.62" ry="4.53"/><ellipse class="cls-8" cx="33.62" cy="121.33" rx="1.62" ry="4.53" transform="translate(-92.16 115.81) rotate(-72)"/><ellipse class="cls-8" cx="35.26" cy="126.39" rx="4.53" ry="1.62" transform="translate(-87.72 80.63) rotate(-54)"/><ellipse class="cls-8" cx="40.58" cy="126.39" rx="1.62" ry="4.53" transform="translate(-66.54 47.99) rotate(-36)"/><ellipse class="cls-8" cx="42.23" cy="121.33" rx="4.53" ry="1.62" transform="translate(-35.43 18.99) rotate(-18)"/><ellipse class="cls-8" cx="106.18" cy="118.2" rx="1.62" ry="4.53"/><ellipse class="cls-8" cx="101.87" cy="121.33" rx="1.62" ry="4.53" transform="translate(-45 180.72) rotate(-72)"/><ellipse class="cls-8" cx="103.52" cy="126.39" rx="4.53" ry="1.62" transform="translate(-59.58 135.85) rotate(-54)"/><ellipse class="cls-8" cx="108.84" cy="126.39" rx="1.62" ry="4.53" transform="translate(-53.5 88.11) rotate(-36)"/><ellipse class="cls-8" cx="110.49" cy="121.33" rx="4.53" ry="1.62" transform="translate(-32.08 40.08) rotate(-18)"/><ellipse class="cls-8" cx="72.05" cy="130.5" rx="1.62" ry="4.53"/></g><rect class="cls-5" x="34.91" y="121.95" width="75.11" height="4.08"/><path class="cls-4" d="M111,127H33.91V121H111Zm-75.11-2H109V123H35.91Z"/><rect class="cls-5" x="34.91" y="35.76" width="75.11" height="4.08"/><path class="cls-4" d="M111,40.84H33.91V34.76H111Zm-75.11-2H109V36.76H35.91Z"/><path class="cls-4" d="M111.94,128H33V0h78.95ZM36,125h72.95V3H36Z"/><circle class="cls-9" cx="72.47" cy="80.31" r="28.43"/><path class="cls-4" d="M72.47,109.74A29.43,29.43,0,1,1,101.9,80.31,29.46,29.46,0,0,1,72.47,109.74Zm0-56.86A27.43,27.43,0,1,0,99.9,80.31,27.46,27.46,0,0,0,72.47,52.88Z"/><path class="cls-4" d="M92.88,83C92.26,84.71,91,84.62,89,84.47c-7.8-.57-16.41.1-31.18.73a11.76,11.76,0,0,1-3.37-.39c-1.2-.34-2.5-1.78-2.5-2.4,0-1.21,2.55-3.13,4.28-3.23.82-.05,7-.24,13.33-.38V77.21a2.35,2.35,0,0,0-.15-.92l-3,.2a3.53,3.53,0,0,1-1.63.57C63.54,77,62,76,62,74.8A63.67,63.67,0,0,0,61.76,67a3.63,3.63,0,0,0-1.11-2.36c-.38-.43-.53-.86-.29-1.25a12.21,12.21,0,0,1,3-2.45,1.44,1.44,0,0,1,1.59.19,7.51,7.51,0,0,1,2.75,3.51c2-.14,4.76-.38,6.15-.43,1,0,2.22,1.11,2.7,1.92s.33,1.21,0,1.59A4,4,0,0,1,73.21,69c-1,0-2.94,0-4.91.14l.14,2.22c2.89,0,6,.09,9,0,0-2.69,0-5.39-.09-7.26a2.77,2.77,0,0,0-1-1.83c-.38-.39-.24-.92.25-1.4a7.09,7.09,0,0,1,2.79-1.73A2.14,2.14,0,0,1,81,59.5c1,.68,2.41,2,2.41,3.13,0,3.37.67,7.46.43,11.11a3.66,3.66,0,0,1-2.74,3.08,5.14,5.14,0,0,1-2.41-.67c-.72,0-1.54-.05-2.4-.05v.34c.05.53.05,1.3.05,2.12,5.63-.15,9.76-.29,7.89-.29a31,31,0,0,1,4,.24,8.51,8.51,0,0,1,3.9,1.87C93.17,81.35,93.37,81.64,92.88,83Zm-7.21,7.65a37.6,37.6,0,0,1-.39,4.57c-.38,2-.91,3.42-1.82,4.24-.58.53-1.11,1-1.59,1.39a17.51,17.51,0,0,0-1.73,1.69,5.75,5.75,0,0,1-1.4-2.31A15.32,15.32,0,0,1,78.31,97c0-1.11,0-2.89,0-4.62-4.09,0-10.3.19-12.51.29s-4.09-.82-6.21-2.31a.8.8,0,0,1-.38-1,6.18,6.18,0,0,1,.86-2.26c.48-.77.92-.82,1.45-.68a15.71,15.71,0,0,0,4.23.44c1.4,0,11.35-.34,12-.34,1.54,0,3.51-.34,4.52-.43a3.14,3.14,0,0,1,1.93.53c.86.57,1.87,1.34,1.92,2.16A3.65,3.65,0,0,1,85.67,90.63Z"/></svg>