<svg id="레이어_1" data-name="레이어 1" xmlns="http://www.w3.org/2000/svg" xmlns:xlink="http://www.w3.org/1999/xlink" viewBox="0 0 144.84 128"><defs><style>.cls-1{fill:none;}.cls-2{clip-path:url(#clip-path);}.cls-3{fill:#f0b350;}.cls-4{fill:#040000;}.cls-5{fill:#ecca88;}.cls-6{fill:#e42216;}.cls-7{fill:#cd181c;}.cls-8{fill:#ddd;}.cls-9{fill:#f5f4b0;}.cls-10{fill:#567ec0;}.cls-11{fill:#dd243d;}</style><clipPath id="clip-path"><polygon class="cls-1" points="-44.12 28.59 -120.07 28.59 -152.72 77.54 -120.07 126.5 -44.12 126.5 -11.48 77.54 -44.12 28.59"/></clipPath></defs><g class="cls-2"><rect class="cls-3" x="-73.17" y="68.14" width="107.29" height="4.08" transform="translate(-88.74 92.87) rotate(-123.69)"/><path class="cls-4" d="M8.26,117.33-52.36,26.4l5-3.37L13.32,114ZM-49.59,27,8.82,114.56l1.73-1.15L-47.86,25.8Z"/><rect class="cls-5" x="-76.56" y="70.4" width="107.29" height="4.08" transform="translate(-95.9 93.56) rotate(-123.69)"/><path class="cls-4" d="M4.87,119.6-55.76,28.66l5.06-3.37L9.93,116.22ZM-53,29.22l58.41,87.6,1.73-1.15-58.4-87.61Z"/><rect class="cls-3" x="-79.96" y="72.67" width="107.29" height="4.08" transform="translate(-103.06 94.26) rotate(-123.69)"/><path class="cls-4" d="M1.47,121.86-59.15,30.93l5.06-3.38L6.53,118.49ZM-56.38,31.48,2,119.09l1.73-1.16-58.41-87.6Z"/><rect class="cls-5" x="-83.35" y="74.93" width="107.29" height="4.08" transform="translate(-110.22 94.95) rotate(-123.69)"/><path class="cls-4" d="M-1.92,124.12-62.55,33.19l5.06-3.37L3.14,120.75ZM-59.78,33.74l58.41,87.61L.36,120.2-58,32.59Z"/></g><polygon class="cls-6" points="110.39 28.59 34.44 28.59 1.8 77.54 34.44 126.5 110.39 126.5 143.04 77.54 110.39 28.59"/><path class="cls-4" d="M111.2,128H33.64L0,77.54,33.64,27.09H111.2l33.64,50.45Zm-75.95-3h74.34l31.64-47.46L109.59,30.09H35.25L3.61,77.54Z"/><ellipse class="cls-7" cx="20.9" cy="71.84" rx="1.4" ry="4.33"/><ellipse class="cls-7" cx="16.79" cy="74.83" rx="1.4" ry="4.33" transform="translate(-59.57 67.67) rotate(-72)"/><ellipse class="cls-7" cx="18.36" cy="79.67" rx="4.33" ry="1.4" transform="matrix(0.59, -0.81, 0.81, 0.59, -56.88, 47.69)"/><ellipse class="cls-7" cx="23.45" cy="79.67" rx="1.4" ry="4.33" transform="translate(-42.35 29) rotate(-36)"/><ellipse class="cls-7" cx="25.02" cy="74.83" rx="4.33" ry="1.4" transform="translate(-21.9 11.39) rotate(-18)"/><ellipse class="cls-7" cx="33.28" cy="96.14" rx="1.4" ry="4.33"/><ellipse class="cls-7" cx="29.16" cy="99.13" rx="1.4" ry="4.33" transform="matrix(0.31, -0.95, 0.95, 0.31, -74.13, 96.23)"/><ellipse class="cls-7" cx="30.73" cy="103.97" rx="4.33" ry="1.4" transform="translate(-71.44 67.72) rotate(-54)"/><ellipse class="cls-7" cx="35.82" cy="103.97" rx="1.4" ry="4.33" transform="translate(-54.27 40.91) rotate(-36)"/><ellipse class="cls-7" cx="37.39" cy="99.13" rx="4.33" ry="1.4" transform="translate(-28.8 16.41) rotate(-18)"/><ellipse class="cls-7" cx="33.28" cy="49.09" rx="1.4" ry="4.33"/><ellipse class="cls-7" cx="29.16" cy="52.08" rx="1.4" ry="4.33" transform="matrix(0.31, -0.95, 0.95, 0.31, -29.39, 63.72)"/><ellipse class="cls-7" cx="30.73" cy="56.92" rx="4.33" ry="1.4" transform="translate(-33.38 48.33) rotate(-54)"/><ellipse class="cls-7" cx="35.82" cy="56.92" rx="1.4" ry="4.33" transform="translate(-26.62 31.93) rotate(-36)"/><ellipse class="cls-7" cx="37.39" cy="52.08" rx="4.33" ry="1.4" transform="translate(-14.26 14.1) rotate(-18)"/><ellipse class="cls-7" cx="123.94" cy="71.84" rx="1.4" ry="4.33"/><ellipse class="cls-7" cx="128.05" cy="74.83" rx="4.33" ry="1.4" transform="translate(-16.86 43.23) rotate(-18)"/><ellipse class="cls-7" cx="126.48" cy="79.67" rx="1.4" ry="4.33" transform="translate(-22.67 89.56) rotate(-36)"/><ellipse class="cls-7" cx="121.39" cy="79.67" rx="4.33" ry="1.4" transform="matrix(0.59, -0.81, 0.81, 0.59, -14.41, 131.05)"/><ellipse class="cls-7" cx="119.82" cy="74.83" rx="1.4" ry="4.33" transform="translate(11.63 165.66) rotate(-72)"/><ellipse class="cls-7" cx="111.56" cy="96.14" rx="1.4" ry="4.33"/><ellipse class="cls-7" cx="115.68" cy="99.13" rx="4.33" ry="1.4" transform="translate(-24.97 40.6) rotate(-18)"/><ellipse class="cls-7" cx="114.11" cy="103.97" rx="1.4" ry="4.33" transform="translate(-39.32 86.93) rotate(-36)"/><ellipse class="cls-7" cx="109.02" cy="103.97" rx="4.33" ry="1.4" transform="translate(-39.17 131.05) rotate(-54)"/><ellipse class="cls-7" cx="107.45" cy="99.13" rx="1.4" ry="4.33" transform="translate(-20.03 170.68) rotate(-72)"/><ellipse class="cls-7" cx="111.56" cy="49.09" rx="1.4" ry="4.33"/><ellipse class="cls-7" cx="115.68" cy="52.08" rx="4.33" ry="1.4" transform="translate(-10.43 38.3) rotate(-18)"/><ellipse class="cls-7" cx="114.11" cy="56.92" rx="1.4" ry="4.33" transform="translate(-11.67 77.94) rotate(-36)"/><ellipse class="cls-7" cx="109.02" cy="56.92" rx="4.33" ry="1.4" transform="translate(-1.11 111.66) rotate(-54)"/><ellipse class="cls-7" cx="107.45" cy="52.08" rx="1.4" ry="4.33" transform="translate(24.71 138.18) rotate(-72)"/><rect class="cls-8" x="34.44" y="1.5" width="75.95" height="125"/><path class="cls-4" d="M111.89,128H32.94V0h79Zm-75.95-3h73V3H35.94Z"/><path class="cls-4" d="M92.88,83C92.26,84.72,91,84.62,89,84.47c-7.8-.57-16.41.1-31.18.73a11.76,11.76,0,0,1-3.37-.39c-1.2-.34-2.5-1.78-2.5-2.4,0-1.21,2.55-3.13,4.28-3.23.82-.05,7-.24,13.33-.38V77.21a2.3,2.3,0,0,0-.15-.91l-3,.19a3.53,3.53,0,0,1-1.63.57C63.54,77,62,76,62,74.8A63.67,63.67,0,0,0,61.76,67a3.63,3.63,0,0,0-1.11-2.36c-.38-.43-.53-.86-.29-1.25a12.21,12.21,0,0,1,3-2.45,1.44,1.44,0,0,1,1.59.19,7.42,7.42,0,0,1,2.74,3.51c2-.14,4.77-.38,6.16-.43,1,0,2.22,1.11,2.7,1.92s.33,1.21,0,1.59A4,4,0,0,1,73.21,69c-1,0-2.94,0-4.91.15l.14,2.21c2.89,0,6,.09,9,0,0-2.69,0-5.39-.09-7.26a2.77,2.77,0,0,0-1-1.83c-.38-.39-.24-.92.24-1.4a7.2,7.2,0,0,1,2.8-1.73A2.14,2.14,0,0,1,81,59.5c1,.68,2.41,2,2.41,3.13,0,3.37.67,7.46.43,11.12a3.65,3.65,0,0,1-2.74,3.07,5.14,5.14,0,0,1-2.41-.67c-.72,0-1.54-.05-2.4-.05v.34c.05.53.05,1.3.05,2.12,5.63-.15,9.76-.29,7.89-.29a31,31,0,0,1,4,.24,8.42,8.42,0,0,1,3.9,1.88C93.17,81.35,93.37,81.64,92.88,83Zm-7.21,7.65a37.6,37.6,0,0,1-.39,4.57c-.38,2-.91,3.42-1.83,4.24-.57.53-1.1,1-1.58,1.39a18.89,18.89,0,0,0-1.74,1.69,5.86,5.86,0,0,1-1.39-2.31A15.32,15.32,0,0,1,78.31,97c0-1.1,0-2.89,0-4.62-4.09,0-10.3.19-12.51.29s-4.09-.82-6.21-2.31a.8.8,0,0,1-.38-1,6.18,6.18,0,0,1,.86-2.26c.48-.77.92-.82,1.45-.68a15.71,15.71,0,0,0,4.23.44c1.39,0,11.35-.34,12-.34,1.54,0,3.51-.34,4.52-.43a3.14,3.14,0,0,1,1.93.53c.86.57,1.87,1.34,1.92,2.16A3.65,3.65,0,0,1,85.67,90.63Z"/><rect class="cls-9" x="34.44" y="1.5" width="15.19" height="39.43"/><path class="cls-4" d="M51.13,42.43H32.94V0H51.13Zm-15.19-3H48.13V3H35.94Z"/><rect class="cls-10" x="49.63" y="1.5" width="15.19" height="39.43"/><path class="cls-4" d="M66.32,42.43H48.13V0H66.32Zm-15.19-3H63.32V3H51.13Z"/><rect class="cls-11" x="64.82" y="1.5" width="15.19" height="39.43"/><path class="cls-4" d="M81.51,42.43H63.32V0H81.51Zm-15.19-3H78.51V3H66.32Z"/><rect class="cls-10" x="80.01" y="1.5" width="15.19" height="39.43"/><path class="cls-4" d="M96.7,42.43H78.51V0H96.7Zm-15.19-3H93.7V3H81.51Z"/><rect class="cls-9" x="95.2" y="1.5" width="15.19" height="39.43"/><path class="cls-4" d="M111.89,42.43H93.7V0h18.19Zm-15.19-3h12.19V3H96.7Z"/><rect class="cls-9" x="34.44" y="117.37" width="15.19" height="9.13"/><path class="cls-4" d="M51.13,128H32.94V115.87H51.13Zm-15.19-3H48.13v-6.13H35.94Z"/><rect class="cls-10" x="49.63" y="117.37" width="15.19" height="9.13"/><path class="cls-4" d="M66.32,128H48.13V115.87H66.32Zm-15.19-3H63.32v-6.13H51.13Z"/><rect class="cls-11" x="64.82" y="117.37" width="15.19" height="9.13"/><path class="cls-4" d="M81.51,128H63.32V115.87H81.51Zm-15.19-3H78.51v-6.13H66.32Z"/><rect class="cls-10" x="80.01" y="117.37" width="15.19" height="9.13"/><path class="cls-4" d="M96.7,128H78.51V115.87H96.7Zm-15.19-3H93.7v-6.13H81.51Z"/><rect class="cls-9" x="95.2" y="117.37" width="15.19" height="9.13"/><path class="cls-4" d="M111.89,128H93.7V115.87h18.19ZM96.7,125h12.19v-6.13H96.7Z"/></svg>