<svg id="레이어_1" data-name="레이어 1" xmlns="http://www.w3.org/2000/svg" xmlns:xlink="http://www.w3.org/1999/xlink" viewBox="0 0 144.84 128"><defs><style>.cls-1{fill:none;}.cls-2{fill:#2f7cc1;}.cls-3{fill:#040000;}.cls-4{fill:#d0283b;}.cls-5{fill:#f49c19;}.cls-6{fill:#dd243d;}.cls-7{fill:#f5f4b0;}.cls-8{clip-path:url(#clip-path);}.cls-9{clip-path:url(#clip-path-2);}</style><clipPath id="clip-path"><rect class="cls-1" x="34.44" y="1.5" width="75.95" height="125"/></clipPath><clipPath id="clip-path-2"><polygon class="cls-1" points="110.39 28.59 34.44 28.59 1.8 77.54 34.44 126.5 110.39 126.5 143.04 77.54 110.39 28.59"/></clipPath></defs><polygon class="cls-2" points="110.39 28.59 34.44 28.59 1.8 77.54 34.44 126.5 110.39 126.5 143.04 77.54 110.39 28.59"/><path class="cls-3" d="M111.2,128H33.64L0,77.54,33.64,27.09H111.2l33.64,50.45Zm-75.95-3h74.34l31.64-47.46L109.59,30.09H35.25L3.61,77.54Z"/><rect class="cls-2" x="34.44" y="1.5" width="75.95" height="125"/><path class="cls-3" d="M111.89,128H32.94V0h79Zm-75.95-3h73V3H35.94Z"/><rect class="cls-4" x="34.44" y="121.58" width="75.95" height="4.92"/><path class="cls-3" d="M111.89,128H32.94v-7.92h79Zm-75.95-3h73v-1.92H35.94Z"/><circle class="cls-5" cx="72.42" cy="79.15" r="30.38"/><path class="cls-3" d="M72.42,111A31.88,31.88,0,1,1,104.3,79.15,31.92,31.92,0,0,1,72.42,111Zm0-60.76A28.88,28.88,0,1,0,101.3,79.15,28.91,28.91,0,0,0,72.42,50.27Z"/><path class="cls-3" d="M92.88,83C92.26,84.72,91,84.62,89,84.47c-7.8-.57-16.41.1-31.18.73a11.76,11.76,0,0,1-3.37-.39c-1.2-.34-2.5-1.78-2.5-2.4,0-1.21,2.55-3.13,4.28-3.23.82-.05,7-.24,13.33-.38V77.21a2.3,2.3,0,0,0-.15-.91l-3,.19a3.53,3.53,0,0,1-1.63.57C63.54,77,62,76,62,74.8A63.67,63.67,0,0,0,61.76,67a3.63,3.63,0,0,0-1.11-2.36c-.38-.43-.53-.86-.29-1.25a12.21,12.21,0,0,1,3-2.45,1.44,1.44,0,0,1,1.59.19,7.42,7.42,0,0,1,2.74,3.51c2-.14,4.77-.38,6.16-.43,1,0,2.22,1.11,2.7,1.92s.33,1.21,0,1.59A4,4,0,0,1,73.21,69c-1,0-2.94,0-4.91.15l.14,2.21c2.89,0,6,.09,9,0,0-2.69,0-5.39-.09-7.26a2.77,2.77,0,0,0-1-1.83c-.38-.39-.24-.92.24-1.4a7.2,7.2,0,0,1,2.8-1.73A2.14,2.14,0,0,1,81,59.5c1,.68,2.41,2,2.41,3.13,0,3.37.67,7.46.43,11.12a3.65,3.65,0,0,1-2.74,3.07,5.14,5.14,0,0,1-2.41-.67c-.72,0-1.54-.05-2.4-.05v.34c.05.53.05,1.3.05,2.12,5.63-.15,9.76-.29,7.89-.29a31,31,0,0,1,4,.24,8.42,8.42,0,0,1,3.9,1.88C93.17,81.35,93.37,81.64,92.88,83Zm-7.21,7.65a37.6,37.6,0,0,1-.39,4.57c-.38,2-.91,3.42-1.83,4.24-.57.53-1.1,1-1.58,1.39a17.51,17.51,0,0,0-1.73,1.69,5.75,5.75,0,0,1-1.4-2.31A15.32,15.32,0,0,1,78.31,97c0-1.1,0-2.89,0-4.62-4.09,0-10.3.19-12.51.29s-4.09-.82-6.21-2.31a.8.8,0,0,1-.38-1,6.18,6.18,0,0,1,.86-2.26c.48-.77.92-.82,1.45-.68a15.71,15.71,0,0,0,4.23.44c1.39,0,11.35-.34,12-.34,1.54,0,3.51-.34,4.52-.43a3.14,3.14,0,0,1,1.93.53c.86.57,1.87,1.34,1.92,2.16A3.65,3.65,0,0,1,85.67,90.63Z"/><polygon class="cls-6" points="72.42 31.98 99.79 1.5 45.04 1.5 72.42 31.98"/><path class="cls-3" d="M72.42,33.48,42.8.5H102ZM47.29,2.5l25.13,28,25.13-28Z"/><polygon class="cls-2" points="50.73 1.5 94.11 1.5 72.42 25.65 50.73 1.5"/><path class="cls-3" d="M72.42,27.15,48.49.5H96.35ZM53,2.5,72.42,24.15,91.87,2.5Z"/><polygon class="cls-7" points="56.41 1.5 88.42 1.5 72.42 19.32 56.41 1.5"/><path class="cls-3" d="M72.42,20.82,54.17.5h36.5ZM58.66,2.5,72.42,17.82,86.18,2.5Z"/><polygon class="cls-6" points="62.1 1.5 82.74 1.5 72.42 12.99 62.1 1.5"/><path class="cls-3" d="M72.42,14.49,59.86.5H85Zm-8.08-12,8.08,9,8.08-9Z"/><g class="cls-8"><polygon class="cls-6" points="110.39 31.98 137.77 1.5 83.02 1.5 110.39 31.98"/><path class="cls-3" d="M110.39,33.48,80.78.5H140ZM85.26,2.5l25.13,28,25.14-28Z"/><polygon class="cls-2" points="88.7 1.5 132.08 1.5 110.39 25.65 88.7 1.5"/><path class="cls-3" d="M110.39,27.15,86.46.5h47.87ZM91,2.5l19.44,21.65L129.84,2.5Z"/><polygon class="cls-7" points="94.39 1.5 126.4 1.5 110.39 19.32 94.39 1.5"/><path class="cls-3" d="M110.39,20.82,92.15.5h36.49ZM96.63,2.5l13.76,15.32L124.16,2.5Z"/><polygon class="cls-6" points="100.08 1.5 120.71 1.5 110.39 12.99 100.08 1.5"/><path class="cls-3" d="M110.39,14.49,97.83.5H123Zm-8.07-12,8.07,9,8.08-9Z"/><polygon class="cls-6" points="34.44 31.98 61.82 1.5 7.07 1.5 34.44 31.98"/><path class="cls-3" d="M34.44,33.48,4.83.5H64.06ZM9.31,2.5l25.13,28,25.14-28Z"/><polygon class="cls-2" points="12.76 1.5 56.13 1.5 34.44 25.65 12.76 1.5"/><path class="cls-3" d="M34.44,27.15,10.51.5H58.38ZM15,2.5,34.44,24.15,53.89,2.5Z"/><polygon class="cls-7" points="18.44 1.5 50.45 1.5 34.44 19.32 18.44 1.5"/><path class="cls-3" d="M34.44,20.82,16.2.5H52.69ZM20.68,2.5,34.44,17.82,48.21,2.5Z"/><polygon class="cls-6" points="24.13 1.5 44.76 1.5 34.44 12.99 24.13 1.5"/><path class="cls-3" d="M34.44,14.49,21.88.5H47Zm-8.07-12,8.07,9,8.08-9Z"/></g><path class="cls-3" d="M111.89,128H32.94V0h79Zm-75.95-3h73V3H35.94Z"/><g class="cls-9"><polygon class="cls-6" points="1.8 77.54 34.44 126.5 34.44 28.59 1.8 77.54"/><path class="cls-3" d="M35.94,131.45,0,77.54,35.94,23.63ZM3.61,77.54l29.33,44v-88Z"/><polygon class="cls-2" points="34.44 38.76 34.44 116.33 8.58 77.54 34.44 38.76"/><path class="cls-3" d="M35.94,121.29,6.78,77.54,35.94,33.8ZM10.38,77.54l22.56,33.84V43.71Z"/><polygon class="cls-7" points="34.44 48.92 34.44 106.17 15.36 77.54 34.44 48.92"/><path class="cls-3" d="M35.94,111.12,13.56,77.54,35.94,44ZM17.16,77.54l15.78,23.67V53.88Z"/><polygon class="cls-6" points="34.44 59.09 34.44 96 22.14 77.54 34.44 59.09"/><path class="cls-3" d="M35.94,101,20.34,77.54l15.6-23.4Zm-12-23.41,9,13.5V64Z"/><polygon class="cls-6" points="143.2 77.54 110.56 28.59 110.56 126.5 143.2 77.54"/><path class="cls-3" d="M109.06,131.45V23.63L145,77.54Zm3-97.91v88l29.33-44Z"/><polygon class="cls-2" points="110.56 116.33 110.56 38.76 136.42 77.54 110.56 116.33"/><path class="cls-3" d="M109.06,121.29V33.8l29.16,43.74Zm3-77.58v67.67l22.56-33.84Z"/><polygon class="cls-7" points="110.56 106.17 110.56 48.92 129.64 77.54 110.56 106.17"/><path class="cls-3" d="M109.06,111.12V44l22.38,33.57Zm3-57.24v47.33l15.78-23.67Z"/><polygon class="cls-6" points="110.56 96 110.56 59.09 122.86 77.54 110.56 96"/><path class="cls-3" d="M109.06,101V54.14l15.6,23.4Zm3-36.91V91l9-13.5Z"/></g></svg>