<svg id="레이어_1" data-name="레이어 1" xmlns="http://www.w3.org/2000/svg" xmlns:xlink="http://www.w3.org/1999/xlink" viewBox="0 0 144.84 128"><defs><style>.cls-1{fill:none;}.cls-2{fill:#e94a64;}.cls-3{fill:#040000;}.cls-4{fill:#c62c4e;}.cls-5{fill:#f0d68d;}.cls-6{fill:#4392ce;}.cls-7{fill:#e3242e;}.cls-8{clip-path:url(#clip-path);}.cls-9{fill:#f3c18f;}.cls-10{fill:#d6d6d6;}</style><clipPath id="clip-path"><rect class="cls-1" x="34.49" y="1.5" width="75.95" height="125"/></clipPath></defs><polygon class="cls-2" points="110.44 28.59 34.48 28.59 1.84 77.54 34.48 126.5 110.44 126.5 143.08 77.54 110.44 28.59"/><path class="cls-3" d="M111.24,128H33.68L0,77.54,33.68,27.09h77.56l33.64,50.45Zm-75.95-3h74.34l31.64-47.46L109.63,30.09H35.29L3.65,77.54Z"/><ellipse class="cls-4" cx="20.94" cy="73.43" rx="1.4" ry="4.33"/><ellipse class="cls-4" cx="16.83" cy="76.43" rx="1.4" ry="4.33" transform="translate(-61.06 68.81) rotate(-72)"/><ellipse class="cls-4" cx="18.4" cy="81.26" rx="4.33" ry="1.4" transform="translate(-58.16 48.38) rotate(-54)"/><ellipse class="cls-4" cx="23.49" cy="81.26" rx="1.4" ry="4.33" transform="translate(-43.28 29.33) rotate(-36)"/><ellipse class="cls-4" cx="25.06" cy="76.43" rx="4.33" ry="1.4" transform="translate(-22.39 11.48) rotate(-18)"/><ellipse class="cls-4" cx="33.32" cy="97.73" rx="1.4" ry="4.33"/><ellipse class="cls-4" cx="29.2" cy="100.73" rx="1.4" ry="4.33" transform="translate(-75.62 97.37) rotate(-72)"/><ellipse class="cls-4" cx="30.77" cy="105.56" rx="4.33" ry="1.4" transform="translate(-72.72 68.41) rotate(-54)"/><ellipse class="cls-4" cx="35.86" cy="105.56" rx="1.4" ry="4.33" transform="translate(-55.2 41.24) rotate(-36)"/><ellipse class="cls-4" cx="37.43" cy="100.73" rx="4.33" ry="1.4" transform="translate(-29.29 16.5) rotate(-18)"/><ellipse class="cls-4" cx="33.32" cy="50.69" rx="1.4" ry="4.33"/><ellipse class="cls-4" cx="29.2" cy="53.68" rx="1.4" ry="4.33" transform="translate(-30.88 64.86) rotate(-72)"/><ellipse class="cls-4" cx="30.77" cy="58.52" rx="4.33" ry="1.4" transform="translate(-34.66 49.02) rotate(-54)"/><ellipse class="cls-4" cx="35.86" cy="58.52" rx="1.4" ry="4.33" transform="matrix(0.81, -0.59, 0.59, 0.81, -27.55, 32.26)"/><ellipse class="cls-4" cx="37.43" cy="53.68" rx="4.33" ry="1.4" transform="translate(-14.76 14.2) rotate(-18)"/><ellipse class="cls-4" cx="123.98" cy="73.43" rx="1.4" ry="4.33"/><ellipse class="cls-4" cx="128.09" cy="76.43" rx="4.33" ry="1.4" transform="translate(-17.35 43.32) rotate(-18)"/><ellipse class="cls-4" cx="126.52" cy="81.26" rx="1.4" ry="4.33" transform="matrix(0.81, -0.59, 0.59, 0.81, -23.6, 89.89)"/><ellipse class="cls-4" cx="121.43" cy="81.26" rx="4.33" ry="1.4" transform="translate(-15.69 131.74) rotate(-54)"/><ellipse class="cls-4" cx="119.86" cy="76.43" rx="1.4" ry="4.33" transform="translate(10.14 166.8) rotate(-72)"/><ellipse class="cls-4" cx="111.6" cy="97.73" rx="1.4" ry="4.33"/><ellipse class="cls-4" cx="115.72" cy="100.73" rx="4.33" ry="1.4" transform="translate(-25.46 40.69) rotate(-18)"/><ellipse class="cls-4" cx="114.15" cy="105.56" rx="1.4" ry="4.33" transform="translate(-40.25 87.26) rotate(-36)"/><ellipse class="cls-4" cx="109.06" cy="105.56" rx="4.33" ry="1.4" transform="translate(-40.45 131.75) rotate(-54)"/><ellipse class="cls-4" cx="107.49" cy="100.73" rx="1.4" ry="4.33" transform="translate(-21.52 171.83) rotate(-72)"/><ellipse class="cls-4" cx="111.6" cy="50.69" rx="1.4" ry="4.33"/><ellipse class="cls-4" cx="115.72" cy="53.68" rx="4.33" ry="1.4" transform="translate(-10.92 38.39) rotate(-18)"/><ellipse class="cls-4" cx="114.15" cy="58.52" rx="1.4" ry="4.33" transform="matrix(0.81, -0.59, 0.59, 0.81, -12.6, 78.27)"/><ellipse class="cls-4" cx="109.06" cy="58.52" rx="4.33" ry="1.4" transform="translate(-2.39 112.35) rotate(-54)"/><ellipse class="cls-4" cx="107.49" cy="53.68" rx="1.4" ry="4.33" transform="translate(23.22 139.32) rotate(-72)"/><rect class="cls-2" x="34.49" y="1.5" width="75.95" height="125"/><path class="cls-3" d="M111.94,128H33V0h79Zm-76-3h73V3H36Z"/><rect class="cls-5" x="34.57" y="1.5" width="15.17" height="77.55"/><path class="cls-3" d="M51.24,80.55H33.07V0H51.24Zm-15.17-3H48.24V3H36.07Z"/><rect class="cls-6" x="49.74" y="1.5" width="15.17" height="77.55"/><path class="cls-3" d="M66.41,80.55H48.24V0H66.41Zm-15.17-3H63.41V3H51.24Z"/><rect class="cls-7" x="64.91" y="1.5" width="15.17" height="77.55"/><path class="cls-3" d="M81.59,80.55H63.41V0H81.59Zm-15.18-3H78.59V3H66.41Z"/><rect class="cls-6" x="80.09" y="1.5" width="15.17" height="77.55"/><path class="cls-3" d="M96.76,80.55H78.59V0H96.76Zm-15.17-3H93.76V3H81.59Z"/><rect class="cls-5" x="95.26" y="1.5" width="15.17" height="77.55"/><path class="cls-3" d="M111.94,80.55H93.76V0h18.18Zm-15.18-3h12.18V3H96.76Z"/><g class="cls-8"><rect class="cls-9" x="43.82" y="50.51" width="57.27" height="57.27" transform="translate(179.65 83.88) rotate(135)"/><path class="cls-3" d="M72.45,121.77,29.83,79.15,72.45,36.53l42.62,42.62ZM34.08,79.15l38.37,38.37,38.38-38.37L72.45,40.77Z"/><rect class="cls-10" x="49.49" y="56.18" width="45.94" height="45.94" transform="translate(77.19 -28.05) rotate(45)"/><path class="cls-3" d="M72.45,113.75l-34.6-34.6,34.6-34.61,34.61,34.61ZM42.09,79.15l30.36,30.36,30.36-30.36L72.45,48.79Z"/><path class="cls-3" d="M89,81.36c-.51,1.4-1.52,1.32-3.12,1.21-6.29-.47-13.25.07-25.19.58A9.36,9.36,0,0,1,58,82.84c-1-.27-2-1.44-2-1.94,0-1,2.06-2.53,3.46-2.61.66,0,5.64-.19,10.77-.31V76.7a1.91,1.91,0,0,0-.12-.74l-2.45.15a2.85,2.85,0,0,1-1.32.47c-1,0-2.29-.89-2.26-1.83a50.8,50.8,0,0,0-.19-6.3,3,3,0,0,0-.89-1.9c-.32-.35-.43-.7-.24-1a9.87,9.87,0,0,1,2.41-2,1.18,1.18,0,0,1,1.29.15,6,6,0,0,1,2.21,2.84c1.64-.12,3.85-.31,5-.35.82,0,1.79.89,2.18,1.55s.27,1,0,1.29a3.29,3.29,0,0,1-2.69,1c-.81,0-2.37,0-4,.11L69.27,72c2.34,0,4.86.08,7.24,0,0-2.17,0-4.35-.08-5.87a2.3,2.3,0,0,0-.78-1.48c-.31-.31-.19-.73.2-1.12a5.6,5.6,0,0,1,2.25-1.4,1.71,1.71,0,0,1,1.28.31c.82.54,2,1.59,2,2.53,0,2.72.54,6,.35,9a3,3,0,0,1-2.22,2.49,4.08,4.08,0,0,1-1.94-.55c-.59,0-1.25,0-2,0v.27c0,.43,0,1.05,0,1.72,4.55-.12,7.89-.24,6.38-.24a24.75,24.75,0,0,1,3.23.2,6.73,6.73,0,0,1,3.14,1.51C89.26,80,89.41,80.27,89,81.36Zm-5.84,6.18a29,29,0,0,1-.31,3.7,6.09,6.09,0,0,1-1.48,3.42c-.46.43-.89.81-1.28,1.13a16.72,16.72,0,0,0-1.4,1.36,4.72,4.72,0,0,1-1.13-1.87,12.57,12.57,0,0,1-.35-2.56c0-.9,0-2.34,0-3.74-3.3,0-8.32.16-10.1.24s-3.31-.66-5-1.87a.65.65,0,0,1-.31-.78,5.19,5.19,0,0,1,.7-1.83c.39-.62.74-.66,1.17-.54a12.94,12.94,0,0,0,3.42.35c1.12,0,9.17-.27,9.68-.27,1.24,0,2.84-.27,3.65-.35a2.58,2.58,0,0,1,1.56.43c.7.46,1.51,1.08,1.55,1.75A2.89,2.89,0,0,1,83.19,87.54Z"/></g></svg>