<svg id="레이어_1" data-name="레이어 1" xmlns="http://www.w3.org/2000/svg" xmlns:xlink="http://www.w3.org/1999/xlink" viewBox="0 0 144.84 128"><defs><style>.cls-1{fill:none;}.cls-2{fill:#1eb3cf;}.cls-3{fill:#040000;}.cls-4{fill:#f3abb3;}.cls-5{fill:#efefef;}.cls-6{fill:#e94a64;}.cls-7{clip-path:url(#clip-path);}.cls-8{fill:#2f7cc1;}.cls-9{fill:#5f5f5f;}.cls-10{fill:#231815;}</style><clipPath id="clip-path"><polygon class="cls-1" points="110.42 28.59 34.47 28.59 1.82 77.54 34.47 126.5 110.42 126.5 143.06 77.54 110.42 28.59"/></clipPath></defs><polygon class="cls-2" points="110.37 28.59 34.42 28.59 1.78 77.54 34.42 126.5 110.37 126.5 143.01 77.54 110.37 28.59"/><path class="cls-3" d="M111.18,128H33.62L0,77.54,33.62,27.09h77.56l33.64,50.45Zm-76-3h74.34l31.64-47.46L109.57,30.09H35.23L3.59,77.54Z"/><rect class="cls-4" x="34.42" y="1.5" width="75.95" height="125"/><path class="cls-3" d="M111.87,128H32.92V0h79Zm-75.95-3h73V3H35.92Z"/><path class="cls-3" d="M111.87,128H32.92V0h79Zm-75.95-3h73V3H35.92Z"/><rect class="cls-5" x="46.13" y="1.5" width="52.62" height="109.84"/><path class="cls-3" d="M100.25,112.84H44.63V0h55.62Zm-52.62-3H97.25V3H47.63Z"/><rect class="cls-6" x="34.42" y="42.54" width="75.95" height="4.68"/><path class="cls-3" d="M111.87,48.72H32.92V41h79Zm-75.95-3h73V44H35.92Z"/><path class="cls-3" d="M92.91,83c-.63,1.73-1.88,1.64-3.85,1.49-7.8-.57-16.41.1-31.18.72a11.41,11.41,0,0,1-3.37-.38C53.31,84.47,52,83,52,82.4c0-1.2,2.55-3.12,4.28-3.22.82-.05,7-.24,13.33-.38V77.21a2.58,2.58,0,0,0-.14-.92l-3,.2a3.6,3.6,0,0,1-1.64.57C63.56,77,62,76,62,74.8A61.73,61.73,0,0,0,61.78,67a3.63,3.63,0,0,0-1.11-2.36c-.38-.43-.53-.86-.29-1.25a12.08,12.08,0,0,1,3-2.45,1.43,1.43,0,0,1,1.58.19,7.44,7.44,0,0,1,2.75,3.51c2-.14,4.76-.38,6.15-.43,1,0,2.22,1.11,2.7,1.92s.34,1.21,0,1.59A4,4,0,0,1,73.23,69c-1,0-2.94,0-4.91.14l.15,2.22c2.88,0,6,.09,8.94,0,0-2.7,0-5.39-.09-7.27a2.81,2.81,0,0,0-1-1.82c-.39-.39-.24-.92.24-1.4a7,7,0,0,1,2.79-1.73A2.13,2.13,0,0,1,81,59.5c1,.68,2.41,2,2.41,3.13,0,3.37.67,7.46.43,11.11a3.66,3.66,0,0,1-2.74,3.08,5.07,5.07,0,0,1-2.4-.67c-.73,0-1.54-.05-2.41-.05v.34c0,.53,0,1.3,0,2.12,5.63-.15,9.76-.29,7.89-.29a31,31,0,0,1,4,.24,8.46,8.46,0,0,1,3.9,1.87C93.19,81.35,93.39,81.64,92.91,83Zm-7.22,7.65a37.6,37.6,0,0,1-.39,4.57c-.38,2-.91,3.42-1.82,4.24-.58.53-1.11,1-1.59,1.39a18.7,18.7,0,0,0-1.73,1.68,5.63,5.63,0,0,1-1.4-2.3A15.32,15.32,0,0,1,78.33,97c0-1.11,0-2.89,0-4.62-4.09,0-10.3.19-12.51.29s-4.09-.82-6.21-2.31a.8.8,0,0,1-.38-1,6.18,6.18,0,0,1,.86-2.26c.49-.77.92-.82,1.45-.68a15.75,15.75,0,0,0,4.23.44c1.4,0,11.36-.34,12-.34,1.54,0,3.51-.34,4.52-.43a3.12,3.12,0,0,1,1.93.53c.86.57,1.87,1.34,1.92,2.16A3.65,3.65,0,0,1,85.69,90.63Z"/><g class="cls-7"><polygon class="cls-2" points="1.82 77.54 34.47 126.5 34.47 28.59 1.82 77.54"/><path class="cls-3" d="M36,131.45,0,77.54,36,23.63ZM3.63,77.54l29.33,44v-88Z"/><polygon class="cls-8" points="34.47 38.76 34.47 116.33 8.6 77.54 34.47 38.76"/><path class="cls-3" d="M36,121.29,6.8,77.54,36,33.8ZM10.41,77.54,33,111.38V43.71Z"/><polygon class="cls-9" points="34.47 48.92 34.47 106.17 15.38 77.54 34.47 48.92"/><path class="cls-10" d="M35.46,109.47,14.18,77.54,35.46,45.62ZM16.58,77.54l16.88,25.32V52.23Z"/><polygon class="cls-2" points="34.47 59.09 34.47 96 22.16 77.54 34.47 59.09"/><path class="cls-3" d="M36,101,20.36,77.54,36,54.14ZM24,77.54,33,91V64Z"/><polygon class="cls-2" points="143.22 77.54 110.58 28.59 110.58 126.5 143.22 77.54"/><path class="cls-3" d="M109.08,131.45V23.63L145,77.54Zm3-97.91v88l29.34-44Z"/><polygon class="cls-8" points="110.58 116.33 110.58 38.76 136.44 77.55 110.58 116.33"/><path class="cls-3" d="M109.08,121.29V33.8l29.16,43.74Zm3-77.58v67.67l22.56-33.84Z"/><polygon class="cls-9" points="110.58 106.17 110.58 48.92 129.66 77.55 110.58 106.17"/><path class="cls-10" d="M109.58,109.47V45.62l21.28,31.92Zm2-57.24v50.63l16.88-25.32Z"/><polygon class="cls-2" points="110.58 96 110.58 59.09 122.88 77.55 110.58 96"/><path class="cls-3" d="M109.08,101V54.14l15.6,23.4Zm3-36.9V91l9-13.5Z"/></g></svg>