<svg id="레이어_1" data-name="레이어 1" xmlns="http://www.w3.org/2000/svg" viewBox="0 0 144.84 128"><defs><style>.cls-1{fill:#b4ba44;}.cls-2{fill:#040000;}.cls-3{fill:#e1dc4d;}.cls-4{fill:#e5e5e5;}.cls-5{fill:#dd243d;}.cls-6{fill:#2f7cc1;}</style></defs><polygon class="cls-1" points="110.39 28.69 34.44 28.69 1.8 77.65 34.44 126.61 110.39 126.61 143.04 77.65 110.39 28.69"/><path class="cls-2" d="M111.2,128.11H33.64L0,77.65,33.64,27.19H111.2l33.64,50.46Zm-75.95-3h74.34l31.64-47.46L109.59,30.19H35.25L3.61,77.65Z"/><ellipse class="cls-3" cx="20.9" cy="73.54" rx="1.4" ry="4.33"/><ellipse class="cls-3" cx="16.79" cy="76.53" rx="1.4" ry="4.33" transform="translate(-61.19 68.85) rotate(-72)"/><ellipse class="cls-3" cx="18.36" cy="81.37" rx="4.33" ry="1.4" transform="translate(-58.26 48.39) rotate(-54)"/><ellipse class="cls-3" cx="23.45" cy="81.37" rx="1.4" ry="4.33" transform="translate(-43.35 29.32) rotate(-36)"/><ellipse class="cls-3" cx="25.02" cy="76.53" rx="4.33" ry="1.4" transform="translate(-22.42 11.48) rotate(-18)"/><ellipse class="cls-3" cx="33.28" cy="97.84" rx="1.4" ry="4.33"/><ellipse class="cls-3" cx="29.16" cy="100.83" rx="1.4" ry="4.33" transform="translate(-75.75 97.4) rotate(-72)"/><ellipse class="cls-3" cx="30.73" cy="105.67" rx="4.33" ry="1.4" transform="translate(-72.82 68.42) rotate(-54)"/><ellipse class="cls-3" cx="35.82" cy="105.67" rx="1.4" ry="4.33" transform="translate(-55.27 41.24) rotate(-36)"/><ellipse class="cls-3" cx="37.39" cy="100.83" rx="4.33" ry="1.4" transform="translate(-29.33 16.49) rotate(-18)"/><ellipse class="cls-3" cx="33.28" cy="50.8" rx="1.4" ry="4.33"/><ellipse class="cls-3" cx="29.16" cy="53.79" rx="1.4" ry="4.33" transform="translate(-31.01 64.9) rotate(-72)"/><ellipse class="cls-3" cx="30.73" cy="58.63" rx="4.33" ry="1.4" transform="translate(-34.76 49.03) rotate(-54)"/><ellipse class="cls-3" cx="35.82" cy="58.63" rx="1.4" ry="4.33" transform="translate(-27.62 32.25) rotate(-36)"/><ellipse class="cls-3" cx="37.39" cy="53.79" rx="4.33" ry="1.4" transform="translate(-14.79 14.19) rotate(-18)"/><ellipse class="cls-3" cx="123.94" cy="73.54" rx="1.4" ry="4.33"/><ellipse class="cls-3" cx="128.05" cy="76.53" rx="4.33" ry="1.4" transform="translate(-17.38 43.32) rotate(-18)"/><ellipse class="cls-3" cx="126.48" cy="81.37" rx="1.4" ry="4.33" transform="translate(-23.67 89.88) rotate(-36)"/><ellipse class="cls-3" cx="121.39" cy="81.37" rx="4.33" ry="1.4" transform="translate(-15.79 131.75) rotate(-54)"/><ellipse class="cls-3" cx="119.82" cy="76.53" rx="1.4" ry="4.33" transform="translate(10.01 166.84) rotate(-72)"/><ellipse class="cls-3" cx="111.56" cy="97.84" rx="1.4" ry="4.33"/><ellipse class="cls-3" cx="115.68" cy="100.83" rx="4.33" ry="1.4" transform="translate(-25.5 40.68) rotate(-18)"/><ellipse class="cls-3" cx="114.11" cy="105.67" rx="1.4" ry="4.33" transform="translate(-40.32 87.25) rotate(-36)"/><ellipse class="cls-3" cx="109.02" cy="105.67" rx="4.33" ry="1.4" transform="translate(-40.55 131.76) rotate(-54)"/><ellipse class="cls-3" cx="107.45" cy="100.83" rx="1.4" ry="4.33" transform="translate(-21.65 171.86) rotate(-72)"/><ellipse class="cls-3" cx="111.56" cy="50.8" rx="1.4" ry="4.33"/><ellipse class="cls-3" cx="115.68" cy="53.79" rx="4.33" ry="1.4" transform="translate(-10.96 38.38) rotate(-18)"/><ellipse class="cls-3" cx="114.11" cy="58.63" rx="1.4" ry="4.33" transform="translate(-12.67 78.27) rotate(-36)"/><ellipse class="cls-3" cx="109.02" cy="58.63" rx="4.33" ry="1.4" transform="translate(-2.49 112.36) rotate(-54)"/><ellipse class="cls-3" cx="107.45" cy="53.79" rx="1.4" ry="4.33" transform="translate(23.09 139.35) rotate(-72)"/><rect class="cls-1" x="34.44" y="1.4" width="75.95" height="125"/><path class="cls-2" d="M111.89,127.9H32.94V-.1h79Zm-75.95-3h73V2.9H35.94Z"/><circle class="cls-4" cx="72.42" cy="79.25" r="30.38"/><path class="cls-2" d="M72.42,111.13A31.88,31.88,0,1,1,104.3,79.25,31.91,31.91,0,0,1,72.42,111.13Zm0-60.76A28.88,28.88,0,1,0,101.3,79.25,28.91,28.91,0,0,0,72.42,50.37Z"/><path class="cls-2" d="M92.88,83.09C92.26,84.82,91,84.72,89,84.58c-7.8-.58-16.41.09-31.18.72a11.42,11.42,0,0,1-3.37-.39c-1.2-.33-2.5-1.78-2.5-2.4,0-1.2,2.55-3.13,4.28-3.22.82-.05,7-.24,13.33-.39V77.31a2.34,2.34,0,0,0-.15-.91l-3,.19a3.45,3.45,0,0,1-1.63.58c-1.25,0-2.84-1.11-2.79-2.26a63.77,63.77,0,0,0-.24-7.8,3.63,3.63,0,0,0-1.11-2.35c-.38-.44-.53-.87-.29-1.25a12.26,12.26,0,0,1,3-2.46,1.46,1.46,0,0,1,1.59.19,7.44,7.44,0,0,1,2.74,3.52c2-.15,4.77-.39,6.16-.44,1,0,2.22,1.11,2.7,1.93s.33,1.2,0,1.59a4,4,0,0,1-3.32,1.29c-1,0-2.94.05-4.91.15l.14,2.21c2.89.05,6,.1,9,0,0-2.69,0-5.38-.09-7.26a2.8,2.8,0,0,0-1-1.83c-.38-.38-.24-.91.24-1.39a7.22,7.22,0,0,1,2.8-1.74,2.15,2.15,0,0,1,1.58.39c1,.67,2.41,2,2.41,3.13,0,3.36.67,7.45.43,11.11a3.67,3.67,0,0,1-2.74,3.08,5,5,0,0,1-2.41-.68c-.72,0-1.54,0-2.4,0v.33c.05.53.05,1.3.05,2.12,5.63-.14,9.76-.29,7.89-.29a31,31,0,0,1,4,.24,8.42,8.42,0,0,1,3.9,1.88C93.17,81.45,93.37,81.74,92.88,83.09Zm-7.21,7.65a38,38,0,0,1-.39,4.57c-.38,2-.91,3.41-1.83,4.23-.57.53-1.1,1-1.58,1.4a18.7,18.7,0,0,0-1.73,1.68,5.75,5.75,0,0,1-1.4-2.31,15.23,15.23,0,0,1-.43-3.17c0-1.11,0-2.89,0-4.62-4.09,0-10.3.19-12.51.29S61.71,92,59.59,90.5a.81.81,0,0,1-.38-1,6.25,6.25,0,0,1,.86-2.26c.48-.77.92-.82,1.45-.67a16.15,16.15,0,0,0,4.23.43c1.4,0,11.35-.34,12-.34,1.54,0,3.51-.33,4.52-.43a3.2,3.2,0,0,1,1.93.53c.86.58,1.87,1.35,1.92,2.17A3.71,3.71,0,0,1,85.67,90.74Z"/><path class="cls-2" d="M111.89,128.11H32.94V.1h79Zm-75.95-3h73V3.1H35.94Z"/><path class="cls-5" d="M34.89,2.16H53.73a0,0,0,0,1,0,0V26.9a9.42,9.42,0,0,1-9.42,9.42h0a9.42,9.42,0,0,1-9.42-9.42V2.16A0,0,0,0,1,34.89,2.16Z"/><path class="cls-2" d="M44.31,37.32A10.44,10.44,0,0,1,33.89,26.9V1.16H54.73V26.9A10.43,10.43,0,0,1,44.31,37.32ZM35.89,3.16V26.9a8.42,8.42,0,1,0,16.84,0V3.16Z"/><path class="cls-6" d="M44.31,33A6.12,6.12,0,0,1,38.2,26.9V2.16H50.42V26.9A6.12,6.12,0,0,1,44.31,33Z"/><path class="cls-2" d="M44.31,34A7.12,7.12,0,0,1,37.2,26.9V1.16H51.42V26.9A7.12,7.12,0,0,1,44.31,34ZM39.2,3.16V26.9a5.11,5.11,0,1,0,10.22,0V3.16Z"/><path class="cls-1" d="M44.31,29.69a2.79,2.79,0,0,1-2.79-2.79V2.16h5.59V26.9A2.79,2.79,0,0,1,44.31,29.69Z"/><path class="cls-2" d="M44.31,30.69a3.79,3.79,0,0,1-3.79-3.79V1.16h7.59V26.9A3.8,3.8,0,0,1,44.31,30.69ZM42.52,3.16V26.9a1.8,1.8,0,0,0,3.59,0V3.16Z"/><path class="cls-5" d="M53.62,2.16H72.47a0,0,0,0,1,0,0V26.9A9.42,9.42,0,0,1,63,36.32h0a9.42,9.42,0,0,1-9.42-9.42V2.16a0,0,0,0,1,0,0Z"/><path class="cls-2" d="M63,37.32A10.44,10.44,0,0,1,52.62,26.9V1.16H73.47V26.9A10.44,10.44,0,0,1,63,37.32ZM54.62,3.16V26.9a8.43,8.43,0,0,0,16.85,0V3.16Z"/><path class="cls-6" d="M63,33a6.12,6.12,0,0,1-6.11-6.11V2.16H69.15V26.9A6.12,6.12,0,0,1,63,33Z"/><path class="cls-2" d="M63,34a7.12,7.12,0,0,1-7.11-7.11V1.16H70.15V26.9A7.12,7.12,0,0,1,63,34ZM57.93,3.16V26.9a5.11,5.11,0,0,0,10.22,0V3.16Z"/><path class="cls-1" d="M63,29.69a2.79,2.79,0,0,1-2.79-2.79V2.16h5.59V26.9A2.79,2.79,0,0,1,63,29.69Z"/><path class="cls-2" d="M63,30.69a3.79,3.79,0,0,1-3.79-3.79V1.16h7.59V26.9A3.8,3.8,0,0,1,63,30.69ZM61.25,3.16V26.9a1.8,1.8,0,0,0,3.59,0V3.16Z"/><path class="cls-5" d="M72.35,2.16H91.2a0,0,0,0,1,0,0V26.9a9.42,9.42,0,0,1-9.42,9.42h0a9.42,9.42,0,0,1-9.42-9.42V2.16A0,0,0,0,1,72.35,2.16Z"/><path class="cls-2" d="M81.78,37.32A10.44,10.44,0,0,1,71.35,26.9V1.16H92.2V26.9A10.44,10.44,0,0,1,81.78,37.32ZM73.35,3.16V26.9a8.43,8.43,0,0,0,16.85,0V3.16Z"/><path class="cls-6" d="M81.78,33a6.12,6.12,0,0,1-6.11-6.11V2.16H87.88V26.9A6.11,6.11,0,0,1,81.78,33Z"/><path class="cls-2" d="M81.78,34a7.12,7.12,0,0,1-7.11-7.11V1.16H88.88V26.9A7.11,7.11,0,0,1,81.78,34ZM76.67,3.16V26.9a5.11,5.11,0,1,0,10.21,0V3.16Z"/><path class="cls-1" d="M81.78,29.69A2.79,2.79,0,0,1,79,26.9V2.16h5.59V26.9A2.79,2.79,0,0,1,81.78,29.69Z"/><path class="cls-2" d="M81.78,30.69A3.8,3.8,0,0,1,78,26.9V1.16h7.59V26.9A3.79,3.79,0,0,1,81.78,30.69ZM80,3.16V26.9a1.8,1.8,0,0,0,3.59,0V3.16Z"/><path class="cls-5" d="M91.08,2.16h18.84a0,0,0,0,1,0,0V26.9a9.42,9.42,0,0,1-9.42,9.42h0a9.42,9.42,0,0,1-9.42-9.42V2.16A0,0,0,0,1,91.08,2.16Z"/><path class="cls-2" d="M100.51,37.32A10.44,10.44,0,0,1,90.08,26.9V1.16h20.85V26.9A10.44,10.44,0,0,1,100.51,37.32ZM92.08,3.16V26.9a8.43,8.43,0,0,0,16.85,0V3.16Z"/><path class="cls-6" d="M100.51,33A6.12,6.12,0,0,1,94.4,26.9V2.16h12.22V26.9A6.12,6.12,0,0,1,100.51,33Z"/><path class="cls-2" d="M100.51,34A7.12,7.12,0,0,1,93.4,26.9V1.16h14.22V26.9A7.12,7.12,0,0,1,100.51,34ZM95.4,3.16V26.9a5.11,5.11,0,1,0,10.22,0V3.16Z"/><path class="cls-1" d="M100.51,29.69a2.79,2.79,0,0,1-2.8-2.79V2.16h5.59V26.9A2.79,2.79,0,0,1,100.51,29.69Z"/><path class="cls-2" d="M100.51,30.69a3.8,3.8,0,0,1-3.8-3.79V1.16h7.59V26.9A3.79,3.79,0,0,1,100.51,30.69ZM98.71,3.16V26.9a1.8,1.8,0,0,0,3.59,0V3.16Z"/></svg>