<svg id="레이어_1" data-name="레이어 1" xmlns="http://www.w3.org/2000/svg" xmlns:xlink="http://www.w3.org/1999/xlink" viewBox="0 0 144.84 128"><defs><style>.cls-1{fill:none;}.cls-2{clip-path:url(#clip-path);}.cls-3{fill:#dd243d;}.cls-4{fill:#040000;}.cls-5{fill:#f5f4b0;}.cls-6{fill:#e5e5e5;}.cls-7{fill:#ea8f36;}.cls-8{fill:#4392ce;}.cls-9{fill:#e4ad40;}.cls-10{fill:#20877c;}.cls-11{fill:#b9ac31;}.cls-12{fill:#c6c6c6;}.cls-13{fill:#efefef;}.cls-14{fill:#e61b16;}</style><clipPath id="clip-path"><polygon class="cls-1" points="110.39 28.69 34.44 28.69 1.8 77.65 34.44 126.61 110.39 126.61 143.04 77.65 110.39 28.69"/></clipPath></defs><g class="cls-2"><rect class="cls-3" x="118.85" y="23.1" width="8.46" height="16.91"/><path class="cls-4" d="M128.31,41H117.85V22.1h10.46Zm-8.46-2h6.46V24.1h-6.46Z"/><rect class="cls-5" x="110.39" y="23.1" width="8.46" height="16.91"/><path class="cls-4" d="M119.85,41H109.39V22.1h10.46Zm-8.46-2h6.46V24.1h-6.46Z"/><rect class="cls-6" x="135.76" y="40.02" width="8.46" height="16.91"/><path class="cls-4" d="M145.22,57.93H134.76V39h10.46Zm-8.46-2h6.46V41h-6.46Z"/><rect class="cls-7" x="127.31" y="40.02" width="8.46" height="16.91"/><path class="cls-4" d="M136.76,57.93H126.31V39h10.45Zm-8.45-2h6.45V41h-6.45Z"/><rect class="cls-8" x="131.53" y="27.33" width="8.46" height="16.91" transform="translate(171.55 -99.97) rotate(90)"/><path class="cls-4" d="M145.22,41H126.31V30.56h18.91Zm-16.91-2h14.91V32.56H128.31Z"/><rect class="cls-9" x="131.53" y="18.88" width="8.46" height="16.91" transform="translate(163.09 -108.43) rotate(90)"/><path class="cls-4" d="M145.22,32.56H126.31V22.1h18.91Zm-16.91-2h14.91V24.1H128.31Z"/><rect class="cls-10" x="114.62" y="44.24" width="8.46" height="16.91" transform="translate(171.55 -66.15) rotate(90)"/><path class="cls-4" d="M128.31,57.93H109.39V47.47h18.92Zm-16.92-2h14.92V49.47H111.39Z"/><rect class="cls-11" x="114.62" y="35.79" width="8.46" height="16.91" transform="translate(163.09 -74.61) rotate(90)"/><path class="cls-4" d="M128.31,49.47H109.39V39h18.92Zm-16.92-2h14.92V41H111.39Z"/><rect class="cls-3" x="118.85" y="56.93" width="8.46" height="16.91"/><path class="cls-4" d="M128.31,74.84H117.85V55.93h10.46Zm-8.46-2h6.46V57.93h-6.46Z"/><rect class="cls-5" x="110.39" y="56.93" width="8.46" height="16.91"/><path class="cls-4" d="M119.85,74.84H109.39V55.93h10.46Zm-8.46-2h6.46V57.93h-6.46Z"/><rect class="cls-6" x="135.76" y="73.84" width="8.46" height="16.91"/><path class="cls-4" d="M145.22,91.75H134.76V72.84h10.46Zm-8.46-2h6.46V74.84h-6.46Z"/><rect class="cls-7" x="127.31" y="73.84" width="8.46" height="16.91"/><path class="cls-4" d="M136.76,91.75H126.31V72.84h10.45Zm-8.45-2h6.45V74.84h-6.45Z"/><rect class="cls-8" x="131.53" y="61.16" width="8.46" height="16.91" transform="translate(205.38 -66.15) rotate(90)"/><path class="cls-4" d="M145.22,74.84H126.31V64.38h18.91Zm-16.91-2h14.91V66.38H128.31Z"/><rect class="cls-9" x="131.53" y="52.7" width="8.46" height="16.91" transform="translate(196.92 -74.61) rotate(90)"/><path class="cls-4" d="M145.22,66.38H126.31V55.93h18.91Zm-16.91-2h14.91V57.93H128.31Z"/><rect class="cls-10" x="114.62" y="78.07" width="8.46" height="16.91" transform="translate(205.38 -32.33) rotate(90)"/><path class="cls-4" d="M128.31,91.75H109.39V81.3h18.92Zm-16.92-2h14.92V83.3H111.39Z"/><rect class="cls-11" x="114.62" y="69.61" width="8.46" height="16.91" transform="translate(196.92 -40.78) rotate(90)"/><path class="cls-4" d="M128.31,83.3H109.39V72.84h18.92Zm-16.92-2h14.92V74.84H111.39Z"/><rect class="cls-3" x="118.85" y="90.75" width="8.46" height="16.91"/><path class="cls-4" d="M128.31,108.66H117.85V89.75h10.46Zm-8.46-2h6.46V91.75h-6.46Z"/><rect class="cls-5" x="110.39" y="90.75" width="8.46" height="16.91"/><path class="cls-4" d="M119.85,108.66H109.39V89.75h10.46Zm-8.46-2h6.46V91.75h-6.46Z"/><rect class="cls-6" x="135.76" y="107.66" width="8.46" height="16.91"/><path class="cls-4" d="M145.22,125.58H134.76V106.66h10.46Zm-8.46-2h6.46V108.66h-6.46Z"/><rect class="cls-7" x="127.31" y="107.66" width="8.46" height="16.91"/><path class="cls-4" d="M136.76,125.58H126.31V106.66h10.45Zm-8.45-2h6.45V108.66h-6.45Z"/><rect class="cls-8" x="131.53" y="94.98" width="8.46" height="16.91" transform="translate(239.2 -32.33) rotate(90)"/><path class="cls-4" d="M145.22,108.66H126.31V98.21h18.91Zm-16.91-2h14.91v-6.45H128.31Z"/><rect class="cls-9" x="131.53" y="86.52" width="8.46" height="16.91" transform="translate(230.74 -40.78) rotate(90)"/><path class="cls-4" d="M145.22,100.21H126.31V89.75h18.91Zm-16.91-2h14.91V91.75H128.31Z"/><rect class="cls-10" x="114.62" y="111.89" width="8.46" height="16.91" transform="translate(239.2 1.5) rotate(90)"/><path class="cls-4" d="M128.31,125.58H109.39V115.12h18.92Zm-16.92-2h14.92v-6.46H111.39Z"/><rect class="cls-11" x="114.62" y="103.44" width="8.46" height="16.91" transform="translate(230.74 -6.96) rotate(90)"/><path class="cls-4" d="M128.31,117.12H109.39V106.66h18.92Zm-16.92-2h14.92v-6.46H111.39Z"/><rect class="cls-3" x="118.85" y="124.58" width="8.46" height="16.91"/><path class="cls-4" d="M128.31,142.49H117.85V123.58h10.46Zm-8.46-2h6.46V125.58h-6.46Z"/><rect class="cls-5" x="110.39" y="124.58" width="8.46" height="16.91"/><path class="cls-4" d="M119.85,142.49H109.39V123.58h10.46Zm-8.46-2h6.46V125.58h-6.46Z"/><rect class="cls-9" x="131.53" y="120.35" width="8.46" height="16.91" transform="translate(264.57 -6.96) rotate(90)"/><path class="cls-4" d="M145.22,134H126.31V123.58h18.91Zm-16.91-2h14.91v-6.45H128.31Z"/><rect class="cls-3" x="9.44" y="23.1" width="8.46" height="16.91"/><path class="cls-4" d="M18.89,41H8.44V22.1H18.89Zm-8.45-2h6.45V24.1H10.44Z"/><rect class="cls-5" x="0.98" y="23.1" width="8.46" height="16.91"/><path class="cls-4" d="M10.44,41H0V22.1H10.44ZM2,39H8.44V24.1H2Z"/><rect class="cls-6" x="26.35" y="40.02" width="8.46" height="16.91"/><path class="cls-4" d="M35.81,57.93H25.35V39H35.81Zm-8.46-2h6.46V41H27.35Z"/><rect class="cls-7" x="17.89" y="40.02" width="8.46" height="16.91"/><path class="cls-4" d="M27.35,57.93H16.89V39H27.35Zm-8.46-2h6.46V41H18.89Z"/><rect class="cls-8" x="22.12" y="27.33" width="8.46" height="16.91" transform="translate(62.14 9.44) rotate(90)"/><path class="cls-4" d="M35.81,41H16.89V30.56H35.81ZM18.89,39H33.81V32.56H18.89Z"/><rect class="cls-9" x="22.12" y="18.88" width="8.46" height="16.91" transform="translate(53.68 0.98) rotate(90)"/><path class="cls-4" d="M35.81,32.56H16.89V22.1H35.81Zm-16.92-2H33.81V24.1H18.89Z"/><rect class="cls-10" x="5.21" y="44.24" width="8.46" height="16.91" transform="translate(62.14 43.26) rotate(90)"/><path class="cls-4" d="M18.89,57.93H0V47.47H18.89ZM2,55.93H16.89V49.47H2Z"/><rect class="cls-11" x="5.21" y="35.79" width="8.46" height="16.91" transform="translate(53.68 34.81) rotate(90)"/><path class="cls-4" d="M18.89,49.47H0V39H18.89ZM2,47.47H16.89V41H2Z"/><rect class="cls-3" x="9.44" y="56.93" width="8.46" height="16.91"/><path class="cls-4" d="M18.89,74.84H8.44V55.93H18.89Zm-8.45-2h6.45V57.93H10.44Z"/><rect class="cls-5" x="0.98" y="56.93" width="8.46" height="16.91"/><path class="cls-4" d="M10.44,74.84H0V55.93H10.44ZM2,72.84H8.44V57.93H2Z"/><rect class="cls-6" x="26.35" y="73.84" width="8.46" height="16.91"/><path class="cls-4" d="M35.81,91.75H25.35V72.84H35.81Zm-8.46-2h6.46V74.84H27.35Z"/><rect class="cls-7" x="17.89" y="73.84" width="8.46" height="16.91"/><path class="cls-4" d="M27.35,91.75H16.89V72.84H27.35Zm-8.46-2h6.46V74.84H18.89Z"/><rect class="cls-8" x="22.12" y="61.16" width="8.46" height="16.91" transform="translate(95.96 43.26) rotate(90)"/><path class="cls-4" d="M35.81,74.84H16.89V64.38H35.81Zm-16.92-2H33.81V66.38H18.89Z"/><rect class="cls-9" x="22.12" y="52.7" width="8.46" height="16.91" transform="translate(87.51 34.81) rotate(90)"/><path class="cls-4" d="M35.81,66.38H16.89V55.93H35.81Zm-16.92-2H33.81V57.93H18.89Z"/><rect class="cls-10" x="5.21" y="78.07" width="8.46" height="16.91" transform="translate(95.96 77.09) rotate(90)"/><path class="cls-4" d="M18.89,91.75H0V81.3H18.89ZM2,89.75H16.89V83.3H2Z"/><rect class="cls-11" x="5.21" y="69.61" width="8.46" height="16.91" transform="translate(87.51 68.63) rotate(90)"/><path class="cls-4" d="M18.89,83.3H0V72.84H18.89ZM2,81.3H16.89V74.84H2Z"/><rect class="cls-3" x="9.44" y="90.75" width="8.46" height="16.91"/><path class="cls-4" d="M18.89,108.66H8.44V89.75H18.89Zm-8.45-2h6.45V91.75H10.44Z"/><rect class="cls-5" x="0.98" y="90.75" width="8.46" height="16.91"/><path class="cls-4" d="M10.44,108.66H0V89.75H10.44Zm-8.46-2H8.44V91.75H2Z"/><rect class="cls-6" x="26.35" y="107.66" width="8.46" height="16.91"/><path class="cls-4" d="M35.81,125.58H25.35V106.66H35.81Zm-8.46-2h6.46V108.66H27.35Z"/><rect class="cls-7" x="17.89" y="107.66" width="8.46" height="16.91"/><path class="cls-4" d="M27.35,125.58H16.89V106.66H27.35Zm-8.46-2h6.46V108.66H18.89Z"/><rect class="cls-8" x="22.12" y="94.98" width="8.46" height="16.91" transform="translate(129.79 77.09) rotate(90)"/><path class="cls-4" d="M35.81,108.66H16.89V98.21H35.81Zm-16.92-2H33.81v-6.45H18.89Z"/><rect class="cls-9" x="22.12" y="86.52" width="8.46" height="16.91" transform="translate(121.33 68.63) rotate(90)"/><path class="cls-4" d="M35.81,100.21H16.89V89.75H35.81Zm-16.92-2H33.81V91.75H18.89Z"/><rect class="cls-10" x="5.21" y="111.89" width="8.46" height="16.91" transform="translate(129.79 110.91) rotate(90)"/><path class="cls-4" d="M18.89,125.58H0V115.12H18.89ZM2,123.58H16.89v-6.46H2Z"/><rect class="cls-11" x="5.21" y="103.44" width="8.46" height="16.91" transform="translate(121.33 102.45) rotate(90)"/><path class="cls-4" d="M18.89,117.12H0V106.66H18.89ZM2,115.12H16.89v-6.46H2Z"/><rect class="cls-3" x="9.44" y="124.58" width="8.46" height="16.91"/><path class="cls-4" d="M18.89,142.49H8.44V123.58H18.89Zm-8.45-2h6.45V125.58H10.44Z"/><rect class="cls-5" x="0.98" y="124.58" width="8.46" height="16.91"/><path class="cls-4" d="M10.44,142.49H0V123.58H10.44Zm-8.46-2H8.44V125.58H2Z"/><rect class="cls-9" x="22.12" y="120.35" width="8.46" height="16.91" transform="translate(155.16 102.45) rotate(90)"/><path class="cls-4" d="M35.81,134H16.89V123.58H35.81Zm-16.92-2H33.81v-6.45H18.89Z"/></g><path class="cls-4" d="M111.2,128.11H33.64L0,77.65,33.64,27.19H111.2l33.64,50.46Zm-75.95-3h74.34l31.64-47.46L109.59,30.19H35.25L3.61,77.65Z"/><rect class="cls-12" x="34.44" y="1.6" width="75.95" height="125"/><path class="cls-4" d="M111.89,128.11H32.94V.1h79Zm-75.95-3h73V3.1H35.94Z"/><path class="cls-4" d="M92.89,83.09C92.26,84.82,91,84.72,89,84.58c-7.8-.58-16.41.09-31.18.72a11.42,11.42,0,0,1-3.37-.39c-1.2-.33-2.5-1.78-2.5-2.4,0-1.2,2.55-3.13,4.28-3.22.82-.05,7-.24,13.33-.39V77.31a2.56,2.56,0,0,0-.14-.91l-3,.19a3.45,3.45,0,0,1-1.63.58c-1.25,0-2.84-1.11-2.79-2.26a63.77,63.77,0,0,0-.24-7.8,3.63,3.63,0,0,0-1.11-2.35c-.38-.44-.53-.87-.29-1.25a12.12,12.12,0,0,1,3-2.46,1.45,1.45,0,0,1,1.58.19,7.53,7.53,0,0,1,2.75,3.52c2-.15,4.76-.39,6.15-.44,1,0,2.22,1.11,2.7,1.93s.33,1.2,0,1.59a4,4,0,0,1-3.32,1.29c-1,0-2.94.05-4.91.15l.15,2.21c2.88.05,6,.1,8.94,0,0-2.69,0-5.38-.09-7.26a2.83,2.83,0,0,0-1-1.83c-.39-.38-.25-.91.24-1.39a7.12,7.12,0,0,1,2.79-1.74,2.15,2.15,0,0,1,1.58.39c1,.67,2.41,2,2.41,3.13,0,3.36.67,7.45.43,11.11a3.67,3.67,0,0,1-2.74,3.08,5,5,0,0,1-2.41-.68c-.72,0-1.53,0-2.4,0v.33c.05.53.05,1.3.05,2.12,5.63-.14,9.76-.29,7.89-.29a31,31,0,0,1,4,.24,8.42,8.42,0,0,1,3.9,1.88C93.17,81.45,93.37,81.74,92.89,83.09Zm-7.22,7.65a38,38,0,0,1-.39,4.57c-.38,2-.91,3.41-1.82,4.23-.58.53-1.11,1-1.59,1.4a18.7,18.7,0,0,0-1.73,1.68,5.75,5.75,0,0,1-1.4-2.31,15.23,15.23,0,0,1-.43-3.17c0-1.11,0-2.89,0-4.62-4.09,0-10.3.19-12.51.29S61.71,92,59.59,90.5a.81.81,0,0,1-.38-1,6.25,6.25,0,0,1,.86-2.26c.48-.77.92-.82,1.45-.67a16.15,16.15,0,0,0,4.23.43c1.4,0,11.36-.34,12-.34,1.54,0,3.51-.33,4.52-.43a3.2,3.2,0,0,1,1.93.53c.86.58,1.87,1.35,1.92,2.17A3.71,3.71,0,0,1,85.67,90.74Z"/><rect class="cls-13" x="45.81" y="24.97" width="53.23" height="21.54"/><path class="cls-4" d="M100,47.51H44.81V24H100Zm-53.22-2H98V26H46.81Z"/><rect class="cls-14" x="34.86" y="33.7" width="75.11" height="4.08"/><path class="cls-4" d="M111,38.78H33.86V32.7H111Zm-75.12-2H109V34.7H35.86Z"/></svg>