<svg id="레이어_1" data-name="레이어 1" xmlns="http://www.w3.org/2000/svg" viewBox="0 0 81.96 128"><defs><style>.cls-1{fill:#f4f4f4;}.cls-2{fill:#040000;}</style></defs><rect class="cls-1" x="1.5" y="1.5" width="78.96" height="125"/><path class="cls-2" d="M82,128H0V0H82ZM3,125H79V3H3Z"/><polygon class="cls-1" points="75.46 15.12 6.5 15.12 1.5 1.5 80.46 1.5 75.46 15.12"/><path class="cls-2" d="M76.16,16.12H5.8L.07.5H81.89Zm-69-2H74.76L79,2.5H2.93Z"/><polygon class="cls-1" points="6.5 112.88 75.46 112.88 80.46 126.5 1.5 126.5 6.5 112.88"/><path class="cls-2" d="M81.89,127.5H.07L5.8,111.88H76.16Zm-79-2H79l-4.27-11.62H7.2Z"/><rect class="cls-2" x="40.73" y="15.12" width="0.5" height="97.75"/><path class="cls-2" d="M59.38,69c-.09.77-2.93,2.12-3.8,2a30.62,30.62,0,0,0-4-.28c-3.46,0-21.45.81-25.59.81a5.58,5.58,0,0,1-3.85-1.78A2.38,2.38,0,0,1,22,66.84a5.4,5.4,0,0,1,1.3-1.58,1.4,1.4,0,0,1,1.49-.34,6.5,6.5,0,0,0,2.89.48c1.06,0,5.29-.09,9.91-.24v-2.4a4.23,4.23,0,0,0-.14-1.06l-5.15.19a2.78,2.78,0,0,1-2.5-1A2.39,2.39,0,0,1,29.08,59a3.21,3.21,0,0,1,.57-1.2c0-2.16,0-4.52-.09-6.69l-.2-.19A1.68,1.68,0,0,1,28.88,49a10.69,10.69,0,0,1,1.88-2.6,1.3,1.3,0,0,1,1.2,0,7.41,7.41,0,0,0,2.46.58c3,0,10.19-.44,13-.63a2.26,2.26,0,0,1,1.83.63c1,.86,2.17,2.21,2.12,3,0,1.11-1.93,2.36-3.42,2.36-2,0-8,.14-11.59.24,0,1,0,2.21,0,3.46,4.67,0,13-.29,14.82-.43.62,0,1.78.82,1.54,1.59a7.24,7.24,0,0,1-2.6,3.8,5,5,0,0,1-2.74.67H44.18V62c0,.77,0,1.87,0,2.93,3.18-.1,5.82-.19,6.74-.29,3.46-.29,4-.14,5.86.92C59.38,67,59.48,68.24,59.38,69ZM55.05,82.24c.1,1-1.15,2.07-2.45,2.89a6.24,6.24,0,0,1-2.89.91c-2.45.1-7.74.34-10.92.34s-4.13-.72-5.67-2.65a50.93,50.93,0,0,0-4-5A7.87,7.87,0,0,0,28,77.67a3.12,3.12,0,0,1-1.16-1,1.19,1.19,0,0,1,.29-1.25,8.19,8.19,0,0,1,4.14-1.88c1.06-.09,1.73-.24,2.5.53s2.84,3.27,4,4.57a3.38,3.38,0,0,0,2.7,1.45c2.84,0,5.58-.15,7.46-.34,2.11-.24,2.83-.53,3.65-.34C52.7,79.69,55,81.57,55.05,82.24Z"/></svg>