<svg id="레이어_1" data-name="레이어 1" xmlns="http://www.w3.org/2000/svg" viewBox="0 0 81.96 128"><defs><style>.cls-1{fill:#f4f4f4;}.cls-2{fill:#040000;}</style></defs><rect class="cls-1" x="1.5" y="1.5" width="78.96" height="125"/><path class="cls-2" d="M82,128H0V0H82ZM3,125H79V3H3Z"/><polygon class="cls-1" points="75.46 15.12 6.5 15.12 1.5 1.5 80.46 1.5 75.46 15.12"/><path class="cls-2" d="M76.16,16.12H5.8L.07.5H81.89Zm-69-2H74.76L79,2.5H2.93Z"/><polygon class="cls-1" points="6.5 112.88 75.46 112.88 80.46 126.5 1.5 126.5 6.5 112.88"/><path class="cls-2" d="M81.89,127.5H.07L5.8,111.88H76.16Zm-79-2H79l-4.27-11.62H7.2Z"/><rect class="cls-2" x="40.73" y="15.12" width="0.5" height="97.75"/><path class="cls-2" d="M61.51,68.82c-.62,1.73-1.87,1.63-3.85,1.49-7.79-.58-16.4.1-31.17.72a11.75,11.75,0,0,1-3.37-.38c-1.2-.34-2.5-1.78-2.5-2.41,0-1.2,2.55-3.13,4.28-3.22.82,0,7-.24,13.33-.39V63a2.34,2.34,0,0,0-.15-.91l-3,.19a3.45,3.45,0,0,1-1.64.58c-1.25,0-2.83-1.11-2.79-2.26a61.83,61.83,0,0,0-.24-7.8,3.62,3.62,0,0,0-1.1-2.35c-.39-.44-.53-.87-.29-1.25a12.07,12.07,0,0,1,3-2.46,1.47,1.47,0,0,1,1.59.19,7.44,7.44,0,0,1,2.74,3.52c2-.15,4.76-.39,6.16-.44,1,0,2.21,1.11,2.69,1.93s.34,1.2,0,1.59a4,4,0,0,1-3.32,1.3c-1,0-2.93,0-4.9.14l.14,2.21c2.89.05,6,.1,9,0,0-2.7,0-5.39-.1-7.27a2.75,2.75,0,0,0-1-1.83c-.38-.38-.24-.91.24-1.39A7.19,7.19,0,0,1,48,45a2.16,2.16,0,0,1,1.59.39c1,.67,2.41,2,2.41,3.13,0,3.36.67,7.45.43,11.11a3.68,3.68,0,0,1-2.74,3.08A5.08,5.08,0,0,1,47.27,62c-.72,0-1.54-.05-2.4-.05v.33c0,.53,0,1.3,0,2.12,5.63-.14,9.77-.29,7.89-.29a31.07,31.07,0,0,1,4,.24,8.48,8.48,0,0,1,3.89,1.88C61.8,67.18,62,67.47,61.51,68.82Zm-7.22,7.65A38.21,38.21,0,0,1,53.91,81c-.38,2-.91,3.41-1.83,4.23-.58.53-1.1,1-1.59,1.4a21.61,21.61,0,0,0-1.73,1.68A5.78,5.78,0,0,1,47.37,86a15.27,15.27,0,0,1-.44-3.17c0-1.11,0-2.89,0-4.62-4.09,0-10.29.19-12.5.29s-4.09-.82-6.21-2.31a.83.83,0,0,1-.39-1A6.47,6.47,0,0,1,28.7,73c.48-.77.91-.81,1.44-.67a15.86,15.86,0,0,0,4.24.43c1.39,0,11.35-.33,12-.33A45.26,45.26,0,0,0,50.88,72a3.16,3.16,0,0,1,1.92.53c.87.58,1.88,1.35,1.93,2.17A3.7,3.7,0,0,1,54.29,76.47Z"/></svg>