<svg width="320" height="90" viewBox="0 0 320 90" fill="none" xmlns="http://www.w3.org/2000/svg">
<g clip-path="url(#clip0_25_553)">
<path d="M319.1 31.48H0.909973L10.17 5.26002C10.5409 4.17569 11.2395 3.23338 12.1693 2.56338C13.099 1.89339 14.214 1.52879 15.36 1.52002H304.65C305.795 1.52792 306.909 1.89233 307.837 2.56259C308.766 3.23286 309.462 4.17568 309.83 5.26002L319.1 31.48Z" fill="#C47B42"/>
<path d="M321.2 33H-1.20001L8.79999 4.74C9.26798 3.36788 10.1504 2.17492 11.3255 1.32585C12.5006 0.476788 13.9103 0.013511 15.36 0L304.65 0C306.101 0.0114473 307.513 0.473769 308.69 1.32298C309.867 2.17219 310.751 3.36628 311.22 4.74L321.2 33ZM2.99999 30H317L308.45 5.78C308.183 4.97998 307.674 4.28276 306.993 3.78474C306.312 3.28672 305.493 3.0125 304.65 3H15.36C14.5215 3.00961 13.7064 3.27799 13.0262 3.76844C12.346 4.25888 11.834 4.94746 11.56 5.74L2.99999 30Z" fill="#040000"/>
<path d="M4.55997 44.13H7.81997V77.67C7.81997 80.1445 8.80295 82.5176 10.5527 84.2673C12.3024 86.017 14.6755 87 17.15 87H302.86C305.334 86.9974 307.705 86.0135 309.454 84.2644C311.203 82.5152 312.187 80.1437 312.19 77.67V44.13H315.44C315.646 44.13 315.849 44.0893 316.039 44.0103C316.229 43.9313 316.402 43.8155 316.547 43.6696C316.692 43.5236 316.806 43.3505 316.884 43.1601C316.962 42.9696 317.001 42.7657 317 42.56V33H2.99997V42.56C2.99865 42.7657 3.03803 42.9696 3.11584 43.1601C3.19364 43.3505 3.30834 43.5236 3.45333 43.6696C3.59832 43.8155 3.77074 43.9313 3.96067 44.0103C4.15059 44.0893 4.35426 44.13 4.55997 44.13Z" fill="#C47B42"/>
<path d="M288.68 36.83V33H285.68V39.83H288.34V44.13H277.51V39.83H280.17V33H277.17V36.83H266.33V33H263.33V39.83H266V44.13H255.16V39.83H257.82V33H254.82V36.83H244V33H241V39.83H243.66V44.13H232.81V39.83H235.47V33H232.47V36.83H221.63V33H218.63V39.83H221.29V44.13H210.46V39.83H213.12V33H210.12V36.83H199.28V33H196.28V39.83H198.94V44.13H188.11V39.83H190.77V33H187.77V36.83H176.93V33H173.93V39.83H176.59V44.13H165.76V39.83H168.42V33H165.42V36.83H154.58V33H151.58V39.83H154.24V44.13H143.41V39.83H146.07V33H143.07V36.83H132.23V33H129.23V39.83H131.89V44.13H121.06V39.83H123.72V33H120.72V36.83H109.88V33H106.88V39.83H109.54V44.13H98.71V39.83H101.37V33H98.37V36.83H87.53V33H84.53V39.83H87.19V44.13H76.36V39.83H79V33H76V36.83H65.18V33H62.18V39.83H64.84V44.13H54V39.83H56.66V33H53.66V36.83H42.83V33H39.83V39.83H42.49V44.13H31.66V39.83H34.32V33H31.32V36.83H20.49V33H17.49V39.83H20.14V44.13H9.31V39.83H12V33H9V36.83H3V39.83H6.31V44.13H7.82V47.13H9V52H7.82V62.3H9V67.19H7.82V77.49H9V82.13C9.71278 83.4312 10.7237 84.5449 11.95 85.38H12V77.51H17.52V85.4H20.17V87H23.17V85.4H28.69V87H31.69V85.4H34.35V77.51H39.86V85.4H42.52V87H45.52V85.4H51V87H54V85.4H56.66V77.51H62.17V85.4H64.83V87H67.83V85.4H73.35V87H76.35V85.4H79V77.51H84.51V85.4H87.17V87H90.17V85.4H95.69V87H98.69V85.4H101.35V77.51H106.86V85.4H109.52V87H112.52V85.4H118.04V87H121.04V85.4H123.7V77.51H129.21V85.4H131.87V87H134.87V85.4H140.39V87H143.39V85.4H146.05V77.51H151.56V85.4H154.22V87H157.22V85.4H162.74V87H165.74V85.4H168.4V77.51H173.91V85.4H176.57V87H179.57V85.4H185.09V87H188.09V85.4H190.75V77.51H196.26V85.4H198.92V87H201.92V85.4H207.44V87H210.44V85.4H213.1V77.51H218.61V85.4H221.27V87H224.27V85.4H229.79V87H232.79V85.4H235.45V77.51H241V85.4H243.66V87H246.66V85.4H252.18V87H255.18V85.4H257.84V77.51H263.35V85.4H266V87H269V85.4H274.52V87H277.52V85.4H280.18V77.51H285.69V85.4H288.35V87H291.35V85.4H296.87V87H299.87V85.4H302.52V77.51H308V85.4H308.05C309.276 84.5686 310.287 83.4582 311 82.16V77.51H312.16V67.21H311V62.32H312.16V52H311V47.13H312.16V44.13H313.66V39.83H317V36.83H311V33H308V39.83H310.66V44.13H299.86V39.83H302.51V33H299.51V36.83H288.68ZM20.14 74.51H9.31V70.21H12V62.32H17.52V70.21H20.17L20.14 74.51ZM20.14 59.32H9.31V55H12V47.13H17.52V55H20.17L20.14 59.32ZM31.32 82.4H20.49V77.51H23.14V70.21H28.66V77.51H31.32V82.4ZM31.32 67.21H20.49V62.32H23.14V55H28.66V62.3H31.32V67.21ZM31.32 52.02H20.49V47.13H23.14V39.83H28.66V47.13H31.32V52.02ZM42.49 74.51H31.66V70.21H34.32V62.32H39.83V70.21H42.49V74.51ZM42.49 59.32H31.66V55H34.32V47.13H39.83V55H42.49V59.32ZM53.67 82.4H42.83V77.51H45.49V70.21H51V77.51H53.66L53.67 82.4ZM53.67 67.21H42.83V62.32H45.49V55H51V62.3H53.66L53.67 67.21ZM53.67 52.02H42.83V47.13H45.49V39.83H51V47.13H53.66L53.67 52.02ZM64.84 74.51H54V70.21H56.66V62.32H62.17V70.21H64.83L64.84 74.51ZM64.84 59.32H54V55H56.66V47.13H62.17V55H64.83L64.84 59.32ZM76 82.4H65.18V77.51H67.84V70.21H73.36V77.51H76V82.4ZM76 67.21H65.18V62.32H67.84V55H73.36V62.3H76V67.21ZM76 52H65.18V47.13H67.84V39.83H73.36V47.13H76V52ZM87.19 74.51H76.36V70.21H79V62.32H84.51V70.21H87.17L87.19 74.51ZM87.19 59.32H76.36V55H79V47.13H84.51V55H87.17L87.19 59.32ZM98.37 82.4H87.53V77.51H90.19V70.21H95.71V77.51H98.37V82.4ZM98.37 67.21H87.53V62.32H90.19V55H95.71V62.3H98.37V67.21ZM98.37 52.02H87.53V47.13H90.19V39.83H95.71V47.13H98.37V52.02ZM109.54 74.51H98.71V70.21H101.37V62.32H106.88V70.21H109.54V74.51ZM109.54 59.32H98.71V55H101.37V47.13H106.88V55H109.54V59.32ZM120.72 82.4H109.88V77.51H112.54V70.21H118.06V77.51H120.72V82.4ZM120.72 67.21H109.88V62.32H112.54V55H118.06V62.3H120.72V67.21ZM120.72 52.02H109.88V47.13H112.54V39.83H118.06V47.13H120.72V52.02ZM131.89 74.51H121.06V70.21H123.72V62.32H129.23V70.21H131.89V74.51ZM131.89 59.32H121.06V55H123.72V47.13H129.23V55H131.89V59.32ZM143.07 82.4H132.23V77.51H134.89V70.21H140.41V77.51H143.07V82.4ZM143.07 67.21H132.23V62.32H134.89V55H140.41V62.3H143.07V67.21ZM143.07 52.02H132.23V47.13H134.89V39.83H140.41V47.13H143.07V52.02ZM154.24 74.51H143.41V70.21H146.07V62.32H151.58V70.21H154.24V74.51ZM154.24 59.32H143.41V55H146.07V47.13H151.58V55H154.24V59.32ZM165.42 82.4H154.58V77.51H157.24V70.21H162.76V77.51H165.42V82.4ZM165.42 67.21H154.58V62.32H157.24V55H162.76V62.3H165.42V67.21ZM165.42 52.02H154.58V47.13H157.24V39.83H162.76V47.13H165.42V52.02ZM176.59 74.51H165.76V70.21H168.42V62.32H173.93V70.21H176.59V74.51ZM176.59 59.32H165.76V55H168.42V47.13H173.93V55H176.59V59.32ZM187.77 82.4H176.93V77.51H179.59V70.21H185.11V77.51H187.77V82.4ZM187.77 67.21H176.93V62.32H179.59V55H185.11V62.3H187.77V67.21ZM187.77 52.02H176.93V47.13H179.59V39.83H185.11V47.13H187.77V52.02ZM198.94 74.51H188.11V70.21H190.77V62.32H196.28V70.21H198.94V74.51ZM198.94 59.32H188.11V55H190.77V47.13H196.28V55H198.94V59.32ZM210.12 82.4H199.28V77.51H201.94V70.21H207.46V77.51H210.12V82.4ZM210.12 67.21H199.28V62.32H201.94V55H207.46V62.3H210.12V67.21ZM210.12 52.02H199.28V47.13H201.94V39.83H207.46V47.13H210.12V52.02ZM221.29 74.51H210.46V70.21H213.12V62.32H218.63V70.21H221.29V74.51ZM221.29 59.32H210.46V55H213.12V47.13H218.63V55H221.29V59.32ZM232.47 82.4H221.63V77.51H224.29V70.21H229.81V77.51H232.47V82.4ZM232.47 67.21H221.63V62.32H224.29V55H229.81V62.3H232.47V67.21ZM232.47 52.02H221.63V47.13H224.29V39.83H229.81V47.13H232.47V52.02ZM243.64 74.51H232.81V70.21H235.47V62.32H241V70.21H243.66L243.64 74.51ZM243.64 59.32H232.81V55H235.47V47.13H241V55H243.66L243.64 59.32ZM254.82 82.4H244V77.51H246.66V70.21H252.18V77.51H254.84L254.82 82.4ZM254.82 67.21H244V62.32H246.66V55H252.18V62.3H254.84L254.82 67.21ZM254.82 52.02H244V47.13H246.66V39.83H252.18V47.13H254.84L254.82 52.02ZM266 74.51H255.16V70.21H257.82V62.32H263.33V70.21H266V74.51ZM266 59.32H255.16V55H257.82V47.13H263.33V55H266V59.32ZM277.17 82.4H266.33V77.51H269V70.21H274.52V77.51H277.18L277.17 82.4ZM277.17 67.21H266.33V62.32H269V55H274.52V62.3H277.18L277.17 67.21ZM277.17 52.02H266.33V47.13H269V39.83H274.52V47.13H277.18L277.17 52.02ZM288.34 74.51H277.51V70.21H280.17V62.32H285.68V70.21H288.34V74.51ZM288.34 59.32H277.51V55H280.17V47.13H285.68V55H288.34V59.32ZM299.51 82.4H288.68V77.51H291.34V70.21H296.86V77.51H299.51V82.4ZM299.51 67.21H288.68V62.32H291.34V55H296.86V62.3H299.51V67.21ZM299.51 52.02H288.68V47.13H291.34V39.83H296.86V47.13H299.51V52.02ZM299.86 55.02H302.51V47.13H308V55H310.66V59.3H299.86V55.02ZM299.86 70.21H302.51V62.32H308V70.21H310.66V74.51H299.86V70.21Z" fill="#AD693B"/>
<path d="M313.69 30H0V42.56C-2.89756e-06 43.7703 0.480105 44.9312 1.33498 45.7879C2.18986 46.6447 3.34969 47.1274 4.56 47.13H4.82V77.67C4.81746 79.4887 5.21894 81.2853 5.99544 82.93C6.77193 84.5746 7.90405 86.0263 9.31 87.18C10.8032 88.4156 12.5682 89.2792 14.46 89.7C15.3433 89.8963 16.2452 89.9969 17.15 90H302.86C305.295 89.9987 307.676 89.2762 309.701 87.9236C311.726 86.5711 313.306 84.6491 314.24 82.4C314.868 80.9022 315.191 79.2942 315.19 77.67V47.13H315.44C316.65 47.1274 317.81 46.6447 318.665 45.7879C319.52 44.9312 320 43.7703 320 42.56V30H313.69ZM317 36.83V42.56C317.001 42.7657 316.962 42.9696 316.884 43.1601C316.806 43.3505 316.692 43.5236 316.547 43.6696C316.402 43.8155 316.229 43.9313 316.039 44.0103C315.849 44.0893 315.646 44.13 315.44 44.13H312.19V77.67C312.184 79.2438 311.774 80.7898 311 82.16C310.199 83.6205 309.022 84.8397 307.591 85.6909C306.159 86.5421 304.525 86.9942 302.86 87H17.15C14.6763 86.9974 12.3048 86.0135 10.5556 84.2644C8.80648 82.5152 7.82265 80.1437 7.82 77.67V44.13H4.56C4.35429 44.13 4.15062 44.0893 3.9607 44.0103C3.77077 43.9313 3.59835 43.8155 3.45336 43.6696C3.30837 43.5236 3.19367 43.3505 3.11587 43.1601C3.03806 42.9696 2.99868 42.7657 3 42.56V33H317V36.83Z" fill="#040000"/>
<path d="M308.04 44.1299H11.98V47.1299H308.04V44.1299Z" fill="#8A522D"/>
</g>
<defs>
<clipPath id="clip0_25_553">
<rect width="320" height="90" fill="white"/>
</clipPath>
</defs>
</svg>
