<svg width="320" height="60" viewBox="0 0 320 60" fill="none" xmlns="http://www.w3.org/2000/svg">
<path d="M4.56 14.12H7.82V47.67C7.82265 50.1437 8.80648 52.5152 10.5556 54.2644C12.3048 56.0135 14.6763 56.9974 17.15 57H302.85C305.324 56.9974 307.695 56.0135 309.444 54.2644C311.194 52.5152 312.177 50.1437 312.18 47.67V14.12H315.44C315.645 14.12 315.848 14.0796 316.037 14.0013C316.226 13.9229 316.398 13.8079 316.543 13.6631C316.688 13.5182 316.803 13.3463 316.881 13.157C316.96 12.9677 317 12.7649 317 12.56V3H3V12.56C3 12.9737 3.16436 13.3705 3.45691 13.6631C3.74947 13.9556 4.14626 14.12 4.56 14.12Z" fill="#C47B42"/>
<path d="M288.68 6.82V3H285.68V9.82H288.34V14.12H277.51V9.82H280.16V3H277.16V6.82H266.33V3H263.33V9.82H266V14.12H255.16V9.82H257.81V3H254.81V6.82H244V3H241V9.82H243.66V14.12H232.81V9.82H235.46V3H232.46V6.82H221.63V3H218.63V9.82H221.29V14.12H210.46V9.82H213.11V3H210.11V6.82H199.28V3H196.28V9.82H198.94V14.12H188.11V9.82H190.76V3H187.76V6.82H176.93V3H173.93V9.82H176.59V14.12H165.76V9.82H168.41V3H165.41V6.82H154.58V3H151.58V9.82H154.24V14.12H143.41V9.82H146.06V3H143.06V6.82H132.23V3H129.23V9.82H131.89V14.12H121.06V9.82H123.71V3H120.71V6.82H109.88V3H106.88V9.82H109.54V14.12H98.71V9.82H101.36V3H98.36V6.82H87.53V3H84.53V9.82H87.19V14.12H76.36V9.82H79V3H76V6.82H65.18V3H62.18V9.82H64.84V14.12H54V9.82H56.65V3H53.65V6.82H42.83V3H39.83V9.82H42.49V14.12H31.66V9.82H34.31V3H31.31V6.82H20.48V3H17.48V9.82H20.14V14.12H9.31V9.82H12V3H9V6.82H3V9.82H6.31V14.12H7.82V17.12H9V22H7.82V32.32H9V37.21H7.82V47.51H9V52.15C9.73371 53.4519 10.7609 54.5647 12 55.4V47.51H17.52V55.4H20.18V57H23.18V55.4H28.7V57H31.7V55.4H34.35V47.51H39.87V55.4H42.53V57H45.53V55.4H51V57H54V55.4H56.65V47.51H62.17V55.4H64.83V57H67.83V55.4H73.35V57H76.35V55.4H79V47.51H84.52V55.4H87.18V57H90.18V55.4H95.7V57H98.7V55.4H101.35V47.51H106.87V55.4H109.53V57H112.53V55.4H118.05V57H121.05V55.4H123.7V47.51H129.22V55.4H131.88V57H134.88V55.4H140.4V57H143.4V55.4H146.05V47.51H151.57V55.4H154.23V57H157.23V55.4H162.75V57H165.75V55.4H168.4V47.51H173.92V55.4H176.58V57H179.58V55.4H185.1V57H188.1V55.4H190.75V47.51H196.27V55.4H198.93V57H201.93V55.4H207.45V57H210.45V55.4H213.1V47.51H218.62V55.4H221.28V57H224.28V55.4H229.8V57H232.8V55.4H235.45V47.51H241V55.4H243.66V57H246.66V55.4H252.18V57H255.18V55.4H257.83V47.51H263.35V55.4H266V57H269V55.4H274.52V57H277.52V55.4H280.17V47.51H285.69V55.4H288.35V57H291.35V55.4H296.87V57H299.87V55.4H302.52V47.51H308V55.4H308.05C309.276 54.5686 310.287 53.4582 311 52.16V47.51H312.15V37.21H311V32.32H312.15V22H311V17.12H312.15V14.12H313.66V9.82H317V6.82H311V3H308V9.82H310.66V14.12H299.86V9.82H302.51V3H299.51V6.82H288.68ZM20.14 44.51H9.31V40.21H12V32.32H17.52V40.21H20.18L20.14 44.51ZM20.14 29.32H9.31V25H12V17.12H17.52V25H20.18L20.14 29.32ZM31.31 52.4H20.48V47.51H23.14V40.21H28.66V47.51H31.31V52.4ZM31.31 37.21H20.48V32.32H23.14V25H28.66V32.31H31.31V37.21ZM31.31 22.01H20.48V17.12H23.14V9.82H28.66V17.12H31.31V22.01ZM42.49 44.51H31.66V40.21H34.31V32.32H39.83V40.21H42.49V44.51ZM42.49 29.32H31.66V25H34.31V17.12H39.83V25H42.49V29.32ZM53.66 52.4H42.83V47.51H45.49V40.21H51V47.51H53.65L53.66 52.4ZM53.66 37.21H42.83V32.32H45.49V25H51V32.31H53.65L53.66 37.21ZM53.66 22.01H42.83V17.12H45.49V9.82H51V17.12H53.65L53.66 22.01ZM64.84 44.51H54V40.21H56.65V32.32H62.17V40.21H64.83L64.84 44.51ZM64.84 29.32H54V25H56.65V17.12H62.17V25H64.83L64.84 29.32ZM76 52.4H65.18V47.51H67.84V40.21H73.36V47.51H76V52.4ZM76 37.21H65.18V32.32H67.84V25H73.36V32.31H76V37.21ZM76 22H65.18V17.12H67.84V9.82H73.36V17.12H76V22ZM87.18 44.5H76.36V40.2H79V32.32H84.52V40.21H87.18V44.5ZM87.18 29.31H76.36V25H79V17.12H84.52V25H87.18V29.31ZM98.36 52.4H87.53V47.51H90.19V40.21H95.71V47.51H98.36V52.4ZM98.36 37.21H87.53V32.32H90.19V25H95.71V32.31H98.36V37.21ZM98.36 22.01H87.53V17.12H90.19V9.82H95.71V17.12H98.36V22.01ZM109.54 44.51H98.71V40.21H101.36V32.32H106.88V40.21H109.54V44.51ZM109.54 29.32H98.71V25H101.36V17.12H106.88V25H109.54V29.32ZM120.71 52.4H109.88V47.51H112.54V40.21H118.06V47.51H120.71V52.4ZM120.71 37.21H109.88V32.32H112.54V25H118.06V32.31H120.71V37.21ZM120.71 22.01H109.88V17.12H112.54V9.82H118.06V17.12H120.71V22.01ZM131.89 44.51H121.06V40.21H123.71V32.32H129.23V40.21H131.89V44.51ZM131.89 29.32H121.06V25H123.71V17.12H129.23V25H131.89V29.32ZM143.06 52.4H132.23V47.51H134.89V40.21H140.41V47.51H143.06V52.4ZM143.06 37.21H132.23V32.32H134.89V25H140.41V32.31H143.06V37.21ZM143.06 22.01H132.23V17.12H134.89V9.82H140.41V17.12H143.06V22.01ZM154.24 44.51H143.41V40.21H146.06V32.32H151.58V40.21H154.24V44.51ZM154.24 29.32H143.41V25H146.06V17.12H151.58V25H154.24V29.32ZM165.41 52.4H154.58V47.51H157.24V40.21H162.76V47.51H165.41V52.4ZM165.41 37.21H154.58V32.32H157.24V25H162.76V32.31H165.41V37.21ZM165.41 22.01H154.58V17.12H157.24V9.82H162.76V17.12H165.41V22.01ZM176.59 44.51H165.76V40.21H168.41V32.32H173.93V40.21H176.59V44.51ZM176.59 29.32H165.76V25H168.41V17.12H173.93V25H176.59V29.32ZM187.76 52.4H176.93V47.51H179.59V40.21H185.11V47.51H187.76V52.4ZM187.76 37.21H176.93V32.32H179.59V25H185.11V32.31H187.76V37.21ZM187.76 22.01H176.93V17.12H179.59V9.82H185.11V17.12H187.76V22.01ZM198.94 44.51H188.11V40.21H190.76V32.32H196.28V40.21H198.94V44.51ZM198.94 29.32H188.11V25H190.76V17.12H196.28V25H198.94V29.32ZM210.11 52.4H199.28V47.51H201.94V40.21H207.46V47.51H210.11V52.4ZM210.11 37.21H199.28V32.32H201.94V25H207.46V32.31H210.11V37.21ZM210.11 22.01H199.28V17.12H201.94V9.82H207.46V17.12H210.11V22.01ZM221.29 44.51H210.46V40.21H213.11V32.32H218.63V40.21H221.29V44.51ZM221.29 29.32H210.46V25H213.11V17.12H218.63V25H221.29V29.32ZM232.46 52.4H221.63V47.51H224.29V40.21H229.81V47.51H232.46V52.4ZM232.46 37.21H221.63V32.32H224.29V25H229.81V32.31H232.46V37.21ZM232.46 22.01H221.63V17.12H224.29V9.82H229.81V17.12H232.46V22.01ZM243.64 44.51H232.81V40.21H235.46V32.32H241V40.21H243.66L243.64 44.51ZM243.64 29.32H232.81V25H235.46V17.12H241V25H243.66L243.64 29.32ZM254.81 52.4H244V47.51H246.66V40.21H252.18V47.51H254.83L254.81 52.4ZM254.81 37.21H244V32.32H246.66V25H252.18V32.31H254.83L254.81 37.21ZM254.81 22.01H244V17.12H246.66V9.82H252.18V17.12H254.83L254.81 22.01ZM266 44.51H255.16V40.21H257.81V32.32H263.33V40.21H266V44.51ZM266 29.32H255.16V25H257.81V17.12H263.33V25H266V29.32ZM277.16 52.4H266.33V47.51H269V40.21H274.52V47.51H277.17L277.16 52.4ZM277.16 37.21H266.33V32.32H269V25H274.52V32.31H277.17L277.16 37.21ZM277.16 22.01H266.33V17.12H269V9.82H274.52V17.12H277.17L277.16 22.01ZM288.34 44.51H277.51V40.21H280.16V32.32H285.68V40.21H288.34V44.51ZM288.34 29.32H277.51V25H280.16V17.12H285.68V25H288.34V29.32ZM299.51 52.4H288.68V47.51H291.34V40.21H296.86V47.51H299.51V52.4ZM299.51 37.21H288.68V32.32H291.34V25H296.86V32.31H299.51V37.21ZM299.51 22.01H288.68V17.12H291.34V9.82H296.86V17.12H299.51V22.01ZM299.86 25.01H302.51V17.12H308V25H310.66V29.31H299.86V25.01ZM299.86 40.21H302.51V32.32H308V40.21H310.66V44.51H299.86V40.21Z" fill="#AD693B"/>
<path d="M313.69 0H0V12.56C0 13.7694 0.480427 14.9292 1.33559 15.7844C2.19076 16.6396 3.35061 17.12 4.56 17.12H4.82V47.67C4.81656 49.2934 5.13609 50.9013 5.76 52.4C6.53721 54.2582 7.75573 55.8989 9.31 57.18C10.8032 58.4156 12.5682 59.2792 14.46 59.7C15.3432 59.8968 16.2451 59.9974 17.15 60H302.85C303.755 59.9974 304.657 59.8968 305.54 59.7C307.43 59.2786 309.194 58.4188 310.69 57.19C312.242 55.903 313.46 54.2596 314.24 52.4C314.864 50.9013 315.183 49.2934 315.18 47.67V17.12H315.44C316.039 17.12 316.632 17.0021 317.185 16.7729C317.738 16.5437 318.241 16.2078 318.664 15.7844C319.088 15.361 319.424 14.8583 319.653 14.305C319.882 13.7518 320 13.1588 320 12.56V0H313.69ZM317 6.82V12.56C317 12.9737 316.836 13.3705 316.543 13.6631C316.251 13.9556 315.854 14.12 315.44 14.12H312.18V47.67C312.181 48.8956 311.941 50.1094 311.472 51.242C311.004 52.3746 310.317 53.4036 309.45 54.2702C308.584 55.1369 307.555 55.8241 306.422 56.2925C305.289 56.7609 304.076 57.0013 302.85 57H17.15C15.2856 57.0035 13.4633 56.4461 11.92 55.4C10.6809 54.5647 9.65371 53.4519 8.92 52.15C8.16859 50.7766 7.77645 49.2355 7.78 47.67V14.12H4.56C4.14626 14.12 3.74947 13.9556 3.45691 13.6631C3.16436 13.3705 3 12.9737 3 12.56V3H317V6.82Z" fill="#040000"/>
<path d="M308.03 14.1201H11.97V17.1201H308.03V14.1201Z" fill="#8A522D"/>
</svg>
