<svg id="레이어_1" data-name="레이어 1" xmlns="http://www.w3.org/2000/svg" viewBox="0 0 165.58 243.38"><defs><style>.cls-1{fill:#f1ece8;}.cls-1,.cls-13,.cls-14,.cls-15{stroke:#040000;stroke-miterlimit:10;stroke-width:3px;}.cls-2{font-size:26.47px;}.cls-10,.cls-11,.cls-12,.cls-2,.cls-3,.cls-4,.cls-6,.cls-7,.cls-8{fill:#040000;font-family:BMEULJIRO-KSCpc-EUC-H, BM EULJIRO;}.cls-10,.cls-11,.cls-12,.cls-3,.cls-4,.cls-6,.cls-7,.cls-8{font-size:15.41px;}.cls-4{letter-spacing:-0.08em;}.cls-5,.cls-6{letter-spacing:-0.06em;}.cls-7{letter-spacing:-0.09em;}.cls-8{letter-spacing:-0.05em;}.cls-12,.cls-9{letter-spacing:-0.02em;}.cls-10{letter-spacing:-0.07em;}.cls-11{letter-spacing:-0.06em;}.cls-13{fill:none;}.cls-14{fill:#1b1c1b;}.cls-15{fill:#a9a9a8;}</style></defs><rect class="cls-1" x="1.5" y="29.88" width="162.58" height="212"/><text class="cls-2" transform="translate(77.62 63.27)">1</text><text class="cls-3" transform="translate(140.66 102.49)">1</text><text class="cls-3" transform="translate(17.17 127.12)">2</text><text class="cls-3" transform="translate(37.25 127.12)">3</text><text class="cls-3" transform="translate(56.85 127.12)">4</text><text class="cls-3" transform="translate(78.23 127.12)">5</text><text class="cls-3" transform="translate(99.2 127.12)">6</text><text class="cls-3" transform="translate(120.38 127.12)">7</text><text class="cls-3" transform="translate(139.93 127.12)">8</text><text class="cls-3" transform="translate(17.17 151.35)">9</text><text class="cls-4" transform="translate(34.13 151.35)">1<tspan class="cls-5" x="6.02" y="0">0</tspan></text><text class="cls-6" transform="translate(55.23 151.35)">11</text><text class="cls-6" transform="translate(75.62 151.35)">12</text><text class="cls-6" transform="translate(96.05 151.35)">13</text><text class="cls-7" transform="translate(116.66 151.35)">1<tspan class="cls-5" x="5.89" y="0">4</tspan></text><text class="cls-6" transform="translate(137.36 151.35)">15</text><text class="cls-6" transform="translate(14.6 176.47)">16</text><text class="cls-8" transform="translate(34.72 176.47)">1<tspan class="cls-9" x="6.5" y="0">7</tspan></text><text class="cls-6" transform="translate(54.8 176.47)">18</text><text class="cls-6" transform="translate(75.58 176.47)">19</text><text class="cls-10" transform="translate(95.03 176.47)">2<tspan class="cls-5" x="7.55" y="0">0</tspan></text><text class="cls-11" transform="translate(116.58 176.47)">21</text><text class="cls-11" transform="translate(136.51 176.47)">22</text><text class="cls-11" transform="translate(13.75 201.49)">23</text><text class="cls-10" transform="translate(33.86 201.49)">2<tspan class="cls-5" x="7.55" y="0">4</tspan></text><text class="cls-11" transform="translate(54.8 201.49)">25</text><text class="cls-11" transform="translate(74.73 201.49)">26</text><text class="cls-12" transform="translate(95.03 201.49)">27</text><text class="cls-11" transform="translate(115.73 201.49)">28</text><text class="cls-11" transform="translate(136.51 201.49)">29</text><text class="cls-6" transform="translate(13.75 225.96)">30</text><text class="cls-6" transform="translate(33.86 225.96)">31</text><line class="cls-13" x1="14.26" y1="77.65" x2="151.32" y2="77.65"/><rect class="cls-14" x="1.5" y="22.89" width="162.58" height="7"/><polyline class="cls-13" points="64.9 22.89 82.79 6.59 100.69 22.89"/><circle class="cls-15" cx="83.61" cy="7.34" r="5.84"/></svg>