<svg width="500" height="380" viewBox="0 0 500 380" fill="none" xmlns="http://www.w3.org/2000/svg">
<g clip-path="url(#clip0_22_5040)">
<path d="M17.53 181.57L3.71997 208.98H496.24L482.43 181.57H17.53Z" fill="#7F918E"/>
<path d="M16.64 180.13H483.31L497.84 208.98H499.45L484.2 178.7H15.76L0.51001 208.98H2.12001L16.64 180.13Z" fill="#040000"/>
<path d="M17.53 181.57H482.43L496.24 208.98H497.84L483.31 180.13H16.64L2.12 208.98H3.72L17.53 181.57Z" fill="#040000"/>
<path d="M497.13 211.85H2.83002V228.09H497.13V211.85Z" fill="#6C8784"/>
<path d="M498.56 211.85V229.52H1.40002V211.85H-0.039978V230.96H500V211.85H498.56Z" fill="#040000"/>
<path d="M-0.039978 208.98V210.07L0.510022 208.98H-0.039978Z" fill="#040000"/>
<path d="M500 208.98H499.45L500 210.07V208.98Z" fill="#040000"/>
<path d="M498.56 210.41V211.85H500V210.07L499.45 208.98H497.84L498.56 210.41Z" fill="#040000"/>
<path d="M1.40002 210.41L2.12002 208.98H0.510022L-0.039978 210.07V211.85H1.40002V210.41Z" fill="#040000"/>
<path d="M497.84 208.98H496.24H3.72002H2.12002L1.40002 210.41H498.56L497.84 208.98Z" fill="#040000"/>
<path d="M497.13 228.09H2.83002V211.85H1.40002V229.52H498.56V211.85H497.13V228.09Z" fill="#040000"/>
<path d="M1.40002 210.41V211.85H2.83002H497.13H498.56V210.41H1.40002Z" fill="#040000"/>
<path d="M40.69 359.46H10.76V378.57H40.69V359.46Z" fill="#6C8784"/>
<path d="M42.13 380H9.32001V358H42.13V380ZM12.19 377.13H39.26V360.89H12.19V377.13Z" fill="#040000"/>
<path d="M39.24 360.9H12.21V367.61H39.24V360.9Z" fill="#526A67"/>
<path d="M459.27 378.56H489.2V359.45H459.27V378.56Z" fill="#6C8784"/>
<path d="M490.64 380H457.83V358H490.64V380ZM460.7 377.13H487.77V360.89H460.7V377.13Z" fill="#040000"/>
<path d="M249.98 317.88H1.39001V359.45H249.98V317.88Z" fill="#6C8784"/>
<path d="M251.41 360.89H0V316.45H251.41V360.89ZM2.83 358H248.54V319.3H2.83V358Z" fill="#040000"/>
<path d="M241.34 350.82V326.52H10.03V350.82H241.34Z" fill="#6C8784"/>
<path d="M242.78 352.26H8.59998V325.09H242.78V352.26ZM11.47 349.39H239.91V328H11.47V349.39Z" fill="#040000"/>
<path d="M498.57 317.88H249.98V359.45H498.57V317.88Z" fill="#6C8784"/>
<path d="M500 360.89H248.54V316.45H500V360.89ZM251.41 358H497.13V319.3H251.41V358Z" fill="#040000"/>
<path d="M489.92 350.82V326.52H258.61V350.82H489.92Z" fill="#6C8784"/>
<path d="M491.36 352.26H257.18V325.09H491.36V352.26ZM260.05 349.39H488.49V328H260.05V349.39Z" fill="#040000"/>
<path d="M249.98 229.52H1.39001V317.88H249.98V229.52Z" fill="#6C8784"/>
<path d="M251.41 319.32H0V228.09H251.41V319.32ZM2.83 316.45H248.54V231H2.83V316.45Z" fill="#040000"/>
<path d="M241.34 309.25V238.16H10.03V309.25H241.34Z" fill="#6C8784"/>
<path d="M242.78 310.68H8.59998V236.68H242.78V310.68ZM11.47 307.81H239.91V239.59H11.47V307.81Z" fill="#040000"/>
<path d="M498.57 229.52H249.98V317.88H498.57V229.52Z" fill="#6C8784"/>
<path d="M500 319.32H248.54V228.09H500V319.32ZM251.41 316.45H497.13V231H251.41V316.45Z" fill="#040000"/>
<path d="M489.93 309.25V238.16H258.62V309.25H489.93Z" fill="#6C8784"/>
<path d="M491.36 310.68H257.18V236.68H491.36V310.68ZM260.05 307.81H488.49V239.59H260.05V307.81Z" fill="#040000"/>
<path d="M23.83 238.16H10.76V251.25C12.4539 251.248 14.0777 250.573 15.2755 249.376C16.4733 248.178 17.1474 246.554 17.15 244.86H17.45C19.1439 244.858 20.7677 244.183 21.9655 242.986C23.1633 241.788 23.8374 240.164 23.84 238.47C23.84 238.36 23.83 238.26 23.83 238.16Z" fill="#D8D499"/>
<path d="M10.76 252.68H9.32001V236.68H25.2L25.27 238.13C25.27 238.23 25.27 238.33 25.27 238.43C25.2668 240.33 24.5734 242.165 23.3189 243.592C22.0644 245.02 20.3342 245.943 18.45 246.19C18.1333 248.002 17.1894 249.645 15.7836 250.832C14.3778 252.018 12.5995 252.672 10.76 252.68ZM12.19 239.59V249.59C13.1958 249.279 14.0777 248.658 14.7097 247.815C15.3418 246.973 15.6919 245.953 15.71 244.9V243.33L17.45 243.41C18.5673 243.403 19.65 243.022 20.5254 242.328C21.4009 241.634 22.0186 240.666 22.28 239.58L12.19 239.59Z" fill="#040000"/>
<path d="M10.76 295.49V308.56H23.84C23.84 306.865 23.1668 305.24 21.9684 304.042C20.7701 302.843 19.1447 302.17 17.45 302.17C17.45 302.06 17.45 301.96 17.45 301.86C17.45 300.165 16.7768 298.54 15.5784 297.342C14.3801 296.143 12.7547 295.47 11.06 295.47L10.76 295.49Z" fill="#D8D499"/>
<path d="M25.28 310H9.28003V294.11L10.73 294.05H11.02C12.9209 294.051 14.7566 294.744 16.1844 295.998C17.6122 297.253 18.5348 298.985 18.78 300.87C20.59 301.193 22.2286 302.143 23.4094 303.552C24.5903 304.962 25.2382 306.741 25.24 308.58L25.28 310ZM12.19 307.13H22.19C21.8785 306.124 21.2574 305.242 20.4152 304.61C19.5731 303.978 18.5528 303.628 17.5 303.61H15.94L16.02 301.87C16.022 300.746 15.6451 299.654 14.9502 298.77C14.2553 297.887 13.2829 297.263 12.19 297V307.13Z" fill="#040000"/>
<path d="M228.27 238.16H241.34V251.25C239.646 251.248 238.022 250.573 236.825 249.376C235.627 248.178 234.953 246.554 234.95 244.86H234.65C232.956 244.858 231.332 244.183 230.135 242.986C228.937 241.788 228.263 240.164 228.26 238.47C228.26 238.36 228.27 238.26 228.27 238.16Z" fill="#D8D499"/>
<path d="M242.78 252.68H241.34C239.504 252.677 237.728 252.029 236.321 250.85C234.914 249.672 233.965 248.037 233.64 246.23C231.756 245.983 230.026 245.06 228.771 243.632C227.517 242.205 226.823 240.371 226.82 238.47C226.82 238.36 226.82 238.26 226.82 238.16L226.89 236.8L228.26 236.72H242.77L242.78 252.68ZM236.39 243.34V244.84C236.393 245.905 236.737 246.941 237.37 247.797C238.003 248.653 238.893 249.285 239.91 249.6V239.6H229.82C230.081 240.686 230.699 241.654 231.575 242.348C232.45 243.042 233.533 243.423 234.65 243.43L236.39 243.34Z" fill="#040000"/>
<path d="M241.34 295.49V308.56H228.26C228.26 306.865 228.933 305.24 230.132 304.042C231.33 302.843 232.955 302.17 234.65 302.17C234.65 302.06 234.65 301.96 234.65 301.86C234.65 300.167 235.322 298.543 236.518 297.345C237.714 296.147 239.337 295.473 241.03 295.47L241.34 295.49Z" fill="#D8D499"/>
<path d="M242.78 310H226.78V308.57C226.781 306.733 227.428 304.954 228.607 303.545C229.786 302.136 231.422 301.186 233.23 300.86C233.471 298.968 234.392 297.228 235.822 295.965C237.252 294.703 239.093 294.004 241 294H241.29L242.66 294.06L242.74 295.44L242.78 310ZM229.9 307.13H239.9V297.05C238.817 297.311 237.852 297.925 237.158 298.797C236.464 299.668 236.081 300.746 236.07 301.86L236.15 303.6H234.58C233.529 303.62 232.511 303.971 231.671 304.603C230.831 305.235 230.211 306.116 229.9 307.12V307.13Z" fill="#040000"/>
<path d="M23.83 327.81H10.76V340.9C12.4547 340.9 14.0801 340.227 15.2784 339.028C16.4768 337.83 17.15 336.205 17.15 334.51H17.45C19.1447 334.51 20.7701 333.837 21.9684 332.638C23.1668 331.44 23.84 329.815 23.84 328.12C23.84 328 23.83 327.91 23.83 327.81Z" fill="#D8D499"/>
<path d="M10.76 342.33H9.32001V326.33H25.2L25.27 327.78C25.27 327.88 25.27 327.98 25.27 328.08C25.2668 329.98 24.5734 331.815 23.3189 333.242C22.0644 334.67 20.3342 335.593 18.45 335.84C18.1333 337.652 17.1894 339.295 15.7836 340.482C14.3778 341.668 12.5995 342.322 10.76 342.33ZM12.19 329.24V339.24C13.1942 338.929 14.0749 338.309 14.7068 337.469C15.3388 336.629 15.6898 335.611 15.71 334.56V333L17.36 333.08C18.491 333.091 19.5922 332.718 20.484 332.023C21.3758 331.327 22.0054 330.35 22.27 329.25L12.19 329.24Z" fill="#040000"/>
<path d="M228.27 327.81H241.34V340.9C239.645 340.9 238.02 340.227 236.822 339.028C235.623 337.83 234.95 336.205 234.95 334.51H234.65C232.955 334.51 231.33 333.837 230.132 332.638C228.933 331.44 228.26 329.815 228.26 328.12C228.26 328 228.27 327.91 228.27 327.81Z" fill="#D8D499"/>
<path d="M242.78 342.33H241.34C239.504 342.326 237.728 341.679 236.321 340.5C234.914 339.322 233.965 337.687 233.64 335.88C231.756 335.633 230.026 334.71 228.771 333.282C227.517 331.855 226.823 330.02 226.82 328.12C226.82 328.01 226.82 327.91 226.82 327.81L226.89 326.45L228.26 326.37H242.77L242.78 342.33ZM236.39 333V334.5C236.393 335.565 236.737 336.601 237.37 337.457C238.003 338.313 238.893 338.945 239.91 339.26V329.26H229.82C230.081 330.346 230.699 331.314 231.575 332.008C232.45 332.702 233.533 333.083 234.65 333.09L236.39 333Z" fill="#040000"/>
<path d="M272.05 238.16H259V251.25C260.694 251.248 262.318 250.573 263.516 249.376C264.713 248.178 265.387 246.554 265.39 244.86H265.7C267.394 244.858 269.018 244.183 270.215 242.986C271.413 241.788 272.087 240.164 272.09 238.47C272.082 238.366 272.069 238.263 272.05 238.16Z" fill="#D8D499"/>
<path d="M259 252.68H257.56V236.68H273.44L273.51 238.12C273.51 238.22 273.51 238.32 273.51 238.43C273.507 240.33 272.813 242.165 271.559 243.592C270.304 245.02 268.574 245.943 266.69 246.19C266.377 248.004 265.434 249.649 264.028 250.836C262.621 252.023 260.841 252.676 259 252.68ZM260.44 239.59V249.59C261.444 249.277 262.324 248.655 262.954 247.813C263.584 246.971 263.933 245.952 263.95 244.9V243.33L265.7 243.41C266.816 243.401 267.896 243.019 268.769 242.325C269.643 241.631 270.259 240.665 270.52 239.58L260.44 239.59Z" fill="#040000"/>
<path d="M259 295.49V308.56H272.09C272.09 306.865 271.417 305.24 270.218 304.042C269.02 302.843 267.395 302.17 265.7 302.17C265.7 302.06 265.7 301.96 265.7 301.86C265.7 300.165 265.027 298.54 263.828 297.342C262.63 296.143 261.005 295.47 259.31 295.47L259 295.49Z" fill="#D8D499"/>
<path d="M273.5 310H257.5V294.11L258.95 294.05H259.25C261.15 294.053 262.985 294.746 264.412 296.001C265.84 297.255 266.763 298.986 267.01 300.87C268.818 301.196 270.454 302.146 271.633 303.555C272.812 304.964 273.459 306.743 273.46 308.58L273.5 310ZM260.42 307.13H270.42C270.109 306.126 269.489 305.245 268.649 304.613C267.809 303.981 266.791 303.63 265.74 303.61H264.16L264.24 301.87C264.234 300.754 263.854 299.672 263.162 298.797C262.47 297.922 261.504 297.303 260.42 297.04V307.13Z" fill="#040000"/>
<path d="M476.49 238.16H489.57V251.25C487.876 251.248 486.252 250.573 485.055 249.376C483.857 248.178 483.183 246.554 483.18 244.86H482.87C481.176 244.858 479.552 244.183 478.355 242.986C477.157 241.788 476.483 240.164 476.48 238.47C476.48 238.36 476.49 238.26 476.49 238.16Z" fill="#D8D499"/>
<path d="M491 252.68H489.57C487.733 252.679 485.954 252.032 484.545 250.853C483.136 249.675 482.186 248.038 481.86 246.23C479.976 245.983 478.246 245.06 476.991 243.632C475.737 242.205 475.043 240.371 475.04 238.47C475.035 238.367 475.035 238.263 475.04 238.16L475.1 236.8L476.47 236.72H491V252.68ZM484.61 244.91C484.628 245.963 484.978 246.983 485.61 247.825C486.242 248.668 487.124 249.289 488.13 249.6V239.6H478C478.261 240.686 478.879 241.654 479.755 242.348C480.63 243.042 481.713 243.423 482.83 243.43L484.57 243.35L484.61 244.91Z" fill="#040000"/>
<path d="M489.57 295.49V308.56H476.48C476.48 306.865 477.153 305.24 478.352 304.042C479.55 302.843 481.175 302.17 482.87 302.17C482.87 302.06 482.87 301.96 482.87 301.86C482.87 300.165 483.543 298.54 484.742 297.342C485.94 296.143 487.565 295.47 489.26 295.47L489.57 295.49Z" fill="#D8D499"/>
<path d="M491 310H475V308.57C475.002 306.731 475.65 304.952 476.831 303.542C478.011 302.133 479.65 301.184 481.46 300.86C481.707 298.976 482.63 297.246 484.058 295.991C485.485 294.737 487.32 294.043 489.22 294.04H489.51L490.88 294.1L490.96 295.48L491 310ZM478.13 307.13H488.13V297.05C487.047 297.311 486.082 297.925 485.388 298.797C484.694 299.668 484.311 300.746 484.3 301.86L484.39 303.6H482.81C481.759 303.62 480.741 303.971 479.901 304.603C479.061 305.235 478.441 306.116 478.13 307.12V307.13Z" fill="#040000"/>
<path d="M272.05 327.81H259V340.9C260.695 340.9 262.32 340.227 263.518 339.028C264.717 337.83 265.39 336.205 265.39 334.51H265.7C267.395 334.51 269.02 333.837 270.218 332.638C271.417 331.44 272.09 329.815 272.09 328.12C272.082 328.016 272.069 327.913 272.05 327.81Z" fill="#D8D499"/>
<path d="M259 342.33H257.56V326.33H273.44L273.51 327.77C273.51 327.87 273.51 327.97 273.51 328.08C273.507 329.98 272.813 331.815 271.559 333.242C270.304 334.67 268.574 335.593 266.69 335.84C266.377 337.654 265.434 339.299 264.028 340.486C262.621 341.673 260.841 342.326 259 342.33ZM260.44 329.24V339.24C261.442 338.927 262.321 338.307 262.951 337.467C263.581 336.627 263.93 335.61 263.95 334.56V333L265.6 333.08C266.731 333.091 267.832 332.718 268.724 332.023C269.616 331.327 270.245 330.35 270.51 329.25L260.44 329.24Z" fill="#040000"/>
<path d="M476.49 327.81H489.57V340.9C487.875 340.9 486.25 340.227 485.052 339.028C483.853 337.83 483.18 336.205 483.18 334.51H482.87C481.175 334.51 479.55 333.837 478.352 332.638C477.153 331.44 476.48 329.815 476.48 328.12C476.48 328 476.49 327.91 476.49 327.81Z" fill="#D8D499"/>
<path d="M491 342.33H489.57C487.733 342.329 485.954 341.682 484.545 340.503C483.136 339.325 482.186 337.688 481.86 335.88C479.976 335.633 478.246 334.71 476.991 333.282C475.737 331.855 475.043 330.02 475.04 328.12C475.035 328.017 475.035 327.913 475.04 327.81L475.11 326.45L476.47 326.37H491V342.33ZM484.61 334.56C484.628 335.613 484.978 336.633 485.61 337.475C486.242 338.317 487.124 338.939 488.13 339.25V329.25H478C478.261 330.336 478.879 331.304 479.755 331.998C480.63 332.692 481.713 333.073 482.83 333.08L484.57 333L484.61 334.56Z" fill="#040000"/>
<path d="M487.75 360.87H460.72V367.61H487.75V360.87Z" fill="#526A67"/>
<path d="M286.96 169.15H44.4V197.77H286.96V169.15Z" fill="#3A3738"/>
<path d="M288.46 199.27H42.9V167.66H288.46V199.27ZM45.9 196.27H285.46V170.66H45.9V196.27Z" fill="#040000"/>
<path d="M286.96 169.15H44.4V197.77H286.96V169.15Z" fill="url(#paint0_linear_22_5040)"/>
<path d="M271.77 1.5H59.59C41.5524 1.5 26.93 16.1224 26.93 34.16V154.42C26.93 172.458 41.5524 187.08 59.59 187.08H271.77C289.808 187.08 304.43 172.458 304.43 154.42V34.16C304.43 16.1224 289.808 1.5 271.77 1.5Z" fill="#3A3738"/>
<path d="M271.77 188.58H59.59C50.5325 188.567 41.85 184.962 35.4463 178.557C29.0426 172.151 25.4406 163.467 25.43 154.41V34.16C25.4406 25.1035 29.043 16.4209 35.4469 10.0169C41.8509 3.61298 50.5334 0.0105863 59.59 0L271.77 0C280.827 0.00794389 289.511 3.60948 295.916 10.014C302.32 16.4185 305.922 25.1026 305.93 34.16V154.41C305.922 163.468 302.321 172.153 295.917 178.56C289.512 184.966 280.828 188.569 271.77 188.58ZM59.59 3C51.3291 3.01058 43.4096 6.2969 37.5682 12.1382C31.7269 17.9796 28.4406 25.8991 28.43 34.16V154.41C28.4379 162.673 31.7231 170.595 37.5647 176.438C43.4063 182.282 51.3274 185.569 59.59 185.58H271.77C280.033 185.572 287.956 182.285 293.798 176.441C299.64 170.597 302.925 162.673 302.93 154.41V34.16C302.922 25.8983 299.637 17.9772 293.795 12.1353C287.953 6.29341 280.032 3.00794 271.77 3H59.59Z" fill="#040000"/>
<path d="M286.38 156.35V32.2098C286.38 25.2179 280.712 19.5498 273.72 19.5498L57.65 19.5498C50.6581 19.5498 44.99 25.2179 44.99 32.2098V156.35C44.99 163.342 50.6581 169.01 57.65 169.01H273.72C280.712 169.01 286.38 163.342 286.38 156.35Z" fill="#040000"/>
<path d="M281.86 156.84V31.7298C281.86 27.4993 278.43 24.0698 274.2 24.0698L57.16 24.0698C52.9295 24.0698 49.5 27.4993 49.5 31.7298V156.84C49.5 161.07 52.9295 164.5 57.16 164.5H274.2C278.43 164.5 281.86 161.07 281.86 156.84Z" fill="#161616"/>
<path opacity="0.4" d="M286.38 156.36V32.2201C286.38 30.5575 286.053 28.9113 285.416 27.3753C284.78 25.8393 283.848 24.4437 282.672 23.2681C281.496 22.0925 280.101 21.16 278.565 20.5237C277.029 19.8875 275.383 19.5601 273.72 19.5601H196.72L101.09 169H273.72C277.074 169 280.291 167.669 282.665 165.299C285.039 162.929 286.375 159.714 286.38 156.36Z" fill="url(#paint1_linear_22_5040)"/>
</g>
<defs>
<linearGradient id="paint0_linear_22_5040" x1="165.68" y1="182.02" x2="165.68" y2="273.69" gradientUnits="userSpaceOnUse">
<stop/>
<stop offset="1" stop-opacity="0"/>
</linearGradient>
<linearGradient id="paint1_linear_22_5040" x1="305.18" y1="-48.1899" x2="150.23" y2="247.19" gradientUnits="userSpaceOnUse">
<stop stop-color="white"/>
<stop offset="0.94" stop-color="white" stop-opacity="0"/>
</linearGradient>
<clipPath id="clip0_22_5040">
<rect width="500" height="380" fill="white"/>
</clipPath>
</defs>
</svg>
