<svg id="레이어_1" data-name="레이어 1" xmlns="http://www.w3.org/2000/svg" viewBox="0 0 160.48 74.42"><defs><style>.cls-1{fill:#e1e141;}.cls-2{fill:#c1bc40;}.cls-3{fill:#fff;}</style></defs><rect class="cls-1" width="160.48" height="74.42" rx="23.2"/><rect class="cls-2" x="51.54" y="-34.53" width="57.41" height="143.48" rx="14.7" transform="translate(117.45 -43.03) rotate(90)"/><path class="cls-3" d="M51.41,38.54a5.54,5.54,0,0,1-1.57.89,4,4,0,0,1-2,.23c-1-.14-3.54-.3-4.39-.33-2.75-.1-5.8-.07-8.72-.07-.92,0-4.52.2-5.34.26A8.58,8.58,0,0,1,26,39.07c-.88-.4-1.83-1-1.83-1.32a.91.91,0,0,1,.1-.62c.26-.39.65-1.11,1-1.51a1,1,0,0,1,1-.16,3.86,3.86,0,0,0,1.57.33c1.67,0,5.51,0,8,0v-.92a4.93,4.93,0,0,0-.07-.66c-1.41,0-2.69.1-3.7.14a1.91,1.91,0,0,1-1.71-.69,1.57,1.57,0,0,1-.46-1.25,2.12,2.12,0,0,1,.46-.85c0-1.44,0-2.46-.06-3.77l-.2-.2a1.09,1.09,0,0,1-.33-1.27,6.87,6.87,0,0,1,1.28-1.64.89.89,0,0,1,.82,0,4.88,4.88,0,0,0,1.67.4c1.28,0,5.8-.13,7.11-.23.76-.07,1.71-.2,2.3-.3a1,1,0,0,1,.92.27,8.28,8.28,0,0,1,1.24,1.44,2.41,2.41,0,0,1,.4.75c0,.3-.46.69-.92,1a3.21,3.21,0,0,1-1.67.53c-1.35,0-5.41.1-7.94.16v1.87c2.89,0,7.74-.1,8.62-.16a9.59,9.59,0,0,1,2.4-.13.67.67,0,0,1,.36.85,5,5,0,0,1-1.9,2.59,3,3,0,0,1-1.74.46H40.4v.23c0,.39,0,.88,0,1.37,1.38,0,2.72,0,3.31,0s2.4-.16,2.82-.13a9.8,9.8,0,0,1,2.43.49,6.54,6.54,0,0,1,2.36,1.54A.79.79,0,0,1,51.41,38.54ZM48.13,49.91c.27.27.56.56.56.73a3.43,3.43,0,0,1-1.57,1.41,11.74,11.74,0,0,1-4.75,1,44.86,44.86,0,0,1-5.54,0,7.52,7.52,0,0,1-4.56-1.38,18.23,18.23,0,0,1-3.67-4.52,1.59,1.59,0,0,1-.1-1.41,3.92,3.92,0,0,1,2.36-.66,1.46,1.46,0,0,1,.39.1c4-.16,8.53-.2,10.36-.2l.1-1.17h-.26c-1.28-.07-7.44-.07-8.65,0A4.7,4.7,0,0,1,30,43c-.46-.33-.79-.59-.49-1.18a4.2,4.2,0,0,1,.65-1.24c.26-.27.69-.17,1.08,0a5.87,5.87,0,0,0,2.26.3c1.48,0,5.54-.13,8.89-.13.59,0,1.41-.23,2.22-.2a1.75,1.75,0,0,1,1.48.62,1.22,1.22,0,0,1,.36,1.15,1.15,1.15,0,0,1-.26.53,25.44,25.44,0,0,1-.79,4.39,1.74,1.74,0,0,1-1.44.72c-2.85-.17-6.46-.2-10-.07L34,48a2.76,2.76,0,0,0,1.5,1c.89.13,5.35.23,6.46.19a14.37,14.37,0,0,0,3.28-.49,1.86,1.86,0,0,1,1.54.17A7.63,7.63,0,0,1,48.13,49.91Z"/><path class="cls-3" d="M67.6,37a7.75,7.75,0,0,1-4.49,7.9,2.87,2.87,0,0,1-1,.33,2.73,2.73,0,0,1-1.93.69c-3.35-.07-6.52-3.35-6.52-7.28a10.37,10.37,0,0,1,5-8.65,2.21,2.21,0,0,1,2.07-1.15,5,5,0,0,1,2.49.75A9.31,9.31,0,0,1,67.6,37Zm-4.46.43a6.13,6.13,0,0,0-2.36-4.56,6.5,6.5,0,0,0-2.62,5.28,3.28,3.28,0,0,0,2.55,3.34A3.83,3.83,0,0,0,63.14,37.43Zm17.67,2.29c0,1-1.48,1.8-2.92,1.87-.56,0-1.41,0-2.13,0,0,1.25,0,2.3,0,3.05,0,3.08-1.8,6.49-3.73,8.62A8,8,0,0,0,71.17,50a12.55,12.55,0,0,1-.56-5.27c.13-4.66.17-11.77.07-15.34-.07-1.71-.33-2.4-.92-3.08-.79-.92-.43-1.32.69-2.23S72,23,73.07,23.83c2.07,1.54,2.49,2.42,2.53,4.85,0,2.19.06,5.24.13,8.16a10.31,10.31,0,0,0,1.18-.23,2.13,2.13,0,0,1,2,.59C79.63,37.82,80.81,39.1,80.81,39.72Z"/><path class="cls-3" d="M96.34,31.76c.85,1.05,1,2.32.19,2.75-.88,3.67-3.7,9.08-6,11a5.28,5.28,0,0,1-4.79,1.54,23.62,23.62,0,0,1-5.27-1.24,5.05,5.05,0,0,0,2.26-.56,18.25,18.25,0,0,0,8.75-10.19c-1.28.06-2.49.1-3.48.06a4.09,4.09,0,0,1-4.13-2.39.84.84,0,0,1,.17-1.11,5.38,5.38,0,0,1,1-1c.49-.29.69-.16,1.11.1a2.47,2.47,0,0,0,1.54.36,38.7,38.7,0,0,0,5.77-.65C94.8,30.18,95.35,30.51,96.34,31.76Zm12.78,8.62c0,1-1.48,1.8-2.92,1.87-.55,0-1.37,0-2.1,0,0,.95,0,1.77,0,2.39a11.61,11.61,0,0,1-.82,4.36c-.62,1.47-1.8,3.21-1.9,4.26A11.15,11.15,0,0,1,99,46.74c.1-4.43.3-13.25.2-17.34a4.12,4.12,0,0,0-1.11-3.08c-.79-.92-.43-1.32.68-2.23s1.51-1.08,2.63-.26c2.06,1.54,2.52,2.42,2.52,4.85s0,5.7.07,8.81a8.17,8.17,0,0,0,1.21-.23,2.15,2.15,0,0,1,2,.59C107.94,38.48,109.12,39.75,109.12,40.38Z"/><path class="cls-3" d="M113.54,43.23a23.86,23.86,0,0,0,6.39-9.18c-1.38.1-3.31.16-4.36.13a4,4,0,0,1-1.64-.36,5.82,5.82,0,0,1-2.26-2.19.67.67,0,0,1,.1-.59,4.85,4.85,0,0,1,1.64-1.22,2,2,0,0,1,1,.23,3.89,3.89,0,0,0,1.21.17c1.34,0,4.62-.23,5.64-.33a9,9,0,0,1,1.83-.3,3.13,3.13,0,0,1,1.58.82,2.26,2.26,0,0,1,.85,1.41c0,.66-.33,1-.46,1.44a30,30,0,0,1-6.85,12.3,6.22,6.22,0,0,1-4,1.86,4,4,0,0,1-3.18-1c-1-.65-1.9-.42-2.62-.62A11.66,11.66,0,0,0,113.54,43.23Zm15.14,4.39c-.29-5.51.4-14.06.23-19.34,0-1.28-.36-1.37-.82-2.19-.29-.53-.46-.66-.33-1.05.3-.85,1.77-1.44,2.79-1.51a1.32,1.32,0,0,1,1.11.33,9,9,0,0,1,1.48,1.73,3.31,3.31,0,0,1,.39,1.68c.07,5.73,0,16.06-.13,18.68a5.63,5.63,0,0,1-.92,2.88c-1.24,1.67-2.59,3.08-2.65,4.23C129,52.41,128.81,50.11,128.68,47.62Z"/></svg>