<svg width="123" height="75" viewBox="0 0 123 75" fill="none" xmlns="http://www.w3.org/2000/svg">
<g clip-path="url(#clip0_129_579)">
<path d="M99.28 0H23.2C10.387 0 0 10.387 0 23.2V51.22C0 64.033 10.387 74.42 23.2 74.42H99.28C112.093 74.42 122.48 64.033 122.48 51.22V23.2C122.48 10.387 112.093 0 99.28 0Z" fill="#E1E141"/>
<path d="M113.98 51.2198V23.2098C113.98 15.0912 107.399 8.50977 99.28 8.50977L23.2 8.50977C15.0814 8.50977 8.49998 15.0912 8.49998 23.2098V51.2198C8.49998 59.3383 15.0814 65.9198 23.2 65.9198H99.28C107.399 65.9198 113.98 59.3383 113.98 51.2198Z" fill="#C1BC40"/>
<path d="M60.38 36.6395C60.38 37.6395 58.9399 38.3095 57.4599 38.3795C56.8099 38.3795 55.89 38.3795 55.13 38.3795C54.7822 39.4431 54.2874 40.4529 53.66 41.3795C53.7655 41.4442 53.8629 41.5214 53.95 41.6095C54.5763 42.222 55.1672 42.8697 55.72 43.5495C55.4 44.2995 53.1999 45.1195 52.0499 45.1195H44.81C44.81 46.1995 44.81 47.7995 44.81 48.5595C47.81 48.5595 51.9799 48.4595 53.2599 48.4295C54.5399 48.3995 56.6399 48.9195 56.8699 49.3395C56.474 50.5183 55.7009 51.534 54.6699 52.2295C54.1572 52.5986 53.5295 52.7724 52.9 52.7195C52.035 52.5695 51.1577 52.5025 50.2799 52.5195L43.63 52.5895C42.5582 52.6926 41.4774 52.5348 40.4799 52.1295C40.1597 52.0166 39.8785 51.8144 39.6694 51.5468C39.4603 51.2793 39.3321 50.9575 39.2999 50.6195C39.2259 50.2093 39.2818 49.7863 39.4599 49.4095C39.6006 49.2129 39.769 49.0377 39.9599 48.8895C40.0754 47.332 40.0887 45.7687 40 44.2095C39.7209 43.8989 39.4699 43.5643 39.25 43.2095C39.1056 43.0159 39.0363 42.7765 39.0546 42.5358C39.073 42.295 39.1779 42.069 39.3499 41.8995C39.6791 41.5234 40.0517 41.1878 40.4599 40.8995C40.6137 40.787 40.7938 40.7159 40.9829 40.6931C41.1721 40.6703 41.3639 40.6966 41.54 40.7695C42.2697 41.1481 43.0899 41.3177 43.91 41.2595C44.59 41.2595 50.36 40.9995 51.25 40.9995H51.41C50.9499 39.8239 50.6636 38.5876 50.56 37.3295C49.1469 38.1231 47.6021 38.6549 46 38.8995C45 39.0295 42.66 39.2295 41 39.2995C38.9 39.3595 36.8999 38.6695 36.7999 37.0695C36.7999 36.2495 36.93 35.7495 37.32 35.4895C37.32 33.3995 37.23 31.6895 37.09 30.3795C36.93 30.1195 36.67 29.7895 36.47 29.4895C36.3741 29.3496 36.3228 29.184 36.3228 29.0145C36.3228 28.8449 36.3741 28.6793 36.47 28.5395C36.7341 28.1599 37.0544 27.8227 37.4199 27.5395C37.5946 27.4183 37.797 27.3428 38.0084 27.3201C38.2198 27.2974 38.4335 27.3281 38.63 27.4095C39.3734 27.5588 40.1329 27.6125 40.8899 27.5695C42.2117 27.5002 43.5278 27.3466 44.83 27.1095C45.3528 27.0039 45.8956 27.0637 46.383 27.2805C46.8704 27.4974 47.2782 27.8605 47.5499 28.3195C47.8399 28.7495 48.1699 29.4095 48.5499 29.8295C48.4799 30.4895 46.8799 31.0795 46.4199 31.1395C44.9504 31.3175 43.4688 31.3743 41.99 31.3095C41.99 32.5195 41.99 34.0895 41.99 35.0795C43.17 35.0795 44.42 34.9495 45.66 34.8495C47.3072 34.7144 48.9627 34.7144 50.61 34.8495C50.68 33.1095 50.7799 30.6495 50.8699 28.9495C50.9399 27.4095 50.9399 27.2395 50.1899 26.1295C49.6999 25.4095 49.63 25.1795 50.02 24.7195C50.4809 24.2962 50.9759 23.9116 51.5 23.5695C52.22 23.1795 52.38 23.1495 53.04 23.5695C53.7569 24.0238 54.3896 24.599 54.91 25.2695C55.6143 26.2699 55.9274 27.4938 55.79 28.7095C55.79 30.2795 55.7299 32.1195 55.66 33.8595L56.66 33.6595C57.016 33.5791 57.3866 33.5911 57.7367 33.6944C58.0867 33.7977 58.4046 33.9887 58.66 34.2495C59.26 34.8995 60.38 35.9995 60.38 36.6395Z" fill="white"/>
<path d="M64.86 43.2291C67.6932 40.7218 69.8873 37.5746 71.26 34.0491C69.88 34.1491 67.94 34.2091 66.9 34.1791C66.3338 34.1786 65.7743 34.0558 65.26 33.8191C64.3177 33.3135 63.535 32.5551 63 31.6291C62.965 31.531 62.955 31.4257 62.9707 31.3228C62.9864 31.2198 63.0274 31.1223 63.09 31.0391C63.5438 30.5206 64.1029 30.1047 64.73 29.8191C65.078 29.8041 65.4235 29.8836 65.73 30.0491C66.122 30.1685 66.5303 30.2259 66.94 30.2191C68.29 30.2191 71.57 29.9891 72.58 29.8891C73.1814 29.726 73.798 29.6255 74.42 29.5891C75.0127 29.7017 75.5589 29.987 75.99 30.4091C76.4405 30.7555 76.744 31.2589 76.84 31.8191C76.84 32.4791 76.51 32.8191 76.38 33.2591C75.114 37.8483 72.7649 42.0665 69.53 45.5591C68.4687 46.647 67.0458 47.3086 65.53 47.4191C64.9592 47.4909 64.3796 47.4387 63.8308 47.2662C63.2821 47.0936 62.7769 46.8047 62.35 46.4191C61.35 45.7691 60.45 45.9991 59.73 45.7991C61.6271 45.3823 63.3903 44.499 64.86 43.2291ZM80 47.6191C79.7 42.1091 80.39 33.5591 80.23 28.2791C80.2295 27.4741 79.9383 26.6964 79.41 26.0891C79.11 25.5591 78.95 25.4291 79.08 25.0391C79.37 24.1891 80.85 23.5991 81.86 23.5291C82.0595 23.4968 82.2637 23.5096 82.4575 23.5668C82.6513 23.6239 82.8299 23.7238 82.98 23.8591C83.5464 24.3662 84.0409 24.9483 84.45 25.5891C84.7343 26.1021 84.8726 26.6831 84.85 27.2691C84.91 32.9991 84.85 43.3291 84.72 45.9491C84.6719 46.9733 84.3546 47.9667 83.8 48.8291C82.55 50.4991 81.21 51.9091 81.14 53.0591C80.33 52.3991 80.14 50.1091 80 47.6191Z" fill="white"/>
</g>
<defs>
<clipPath id="clip0_129_579">
<rect width="122.48" height="74.42" fill="white"/>
</clipPath>
</defs>
</svg>
