<svg id="레이어_1" data-name="레이어 1" xmlns="http://www.w3.org/2000/svg" viewBox="0 0 430.17 113.45"><defs><style>.cls-1{fill:#d8d847;}.cls-2{fill:#5a3217;}.cls-3{fill:#a3963a;}.cls-4{fill:#fff;}</style></defs><rect class="cls-1" x="2.5" y="2.5" width="425.17" height="108.45" rx="27.77"/><path class="cls-2" d="M399.9,113.45H30.27A30.31,30.31,0,0,1,0,83.18V30.27A30.31,30.31,0,0,1,30.27,0H399.9a30.31,30.31,0,0,1,30.27,30.27V83.18A30.31,30.31,0,0,1,399.9,113.45ZM30.27,5A25.3,25.3,0,0,0,5,30.27V83.18a25.3,25.3,0,0,0,25.27,25.27H399.9a25.3,25.3,0,0,0,25.27-25.27V30.27A25.3,25.3,0,0,0,399.9,5Z"/><rect class="cls-3" x="174.13" y="-142.6" width="81.92" height="398.64" rx="12.77" transform="translate(271.81 -158.36) rotate(90)"/><path class="cls-4" d="M88.86,62.13c-.63,1.74-1.89,1.65-3.87,1.5-7.83-.58-16.48.1-31.31.73A11.52,11.52,0,0,1,50.29,64c-1.21-.34-2.51-1.79-2.51-2.42,0-1.2,2.56-3.14,4.3-3.23.82,0,7-.25,13.39-.39v-1.6a2.34,2.34,0,0,0-.15-.91l-3,.19a3.51,3.51,0,0,1-1.65.58c-1.25,0-2.85-1.11-2.8-2.27a62.3,62.3,0,0,0-.24-7.83,3.68,3.68,0,0,0-1.11-2.37c-.39-.43-.53-.87-.29-1.25a11.94,11.94,0,0,1,3-2.47,1.46,1.46,0,0,1,1.6.19,7.49,7.49,0,0,1,2.75,3.53c2-.14,4.79-.38,6.19-.43,1,0,2.22,1.11,2.71,1.93s.33,1.21,0,1.6a4.09,4.09,0,0,1-3.34,1.3c-1,0-3,.05-4.93.14l.15,2.23c2.9,0,6,.09,9-.05,0-2.71,0-5.41-.1-7.3a2.77,2.77,0,0,0-1-1.83c-.38-.39-.24-.92.24-1.41a7.23,7.23,0,0,1,2.81-1.73,2.11,2.11,0,0,1,1.59.38c1,.68,2.42,2,2.42,3.14,0,3.39.67,7.49.43,11.17A3.69,3.69,0,0,1,77,56a5,5,0,0,1-2.42-.68c-.72,0-1.54-.05-2.41-.05v.34c0,.53,0,1.31,0,2.13,5.66-.15,9.81-.29,7.93-.29a31.25,31.25,0,0,1,4,.24A8.51,8.51,0,0,1,88,59.52C89.15,60.49,89.34,60.78,88.86,62.13Zm-7.25,7.69a40.42,40.42,0,0,1-.39,4.59c-.39,2-.92,3.43-1.84,4.25-.58.53-1.11,1-1.59,1.4a21.9,21.9,0,0,0-1.74,1.69,5.65,5.65,0,0,1-1.4-2.32,15.36,15.36,0,0,1-.44-3.18c0-1.12,0-2.9,0-4.64-4.1,0-10.34.19-12.56.29s-4.11-.83-6.23-2.32a.81.81,0,0,1-.39-1,6.19,6.19,0,0,1,.87-2.27c.48-.78.92-.82,1.45-.68a15.91,15.91,0,0,0,4.25.44c1.4,0,11.41-.34,12-.34,1.55,0,3.53-.34,4.55-.44a3.22,3.22,0,0,1,1.93.54C81,66.43,82,67.21,82,68A3.72,3.72,0,0,1,81.61,69.82Z"/><path class="cls-4" d="M130.71,62.28a3.55,3.55,0,0,1-1.21,2.08c-1.26.92-2.71,1.93-4.3,1.74-.87-.1-3.63-.29-5.17-.34-1-.05-3,0-5.51,0v7.54a8.38,8.38,0,0,1-2.27,6.23,12.54,12.54,0,0,0-1.89,2,6.16,6.16,0,0,0-1.06-2,10.73,10.73,0,0,1-2-4.4c-.19-1.25-.15-5.36-.1-9.23-4.2.15-8.07.29-9.32.44a7,7,0,0,1-5.08-1.21,8.41,8.41,0,0,1-2.37-2.37,1.19,1.19,0,0,1,0-1.21A13.63,13.63,0,0,1,92,59.28a1.43,1.43,0,0,1,1.79-.09,7.35,7.35,0,0,0,4.06.77c4-.15,20.24-.34,23.92-.63a21.56,21.56,0,0,1,7.34,1A2.14,2.14,0,0,1,130.71,62.28Zm-29.82-5.56a17.46,17.46,0,0,1-5-2.7,8.28,8.28,0,0,0,4.26-.87,52.42,52.42,0,0,0,9.66-6.72c-1.93.14-3.67.19-4.44.19a7.49,7.49,0,0,1-3.43-1.21,8.56,8.56,0,0,1-2.08-2.12,1,1,0,0,1,.09-1.16,9.76,9.76,0,0,1,1.74-1.65,1.37,1.37,0,0,1,1.36,0,5.68,5.68,0,0,0,2.46.73c1.31.1,6.72-.1,10-.29a6.21,6.21,0,0,1,2.28-.48,2.85,2.85,0,0,1,1.25.29,5.77,5.77,0,0,1,2,1.88,1.51,1.51,0,0,1-.19,1.5c-.39.53-1.69,2-2.22,2.51-.68.68-1.5,1.45-2.42,2.27a42.16,42.16,0,0,1,5.31,1.55,4.27,4.27,0,0,1,2.08,2.46,4.07,4.07,0,0,1,.1,2c-.58,1.41-2.42,2-3.91,1.94a5.82,5.82,0,0,1-2.52-1.11c-1.25-.78-3.72-2.37-5.26-3.29a47.45,47.45,0,0,1-4.35,3.24A8,8,0,0,1,100.89,56.72Z"/><path class="cls-4" d="M168.06,51.26c0,3.43.1,8.07,0,11.12,0,1.88-.19,6.71-.29,8.36a6.84,6.84,0,0,1-1.11,4c-.92,1.26-2.51,3-3.09,4a5.19,5.19,0,0,0-.92,2.32,4.12,4.12,0,0,1-1.16-2.66c-.14-1-.43-3.38-.53-5.36-.15-3.34-.19-4.79-.1-9.91,0-.38,0-1,0-1.69a18.17,18.17,0,0,1-3.43.15A8.38,8.38,0,0,1,154.63,60c0,1.55-.15,3.09-.29,4.54a3,3,0,0,1,1,3c-.14,1.26-2.85,2-5.07,2-1,0-7.25-.15-10.44-.39a2.69,2.69,0,0,1-1.88.68c-1.94,0-2.71-1.74-2.85-3.87-.15-1.83-.34-12.51-.39-15.7a6.46,6.46,0,0,1-.63-1,1.82,1.82,0,0,1-.1-1.84A14.18,14.18,0,0,1,136.41,45c.87-.63,1.4-.34,2.22.14A6.4,6.4,0,0,0,142,46c1.16,0,4.1,0,5.6-.1a22.71,22.71,0,0,0,2.42-.39c3.28-.29,4.3,1.16,5.22,3.38a2.21,2.21,0,0,1-.29,2l-.1,3.81a22.76,22.76,0,0,1,3.72-.53c.58,0,1.6,0,2.51.15.1-4.16.25-8.36.2-9.81-.05-1.89-.53-2-1.21-3.24-.43-.77-.68-1-.48-1.55.43-1.25,2.61-2.12,4.1-2.22a2,2,0,0,1,1.65.48,12.91,12.91,0,0,1,2.17,2.56,4.75,4.75,0,0,1,.58,2.47ZM141.34,52c0,2.76.14,7.88.14,11.07,1.6,0,4.31,0,6.67.15,0-2.76.15-8.56.1-11.17C147.53,52.08,144.34,52.13,141.34,52Z"/><path class="cls-4" d="M205.32,68.56c0,2.08-.29,5-1.59,6.52a32.06,32.06,0,0,0-4.16,6.24,35.12,35.12,0,0,1-1.93-9.57c0-1.88.05-4.3.05-6.91a14.92,14.92,0,0,1-4.16,2.42,24.62,24.62,0,0,1-5,.82c-1.41,0-5.13,0-7.74.29-1.64.14-3.67.38-4.35.09-1.4-.58-1.83-2.27-2.12-3.52a2.78,2.78,0,0,1,1.59-3.14c0-2.52,0-5.32-.14-7.59-.1-1.89-.24-2.37-1-3.38s-.87-1.74.92-3.48c2-1.94,2.66-2,4.69-.24,2.37,2,2.8,2.51,2.9,5.79.09,2.85.14,6.33.09,8.51,3.58-.15,7.35-.29,11.36-.68l3-.24c.09-5.36.14-10.82-.2-14.21-.24-2.51-.72-3.52-1.59-4.49-1.21-1.35-.82-2.17.77-3.58s2.42-1.59,4-.33c2.9,2.22,4.35,4.54,4.35,8.11C205.28,52.71,205.42,64.12,205.32,68.56Z"/><path class="cls-4" d="M263.8,66.68a7.68,7.68,0,0,1-4.3.62c-.87-.09-3.63-.19-4.21-.24-1.16-.09-4.2-.09-7.82,0v6.29a8.35,8.35,0,0,1-2.28,6.23,12.51,12.51,0,0,0-1.88,2,6.56,6.56,0,0,0-1.06-2,10.73,10.73,0,0,1-2-4.4c-.2-1.3-.05-4.35-.05-7.88-4.45.15-8.46.29-9.62.39a7.36,7.36,0,0,1-5.07-1.16,8.07,8.07,0,0,1-2.37-2.27,1,1,0,0,1,0-1.16,18.34,18.34,0,0,1,1.59-2.17c.49-.49,1-.49,1.79-.1a7.31,7.31,0,0,0,4.06.72c4-.14,20.88-.43,24.55-.62,2.46-.15,3.48-.25,5.17.43a11.48,11.48,0,0,1,3.87,3.43A1.4,1.4,0,0,1,263.8,66.68Zm-31-22.86a1.45,1.45,0,0,1-.43-1.45c.05-.19.77-1.89,1.3-1.89s1.31.29,2,.34c1.84.15,10.39.1,13.34-.19a25.47,25.47,0,0,1,2.9-.24,3.34,3.34,0,0,1,1.89,1.16c.87.92,1.06,1.59,1,2a3.1,3.1,0,0,1-2.42,1.83c-1,.15-3.62.25-4.83.25s-7.58.09-9.71.14A6.18,6.18,0,0,1,232.82,43.82ZM255,54.5a5.27,5.27,0,0,1,1.54,2.12c.1.83-2,1.89-3.19,2.28a13.57,13.57,0,0,1-3.38.09c-3,0-11.36.1-14.35.29a3.89,3.89,0,0,1-2.47-1.3,4.57,4.57,0,0,1-.63-2.71,1.55,1.55,0,0,1,1-1.06l-.19-3.48a2.89,2.89,0,0,1-.73-1.5c-.14-1,.58-2.08,1.26-2.08.38,0,1.4.24,2.8.29,3,.1,10.54,0,13.77-.14a8,8,0,0,1,3.53.63,1.83,1.83,0,0,1,.73,1.54,3.33,3.33,0,0,1-1.45,2,3,3,0,0,1-1.89.73c-3.33-.29-8.12-.24-11.74-.19,0,.43-.05,1.2-.05,2.07,3.24,0,6.72-.09,8.7-.24l4.3-.29A3.45,3.45,0,0,1,255,54.5Z"/><path class="cls-4" d="M276.32,60.68a9.52,9.52,0,0,1-6.91,2,8,8,0,0,1-4.59-3,7.93,7.93,0,0,0,3.57-1.26,49.43,49.43,0,0,0,9.42-7.54c-1.78.15-4,.34-5.41.34-2.17,0-3.57-1.59-4.54-3a1.26,1.26,0,0,1,.05-1.73,17,17,0,0,1,1.4-1.5,1.26,1.26,0,0,1,1.69-.15,6.32,6.32,0,0,0,2.95.68h.68a7.89,7.89,0,0,0,0-.92,2.06,2.06,0,0,0-.72-1.55c-.82-1-1-1.4.14-2.85s1.6-1.4,3.1-.87a10.65,10.65,0,0,1,3,1.5,3.39,3.39,0,0,1,.92,2.85v1.4h.29a11,11,0,0,1,2-.33,3.67,3.67,0,0,1,2.8,1.2c1.45,1.45,1.36,2.18-.24,4.4-.72,1-1.79,2.32-3,3.67a31.9,31.9,0,0,1,3.34,1.55c2.17,1.31,2.41,5.12,1.25,6.14s-4.63.87-6.18-.92c-.58-.68-1.64-1.74-2.42-2.51A24.85,24.85,0,0,1,276.32,60.68Zm22.71-2a13,13,0,0,1-2.32,6.14c.58.19,1,.68,1.5,1.4.72,1,.72,1.74.38,3.38a38.25,38.25,0,0,1-.48,4.26c-.92,4.73-2.27,5.94-4,8.31a10.74,10.74,0,0,1-2.56-5.27c-.15-1.93-.19-3.57-.24-5.7-2.13.19-8.36.43-11.6.39-4,0-5.51-.92-7.88-3.68a1.15,1.15,0,0,1,0-1.83,19,19,0,0,1,1.69-1.74c.78-.63,1.12-.63,1.84-.1,1.26.92,2.56,1,4.4,1,3.77,0,10.44-.29,14.06-.49a10.83,10.83,0,0,1-1.26-3,26.43,26.43,0,0,1-.38-5.27h-.63a6.83,6.83,0,0,1-4.5-1.93,2.63,2.63,0,0,1-1-2c.14-1.31,2.37-2.13,3.82-2.23.53,0,1.45,0,2.41,0,.05-1.6.1-3.24.2-4.84a5.13,5.13,0,0,0-1.21-4.15c-.73-1.07-.82-1.4-.24-2.08a13.72,13.72,0,0,1,1.88-1.69c1.06-.58,1.31-.63,2.27,0a10.6,10.6,0,0,1,2.71,2.51c1,1.3,1.25,2.75,1.25,5.07C299.17,50.1,299.13,55.42,299,58.7Z"/><path class="cls-4" d="M326.77,52.08a2.35,2.35,0,0,1-1.06,1.6,10.92,10.92,0,0,1-3.82.58c-2.22.09-11,.58-12.71.62a8.93,8.93,0,0,1-5.7-1.83,1.34,1.34,0,0,1-.44-1.6,15.64,15.64,0,0,1,1.65-2.94.86.86,0,0,1,1-.25c2.42.68,2.47.73,4,.73.44,0,1.26,0,2.27-.05v-.63a2.44,2.44,0,0,0-.77-2c-.87-.92-1.06-1.25-.68-2a13.38,13.38,0,0,1,1.36-1.79c.77-.77,1.21-.72,2.12-.29A17.31,17.31,0,0,1,317.1,44c.87.78,1,2,1,3.53V48.6l1-.09a20.8,20.8,0,0,0,2.7-.44,3.24,3.24,0,0,1,2.76.82C326.09,50.34,326.82,51.45,326.77,52.08Zm-2.32,13c-.1,4.4-4.74,7.44-9.52,7.44a3.89,3.89,0,0,1-2.46.34,8.1,8.1,0,0,1-6.91-8c0-3.72,3.28-7.3,7.34-8.12a2.42,2.42,0,0,1,1.79-.82C319.76,55.9,324.59,59.14,324.45,65.08Zm-6.19-.67c0-1.45-1.69-2.66-3.09-2.86a1.69,1.69,0,0,1-1-.38,3.33,3.33,0,0,0-2.76,3.24c0,1.4,1.93,2.51,3.43,2.65C316.72,67.06,318.31,65.81,318.26,64.41ZM343,61.65c0,1.5-2.18,2.66-4.3,2.76-.82,0-2,0-3.05,0,.05,1.69.05,3.14.05,4.16A17.75,17.75,0,0,1,334.45,75c-.91,2.17-2.65,4.73-2.8,6.28-2-2.61-3.62-6.33-3.53-9.67.2-6.52.24-19.52,0-25.56-.09-2.51-.48-3.48-1.35-4.54-1.16-1.4-.63-1.93,1-3.29s2.23-1.59,3.87-.38c3,2.27,3.67,3.57,3.72,7.15.05,3.33.1,8,.19,12.37a12.23,12.23,0,0,0,1.65-.34,3.16,3.16,0,0,1,3,.87C341.22,58.85,343,60.73,343,61.65Z"/><path class="cls-4" d="M349.48,66.48A35,35,0,0,0,358.91,53c-2,.15-4.88.24-6.43.2a5.9,5.9,0,0,1-2.42-.54,8.56,8.56,0,0,1-3.33-3.23,1,1,0,0,1,.14-.87,7.22,7.22,0,0,1,2.42-1.79,2.74,2.74,0,0,1,1.55.34,5.77,5.77,0,0,0,1.79.24c2,0,6.81-.34,8.31-.48a12.67,12.67,0,0,1,2.7-.44A4.52,4.52,0,0,1,366,47.59a3.33,3.33,0,0,1,1.26,2.08c0,1-.48,1.4-.68,2.12-1.88,6.53-5.51,13.53-10.1,18.12a9.16,9.16,0,0,1-5.84,2.76c-2.23.29-3.15-.44-4.69-1.4s-2.8-.63-3.87-.92A17.1,17.1,0,0,0,349.48,66.48ZM371.81,73c-.43-8.12.58-20.73.34-28.51,0-1.89-.53-2-1.21-3.24-.43-.77-.68-1-.48-1.55.43-1.25,2.61-2.12,4.1-2.22a2,2,0,0,1,1.65.48,12.91,12.91,0,0,1,2.17,2.56A4.75,4.75,0,0,1,379,43c.1,8.46.05,23.68-.19,27.54a8.57,8.57,0,0,1-1.35,4.26c-1.84,2.46-3.82,4.54-3.92,6.23C372.29,80,372,76.63,371.81,73Z"/></svg>