<svg id="레이어_1" data-name="레이어 1" xmlns="http://www.w3.org/2000/svg" viewBox="0 0 160.48 74.42"><defs><style>.cls-1{fill:#e1e141;}.cls-2{fill:#c1bc40;}.cls-3{fill:#fff;}</style></defs><rect class="cls-1" width="160.48" height="74.42" rx="23.2"/><rect class="cls-2" x="51.54" y="-34.53" width="57.41" height="143.48" rx="14.7" transform="translate(117.45 -43.03) rotate(90)"/><path class="cls-3" d="M51.54,41.49c0,1-1.47,1.8-2.91,1.87-.56,0-1.31,0-2,0,0,.49,0,.92,0,1.28A11.61,11.61,0,0,1,45.81,49c-.63,1.47-1.81,3.21-1.9,4.26a11.15,11.15,0,0,1-2.4-6.55l.07-3.38a12.92,12.92,0,0,1-4.88,1.77c-1.61.2-4.79.36-6.56.36A6.53,6.53,0,0,1,27.49,45c-.92-.39-1.51-.69-1.58-1.87a2,2,0,0,1,.53-1.73c0-2.5-.1-5-.2-6.82a.11.11,0,0,1,0-.07A17.86,17.86,0,0,0,25.29,33a.89.89,0,0,1-.07-1,6.57,6.57,0,0,1,1-1.08c.39-.33.85-.23,1.38-.07a10.76,10.76,0,0,0,3.73.07c1.28-.13,2.46-.33,3.51-.46A3.1,3.1,0,0,1,38,31.76c.32.46.75,1.14,1.08,1.64A3.49,3.49,0,0,1,36.63,35a38.16,38.16,0,0,1-5.31.2c0,1.93,0,4.36,0,5.67,1.57-.07,3.25-.13,4.59-.23a42.14,42.14,0,0,1,5.74.06c.06-4.09.13-8.68.06-11.3a4.12,4.12,0,0,0-1.11-3.08c-.79-.92-.43-1.32.68-2.23s1.51-1.08,2.63-.26c2.06,1.54,2.52,2.42,2.52,4.85,0,2.65,0,6.52.1,9.93a8.6,8.6,0,0,0,1.11-.23,2.12,2.12,0,0,1,2,.59C50.36,39.59,51.54,40.87,51.54,41.49Z"/><path class="cls-3" d="M81,40a3.37,3.37,0,0,1-1.73,1.28,2,2,0,0,1-1.45.13A14.29,14.29,0,0,0,75.66,41c-.65-.06-2-.16-3.54-.16-.39,0-1.28,0-2.33,0,0,.62,0,1.41,0,1.71,0,2.06-1.57,3.67-2.62,3.67a5.18,5.18,0,0,1-2-3.54c0-.27,0-1,0-1.67-1.38,0-2.46.09-2.73.09-1.5.07-4.58.2-6.68.2a4.87,4.87,0,0,1-2.07-.62,6.63,6.63,0,0,1-1.67-1.28,1,1,0,0,1,0-1A8.12,8.12,0,0,1,52.91,37a.93.93,0,0,1,1-.23l1,.33a7.29,7.29,0,0,0,2.29.23c1.18,0,5.38-.27,6.3-.3,1.24,0,7.34-.29,9.37-.26a48,48,0,0,1,5.44.26,5,5,0,0,1,2.82,2A1.7,1.7,0,0,1,81,40Zm-4.29,8.79a1.29,1.29,0,0,1,.13,1.31,5.55,5.55,0,0,1-1.41,1.34,3.75,3.75,0,0,1-1.87.62c-1.67.07-6.68.23-8.85.23a4,4,0,0,1-3.86-1.8c-.92-1.08-1.77-2.16-2.89-3.28a5.64,5.64,0,0,0-.75-.72,1.92,1.92,0,0,1-.79-.69.8.8,0,0,1,.2-.85A4.68,4.68,0,0,1,59,43.65a1.6,1.6,0,0,1,1.7.37c.53.52,2,2.09,2.85,3a2.77,2.77,0,0,0,1.38.88,36.37,36.37,0,0,0,3.87,0c1.21-.07,2.55-.1,3.83-.27,1.45-.19,1.81-.55,2.36-.46A4.74,4.74,0,0,1,76.71,48.77ZM59.44,30.84c-.07-3.41,5.11-5.77,8.32-6.2a2,2,0,0,1,1.15-.26c3,.23,6,3.08,5.83,6.1-.16,3.44-3.47,5.11-7.24,5.21-2.26.07-5-.39-5.87-1.31A3.83,3.83,0,0,1,59.44,30.84Zm4.65-.59a1.49,1.49,0,0,0,1.08,1.28,10.19,10.19,0,0,0,2,.23c1.44,0,3-.4,3-1.38.1-1.25-1-1.61-1.61-2.2C66.88,28.18,64.09,29.1,64.09,30.25Z"/><path class="cls-3" d="M110.66,47.33a1.61,1.61,0,0,1-1,1.11,5.67,5.67,0,0,1-3.38.46,36.87,36.87,0,0,0-4-.36c-2.55-.07-13.3.16-15.5.36a3.84,3.84,0,0,1-3.47-1.18A6.36,6.36,0,0,1,82,45.59a.69.69,0,0,1,.23-.79,10,10,0,0,1,1.54-1,1.24,1.24,0,0,1,1.38.2,3.55,3.55,0,0,0,2.62.75c.56,0,3.15-.06,5.87-.13a13,13,0,0,0-.17-2.13,2.77,2.77,0,0,1-.06-.46c-1.28,0-2.26.07-2.49.1a11.17,11.17,0,0,1-2,.17,1.84,1.84,0,0,1-1.67-1.74A1.92,1.92,0,0,1,88,39c0-.92,0-1.93-.07-2.92a2,2,0,0,1-.36-.75,1.67,1.67,0,0,1,.16-1.15,2.64,2.64,0,0,1,2-1c.66,0,1.54.29,2.46.26s4.65-.07,7.41-.1l0-1.61c-2.43.1-7.38.1-8.36-.06A5.54,5.54,0,0,1,88,29.89a1,1,0,0,1-.13-1.35,11.81,11.81,0,0,1,.82-.91c.36-.3.66-.49,1.12,0a4.58,4.58,0,0,0,2.29.56,65.56,65.56,0,0,0,7.31-.1,14.5,14.5,0,0,0,2-.29,2.71,2.71,0,0,1,.88-.07,2.21,2.21,0,0,1,1.28.66c.56.46.92.78.82,1.21a2.13,2.13,0,0,1-.36,1,1,1,0,0,1-.33.23c-.06,1-.09,2.26-.09,3.18.09.1.19.2.23.26a3,3,0,0,1-.14,1.64,1.68,1.68,0,0,1-1.57,1c-1.31-.09-6.39-.19-10-.19l0,1.8c3.6,0,8.36-.1,10.19-.29a2.86,2.86,0,0,1,2.46,1,3.08,3.08,0,0,1,.79,2.52.88.88,0,0,1-.92.53,19.38,19.38,0,0,0-2.56-.27H98.43a4.65,4.65,0,0,1,.2,1.71,7.41,7.41,0,0,1,0,.85l1.8-.06c1.12-.07,3.84-.17,5.93-.23a6.07,6.07,0,0,1,3.48,1.47A2.26,2.26,0,0,1,110.66,47.33Z"/><path class="cls-3" d="M140.19,47.16c-.1.59-1.25,1.12-1.87,1.35a9.08,9.08,0,0,1-3.28.42c-4.85-.29-12.78-.26-18.39,0a5.66,5.66,0,0,1-3.6-.59c-.76-.39-1.64-1.18-1.64-1.77,0-.92,1.41-2.23,2.78-2.19,3.81.09,17.67,0,20.91-.43a4.38,4.38,0,0,1,3.81,1.31C139.79,46,140.25,46.77,140.19,47.16Zm-22.62-15.3a4.85,4.85,0,0,1-.56-.69,1.09,1.09,0,0,1,.1-1.31,10.29,10.29,0,0,1,1.08-1.28,1.15,1.15,0,0,1,1.25-.07,4.13,4.13,0,0,0,2,.49c.79,0,4.4-.13,6.33-.23,1.21-.06,2.1-.32,2.82-.29a2.65,2.65,0,0,1,1.7.85A16.34,16.34,0,0,1,133.66,31a.79.79,0,0,1,0,.72,6.86,6.86,0,0,1-3.28,1.25l-7.93,0c-.06,1.18-.06,2.89,0,4.33,3,0,6.55-.06,8.59-.16a18.56,18.56,0,0,0,2.85-.33.76.76,0,0,1,.85.88,6.76,6.76,0,0,1-.85,1.77c-1.25,1.71-2.36,2.17-4.66,2.1-1.9-.06-5.34-.13-7.83-.13-.76,0-1.87.07-2.36.13a2,2,0,0,1-2-1.34,2.26,2.26,0,0,1-.1-2,1.47,1.47,0,0,1,.65-.66A43.6,43.6,0,0,0,117.57,31.86Z"/></svg>