<svg width="370" height="100" viewBox="0 0 370 100" fill="none" xmlns="http://www.w3.org/2000/svg">
<g clip-path="url(#clip0_32_2954)">
<path d="M343.88 4.33008H26.1599C14.098 4.33008 4.31995 14.1082 4.31995 26.1701V73.8301C4.31995 85.892 14.098 95.6701 26.1599 95.6701H343.88C355.942 95.6701 365.72 85.892 365.72 73.8301V26.1701C365.72 14.1082 355.942 4.33008 343.88 4.33008Z" fill="#D8D847"/>
<path d="M343.88 0H26.16C19.2235 0.0105856 12.5742 2.77149 7.67025 7.67731C2.7663 12.5831 0.00793454 19.2335 0 26.17L0 73.84C0.0105794 80.7748 2.77011 87.4226 7.67377 92.3262C12.5774 97.2299 19.2252 99.9894 26.16 100H343.88C350.809 99.9815 357.448 97.2181 362.343 92.315C367.239 87.412 369.992 80.7687 370 73.84V26.17C369.995 19.2396 367.243 12.5937 362.347 7.6885C357.451 2.78325 350.81 0.0185215 343.88 0V0ZM365.72 73.83C365.712 79.6199 363.409 85.1704 359.314 89.2644C355.22 93.3585 349.67 95.6621 343.88 95.67H26.16C20.3718 95.6621 14.8229 93.3599 10.7291 89.268C6.63529 85.1761 4.33058 79.6282 4.32 73.84V26.17C4.32794 20.3801 6.63148 14.8296 10.7256 10.7356C14.8196 6.64148 20.3701 4.33794 26.16 4.33H343.88C349.67 4.33794 355.22 6.64148 359.314 10.7356C363.409 14.8296 365.712 20.3801 365.72 26.17V73.83Z" fill="#5A3217"/>
<path d="M356.42 73.5997V26.4097C356.42 19.357 350.703 13.6396 343.65 13.6396L26.4 13.6396C19.3474 13.6396 13.6301 19.357 13.6301 26.4097V73.5997C13.6301 80.6523 19.3474 86.3697 26.4 86.3697L343.65 86.3697C350.703 86.3697 356.42 80.6523 356.42 73.5997Z" fill="#A3963A"/>
<path d="M75.91 54.6698C75.36 56.1798 74.28 56.0898 72.56 55.9698C65.8 55.4698 58.32 56.0498 45.5 56.5998C44.5153 56.6302 43.5314 56.5156 42.58 56.2598C41.58 55.9698 40.41 54.7198 40.41 54.1698C40.41 53.1698 42.62 51.4598 44.12 51.3798C44.83 51.3298 50.18 51.1698 55.69 51.0398V49.6598C55.6988 49.3913 55.6581 49.1235 55.57 48.8698L52.94 48.9998C52.5142 49.2791 52.0269 49.4507 51.52 49.4998C50.43 49.4998 49.05 48.4998 49.09 47.4998C49.1651 45.2409 49.0949 42.9796 48.88 40.7298C48.8174 39.9447 48.4602 39.2124 47.88 38.6798C47.55 38.3098 47.42 37.9298 47.63 37.5998C48.3739 36.7558 49.2484 36.0367 50.22 35.4698C50.4404 35.3582 50.6887 35.3139 50.9341 35.3424C51.1794 35.3708 51.411 35.4708 51.6 35.6298C52.6775 36.3672 53.507 37.4128 53.98 38.6298C55.74 38.5098 58.12 38.2998 59.33 38.2598C60.2 38.2598 61.25 39.2598 61.67 39.9298C62.09 40.5998 61.96 40.9298 61.67 41.3098C61.3057 41.7046 60.8559 42.0108 60.3549 42.205C59.854 42.3991 59.3153 42.476 58.78 42.4298C57.91 42.4298 56.24 42.4298 54.52 42.5598L54.65 44.4798C57.16 44.4798 59.87 44.5598 62.42 44.4798C62.42 42.1398 62.42 39.7998 62.33 38.1698C62.2633 37.5542 61.9669 36.9864 61.5 36.5798C61.17 36.2498 61.29 35.7898 61.71 35.3698C62.4151 34.7319 63.2565 34.2634 64.17 33.9998C64.6554 33.9264 65.1504 34.0447 65.55 34.3298C66.42 34.9198 67.64 36.0498 67.64 37.0498C67.64 39.9698 68.22 43.5198 68.01 46.6998C67.9269 47.3322 67.6554 47.9249 67.231 48.4011C66.8066 48.8772 66.2488 49.2147 65.63 49.3698C64.8948 49.3525 64.1758 49.1496 63.54 48.7798C62.92 48.7798 62.21 48.7798 61.46 48.7798V48.9998C61.46 49.4498 61.46 50.1198 61.46 50.8298C66.34 50.7098 69.93 50.5798 68.31 50.5798C69.4666 50.5772 70.6222 50.6473 71.77 50.7898C73.0221 51.0303 74.1903 51.592 75.16 52.4198C76.16 53.2598 76.32 53.5098 75.91 54.6698ZM69.64 61.3198C69.608 62.6584 69.4978 63.994 69.31 65.3198C69.1737 66.6814 68.6182 67.9673 67.72 68.9998C67.22 69.4598 66.72 69.8798 66.34 70.2098C65.8115 70.6663 65.3106 71.1538 64.84 71.6698C64.2822 71.1097 63.8672 70.4238 63.63 69.6698C63.4067 68.7657 63.2793 67.8406 63.25 66.9098C63.25 65.9098 63.25 64.3998 63.25 62.9098C59.7 62.9098 54.31 63.0798 52.39 63.1598C50.47 63.2398 48.84 62.4498 47 61.1598C46.8575 61.0783 46.7471 60.9507 46.6871 60.7979C46.6271 60.6451 46.6211 60.4764 46.67 60.3198C46.7859 59.6102 47.0408 58.9306 47.42 58.3198C47.84 57.6498 48.22 57.6098 48.68 57.7298C49.8801 58.0245 51.115 58.1524 52.35 58.1098C53.56 58.1098 62.21 57.8198 62.75 57.8198C64.09 57.8198 65.75 57.5198 66.68 57.4398C67.2716 57.4099 67.8572 57.5712 68.35 57.8998C69.1 58.3998 69.97 59.0698 70.02 59.7798C70.0209 60.3164 69.8904 60.8451 69.64 61.3198Z" fill="white"/>
<path d="M112.07 54.7999C111.954 55.4972 111.601 56.133 111.07 56.5999C109.98 57.3899 108.73 58.2699 107.35 58.0999C106.6 58.0199 104.22 57.8499 102.88 57.8099C102.05 57.8099 100.3 57.8099 98.12 57.8099V64.3199C98.1723 65.3073 98.0219 66.295 97.6779 67.222C97.3339 68.149 96.8037 68.9957 96.12 69.7099C95.5182 70.2397 94.972 70.8294 94.49 71.4699C94.2992 70.8296 93.9869 70.2321 93.57 69.7099C92.7195 68.6179 92.1218 67.3508 91.82 65.9999C91.65 64.9199 91.69 61.3699 91.74 57.9999C88.1 58.1299 84.74 58.2499 83.68 58.3799C82.1423 58.6291 80.568 58.2705 79.29 57.3799C78.4796 56.8366 77.7833 56.1403 77.24 55.3299C77.1568 55.1764 77.1133 55.0046 77.1133 54.8299C77.1133 54.6553 77.1568 54.4835 77.24 54.3299C77.6282 53.6165 78.0908 52.9461 78.62 52.3299C78.8307 52.1422 79.0991 52.032 79.3809 52.0175C79.6627 52.0029 79.9411 52.0849 80.17 52.2499C81.2515 52.8052 82.4699 53.0378 83.68 52.9199C87.1 52.7899 101.17 52.6199 104.35 52.3699C106.499 52.2846 108.647 52.5688 110.7 53.2099C111.065 53.2998 111.393 53.5011 111.639 53.7861C111.884 54.0711 112.035 54.4254 112.07 54.7999ZM86.31 49.9999C84.7538 49.4635 83.2974 48.6728 82 47.6599C83.2717 47.7438 84.5425 47.4848 85.68 46.9099C88.6651 45.2958 91.4565 43.3466 94 41.0999C92.33 41.2299 90.83 41.2699 90.16 41.2699C89.0888 41.1724 88.0582 40.8117 87.16 40.2199C86.4618 39.7183 85.8561 39.099 85.37 38.3899C85.2825 38.2341 85.2435 38.0558 85.2577 37.8778C85.272 37.6997 85.3389 37.5299 85.45 37.3899C85.9077 36.8648 86.4282 36.3979 87 35.9999C87.1782 35.8982 87.3798 35.8447 87.585 35.8447C87.7901 35.8447 87.9918 35.8982 88.17 35.9999C88.8214 36.3726 89.5507 36.5883 90.3 36.6299C91.43 36.7099 96.11 36.5499 98.95 36.3799C99.5834 36.1125 100.262 35.9699 100.95 35.9599C101.327 35.9663 101.698 36.0515 102.04 36.2099C102.742 36.6099 103.341 37.168 103.79 37.8399C103.879 38.0523 103.911 38.2845 103.881 38.5129C103.851 38.7414 103.761 38.9578 103.62 39.1399C103.017 39.8951 102.376 40.6193 101.7 41.3099C101.12 41.8899 100.41 42.5599 99.62 43.3099C101.177 43.6591 102.71 44.1066 104.21 44.6499C105.061 45.103 105.705 45.8655 106.01 46.7799C106.171 47.3357 106.198 47.9216 106.09 48.4899C105.59 49.6999 104 50.2399 102.71 50.1599C101.913 50.0084 101.165 49.6652 100.53 49.1599C99.45 48.4899 97.32 47.1599 95.98 46.3199C94.7846 47.3287 93.529 48.2638 92.22 49.1199C91.3632 49.6989 90.3876 50.0784 89.3648 50.2307C88.3421 50.383 87.2982 50.3041 86.31 49.9999Z" fill="white"/>
<path d="M144.36 45.28C144.36 48.28 144.44 52.28 144.36 54.88C144.36 56.51 144.19 60.69 144.11 62.11C144.131 63.325 143.782 64.5176 143.11 65.53C142.31 66.62 140.94 68.16 140.43 68.96C140.01 69.5534 139.739 70.2395 139.64 70.96C139.034 70.3473 138.677 69.531 138.64 68.67C138.51 67.79 138.26 65.74 138.18 64.03C138.05 61.15 138.01 59.9 138.1 55.47C138.1 55.13 138.1 54.63 138.1 54.01C137.106 54.1476 136.101 54.1878 135.1 54.13C134.2 53.8539 133.364 53.4018 132.64 52.8C132.64 54.13 132.51 55.47 132.39 56.72C132.755 57.0246 133.03 57.4231 133.185 57.8725C133.34 58.3219 133.369 58.8051 133.27 59.27C133.25 60.35 130.91 61 129 61C128.12 61 122.74 60.88 120 60.67C119.549 61.061 118.967 61.268 118.37 61.25C116.7 61.25 116.03 59.75 115.91 57.91C115.78 56.33 115.61 47.1 115.57 44.34C115.365 44.077 115.184 43.7958 115.03 43.5C114.874 43.2689 114.784 42.9996 114.77 42.7211C114.756 42.4427 114.818 42.1657 114.95 41.92C115.559 41.171 116.258 40.4994 117.03 39.92C117.79 39.38 118.24 39.63 118.96 40.05C119.853 40.5363 120.864 40.7648 121.88 40.71C122.88 40.71 125.43 40.71 126.72 40.63C127.422 40.5565 128.12 40.4463 128.81 40.3C131.65 40.05 132.53 41.3 133.32 43.22C133.401 43.5056 133.414 43.8062 133.359 44.0978C133.303 44.3894 133.18 44.6641 133 44.9V48.2C134.056 47.9589 135.129 47.805 136.21 47.74C136.71 47.74 137.59 47.74 138.39 47.87C138.47 44.28 138.59 40.64 138.55 39.39C138.55 37.76 138.09 37.64 137.55 36.59C137.17 35.92 136.96 35.76 137.13 35.26C137.51 34.17 139.39 33.42 140.68 33.33C140.933 33.292 141.191 33.3098 141.437 33.3824C141.682 33.455 141.908 33.5805 142.1 33.75C142.792 34.4214 143.397 35.1773 143.9 36C144.257 36.6514 144.43 37.3878 144.4 38.13L144.36 45.28ZM121.26 45.95C121.26 48.33 121.39 52.75 121.39 55.51C122.77 55.51 125.11 55.51 127.15 55.64C127.15 53.26 127.28 48.24 127.24 45.99C126.61 46 123.85 46 121.26 46V45.95Z" fill="white"/>
<path d="M176.56 60.2298C176.56 62.0298 176.31 64.5298 175.18 65.8698C173.772 67.5167 172.567 69.3262 171.59 71.2598C170.65 68.5979 170.088 65.8176 169.92 62.9998C169.92 61.3698 169.92 59.2798 169.92 56.9998C168.846 57.889 167.633 58.5952 166.33 59.0898C164.926 59.4778 163.484 59.7158 162.03 59.7998C160.82 59.7998 157.6 59.7998 155.35 60.0498C154.108 60.2647 152.841 60.2951 151.59 60.1398C150.38 59.6298 150 58.1398 149.75 57.1398C149.633 56.5969 149.706 56.0303 149.958 55.535C150.209 55.0397 150.623 54.646 151.13 54.4198C151.13 52.2498 151.13 49.8298 151 47.8698C151.096 46.8177 150.785 45.7688 150.13 44.9398C149.46 44.0698 149.37 43.4398 150.92 41.9398C152.67 40.2598 153.22 40.2198 154.92 41.7298C156.97 43.4798 157.34 43.8998 157.43 46.7298C157.51 49.1898 157.55 52.1998 157.51 54.0798C160.6 53.9498 163.86 53.8298 167.32 53.4898L169.96 53.2898C170.04 48.6498 170.08 43.9298 169.79 41.0098C169.58 38.8298 169.16 38.0098 168.41 37.1198C167.41 35.9498 167.7 35.2398 169.08 34.0298C170.46 32.8198 171.17 32.6498 172.54 33.7398C175.05 35.6598 176.3 37.6698 176.3 40.7398C176.52 46.5298 176.64 56.3898 176.56 60.2298Z" fill="white"/>
<path d="M221.38 69.3303C219.45 70.9603 218.12 71.0503 215.53 71.0503C214.32 71.0503 207.88 70.9203 206.42 70.8803C204.17 70.8003 203.25 70.6703 201.91 68.8803C200.57 67.0903 199.91 65.7003 199.07 64.5303C198.66 63.9503 197.78 63.7003 197.07 63.2003C196.773 63.0456 196.537 62.7955 196.4 62.4903C196.258 62.2181 196.199 61.9104 196.229 61.605C196.259 61.2995 196.378 61.0095 196.57 60.7703C197.245 60.2466 198.027 59.8779 198.86 59.6903C200.99 59.0603 201.62 58.8903 202.33 59.9803C204.8 60.0703 210.52 59.9003 213.23 59.8603L213.31 58.1003C209.72 57.9403 204.71 57.9803 201.66 57.9803C201.178 58.0305 200.691 57.9781 200.231 57.8264C199.77 57.6747 199.348 57.4273 198.99 57.1003C198.4 56.6803 197.86 56.2203 197.82 55.7203C197.789 55.4301 197.825 55.1366 197.926 54.8626C198.026 54.5886 198.188 54.3414 198.4 54.1403C199.24 53.2203 199.53 53.5503 200.95 53.8803C201.803 54.0691 202.669 54.1961 203.54 54.2603C205.808 54.3857 208.082 54.3857 210.35 54.2603C211.56 54.2603 213.9 54.0503 215.4 53.9303C215.151 53.0692 214.97 52.1898 214.86 51.3003C214.36 51.3003 213.86 51.3803 213.56 51.3803C212.395 51.4253 211.249 51.0727 210.31 50.3803C209.838 50.1076 209.399 49.7822 209 49.4103C208.221 50.3057 207.267 51.0334 206.198 51.5491C205.129 52.0648 203.966 52.3578 202.78 52.4103C202.28 52.4103 201.78 52.4103 201.36 52.4103C200.713 52.6187 200.022 52.6463 199.36 52.4903C195.26 51.8703 193.13 49.1903 193.13 45.4303C193.13 42.2203 196.22 38.7903 199.27 38.0803C199.441 37.8032 199.673 37.5689 199.949 37.3956C200.224 37.2222 200.536 37.1144 200.86 37.0803C202.107 37.0506 203.346 37.2928 204.49 37.7903C206.402 38.4853 208.052 39.7572 209.21 41.4303C209.782 40.9959 210.494 40.786 211.21 40.8403L214.84 40.6303V40.2603C214.936 39.6174 214.896 38.9615 214.724 38.3348C214.552 37.708 214.251 37.124 213.84 36.6203C213.21 35.7003 213.17 35.4503 213.63 34.8303C214.184 34.2777 214.798 33.7881 215.46 33.3703C216.38 32.8603 216.59 32.8203 217.46 33.3703C218.268 33.9493 218.949 34.6878 219.46 35.5403C220.382 36.8327 220.782 38.4256 220.58 40.0003C220.5 43.7603 220.71 46.8103 220.37 49.6503C220.109 51.5074 219.425 53.2796 218.37 54.8303C218.752 55.0797 219.09 55.3905 219.37 55.7503C219.66 56.1203 220.08 56.6303 220.08 57.0003C220.012 57.4843 219.826 57.9443 219.54 58.3403C219.33 58.8803 218.28 62.1003 218.16 62.4703C217.82 63.5203 216.95 63.6803 215.61 63.6803H209.22C208.39 63.6803 206.59 63.6803 204.5 63.6803C204.84 64.1003 205.09 64.5203 205.34 64.8103C206.17 65.8103 207.05 65.8103 208.18 65.9403C209.31 66.0703 213.56 66.1003 215.18 66.1003C216.191 66.0615 217.196 65.9242 218.18 65.6903C219.94 65.2703 220.52 65.8903 221.86 67.2303C222.84 68.0803 222.21 68.6203 221.38 69.3303ZM204.71 45.0003C204.71 43.7403 203.25 42.7403 201.96 42.3203C201.612 42.2457 201.292 42.0721 201.04 41.8203C200.35 42.1167 199.752 42.59 199.304 43.1924C198.856 43.7947 198.575 44.5046 198.49 45.2503C198.454 45.6159 198.493 45.9849 198.602 46.3354C198.712 46.6859 198.891 47.0107 199.129 47.2906C199.367 47.5704 199.659 47.7996 199.987 47.9645C200.315 48.1294 200.673 48.2266 201.04 48.2503C201.524 48.2467 202.004 48.1622 202.46 48.0003C203.104 47.8019 203.668 47.4047 204.072 46.8658C204.477 46.3269 204.7 45.6739 204.71 45.0003ZM214.71 46.7903C214.71 46.2903 214.71 45.7903 214.71 45.2903H213.59C212.318 45.118 211.117 44.5991 210.12 43.7903C210.244 44.4496 210.301 45.1196 210.29 45.7903C210.276 46.1985 210.219 46.6041 210.12 47.0003C210.799 46.8981 211.484 46.8446 212.17 46.8403C212.77 46.9103 213.73 46.8703 214.69 46.8203L214.71 46.7903Z" fill="white"/>
<path d="M254.41 45.2803C254.41 48.2803 254.5 52.2803 254.41 54.8803C254.41 56.5103 254.24 60.6903 254.16 62.1103C254.181 63.3252 253.832 64.5178 253.16 65.5303C252.37 66.6203 250.99 68.1603 250.49 68.9603C250.063 69.5512 249.788 70.238 249.69 70.9603C249.092 70.3423 248.737 69.5291 248.69 68.6703C248.57 67.7903 248.32 65.7403 248.23 64.0303C248.11 61.1503 248.07 59.9003 248.15 55.4703C248.15 55.2203 248.15 54.8403 248.15 54.3803C247.304 54.4878 246.451 54.518 245.6 54.4703C244.836 54.2546 244.124 53.8835 243.51 53.3803C243.168 54.9054 242.498 56.3378 241.547 57.5778C240.595 58.8177 239.385 59.8355 238 60.5603C237.598 60.7829 237.156 60.9255 236.7 60.9803C236.028 61.5866 235.144 61.9029 234.24 61.8603C229.98 61.7703 225.93 57.6003 225.93 52.5903C225.983 50.3623 226.6 48.1842 227.725 46.2602C228.85 44.3362 230.444 42.7293 232.36 41.5903C232.617 41.1203 233.001 40.7316 233.467 40.4683C233.934 40.2049 234.465 40.0775 235 40.1003C236.131 40.1396 237.23 40.4852 238.18 41.1003C239.524 41.913 240.684 42.9986 241.583 44.287C242.482 45.5753 243.101 47.0379 243.4 48.5803C244.469 48.3381 245.556 48.1843 246.65 48.1203C247.07 48.1203 247.74 48.1203 248.41 48.2003C248.49 44.5203 248.62 40.7203 248.57 39.4303C248.57 37.8003 248.12 37.6803 247.57 36.6303C247.19 35.9603 246.99 35.8003 247.15 35.3003C247.53 34.2103 249.41 33.4603 250.7 33.3703C250.953 33.3308 251.212 33.348 251.457 33.4207C251.703 33.4933 251.929 33.6195 252.12 33.7903C252.84 34.4417 253.472 35.1847 254 36.0003C254.357 36.6517 254.53 37.388 254.5 38.1303L254.41 45.2803ZM238 51.0003C237.951 49.8737 237.657 48.7714 237.139 47.7698C236.621 46.7682 235.891 45.8914 235 45.2003C233 46.4103 231.66 49.4603 231.66 51.9203C231.613 52.9174 231.924 53.8984 232.536 54.6867C233.149 55.475 234.022 56.0189 235 56.2203C236.016 55.8169 236.866 55.0814 237.41 54.1335C237.955 53.1856 238.163 52.0813 238 51.0003Z" fill="white"/>
<path d="M295 63.6502C294.923 63.9651 294.774 64.2576 294.564 64.5042C294.354 64.7509 294.089 64.9447 293.79 65.0702C292.448 65.7034 290.943 65.9094 289.48 65.6602C287.78 65.4118 286.067 65.2583 284.35 65.2002C281.09 65.1202 267.35 65.4102 264.59 65.6602C263.787 65.8003 262.961 65.7363 262.189 65.4742C261.416 65.2121 260.722 64.7603 260.17 64.1602C259.421 63.3772 258.836 62.4524 258.45 61.4402C258.385 61.2635 258.379 61.0705 258.433 60.8902C258.487 60.7099 258.599 60.552 258.75 60.4402C259.393 59.8356 260.089 59.29 260.83 58.8102C261.115 58.6705 261.435 58.6196 261.748 58.6642C262.062 58.7088 262.356 58.8468 262.59 59.0602C263.03 59.4349 263.541 59.7167 264.093 59.8886C264.644 60.0605 265.225 60.1188 265.8 60.0602C266.51 60.0602 269.8 59.9802 273.15 59.8902C273.207 59.4893 273.237 59.0851 273.24 58.6802C273.367 57.6782 273.309 56.6615 273.07 55.6802C271.94 55.6802 270.9 55.6802 270.02 55.7602C269.634 56.1567 269.14 56.4313 268.6 56.5502C266.93 56.8002 265.97 55.1802 265.97 53.0902C265.97 52.0002 265.85 46.3602 265.8 45.4002C265.741 44.2574 265.352 43.1562 264.68 42.2302C264.581 42.0782 264.535 41.8975 264.549 41.7165C264.564 41.5356 264.638 41.3645 264.76 41.2302C265.502 40.5421 266.329 39.9508 267.22 39.4702C267.528 39.2666 267.899 39.1799 268.266 39.2257C268.633 39.2716 268.971 39.4469 269.22 39.7202C269.817 40.2383 270.302 40.8726 270.646 41.5843C270.99 42.2961 271.185 43.0705 271.22 43.8602V44.0002C272.52 43.8702 274.11 43.7002 274.77 43.5402C275.542 43.3706 276.324 43.2437 277.11 43.1602C278.112 43.2836 279.027 43.793 279.66 44.5802C280.08 45.0802 280.29 45.3702 280.24 45.5802C280.059 46.3781 279.602 47.0865 278.95 47.5802C278.022 48.1843 276.925 48.4751 275.82 48.4102C274.94 48.4102 272.94 48.4102 271.43 48.4102L271.56 51.0402C274.02 51.0402 278.7 50.9602 281.56 50.8702C281.56 48.1602 281.56 44.3602 281.56 43.7702C281.478 42.7407 281.133 41.7493 280.56 40.8902C280.405 40.6616 280.345 40.382 280.391 40.11C280.438 39.8379 280.588 39.5943 280.81 39.4302C281.511 38.9289 282.283 38.5346 283.1 38.2602C283.384 38.1707 283.687 38.1626 283.975 38.2368C284.263 38.3111 284.525 38.4647 284.73 38.6802C286.61 40.4302 286.86 41.3102 286.99 43.8602C287.07 45.9902 287.11 53.8602 286.9 54.5902C286.738 55.0825 286.434 55.5159 286.027 55.8362C285.62 56.1564 285.127 56.3492 284.61 56.3902C284.22 56.455 283.821 56.4203 283.449 56.2891C283.076 56.158 282.743 55.9348 282.48 55.6402C281.64 55.6402 280.68 55.6402 279.64 55.6402C279.709 56.1404 279.736 56.6455 279.72 57.1502L279.59 59.7802C280.76 59.7802 281.59 59.6902 281.98 59.6902C283.65 59.6102 285.36 59.5702 286.15 59.4402C287.269 59.2666 288.398 59.1697 289.53 59.1502C290.75 59.1502 293.25 60.9102 293.96 61.5302C294.273 61.79 294.528 62.1133 294.707 62.4787C294.887 62.8441 294.986 63.2434 295 63.6502Z" fill="white"/>
<path d="M301.27 58.43C304.877 55.2362 307.671 51.2288 309.42 46.74C307.66 46.87 305.2 46.95 303.86 46.91C303.142 46.906 302.433 46.7492 301.78 46.45C300.582 45.7945 299.583 44.827 298.89 43.65C298.85 43.5237 298.841 43.3897 298.864 43.2592C298.887 43.1288 298.94 43.0056 299.02 42.9C299.598 42.24 300.311 41.7114 301.11 41.35C301.572 41.3196 302.033 41.4202 302.44 41.64C302.942 41.7931 303.465 41.864 303.99 41.85C305.7 41.85 309.88 41.56 311.17 41.44C311.934 41.2308 312.719 41.1035 313.51 41.06C314.26 41.191 314.955 41.5386 315.51 42.06C316.079 42.5067 316.464 43.1476 316.59 43.86C316.59 44.7 316.17 45.07 316.01 45.7C314.38 51.34 311.25 57.39 307.28 61.36C305.934 62.7362 304.138 63.5812 302.22 63.74C300.3 63.99 299.51 63.36 298.17 62.53C296.83 61.7 295.75 61.99 294.83 61.73C297.217 61.1814 299.43 60.0473 301.27 58.43ZM320.57 64.03C320.19 57.03 321.07 46.11 320.86 39.39C320.86 37.76 320.4 37.64 319.86 36.59C319.48 35.92 319.27 35.76 319.44 35.26C319.82 34.17 321.69 33.42 322.99 33.33C323.243 33.292 323.501 33.3098 323.747 33.3824C323.992 33.455 324.218 33.5805 324.41 33.75C325.116 34.4189 325.735 35.175 326.25 36C326.602 36.6532 326.775 37.3883 326.75 38.13C326.83 45.44 326.75 58.6 326.58 61.94C326.525 63.249 326.121 64.5195 325.41 65.62C323.83 67.75 322.11 69.54 322.03 71C321 70.13 320.74 67.2 320.57 64V64.03Z" fill="white"/>
</g>
<defs>
<clipPath id="clip0_32_2954">
<rect width="370" height="100" fill="white"/>
</clipPath>
</defs>
</svg>
