<svg width="370" height="100" viewBox="0 0 370 100" fill="none" xmlns="http://www.w3.org/2000/svg">
<g clip-path="url(#clip0_32_2965)">
<path d="M343.88 4.33008H26.1599C14.098 4.33008 4.31995 14.1082 4.31995 26.1701V73.8301C4.31995 85.892 14.098 95.6701 26.1599 95.6701H343.88C355.942 95.6701 365.72 85.892 365.72 73.8301V26.1701C365.72 14.1082 355.942 4.33008 343.88 4.33008Z" fill="#E4C891"/>
<path d="M343.88 0H26.16C19.2235 0.0105856 12.5742 2.77149 7.67025 7.67731C2.7663 12.5831 0.00793454 19.2335 0 26.17L0 73.84C0.0105794 80.7748 2.77011 87.4226 7.67377 92.3262C12.5774 97.2299 19.2252 99.9894 26.16 100H343.88C350.809 99.9815 357.448 97.2181 362.343 92.315C367.239 87.412 369.992 80.7687 370 73.84V26.17C369.995 19.2396 367.243 12.5937 362.347 7.6885C357.451 2.78325 350.81 0.0185215 343.88 0V0ZM365.72 73.83C365.712 79.6199 363.409 85.1704 359.314 89.2644C355.22 93.3585 349.67 95.6621 343.88 95.67H26.16C20.3718 95.6621 14.8229 93.3599 10.7291 89.268C6.63529 85.1761 4.33058 79.6282 4.32 73.84V26.17C4.32794 20.3801 6.63148 14.8296 10.7256 10.7356C14.8196 6.64148 20.3701 4.33794 26.16 4.33H343.88C349.67 4.33794 355.22 6.64148 359.314 10.7356C363.409 14.8296 365.712 20.3801 365.72 26.17V73.83Z" fill="#5A3217"/>
<path d="M356.42 73.5997V26.4097C356.42 19.357 350.703 13.6396 343.65 13.6396L26.4 13.6396C19.3474 13.6396 13.6301 19.357 13.6301 26.4097V73.5997C13.6301 80.6523 19.3474 86.3697 26.4 86.3697L343.65 86.3697C350.703 86.3697 356.42 80.6523 356.42 73.5997Z" fill="#F3F5DE"/>
<path d="M105.09 60.27C105.108 62.3305 104.698 64.3723 103.886 66.2659C103.073 68.1595 101.876 69.8636 100.37 71.27C100.191 69.9935 99.9 68.7353 99.5 67.51C99.0902 66.1415 98.8913 64.7185 98.91 63.29C98.99 61.07 99.04 57.98 99.08 54.68C98.5808 54.7626 98.0759 54.806 97.57 54.81C97.0574 54.849 96.5426 54.849 96.03 54.81C96.03 56.23 96.03 57.44 95.95 58.32C95.9474 60.1841 95.577 62.0293 94.86 63.75C93.9892 65.5275 92.9262 67.2042 91.69 68.75C91.31 66.54 90 63.32 90 60.86V58.1C89.1515 58.773 88.2289 59.3467 87.25 59.81C86.3143 60.1786 85.3245 60.3914 84.32 60.44C83.24 60.52 81.94 60.56 79.86 60.69C78.763 60.8429 77.6483 60.8159 76.56 60.61C76.0248 60.3493 75.5793 59.9353 75.2802 59.4207C74.981 58.9061 74.8417 58.3141 74.88 57.72C74.8348 57.2089 74.9279 56.6951 75.1496 56.2324C75.3713 55.7696 75.7134 55.3751 76.14 55.09C76.14 53.09 76.14 51.29 76.05 49.29C76.1428 48.2445 75.8474 47.2015 75.22 46.36C74.63 45.49 74.55 44.86 75.97 43.36C77.56 41.69 78.06 41.64 79.65 43.15C81.53 44.9 81.86 45.32 81.94 48.15C82 50.62 82 53 82 54.72L85.42 54.55C86.88 54.47 88.64 54.26 90.06 54.17C90.06 50.62 90.18 46.99 90.18 44.11C90.2484 43.4159 90.1795 42.7151 89.977 42.0476C89.7745 41.3802 89.4425 40.7591 89 40.22C88.12 39.22 88.5 38.47 89.71 37.43C91.09 36.26 91.71 36.09 93.05 37.13C95.52 39.13 96.05 40.39 96.05 43.44C96.05 45.19 96.05 47.16 96.05 49.16C96.59 49.16 97.18 49.16 97.68 49.16C98.18 49.16 98.56 49.16 99.1 49.24C99.1 45.99 99.1 42.98 99.1 40.93C99.1 38.88 98.73 37.84 97.97 36.93C97.21 36.02 97.35 35.26 98.6 34.14C99.85 33.02 100.52 32.76 101.86 33.8C104.36 35.8 104.95 36.89 104.99 39.98C105.13 45.82 105.09 56.43 105.09 60.27Z" fill="#5F4C2E"/>
<path d="M118.5 52.3797C117.739 53.0747 116.822 53.5772 115.827 53.8452C114.832 54.1131 113.787 54.1387 112.78 53.9197C111.199 53.6023 109.738 52.8509 108.56 51.7497C108.35 51.5397 108.43 51.2497 108.73 51.2497C109.641 51.1946 110.534 50.9673 111.36 50.5797C113.49 49.5797 117.54 46.3197 120 43.2297C118.43 43.3592 116.854 43.3892 115.28 43.3197C114.456 43.2329 113.666 42.9425 112.982 42.4747C112.297 42.0069 111.74 41.3763 111.36 40.6397C110.82 39.6397 110.98 39.0997 112.19 38.0097C112.375 37.8091 112.629 37.6855 112.902 37.6633C113.174 37.6411 113.444 37.7219 113.66 37.8897C114.447 38.2917 115.317 38.5041 116.2 38.5097C118.402 38.5771 120.607 38.507 122.8 38.2997C123.383 38.1999 123.97 38.1298 124.56 38.0897C125.438 38.1038 126.275 38.463 126.89 39.0897C128.11 40.2097 128.02 41.0897 126.6 43.1797C125.98 44.0997 125.14 45.1797 124.18 46.3897C126.06 47.1897 128.02 48.2297 128.52 50.4897C128.643 50.8391 128.693 51.2101 128.666 51.5796C128.64 51.9492 128.538 52.3093 128.366 52.6376C128.194 52.9659 127.957 53.2553 127.669 53.4879C127.38 53.7205 127.047 53.8913 126.69 53.9897C125.996 54.2154 125.246 54.1988 124.563 53.9426C123.88 53.6864 123.304 53.2059 122.93 52.5797C122.398 51.642 121.749 50.7752 121 49.9997C120.214 50.8414 119.379 51.6361 118.5 52.3797ZM137.5 39.9697C137.42 43.3597 137.5 46.0697 137.29 48.9097C136.959 50.9582 136.158 52.9022 134.95 54.5897L135.41 55.0897C136.171 55.9174 136.641 56.9706 136.75 58.0897C137.128 61.7466 137.128 65.4327 136.75 69.0897C136.731 69.3659 136.655 69.6352 136.527 69.8805C136.398 70.1258 136.22 70.3418 136.004 70.5148C135.788 70.6877 135.538 70.8139 135.271 70.8853C135.003 70.9568 134.724 70.9719 134.45 70.9297C133.69 70.8642 132.945 70.6821 132.24 70.3897C132.088 70.3089 131.957 70.1922 131.86 70.0497C128.94 70.0497 124.93 70.1397 121.67 70.2197C121.568 70.3651 121.443 70.4934 121.3 70.5997C120.636 70.9271 119.91 71.111 119.17 71.1397C118.37 71.1397 117.58 70.2197 117.37 69.1397C117.2 68.3097 117.04 62.4997 116.95 60.6597C116.98 60.3684 116.951 60.074 116.865 59.794C116.779 59.514 116.638 59.2541 116.45 59.0297C116.08 58.5797 115.78 58.2397 116.03 57.7397C116.749 56.9867 117.583 56.3521 118.5 55.8597C118.658 55.7336 118.851 55.6585 119.053 55.6442C119.254 55.6299 119.456 55.6772 119.63 55.7797C120.194 56.1318 120.723 56.537 121.21 56.9897C121.75 57.4823 122.103 58.1464 122.21 58.8697C122.21 58.9897 122.21 59.1597 122.21 59.3297C124.21 59.0297 126.76 58.5797 127.68 58.4497C128.374 58.4601 129.035 58.744 129.52 59.2397C130.131 59.6692 130.584 60.2875 130.81 60.9997C130.572 61.5473 130.216 62.0362 129.769 62.4318C129.321 62.8274 128.793 63.1202 128.22 63.2897C126.72 63.2897 124.67 63.3397 122.5 63.4197C122.58 64.4197 122.63 65.2597 122.63 65.9297C125.47 65.9297 128.85 65.7997 131.36 65.6697C131.36 63.0897 131.44 59.8297 131.44 59.1597C131.492 58.7832 131.466 58.4 131.365 58.0338C131.263 57.6675 131.088 57.3258 130.85 57.0297C130.23 56.1497 130.27 55.7397 130.85 55.3197C131.407 54.9358 132.012 54.6265 132.65 54.3997C131.73 52.2697 131.65 49.7597 131.52 46.9597C131.6 44.8297 131.6 42.8697 131.73 40.3697C131.821 39.7232 131.774 39.0649 131.593 38.4376C131.412 37.8104 131.101 37.2284 130.68 36.7297C130.06 35.8097 130.02 35.5597 130.48 34.9397C131.034 34.3871 131.648 33.8975 132.31 33.4797C133.23 32.9697 133.44 32.9297 134.31 33.4797C135.118 34.0587 135.799 34.7972 136.31 35.6497C137.216 36.9087 137.625 38.4575 137.46 39.9997L137.5 39.9697Z" fill="#5F4C2E"/>
<path d="M177.43 58.0001C179.6 59.7501 180.81 61.4601 180.69 64.3901C180.52 69.0601 176.34 71.3901 170.12 71.2801C167.498 71.2745 164.924 70.5851 162.65 69.2801C161.829 69.0212 161.103 68.5276 160.56 67.8601C159.693 66.823 159.129 65.5669 158.93 64.2301C158.39 59.1401 163.65 57.2301 170 56.6301C170.421 56.4495 170.872 56.351 171.33 56.3401C172.983 56.2772 174.632 56.5458 176.18 57.1301C175.618 55.8457 175.196 54.5047 174.92 53.1301C172.893 53.9524 170.78 54.5429 168.62 54.8901C166.45 55.2201 158.43 55.7601 156.17 55.3001C155.899 55.2902 155.633 55.2255 155.388 55.1097C155.143 54.9939 154.924 54.8296 154.745 54.6267C154.565 54.4237 154.429 54.1864 154.344 53.9292C154.259 53.6719 154.227 53.4 154.25 53.1301C154.201 52.7925 154.229 52.4484 154.331 52.123C154.434 51.7977 154.607 51.4994 154.84 51.2501C154.84 50.4601 154.92 49.3301 154.92 48.2501C154.558 47.8776 154.287 47.4268 154.127 46.9325C153.968 46.4382 153.924 45.9139 154 45.4001C154.088 45.1733 154.223 44.9673 154.395 44.7952C154.567 44.6231 154.773 44.4885 155 44.4001C155.634 44.1455 156.32 44.0461 157 44.1101C157.75 44.1101 159 44.3201 160.21 44.2801C161.21 44.2801 163.3 44.1501 165.31 44.0301V42.1901C163.72 42.1901 158.31 42.2701 157.31 42.1901C156.657 42.0756 156.041 41.8023 155.518 41.3943C154.995 40.9863 154.58 40.456 154.31 39.8501C154.287 39.5374 154.349 39.2243 154.49 38.9443C154.631 38.6642 154.845 38.4277 155.11 38.2601C155.94 37.5901 156.36 37.4701 157.86 37.5501C158.61 37.5501 166.3 37.3801 167.01 37.3001C167.772 37.1749 168.548 37.1749 169.31 37.3001C169.776 37.3878 170.193 37.6468 170.478 38.0261C170.763 38.4055 170.896 38.8778 170.85 39.3501C170.857 40.1625 170.715 40.9693 170.43 41.7301V44.0701C170.599 44.113 170.757 44.1903 170.894 44.2969C171.032 44.4036 171.146 44.5374 171.23 44.6901C171.407 45.4645 171.327 46.2758 171 47.0001C170.832 47.4066 170.558 47.7604 170.206 48.0244C169.854 48.2883 169.437 48.4526 169 48.5001L160.06 48.5901L160 50.8301C164.853 50.7736 169.696 50.3995 174.5 49.7101V49.0801C174.5 46.6601 174.71 42.7301 174.87 40.2201C174.986 39.585 174.957 38.9318 174.783 38.3099C174.61 37.688 174.298 37.1136 173.87 36.6301C173.24 35.7101 173.16 35.4201 173.66 34.8401C174.226 34.2968 174.842 33.8079 175.5 33.3801C176.42 32.8701 176.62 32.8301 177.5 33.3801C178.413 33.9596 179.219 34.694 179.88 35.5501C180.796 36.8402 181.176 38.4354 180.94 40.0001C180.81 43.3901 180.65 48.2301 180.6 51.3601C180.265 53.8507 179.156 56.1733 177.43 58.0001ZM172.08 61.5001C171.548 61.3704 171.05 61.1283 170.62 60.7901C168.74 60.9201 165.99 61.0401 165.11 62.4601C164.884 62.8265 164.783 63.2561 164.821 63.6849C164.858 64.1136 165.034 64.5188 165.32 64.8401L165.57 65.3001C166.994 65.9241 168.526 66.2638 170.08 66.3001C172.42 66.3801 174.51 65.6701 174.63 64.0001C174.75 62.3301 173.8 62.0001 172.08 61.5201V61.5001Z" fill="#5F4C2E"/>
<path d="M221.53 63.4399C221.41 64.1999 219.95 64.8599 219.15 65.1599C217.804 65.5903 216.391 65.7732 214.98 65.6999C208.8 65.3199 198.69 65.3699 191.55 65.6999C189.04 65.8299 188.21 65.6199 186.95 64.9499C185.95 64.4499 184.87 63.4399 184.87 62.6899C184.87 61.5199 186.66 59.8499 188.42 59.8999C191.59 59.9799 200.28 59.8999 207.04 59.7699L206.79 58.7699C206.499 57.7093 206.401 56.6052 206.5 55.5099C202.32 55.5099 197.44 55.5899 196.35 55.7599C195.419 55.8942 194.472 55.8672 193.55 55.6799C192.947 55.5417 192.386 55.2607 191.915 54.8604C191.443 54.4601 191.074 53.9524 190.84 53.3799C190.633 52.803 190.588 52.1806 190.71 51.5799C190.92 51.0399 191.59 50.5799 192.88 50.4999C195.18 50.3699 201.7 50.2499 206.54 50.4999C206.54 49.2499 206.54 47.8299 206.54 46.6599C203.74 46.6599 199.82 46.8199 198.1 46.7799C196.137 46.6975 194.258 45.9619 192.76 44.6899C192.579 44.6073 192.42 44.4833 192.296 44.328C192.172 44.1727 192.086 43.9905 192.045 43.7959C192.004 43.6014 192.01 43.3999 192.061 43.2078C192.112 43.0157 192.208 42.8383 192.34 42.6899C192.697 42.0789 193.116 41.5059 193.59 40.9799C194.09 40.4799 194.34 40.2299 195.35 40.6899C196.705 41.2126 198.164 41.4112 199.61 41.2699C201.61 41.1899 203.78 41.0199 205.7 40.9399C207.62 40.8599 209.63 40.3499 210.51 40.3999C211.363 40.422 212.172 40.7817 212.76 41.3999C213.76 42.1899 214.18 42.7299 214.18 43.4899C214.14 43.978 213.951 44.4421 213.64 44.8199C213.64 44.8199 213.51 44.9099 213.47 44.9899C213.47 47.4499 213.47 50.8399 213.35 51.3799C213.124 54.1884 212.431 56.9396 211.3 59.5199C212.93 59.4399 214.3 59.3599 215.1 59.2699C217.19 59.0199 218.36 59.6099 219.95 60.9399C221 61.9999 221.62 62.9399 221.53 63.4399Z" fill="#5F4C2E"/>
<path d="M258 54.6699C257.46 56.1799 256.38 56.0899 254.66 55.9699C247.9 55.4699 240.42 56.0499 227.6 56.5999C226.615 56.6303 225.631 56.5157 224.68 56.2599C223.68 55.9699 222.5 54.7199 222.5 54.1699C222.5 53.1699 224.72 51.4599 226.22 51.3799C226.93 51.3299 232.28 51.1699 237.79 51.0399V49.6599C237.8 49.3905 237.756 49.1218 237.66 48.8699L235 48.9999C234.576 49.2818 234.087 49.4537 233.58 49.4999C232.5 49.4999 231.12 48.4999 231.16 47.4999C231.235 45.241 231.165 42.9797 230.95 40.7299C230.883 39.9461 230.526 39.2155 229.95 38.6799C229.62 38.3099 229.49 37.9299 229.7 37.5999C230.442 36.7536 231.316 36.0341 232.29 35.4699C232.511 35.3596 232.759 35.316 233.004 35.3445C233.249 35.3729 233.48 35.4721 233.67 35.6299C234.747 36.3673 235.577 37.413 236.05 38.6299C237.8 38.5099 240.18 38.2999 241.4 38.2599C242.27 38.2599 243.32 39.2599 243.73 39.9299C244.14 40.5999 244.03 40.9299 243.73 41.3099C243.367 41.7039 242.919 42.0097 242.42 42.2039C241.921 42.398 241.384 42.4753 240.85 42.4299C239.98 42.4299 238.31 42.4299 236.59 42.5599L236.72 44.4799C239.22 44.4799 241.94 44.5599 244.49 44.4799C244.49 42.1399 244.49 39.7999 244.4 38.1699C244.333 37.5543 244.037 36.9865 243.57 36.5799C243.23 36.2499 243.36 35.7899 243.78 35.3699C244.461 34.6904 245.289 34.177 246.2 33.8699C246.685 33.7965 247.18 33.9148 247.58 34.1999C248.45 34.7899 249.66 35.9199 249.66 36.9199C249.66 39.8399 250.25 43.3899 250.04 46.5699C249.957 47.2023 249.685 47.7951 249.261 48.2712C248.837 48.7474 248.279 49.0849 247.66 49.2399C246.925 49.2226 246.206 49.0197 245.57 48.6499C244.95 48.6499 244.23 48.6499 243.48 48.6499V48.9999C243.53 49.4499 243.53 50.1199 243.53 50.8299C248.41 50.7099 252 50.5799 250.37 50.5799C251.53 50.577 252.689 50.6471 253.84 50.7899C255.089 51.0303 256.254 51.5921 257.22 52.4199C258.2 53.2599 258.37 53.5099 258 54.6699ZM251.74 61.3199C251.711 62.659 251.597 63.995 251.4 65.3199C251.257 66.6874 250.687 67.9751 249.77 68.9999C249.27 69.4599 248.77 69.8799 248.39 70.2099C247.861 70.6664 247.361 71.1539 246.89 71.6699C246.329 71.1109 245.91 70.4249 245.67 69.6699C245.455 68.7646 245.331 67.84 245.3 66.9099C245.3 65.9099 245.3 64.3999 245.3 62.9099C241.75 62.9099 236.36 63.0799 234.44 63.1599C232.52 63.2399 230.89 62.4499 229.05 61.1599C228.907 61.0785 228.797 60.9508 228.737 60.798C228.677 60.6452 228.671 60.4765 228.72 60.3199C228.831 59.6091 229.086 58.9285 229.47 58.3199C229.89 57.6499 230.26 57.6099 230.72 57.7299C231.924 58.0241 233.162 58.1519 234.4 58.1099C235.61 58.1099 244.25 57.8199 244.8 57.8199C246.13 57.8199 247.8 57.5199 248.72 57.4399C249.312 57.4079 249.898 57.5693 250.39 57.8999C251.15 58.3999 252.02 59.0699 252.07 59.7799C252.071 60.3165 251.94 60.8452 251.69 61.3199H251.74Z" fill="#5F4C2E"/>
<path d="M279.71 55.6397C281.55 57.8097 281.64 60.5197 279.84 61.6397C278.25 62.6397 275.91 61.5497 274.54 59.6397C273.95 58.8497 272.95 57.5098 271.91 56.3398C271.145 57.5675 270.261 58.7164 269.27 59.7698C268.599 60.5928 267.743 61.2449 266.771 61.6726C265.799 62.1003 264.74 62.2912 263.68 62.2297C262.043 62.2669 260.427 61.8627 259 61.0598C258.37 60.6898 258.12 60.3998 258.66 60.3998C259.523 60.3095 260.338 59.961 261 59.3998C265.05 56.2698 268 51.5497 269.94 46.6697C270.44 45.4097 270.4 44.8697 269.81 44.1197C269.22 43.3697 269.11 43.2797 269.31 42.7797C269.723 42.0411 270.302 41.4079 271 40.9298C271.244 40.7576 271.536 40.6652 271.835 40.6652C272.134 40.6652 272.426 40.7576 272.67 40.9298C273.719 41.4385 274.678 42.1139 275.51 42.9298C276.76 44.1798 276.72 45.2298 276.13 47.3098C275.689 48.8678 275.103 50.3811 274.38 51.8298C276.357 52.794 278.158 54.0817 279.71 55.6397ZM295.25 54.1298C295.25 55.4298 293.37 56.4297 291.53 56.5097C290.82 56.5097 289.86 56.5097 288.94 56.5097C288.99 58.0197 289.03 59.3097 289.03 60.2297C289.061 62.1305 288.722 64.0191 288.03 65.7897C287.24 67.6698 285.74 69.8797 285.61 71.2197C283.729 68.8287 282.661 65.9 282.56 62.8598C282.69 57.2198 282.94 45.9897 282.81 40.7698C282.851 40.0528 282.746 39.3349 282.502 38.6595C282.258 37.9841 281.88 37.3651 281.39 36.8398C280.39 35.6698 280.85 35.1698 282.27 33.9998C283.69 32.8298 284.19 32.6297 285.61 33.6697C288.24 35.6697 288.83 36.7597 288.83 39.8497C288.83 42.6897 288.83 46.6597 288.91 50.4197C289.39 50.3523 289.864 50.252 290.33 50.1197C290.785 50.0203 291.257 50.0379 291.703 50.1708C292.149 50.3037 292.554 50.5477 292.88 50.8798C293.75 51.7098 295.25 53.3398 295.25 54.1298Z" fill="#5F4C2E"/>
</g>
<defs>
<clipPath id="clip0_32_2965">
<rect width="370" height="100" fill="white"/>
</clipPath>
</defs>
</svg>
