<svg id="레이어_1" data-name="레이어 1" xmlns="http://www.w3.org/2000/svg" viewBox="0 0 430.17 113.45"><defs><style>.cls-1{fill:#e4c891;}.cls-2{fill:#5a3217;}.cls-3{fill:#f3f5de;}.cls-4{fill:#5f4c2e;}</style></defs><rect class="cls-1" x="2.5" y="2.5" width="425.17" height="108.45" rx="27.77"/><path class="cls-2" d="M399.9,113.45H30.27A30.31,30.31,0,0,1,0,83.18V30.27A30.31,30.31,0,0,1,30.27,0H399.9a30.3,30.3,0,0,1,30.27,30.27V83.18A30.3,30.3,0,0,1,399.9,113.45ZM30.27,5A25.3,25.3,0,0,0,5,30.27V83.18a25.3,25.3,0,0,0,25.27,25.27H399.9a25.3,25.3,0,0,0,25.27-25.27V30.27A25.3,25.3,0,0,0,399.9,5Z"/><rect class="cls-3" x="174.13" y="-142.6" width="81.92" height="398.64" rx="12.77" transform="translate(271.81 -158.36) rotate(90)"/><path class="cls-4" d="M124.73,68.61c0,5-1.79,8.94-5.46,12.71a25.09,25.09,0,0,0-1-4.35,16.44,16.44,0,0,1-.67-4.88c.09-2.56.14-6.14.19-10a11.68,11.68,0,0,1-1.74.15,11,11,0,0,1-1.79-.05c0,1.64,0,3-.09,4.06a16.2,16.2,0,0,1-1.26,6.28,31.13,31.13,0,0,1-3.67,5.85c-.44-2.56-2-6.28-2-9.13V66.1a17.09,17.09,0,0,1-3.18,2,10.28,10.28,0,0,1-3.39.72c-1.25.1-2.75.15-5.17.29A11.6,11.6,0,0,1,91.67,69a3.5,3.5,0,0,1-1.93-3.34,3.28,3.28,0,0,1,1.45-3c0-2.32,0-4.4-.1-6.72-.09-1.89-.24-2.37-1-3.38S89.35,50.78,91,49c1.83-1.94,2.41-2,4.25-.24,2.17,2,2.56,2.51,2.66,5.79.09,2.86.14,5.61.09,7.59l4-.19c1.69-.1,3.72-.34,5.36-.44,0-4.1.15-8.31.15-11.64a6.14,6.14,0,0,0-1.4-4.5c-1-1.2-.59-2,.82-3.23,1.59-1.36,2.36-1.55,3.86-.34,2.85,2.27,3.43,3.77,3.48,7.29.05,2,.05,4.3.05,6.62.63,0,1.31,0,1.88,0s1,0,1.65.09c.05-3.77.05-7.25.05-9.61s-.44-3.58-1.31-4.64-.72-1.94.73-3.24,2.22-1.6,3.77-.39c2.89,2.27,3.57,3.58,3.62,7.16C124.78,51.89,124.73,64.16,124.73,68.61Z"/><path class="cls-4" d="M140.24,59.48a7.49,7.49,0,0,1-6.62,1.78,10.14,10.14,0,0,1-4.88-2.51c-.24-.24-.14-.58.19-.58a8.71,8.71,0,0,0,3-.77c2.46-1.11,7.15-4.93,10-8.51a41.81,41.81,0,0,1-5.46.1A5.82,5.82,0,0,1,132,45.9c-.63-1.11-.44-1.79,1-3a1.26,1.26,0,0,1,1.69-.14,6.63,6.63,0,0,0,2.94.72,62.63,62.63,0,0,0,7.64-.24,19,19,0,0,1,2-.24A3.89,3.89,0,0,1,150,44.06c1.4,1.3,1.3,2.27-.34,4.74-.73,1.06-1.69,2.36-2.81,3.72,2.18.91,4.45,2.12,5,4.73.44,1.89-.34,3.63-2.13,4.06a3.74,3.74,0,0,1-4.35-1.64,14.52,14.52,0,0,0-2.22-3A33.75,33.75,0,0,1,140.24,59.48Zm21.94-14.36c-.1,3.92,0,7.06-.24,10.34A15.58,15.58,0,0,1,159.23,62l.54.58a6,6,0,0,1,1.54,3.43,61.81,61.81,0,0,1,0,12.71,2.3,2.3,0,0,1-2.66,2.12,8.71,8.71,0,0,1-2.56-.63,1.08,1.08,0,0,1-.43-.38c-3.38,0-8,.1-11.79.19a2,2,0,0,1-.44.44,6.08,6.08,0,0,1-2.46.62c-.92,0-1.84-1.06-2.08-2.36-.19-1-.39-7.69-.48-9.81a2.56,2.56,0,0,0-.58-1.89c-.44-.53-.78-.92-.49-1.5s2.42-1.88,2.85-2.17a1.1,1.1,0,0,1,1.31-.1,13.41,13.41,0,0,1,1.84,1.4,3.72,3.72,0,0,1,1.2,2.18c0,.14.05.34.05.53,2.27-.34,5.27-.87,6.33-1a3,3,0,0,1,2.13.91,4,4,0,0,1,1.5,2c0,.73-2,2.66-3,2.66-1.74,0-4.11.05-6.62.15.1,1.11.14,2.12.14,2.9,3.29-.05,7.21-.15,10.1-.29,0-3,.1-6.77.1-7.54a3.28,3.28,0,0,0-.68-2.47c-.72-1-.67-1.49,0-2a9.52,9.52,0,0,1,2.07-1.06c-1.06-2.47-1.2-5.37-1.3-8.6.1-2.47.1-4.74.24-7.64a5.29,5.29,0,0,0-1.21-4.2c-.72-1.07-.77-1.36-.24-2.08a12.6,12.6,0,0,1,2.13-1.69c1.06-.58,1.3-.63,2.27,0a8.7,8.7,0,0,1,2.37,2.51C161.89,41.35,162.23,42.8,162.18,45.12Z"/><path class="cls-4" d="M222.15,72.52a2.35,2.35,0,0,1-1.4,1.65,8.42,8.42,0,0,1-5,.67,56.78,56.78,0,0,0-5.95-.53c-3.77-.1-19.62.24-22.86.53a5.63,5.63,0,0,1-5.12-1.74,9.23,9.23,0,0,1-2-3.14,1,1,0,0,1,.34-1.16,16.78,16.78,0,0,1,2.42-1.88,1.8,1.8,0,0,1,2,.29,5,5,0,0,0,3.73,1.11c.82,0,4.59-.1,8.5-.19a12.47,12.47,0,0,0,.1-1.41,9.61,9.61,0,0,0-.2-3.43c-1.3,0-2.51.05-3.52.1a3.44,3.44,0,0,1-1.65.92c-1.93.29-3-1.6-3-4,0-1.26-.15-7.78-.19-8.89a6.84,6.84,0,0,0-1.31-3.68,1,1,0,0,1,.1-1.21,13.63,13.63,0,0,1,2.85-2,1.76,1.76,0,0,1,2.27.29c1.21,1.3,2.27,2.41,2.37,4.78v.24a39.77,39.77,0,0,0,4.11-.53,25.29,25.29,0,0,1,2.7-.44,4.52,4.52,0,0,1,2.95,1.65c.48.58.72.92.68,1.21A4.07,4.07,0,0,1,203.6,54a6,6,0,0,1-3.63,1c-1,0-3.33,0-5.07,0l.14,3c2.86,0,8.27-.1,11.6-.19,0-3.15,0-7.54,0-8.22a6.92,6.92,0,0,0-1.2-3.33,1.24,1.24,0,0,1,.29-1.69,9.79,9.79,0,0,1,2.65-1.36,1.86,1.86,0,0,1,1.89.48c2.17,2,2.46,3.05,2.61,6,.09,2.46.14,11.6-.1,12.42a3,3,0,0,1-2.66,2.07,2.69,2.69,0,0,1-2.46-.86c-1,0-2.08,0-3.29,0a9.59,9.59,0,0,1,.1,1.74l-.15,3c1.36,0,2.32-.1,2.76-.1,1.93-.09,3.91-.14,4.83-.29a27.3,27.3,0,0,1,3.92-.33c1.4,0,4.3,2,5.12,2.75A3.28,3.28,0,0,1,222.15,72.52Z"/><path class="cls-4" d="M247.14,66.05a7.67,7.67,0,0,1-3.29,3.48,12.38,12.38,0,0,1-4,1c-2.7.25-12.13.15-13.48-.24-.68-.19-1.11-1.59-1.16-2.51a3.2,3.2,0,0,1,1.11-2.42c0-.91-.14-4.64-.29-6.28a5.13,5.13,0,0,1-.63-3.09,2.85,2.85,0,0,1,2.32-1.69l2.47.29c.72,0,5.17,0,6,0l-.05-3.47-5,0a7.13,7.13,0,0,1-5-2.41c-.83-.87-.83-1.6.43-3.19.82-1,1.35-1.26,1.93-1.11q1.24.28,2.61.72c1.31,0,4.26-.14,6.19-.24,1.11,0,2.66-.34,3.38-.34a2.25,2.25,0,0,1,1.84,1.11,2.82,2.82,0,0,1,.58,2.32,13.13,13.13,0,0,0-.44,2.71c-.05,1.06,0,4.64,0,6.62a3,3,0,0,1-1,2.17,2.86,2.86,0,0,1-2.27,1l-6.72,0,.14,3.91c3.14,0,10.73-.14,12.62-.29A1.49,1.49,0,0,1,247.14,66.05ZM253,81.32a11.72,11.72,0,0,0-1.31-4.83c-.92-2.13-.92-4.64-.82-7.78.1-2.57.15-5.66.15-8.8a13,13,0,0,1-2.18-.1,9,9,0,0,1-3.38-1.49c-.87-.73-1.55-1.16-1.55-2.42,0-.34.1-1.45.77-1.84A18.44,18.44,0,0,1,250,52.9a9.35,9.35,0,0,1,1.11.05c0-2.66,0-5.07-.09-6.86-.1-2.51-.49-3.53-1.36-4.54-1.16-1.36-.62-1.94,1-3.29s2.22-1.59,3.86-.39c3,2.28,3.68,3.58,3.73,7.16.09,6.81.29,19.13.29,23.58S255.89,78.18,253,81.32Z"/><path class="cls-4" d="M285.61,49.57c1.26,1.55,1.4,3.43.29,4.06C284.59,59,280.44,67,277.1,69.87c-2.56,2.22-4,2.51-7.05,2.27a35,35,0,0,1-7.78-1.84,7.35,7.35,0,0,0,3.33-.82c6.43-3.48,10.34-8.31,12.91-15-1.89.1-3.68.14-5.13.1-3-.1-4.44-.73-6.09-3.53a1.23,1.23,0,0,1,.25-1.64A7.89,7.89,0,0,1,269.08,48c.73-.43,1-.24,1.64.15a3.78,3.78,0,0,0,2.28.53,58.09,58.09,0,0,0,8.5-1C283.34,47.25,284.16,47.73,285.61,49.57Zm18.85,12.71c0,1.5-2.18,2.66-4.31,2.75-.82,0-2,0-3.09,0,0,1.4.05,2.61.05,3.53A16.75,16.75,0,0,1,295.9,75c-.92,2.17-2.66,4.73-2.8,6.28-2-2.61-3.63-6.33-3.53-9.67.15-6.52.44-19.52.29-25.56a6.13,6.13,0,0,0-1.64-4.54c-1.16-1.36-.63-1.94,1-3.29s2.23-1.59,3.87-.39c3,2.28,3.72,3.58,3.72,7.16s.05,8.4.1,13a14.54,14.54,0,0,0,1.78-.34,3.15,3.15,0,0,1,2.95.87C302.72,59.48,304.46,61.36,304.46,62.28Z"/><path class="cls-4" d="M311,66.48A35.11,35.11,0,0,0,320.41,53c-2,.15-4.89.24-6.43.2a5.86,5.86,0,0,1-2.42-.54,8.56,8.56,0,0,1-3.33-3.23,1,1,0,0,1,.14-.87,7.09,7.09,0,0,1,2.42-1.79,2.63,2.63,0,0,1,1.54.34,5.85,5.85,0,0,0,1.79.24c2,0,6.82-.34,8.31-.49a13.41,13.41,0,0,1,2.71-.43,4.52,4.52,0,0,1,2.32,1.21,3.33,3.33,0,0,1,1.26,2.08c0,1-.49,1.4-.68,2.12-1.88,6.53-5.51,13.53-10.1,18.12a9.19,9.19,0,0,1-5.85,2.76c-2.22.29-3.14-.44-4.68-1.4s-2.81-.63-3.87-.92A17.21,17.21,0,0,0,311,66.48ZM333.31,73c-.44-8.12.58-20.73.34-28.51,0-1.89-.54-2-1.21-3.24-.44-.77-.68-1-.49-1.55.44-1.25,2.61-2.12,4.11-2.22a2,2,0,0,1,1.64.48,12.71,12.71,0,0,1,2.18,2.56,4.85,4.85,0,0,1,.58,2.47c.1,8.46.05,23.68-.19,27.54a8.5,8.5,0,0,1-1.36,4.26c-1.83,2.46-3.81,4.54-3.91,6.23C333.79,80,333.5,76.63,333.31,73Z"/></svg>