<svg id="레이어_1" data-name="레이어 1" xmlns="http://www.w3.org/2000/svg" viewBox="0 0 160.48 74.42"><defs><style>.cls-1{fill:#e1e141;}.cls-2{fill:#c1bc40;}.cls-3{fill:#fff;}</style></defs><rect class="cls-1" width="160.48" height="74.42" rx="23.2"/><rect class="cls-2" x="51.54" y="-34.53" width="57.41" height="143.48" rx="14.7" transform="translate(117.45 -43.03) rotate(90)"/><path class="cls-3" d="M51.54,41.49c0,1-1.47,1.8-2.91,1.87-.56,0-1.31,0-2,0,0,.49,0,.92,0,1.28A11.61,11.61,0,0,1,45.81,49c-.63,1.47-1.81,3.21-1.9,4.26a11.15,11.15,0,0,1-2.4-6.55l.07-3.38a12.92,12.92,0,0,1-4.88,1.77c-1.61.2-4.79.36-6.56.36A6.53,6.53,0,0,1,27.49,45c-.92-.39-1.51-.69-1.58-1.87a2,2,0,0,1,.53-1.73c0-2.5-.1-5-.2-6.82a.11.11,0,0,1,0-.07A17.86,17.86,0,0,0,25.29,33a.89.89,0,0,1-.07-1,6.57,6.57,0,0,1,1-1.08c.39-.33.85-.23,1.38-.07a10.76,10.76,0,0,0,3.73.07c1.28-.13,2.46-.33,3.51-.46A3.1,3.1,0,0,1,38,31.76c.32.46.75,1.14,1.08,1.64A3.49,3.49,0,0,1,36.63,35a38.16,38.16,0,0,1-5.31.2c0,1.93,0,4.36,0,5.67,1.57-.07,3.25-.13,4.59-.23a42.14,42.14,0,0,1,5.74.06c.06-4.09.13-8.68.06-11.3a4.12,4.12,0,0,0-1.11-3.08c-.79-.92-.43-1.32.68-2.23s1.51-1.08,2.63-.26c2.06,1.54,2.52,2.42,2.52,4.85,0,2.65,0,6.52.1,9.93a8.6,8.6,0,0,0,1.11-.23,2.12,2.12,0,0,1,2,.59C50.36,39.59,51.54,40.87,51.54,41.49Z"/><path class="cls-3" d="M77.69,39.66c-.42,1.18-1.28,1.11-2.62,1a100.54,100.54,0,0,0-10.42,0c-1.77.07-5.38.2-8.85.36a7.86,7.86,0,0,1-2.3-.26c-.81-.23-1.7-1.21-1.7-1.64,0-.92,1.64-2.29,2.92-2.33,2.26-.06,5,0,9.8-.16,3.54-.13,5.83-.33,7.24-.33a14.66,14.66,0,0,1,2.72.2,5.48,5.48,0,0,1,2.66,1.28C77.89,38.44,78,38.74,77.69,39.66Zm-4,3.8a1.83,1.83,0,0,1,0,1.44,2.65,2.65,0,0,1-.42.69,50.65,50.65,0,0,1-1.64,5.93,2.2,2.2,0,0,1-1.08,1.15A1.86,1.86,0,0,1,69,52.6a.86.86,0,0,1-.3-.23,56.86,56.86,0,0,0-7.37,0,.74.74,0,0,1-.33.23,2.58,2.58,0,0,1-.95.16,1.43,1.43,0,0,1-.89-.46,13.16,13.16,0,0,1-1.21-3,42.72,42.72,0,0,0-1.25-4.62c-.36-.76-.65-1.22,0-1.61a6.17,6.17,0,0,1,2.16-.78,2.52,2.52,0,0,1,2.2.36c3.47-.2,7.41-.3,9.24-.2,1.35.06,1.67-.13,2.1,0A2.84,2.84,0,0,1,73.66,43.46ZM57.57,30.28c.36-3.28,4.78-5.77,8.36-5.6A3.41,3.41,0,0,1,67,24.51c2.85,0,5.57,3.38,5.41,5.87-.23,3.44-3.15,5-6.85,5-1.67,0-4.49-.36-5.54-1.15A3.9,3.9,0,0,1,57.57,30.28ZM68.25,48.8c.13-.88.36-2.13.53-2.82-2.36-.06-5-.06-7.08,0l.23,2.82A57.71,57.71,0,0,0,68.25,48.8ZM62.16,30.05c0,.49.72,1.05,1.14,1.25a4.66,4.66,0,0,0,1.91.23c1.8,0,3-.56,3-1.67a2,2,0,0,0-.72-1.41l-.79-.53C64.58,28,62.16,28.87,62.16,30.05Z"/><path class="cls-3" d="M80.05,47.72a6.36,6.36,0,0,1-1.35-2.13.7.7,0,0,1,.23-.79,12.78,12.78,0,0,1,1.64-1.28,1.24,1.24,0,0,1,1.38.2,3.33,3.33,0,0,0,2.52.75c1.18,0,11.34-.23,12.65-.29s2.66-.1,3.28-.2a19,19,0,0,1,2.66-.23c1,0,2.91,1.38,3.47,1.87a2.22,2.22,0,0,1,.85,1.71,1.61,1.61,0,0,1-.95,1.11,5.65,5.65,0,0,1-3.37.46,37.1,37.1,0,0,0-4-.36c-2.56-.07-13.31.16-15.51.36A3.84,3.84,0,0,1,80.05,47.72Zm4.23-12.16c0-3.15,3.27-5.61,6.68-6.23a3.52,3.52,0,0,1,2.33-.69c4.16,0,8.65,3.87,8.36,7.9-.26,3.48-3.44,5.44-7.08,5.21A5.9,5.9,0,0,1,92.4,42C88.37,42,84.28,39.59,84.28,35.56Zm4.52-.2c0,2.76,3.7,2.62,5.77,2.59a2.36,2.36,0,0,0,2.26-2.36c-.07-1.6-1.54-2.65-3.38-3a8.41,8.41,0,0,0-1.67.23C90,33.3,88.8,34.18,88.8,35.36Z"/><path class="cls-3" d="M136.91,47.33a1.64,1.64,0,0,1-.95,1.11,5.67,5.67,0,0,1-3.38.46,37.1,37.1,0,0,0-4-.36c-2.56-.07-13.31.16-15.5.36a3.86,3.86,0,0,1-3.48-1.18,6.47,6.47,0,0,1-1.34-2.13.67.67,0,0,1,.23-.79,9.54,9.54,0,0,1,1.54-1,1.24,1.24,0,0,1,1.38.2,3.54,3.54,0,0,0,2.62.75c.55,0,3.14-.06,5.87-.13a13,13,0,0,0-.17-2.13,2.77,2.77,0,0,1-.06-.46c-1.28,0-2.27.07-2.5.1a11,11,0,0,1-2,.17,1.85,1.85,0,0,1-1.68-1.74,2,2,0,0,1,.72-1.51c0-.92,0-1.93-.06-2.92a2,2,0,0,1-.36-.75,1.57,1.57,0,0,1,.16-1.15,2.64,2.64,0,0,1,2-1c.65,0,1.54.29,2.46.26s4.65-.07,7.4-.1l0-1.61c-2.43.1-7.38.1-8.36-.06a5.54,5.54,0,0,1-3.15-1.77.92.92,0,0,1-.13-1.34,10.34,10.34,0,0,1,.82-.92c.36-.3.66-.5,1.12,0a4.58,4.58,0,0,0,2.29.56,65.6,65.6,0,0,0,7.31-.1,14.73,14.73,0,0,0,2-.29,2.71,2.71,0,0,1,.88-.07,2.21,2.21,0,0,1,1.28.66c.56.46.92.78.82,1.21a2.13,2.13,0,0,1-.36,1,1.3,1.3,0,0,1-.33.23c-.06,1-.1,2.26-.1,3.18a1.51,1.51,0,0,1,.23.26,2.93,2.93,0,0,1-.13,1.64,1.68,1.68,0,0,1-1.57,1c-1.31-.09-6.39-.19-10-.19l0,1.8c3.6,0,8.35-.1,10.19-.29a2.86,2.86,0,0,1,2.46,1,3,3,0,0,1,.78,2.52.86.86,0,0,1-.91.53,19.38,19.38,0,0,0-2.56-.27h-3.64a4.65,4.65,0,0,1,.2,1.71,7.41,7.41,0,0,1,0,.85l1.8-.06c1.11-.07,3.83-.17,5.93-.23a6.07,6.07,0,0,1,3.48,1.47A2.26,2.26,0,0,1,136.91,47.33Z"/></svg>