<svg id="레이어_1" data-name="레이어 1" xmlns="http://www.w3.org/2000/svg" viewBox="0 0 160.48 74.42"><defs><style>.cls-1{fill:#d8d847;}.cls-2{fill:#c1bc40;}.cls-3{fill:#fff;}</style></defs><rect class="cls-1" width="160.48" height="74.42" rx="23.2"/><rect class="cls-2" x="51.54" y="-34.53" width="57.41" height="143.48" rx="14.7" transform="translate(117.45 -43.03) rotate(90)"/><path class="cls-3" d="M34.9,40.61a4.86,4.86,0,0,1-4.79.91,7.31,7.31,0,0,1-2.33-1.67c-.16-.16-.19-.42,0-.46a5.12,5.12,0,0,0,2.06-.62,27.7,27.7,0,0,0,6.26-6.52c-1.28.06-2.59.1-3.31.06a4.71,4.71,0,0,1-3.44-2.09.92.92,0,0,1,.07-1.28c.19-.2.62-.66.95-1a.85.85,0,0,1,1.14-.1,4.13,4.13,0,0,0,2,.49c1.41.07,5.54-.29,6.69-.39a1.62,1.62,0,0,1,1.54.75c.75,1.08.82,1.71-.26,3.38-.53.82-1.35,2-2.26,3.28a9.29,9.29,0,0,1,3.44,2.06,3,3,0,0,1,.19,3.83c-.62.66-2.88.63-4.06-.75-.33-.36-1.21-1.51-1.74-2.26A16.19,16.19,0,0,1,34.9,40.61ZM51.84,51c-1.54,1.31-2.49,1.31-4.52,1.38-1,0-5-.07-6.13-.13a4.15,4.15,0,0,1-3.54-1.61c-1-1.11-2.23-2.42-2.85-3.11a6,6,0,0,0-1.61-1.31A1.25,1.25,0,0,1,32.37,45c0-.76.43-1,1.41-1.38a13.4,13.4,0,0,1,2.2-.56,1.73,1.73,0,0,1,1.67.46c1,1.18,1.93,2.36,2.85,3.28a2.72,2.72,0,0,0,2.1.92c.79.06,3,.1,4.33,0a8.19,8.19,0,0,0,2.36-.42c1.11-.46,1.24-.37,1.83.16a5.76,5.76,0,0,1,1.18,1.64C52.73,50.05,52.5,50.41,51.84,51ZM46.43,32.45c0-1.22,0-2.56,0-4a2.63,2.63,0,0,0-.66-1.81c-.16-.23-.42-.68-.65-1s-.07-.62.19-1a3.6,3.6,0,0,1,1.31-1,1.71,1.71,0,0,1,1.18.09,11.76,11.76,0,0,1,2,1.45,2.9,2.9,0,0,1,1.11,2,17.17,17.17,0,0,1,.13,2.66c-.1,2.69,0,8.16-.13,10.09-.16,2.3-1.44,4.85-2.85,5.51-.59-1.25-1.9-2.39-2-3.77a23.83,23.83,0,0,1,.06-4.1l.07-.65c-.23,0-.39,0-.56,0a4.07,4.07,0,0,1-2.82-.75,3.13,3.13,0,0,1-1.41-2.33c0-.92,2.23-1.28,3.05-1.31C45,32.48,45.71,32.45,46.43,32.45Z"/><path class="cls-3" d="M74.75,36.71a9.58,9.58,0,0,1-1.25,3.6,4.38,4.38,0,0,1,.82.79c.23.29.56.69.56,1a2.4,2.4,0,0,1-.43,1.05c-.16.43-1,2.95-1.08,3.25-.26.81-1.11.88-2,.95a12.09,12.09,0,0,1-1.83-.14c-1.22,0-2.66,0-3.48,0L62.88,47c.4.43.76.82,1.08,1.11a3.09,3.09,0,0,0,2.23.82c.79.1,4.13.17,5.41.14A6.5,6.5,0,0,0,74,48.67c1.05-.56,1.18-.46,1.8.1a8.45,8.45,0,0,1,1.08,1.28c.63.82.27,1.18-.39,1.73-1.51,1.28-2.55,1.35-4.59,1.35-1,0-5.9-.1-7-.13a4,4,0,0,1-3.54-1.54c-1.22-1.28-2.3-2.53-3-3.41a4.08,4.08,0,0,0-1.61-1,1.08,1.08,0,0,1-.62-1c-.06-.66.72-1.35,2-1.81s2.13-.39,2.63.14c2.22,0,6.85.06,8.81,0L69.57,43c-2.82-.1-6.69-.13-9.08-.1a4.54,4.54,0,0,1-3.18-1.5.77.77,0,0,1-.1-1,4.27,4.27,0,0,1,.59-.76c.53-.49.89-.46,1.84-.13a7.26,7.26,0,0,0,2,.43c2.59.06,6,0,9.21-.23a7.44,7.44,0,0,1-.62-1.67,12.57,12.57,0,0,1-.3-1.84,8.94,8.94,0,0,1-5.08,2c-.92,0-3.31.16-5,.23A7.18,7.18,0,0,1,57.18,38c-.92-.4-1.44-.53-1.51-1.67,0-.79.13-1.25.53-1.51,0-1.94-.1-3.54-.23-4.75a9,9,0,0,1-.63-.86.73.73,0,0,1,0-.88,5.22,5.22,0,0,1,.95-1,1.43,1.43,0,0,1,1.21-.13,8.92,8.92,0,0,0,2.27.17c1.14-.07,2.65-.23,4.06-.43a2.9,2.9,0,0,1,2.59,1.08c.49.46,1,1.08,1,1.45-.1.62-1.67,1.24-2.13,1.31a26.87,26.87,0,0,1-4.43.16c0,1.08,0,2.52,0,3.47,1.18,0,2.43-.13,3.68-.23a28,28,0,0,1,5.5.07A.77.77,0,0,0,70,34c.17-2.07.23-3.8.23-5.41a6.5,6.5,0,0,0-.19-2,6.74,6.74,0,0,0-1-1.18c-.17-.23-.07-.62.19-1a4.39,4.39,0,0,1,1.31-1.05,1.37,1.37,0,0,1,1.12-.1,9.62,9.62,0,0,1,1.83,1.21A3.82,3.82,0,0,1,74.78,27a13.9,13.9,0,0,1,.13,2.4c0,1-.06,1.93-.06,2.78l1-.19a2.13,2.13,0,0,1,2,.59c.72.62,1.83,1.73,1.83,2.36,0,1-1.44,1.67-2.91,1.73C76.19,36.71,75.44,36.71,74.75,36.71Z"/><path class="cls-3" d="M96.47,33.46a1.56,1.56,0,0,1-.72,1.08,7.32,7.32,0,0,1-2.59.4c-1.51.06-7.44.39-8.62.42a6.1,6.1,0,0,1-3.87-1.24A.92.92,0,0,1,80.38,33a11,11,0,0,1,1.11-2,.6.6,0,0,1,.66-.17,7.15,7.15,0,0,0,2.72.49c.29,0,.85,0,1.54,0V30.9a1.68,1.68,0,0,0-.52-1.34c-.59-.62-.73-.85-.46-1.38A9.11,9.11,0,0,1,86.34,27c.53-.52.82-.49,1.45-.19A11.47,11.47,0,0,1,89.92,28a3,3,0,0,1,.69,2.39v.72l.65-.06a15,15,0,0,0,1.84-.3A2.16,2.16,0,0,1,95,31.3C96,32.28,96.5,33,96.47,33.46ZM94.9,42.28c-.07,3-3.21,5-6.46,5a2.65,2.65,0,0,1-1.67.22,5.49,5.49,0,0,1-4.69-5.44c0-2.52,2.23-4.94,5-5.5a1.6,1.6,0,0,1,1.21-.56C91.72,36.05,95,38.25,94.9,42.28Zm-4.2-.46a2.39,2.39,0,0,0-2.09-1.93,1.29,1.29,0,0,1-.66-.27,2.26,2.26,0,0,0-1.87,2.2c0,1,1.31,1.7,2.33,1.8C89.65,43.62,90.74,42.77,90.7,41.82ZM107.45,40c0,1-1.47,1.8-2.92,1.87-.55,0-1.34,0-2.06,0,0,1.15,0,2.13,0,2.82a12,12,0,0,1-.82,4.36c-.62,1.47-1.8,3.21-1.9,4.26a11.14,11.14,0,0,1-2.39-6.55c.13-4.43.16-13.25,0-17.34a4.41,4.41,0,0,0-.92-3.08c-.78-.95-.42-1.32.69-2.23s1.51-1.08,2.62-.26c2.07,1.54,2.49,2.42,2.53,4.85,0,2.26.06,5.4.13,8.39a8.6,8.6,0,0,0,1.11-.23,2.12,2.12,0,0,1,2,.59C106.27,38.05,107.45,39.33,107.45,40Z"/><path class="cls-3" d="M111.87,43.23a23.64,23.64,0,0,0,6.39-9.18c-1.37.1-3.31.16-4.36.13a4,4,0,0,1-1.64-.36A5.82,5.82,0,0,1,110,31.63a.67.67,0,0,1,.1-.59,4.85,4.85,0,0,1,1.64-1.22,1.93,1.93,0,0,1,1.05.23,3.89,3.89,0,0,0,1.21.17c1.35,0,4.62-.23,5.64-.33a9,9,0,0,1,1.83-.3,3.13,3.13,0,0,1,1.58.82,2.26,2.26,0,0,1,.85,1.41c0,.66-.33,1-.46,1.44a30,30,0,0,1-6.85,12.3,6.22,6.22,0,0,1-4,1.86,4,4,0,0,1-3.17-1c-1-.65-1.91-.42-2.63-.62A11.66,11.66,0,0,0,111.87,43.23ZM127,47.62c-.29-5.51.4-14.06.23-19.34,0-1.28-.36-1.37-.82-2.19-.29-.53-.46-.66-.32-1.05.29-.85,1.77-1.44,2.78-1.51a1.35,1.35,0,0,1,1.12.33,9,9,0,0,1,1.47,1.73,3.21,3.21,0,0,1,.39,1.68c.07,5.73,0,16.06-.13,18.68a5.7,5.7,0,0,1-.91,2.88c-1.25,1.67-2.59,3.08-2.66,4.23C127.34,52.41,127.14,50.11,127,47.62Z"/></svg>