<svg id="레이어_1" data-name="레이어 1" xmlns="http://www.w3.org/2000/svg" viewBox="0 0 264.14 264.14"><defs><style>.cls-1{fill:#e1d9d5;}.cls-2{fill:#302118;}.cls-3{fill:#e42216;}.cls-4{fill:#040000;}.cls-5{fill:#cd181c;}.cls-6{fill:#ddd;}.cls-7{fill:#f5f4b0;}.cls-8{fill:#567ec0;}.cls-9{fill:#dd243d;}</style></defs><rect class="cls-1" x="4" y="4" width="256.14" height="256.14" rx="14.56"/><path class="cls-2" d="M245.58,264.14h-227A18.59,18.59,0,0,1,0,245.58v-227A18.59,18.59,0,0,1,18.56,0h227a18.59,18.59,0,0,1,18.56,18.56v227A18.59,18.59,0,0,1,245.58,264.14ZM18.56,8A10.58,10.58,0,0,0,8,18.56v227a10.58,10.58,0,0,0,10.56,10.56h227a10.58,10.58,0,0,0,10.56-10.56v-227A10.58,10.58,0,0,0,245.58,8Z"/><polygon class="cls-3" points="170.06 96.44 94.11 96.44 61.47 145.39 94.11 194.35 170.06 194.35 202.71 145.39 170.06 96.44"/><path class="cls-4" d="M170.87,195.85H93.31L59.67,145.39,93.31,94.94h77.56l33.64,50.45Zm-75.95-3h74.34l31.64-47.46L169.26,97.94H94.92L63.28,145.39Z"/><ellipse class="cls-5" cx="80.57" cy="139.69" rx="1.4" ry="4.33"/><ellipse class="cls-5" cx="76.46" cy="142.68" rx="1.4" ry="4.33" transform="translate(-82.86 171.3) rotate(-72)"/><ellipse class="cls-5" cx="78.03" cy="147.52" rx="4.33" ry="1.4" transform="matrix(0.59, -0.81, 0.81, 0.59, -87.18, 123.94)"/><ellipse class="cls-5" cx="83.12" cy="147.52" rx="1.4" ry="4.33" transform="translate(-70.83 77.03) rotate(-36)"/><ellipse class="cls-5" cx="84.69" cy="142.68" rx="4.33" ry="1.4" transform="translate(-39.94 33.15) rotate(-18)"/><ellipse class="cls-5" cx="92.95" cy="163.99" rx="1.4" ry="4.33"/><ellipse class="cls-5" cx="88.83" cy="166.98" rx="1.4" ry="4.33" transform="translate(-97.43 199.86) rotate(-72)"/><ellipse class="cls-5" cx="90.4" cy="171.82" rx="4.33" ry="1.4" transform="matrix(0.59, -0.81, 0.81, 0.59, -101.74, 143.96)"/><ellipse class="cls-5" cx="95.49" cy="171.82" rx="1.4" ry="4.33" transform="translate(-82.75 88.94) rotate(-36)"/><ellipse class="cls-5" cx="97.06" cy="166.98" rx="4.33" ry="1.4" transform="translate(-46.85 38.17) rotate(-18)"/><ellipse class="cls-5" cx="92.95" cy="116.94" rx="1.4" ry="4.33"/><ellipse class="cls-5" cx="88.83" cy="119.93" rx="1.4" ry="4.33" transform="translate(-52.69 167.35) rotate(-72)"/><ellipse class="cls-5" cx="90.4" cy="124.77" rx="4.33" ry="1.4" transform="translate(-63.68 124.57) rotate(-54)"/><ellipse class="cls-5" cx="95.49" cy="124.77" rx="1.4" ry="4.33" transform="translate(-55.1 79.96) rotate(-36)"/><ellipse class="cls-5" cx="97.06" cy="119.93" rx="4.33" ry="1.4" transform="translate(-32.31 35.86) rotate(-18)"/><ellipse class="cls-5" cx="183.6" cy="139.69" rx="1.4" ry="4.33"/><ellipse class="cls-5" cx="187.72" cy="142.68" rx="4.33" ry="1.4" transform="translate(-34.9 64.99) rotate(-18)"/><ellipse class="cls-5" cx="186.15" cy="147.52" rx="1.4" ry="4.33" transform="translate(-51.16 137.59) rotate(-36)"/><ellipse class="cls-5" cx="181.06" cy="147.52" rx="4.33" ry="1.4" transform="translate(-44.71 207.29) rotate(-54)"/><ellipse class="cls-5" cx="179.49" cy="142.68" rx="1.4" ry="4.33" transform="translate(-11.67 269.29) rotate(-72)"/><ellipse class="cls-5" cx="171.23" cy="163.99" rx="1.4" ry="4.33"/><ellipse class="cls-5" cx="175.35" cy="166.98" rx="4.33" ry="1.4" transform="translate(-43.02 62.36) rotate(-18)"/><ellipse class="cls-5" cx="173.78" cy="171.82" rx="1.4" ry="4.33" transform="translate(-67.8 134.96) rotate(-36)"/><ellipse class="cls-5" cx="168.69" cy="171.82" rx="4.33" ry="1.4" transform="translate(-69.47 207.3) rotate(-54)"/><ellipse class="cls-5" cx="167.12" cy="166.98" rx="1.4" ry="4.33" transform="translate(-43.33 274.32) rotate(-72)"/><ellipse class="cls-5" cx="171.23" cy="116.94" rx="1.4" ry="4.33"/><ellipse class="cls-5" cx="175.35" cy="119.93" rx="4.33" ry="1.4" transform="matrix(0.95, -0.31, 0.31, 0.95, -28.48, 60.06)"/><ellipse class="cls-5" cx="173.78" cy="124.77" rx="1.4" ry="4.33" transform="translate(-40.15 125.97) rotate(-36)"/><ellipse class="cls-5" cx="168.69" cy="124.77" rx="4.33" ry="1.4" transform="translate(-31.41 187.9) rotate(-54)"/><ellipse class="cls-5" cx="167.12" cy="119.93" rx="1.4" ry="4.33" transform="translate(1.41 241.81) rotate(-72)"/><rect class="cls-6" x="94.11" y="69.35" width="75.95" height="125"/><path class="cls-4" d="M171.56,195.85H92.61v-128h79Zm-75.95-3h73v-122H95.61Z"/><path class="cls-4" d="M152.55,150.83c-.62,1.74-1.87,1.64-3.84,1.49-7.8-.57-16.41.1-31.18.73a11.76,11.76,0,0,1-3.37-.39c-1.2-.34-2.5-1.78-2.5-2.4,0-1.21,2.55-3.13,4.28-3.23.82-.05,7-.24,13.33-.38v-1.59a2.3,2.3,0,0,0-.15-.91l-3,.19a3.53,3.53,0,0,1-1.63.57c-1.25,0-2.84-1.1-2.79-2.26a63.67,63.67,0,0,0-.24-7.79,3.63,3.63,0,0,0-1.11-2.36c-.38-.43-.53-.86-.29-1.25a12.21,12.21,0,0,1,3-2.45,1.44,1.44,0,0,1,1.59.19,7.51,7.51,0,0,1,2.75,3.51c2-.14,4.76-.38,6.15-.43,1,0,2.22,1.11,2.7,1.92s.33,1.21,0,1.59a4,4,0,0,1-3.32,1.3c-1,0-2.94.05-4.91.15l.14,2.21c2.89,0,6,.09,8.95-.05.05-2.69,0-5.39-.09-7.26a2.77,2.77,0,0,0-1-1.83c-.38-.39-.24-.92.25-1.4A7.09,7.09,0,0,1,139,127a2.14,2.14,0,0,1,1.58.38c1,.68,2.41,2,2.41,3.13,0,3.37.67,7.46.43,11.12a3.64,3.64,0,0,1-2.74,3.07,5.14,5.14,0,0,1-2.41-.67c-.72,0-1.54-.05-2.4-.05v.34c.05.53.05,1.3.05,2.12,5.63-.15,9.76-.29,7.89-.29a31,31,0,0,1,4,.24,8.42,8.42,0,0,1,3.9,1.88C152.84,149.2,153,149.49,152.55,150.83Zm-7.21,7.65a37.6,37.6,0,0,1-.39,4.57c-.38,2-.91,3.42-1.82,4.24-.58.53-1.11,1-1.59,1.39a17.51,17.51,0,0,0-1.73,1.69,5.75,5.75,0,0,1-1.4-2.31,15.32,15.32,0,0,1-.43-3.18c0-1.1,0-2.89,0-4.62-4.09.05-10.3.19-12.51.29s-4.09-.82-6.21-2.31a.8.8,0,0,1-.38-1,6.18,6.18,0,0,1,.86-2.26c.48-.77.92-.82,1.45-.68a15.71,15.71,0,0,0,4.23.44c1.4,0,11.35-.34,12-.34,1.54,0,3.51-.34,4.52-.43a3.14,3.14,0,0,1,1.93.53c.86.57,1.87,1.34,1.92,2.16A3.65,3.65,0,0,1,145.34,158.48Z"/><rect class="cls-7" x="94.11" y="69.35" width="15.19" height="39.43"/><path class="cls-4" d="M110.8,110.28H92.61V67.85H110.8Zm-15.19-3H107.8V70.85H95.61Z"/><rect class="cls-8" x="109.3" y="69.35" width="15.19" height="39.43"/><path class="cls-4" d="M126,110.28H107.8V67.85H126Zm-15.19-3H123V70.85H110.8Z"/><rect class="cls-9" x="124.49" y="69.35" width="15.19" height="39.43"/><path class="cls-4" d="M141.18,110.28H123V67.85h18.19Zm-15.19-3h12.19V70.85H126Z"/><rect class="cls-8" x="139.68" y="69.35" width="15.19" height="39.43"/><path class="cls-4" d="M156.37,110.28H138.18V67.85h18.19Zm-15.19-3h12.19V70.85H141.18Z"/><rect class="cls-7" x="154.87" y="69.35" width="15.19" height="39.43"/><path class="cls-4" d="M171.56,110.28H153.37V67.85h18.19Zm-15.19-3h12.19V70.85H156.37Z"/><rect class="cls-7" x="94.11" y="185.22" width="15.19" height="9.13"/><path class="cls-4" d="M110.8,195.85H92.61V183.72H110.8Zm-15.19-3H107.8v-6.13H95.61Z"/><rect class="cls-8" x="109.3" y="185.22" width="15.19" height="9.13"/><path class="cls-4" d="M126,195.85H107.8V183.72H126Zm-15.19-3H123v-6.13H110.8Z"/><rect class="cls-9" x="124.49" y="185.22" width="15.19" height="9.13"/><path class="cls-4" d="M141.18,195.85H123V183.72h18.19Zm-15.19-3h12.19v-6.13H126Z"/><rect class="cls-8" x="139.68" y="185.22" width="15.19" height="9.13"/><path class="cls-4" d="M156.37,195.85H138.18V183.72h18.19Zm-15.19-3h12.19v-6.13H141.18Z"/><rect class="cls-7" x="154.87" y="185.22" width="15.19" height="9.13"/><path class="cls-4" d="M171.56,195.85H153.37V183.72h18.19Zm-15.19-3h12.19v-6.13H156.37Z"/></svg>