<svg id="레이어_1" data-name="레이어 1" xmlns="http://www.w3.org/2000/svg" xmlns:xlink="http://www.w3.org/1999/xlink" viewBox="0 0 264.14 264.14"><defs><style>.cls-1{fill:none;}.cls-2{fill:#e1d9d5;}.cls-3{fill:#302118;}.cls-4{fill:#2f7cc1;}.cls-5{fill:#040000;}.cls-6{fill:#d0283b;}.cls-7{fill:#f49c19;}.cls-8{fill:#dd243d;}.cls-9{fill:#f5f4b0;}.cls-10{clip-path:url(#clip-path);}.cls-11{clip-path:url(#clip-path-2);}</style><clipPath id="clip-path"><rect class="cls-1" x="95.09" y="69.35" width="75.95" height="125"/></clipPath><clipPath id="clip-path-2"><polygon class="cls-1" points="171.04 96.44 95.09 96.44 62.45 145.39 95.09 194.35 171.04 194.35 203.69 145.39 171.04 96.44"/></clipPath></defs><rect class="cls-2" x="4" y="4" width="256.14" height="256.14" rx="14.56"/><path class="cls-3" d="M245.58,264.14h-227A18.59,18.59,0,0,1,0,245.58v-227A18.59,18.59,0,0,1,18.56,0h227a18.59,18.59,0,0,1,18.56,18.56v227A18.59,18.59,0,0,1,245.58,264.14ZM18.56,8A10.58,10.58,0,0,0,8,18.56v227a10.58,10.58,0,0,0,10.56,10.56h227a10.58,10.58,0,0,0,10.56-10.56v-227A10.58,10.58,0,0,0,245.58,8Z"/><polygon class="cls-4" points="171.04 96.44 95.09 96.44 62.45 145.39 95.09 194.35 171.04 194.35 203.69 145.39 171.04 96.44"/><path class="cls-5" d="M171.85,195.85H94.29L60.65,145.39,94.29,94.94h77.56l33.64,50.45Zm-75.95-3h74.34l31.64-47.46L170.24,97.94H95.9L64.25,145.39Z"/><rect class="cls-4" x="95.09" y="69.35" width="75.95" height="125"/><path class="cls-5" d="M172.54,195.85H93.59v-128h78.95Zm-75.95-3h72.95v-122H96.59Z"/><rect class="cls-6" x="95.09" y="189.43" width="75.95" height="4.92"/><path class="cls-5" d="M172.54,195.85H93.59v-7.92h78.95Zm-75.95-3h72.95v-1.92H96.59Z"/><circle class="cls-7" cx="133.07" cy="147" r="30.38"/><path class="cls-5" d="M133.07,178.88A31.88,31.88,0,1,1,165,147,31.92,31.92,0,0,1,133.07,178.88Zm0-60.76A28.88,28.88,0,1,0,162,147,28.91,28.91,0,0,0,133.07,118.12Z"/><path class="cls-5" d="M153.53,150.83c-.62,1.74-1.87,1.64-3.84,1.49-7.8-.57-16.41.1-31.18.73a11.76,11.76,0,0,1-3.37-.39c-1.2-.34-2.5-1.78-2.5-2.4,0-1.21,2.55-3.13,4.28-3.23.82-.05,7-.24,13.33-.38v-1.59a2.3,2.3,0,0,0-.15-.91l-3,.19a3.53,3.53,0,0,1-1.63.57c-1.25,0-2.84-1.1-2.79-2.26a63.67,63.67,0,0,0-.24-7.79,3.63,3.63,0,0,0-1.11-2.36c-.39-.43-.53-.86-.29-1.25a12.21,12.21,0,0,1,3-2.45,1.44,1.44,0,0,1,1.59.19,7.42,7.42,0,0,1,2.74,3.51c2-.14,4.77-.38,6.16-.43,1,0,2.21,1.11,2.7,1.92s.33,1.21,0,1.59a4,4,0,0,1-3.32,1.3c-1,0-2.94.05-4.91.15l.14,2.21c2.89,0,6,.09,8.95-.05.05-2.69,0-5.39-.09-7.26a2.77,2.77,0,0,0-1-1.83c-.38-.39-.24-.92.24-1.4A7.2,7.2,0,0,1,140,127a2.14,2.14,0,0,1,1.58.38c1,.68,2.41,2,2.41,3.13,0,3.37.67,7.46.43,11.12a3.65,3.65,0,0,1-2.74,3.07,5.14,5.14,0,0,1-2.41-.67c-.72,0-1.54-.05-2.4-.05v.34c.05.53.05,1.3.05,2.12,5.62-.15,9.76-.29,7.89-.29a31,31,0,0,1,4,.24,8.42,8.42,0,0,1,3.9,1.88C153.82,149.2,154,149.49,153.53,150.83Zm-7.21,7.65a39.77,39.77,0,0,1-.39,4.57c-.38,2-.91,3.42-1.83,4.24-.57.53-1.1,1-1.58,1.39a18.89,18.89,0,0,0-1.74,1.69,5.86,5.86,0,0,1-1.39-2.31,15.32,15.32,0,0,1-.43-3.18c0-1.1-.05-2.89,0-4.62-4.09.05-10.3.19-12.51.29-2.36.1-4.09-.82-6.21-2.31a.8.8,0,0,1-.38-1,6.18,6.18,0,0,1,.86-2.26c.48-.77.92-.82,1.45-.68a15.71,15.71,0,0,0,4.23.44c1.39,0,11.35-.34,12-.34,1.54,0,3.51-.34,4.52-.43a3.14,3.14,0,0,1,1.93.53c.86.57,1.87,1.34,1.92,2.16A3.65,3.65,0,0,1,146.32,158.48Z"/><polygon class="cls-8" points="133.07 99.83 160.44 69.35 105.69 69.35 133.07 99.83"/><path class="cls-5" d="M133.07,101.33l-29.62-33h59.24Zm-25.13-31,25.13,28,25.13-28Z"/><polygon class="cls-4" points="111.38 69.35 154.76 69.35 133.07 93.5 111.38 69.35"/><path class="cls-5" d="M133.07,95,109.14,68.35H157ZM113.62,70.35,133.07,92l19.45-21.65Z"/><polygon class="cls-9" points="117.06 69.35 149.07 69.35 133.07 87.17 117.06 69.35"/><path class="cls-5" d="M133.07,88.67,114.82,68.35h36.49ZM119.31,70.35l13.76,15.32,13.76-15.32Z"/><polygon class="cls-8" points="122.75 69.35 143.39 69.35 133.07 80.84 122.75 69.35"/><path class="cls-5" d="M133.07,82.34l-12.56-14h25.12Zm-8.08-12,8.08,9,8.07-9Z"/><g class="cls-10"><polygon class="cls-8" points="171.04 99.83 198.42 69.35 143.67 69.35 171.04 99.83"/><path class="cls-5" d="M171,101.33l-29.61-33h59.23Zm-25.13-31,25.13,28,25.14-28Z"/><polygon class="cls-4" points="149.35 69.35 192.73 69.35 171.04 93.5 149.35 69.35"/><path class="cls-5" d="M171,95,147.11,68.35H195ZM151.6,70.35,171,92l19.45-21.65Z"/><polygon class="cls-9" points="155.04 69.35 187.05 69.35 171.04 87.17 155.04 69.35"/><path class="cls-5" d="M171,88.67,152.8,68.35h36.49ZM157.28,70.35,171,85.67l13.77-15.32Z"/><polygon class="cls-8" points="160.72 69.35 181.36 69.35 171.04 80.84 160.72 69.35"/><path class="cls-5" d="M171,82.34l-12.56-14H183.6Zm-8.07-12,8.07,9,8.08-9Z"/><polygon class="cls-8" points="95.09 99.83 122.47 69.35 67.72 69.35 95.09 99.83"/><path class="cls-5" d="M95.09,101.33l-29.61-33h59.23ZM70,70.35l25.13,28,25.14-28Z"/><polygon class="cls-4" points="73.4 69.35 116.78 69.35 95.09 93.5 73.4 69.35"/><path class="cls-5" d="M95.09,95,71.16,68.35H119ZM75.65,70.35,95.09,92l19.45-21.65Z"/><polygon class="cls-9" points="79.09 69.35 111.1 69.35 95.09 87.17 79.09 69.35"/><path class="cls-5" d="M95.09,88.67,76.85,68.35h36.49ZM81.33,70.35,95.09,85.67l13.76-15.32Z"/><polygon class="cls-8" points="84.78 69.35 105.41 69.35 95.09 80.84 84.78 69.35"/><path class="cls-5" d="M95.09,82.34l-12.56-14h25.12ZM87,70.35l8.07,9,8.08-9Z"/></g><path class="cls-5" d="M172.54,195.85H93.59v-128h78.95Zm-75.95-3h72.95v-122H96.59Z"/><g class="cls-11"><polygon class="cls-8" points="62.45 145.39 95.09 194.35 95.09 96.44 62.45 145.39"/><path class="cls-5" d="M96.59,199.3,60.65,145.39,96.59,91.48ZM64.25,145.39l29.34,44v-88Z"/><polygon class="cls-4" points="95.09 106.61 95.09 184.18 69.23 145.39 95.09 106.61"/><path class="cls-5" d="M96.59,189.14,67.43,145.39l29.16-43.74ZM71,145.39l22.56,33.84V111.56Z"/><polygon class="cls-9" points="95.09 116.77 95.09 174.01 76.01 145.39 95.09 116.77"/><path class="cls-5" d="M96.59,179,74.21,145.39l22.38-33.57ZM77.81,145.39l15.78,23.67V121.73Z"/><polygon class="cls-8" points="95.09 126.94 95.09 163.85 82.79 145.39 95.09 126.94"/><path class="cls-5" d="M96.59,168.8,81,145.39,96.59,122Zm-12-23.41,9,13.5v-27Z"/><polygon class="cls-8" points="203.85 145.39 171.21 96.44 171.21 194.35 203.85 145.39"/><path class="cls-5" d="M169.71,199.3V91.48l35.94,53.91Zm3-97.91v88l29.33-44Z"/><polygon class="cls-4" points="171.21 184.18 171.21 106.61 197.07 145.39 171.21 184.18"/><path class="cls-5" d="M169.71,189.14V101.65l29.16,43.74Zm3-77.58v67.67l22.56-33.84Z"/><polygon class="cls-9" points="171.21 174.01 171.21 116.77 190.29 145.39 171.21 174.01"/><path class="cls-5" d="M169.71,179V111.82l22.38,33.57Zm3-57.24v47.33l15.78-23.67Z"/><polygon class="cls-8" points="171.21 163.85 171.21 126.94 183.51 145.39 171.21 163.85"/><path class="cls-5" d="M169.71,168.8V122l15.6,23.4Zm3-36.91v27l9-13.5Z"/></g></svg>