<svg id="레이어_1" data-name="레이어 1" xmlns="http://www.w3.org/2000/svg" xmlns:xlink="http://www.w3.org/1999/xlink" viewBox="0 0 264.14 264.14"><defs><style>.cls-1{fill:none;}.cls-2{fill:#e1d9d5;}.cls-3{fill:#302118;}.cls-4{fill:#1eb3cf;}.cls-5{fill:#040000;}.cls-6{fill:#f3abb3;}.cls-7{fill:#efefef;}.cls-8{fill:#e94a64;}.cls-9{clip-path:url(#clip-path);}.cls-10{fill:#2f7cc1;}.cls-11{fill:#5f5f5f;}.cls-12{fill:#231815;}</style><clipPath id="clip-path"><polygon class="cls-1" points="170.06 96.66 94.11 96.66 61.47 145.61 94.11 194.57 170.06 194.57 202.71 145.61 170.06 96.66"/></clipPath></defs><rect class="cls-2" x="4" y="4" width="256.14" height="256.14" rx="14.56"/><path class="cls-3" d="M245.58,264.14h-227A18.59,18.59,0,0,1,0,245.58v-227A18.59,18.59,0,0,1,18.56,0h227a18.59,18.59,0,0,1,18.56,18.56v227A18.59,18.59,0,0,1,245.58,264.14ZM18.56,8A10.58,10.58,0,0,0,8,18.56v227a10.58,10.58,0,0,0,10.56,10.56h227a10.58,10.58,0,0,0,10.56-10.56v-227A10.58,10.58,0,0,0,245.58,8Z"/><polygon class="cls-4" points="170.02 96.66 94.07 96.66 61.43 145.61 94.07 194.57 170.02 194.57 202.66 145.61 170.02 96.66"/><path class="cls-5" d="M170.83,196.07H93.27L59.63,145.61,93.27,95.15h77.56l33.64,50.46Zm-76-3h74.34l31.64-47.46L169.22,98.15H94.88L63.23,145.61Z"/><rect class="cls-6" x="94.07" y="69.57" width="75.95" height="125"/><path class="cls-5" d="M171.52,196.07h-79v-128h79Zm-76-3h73v-122h-73Z"/><path class="cls-5" d="M171.52,196.07h-79v-128h79Zm-76-3h73v-122h-73Z"/><rect class="cls-7" x="105.78" y="69.57" width="52.62" height="109.84"/><path class="cls-5" d="M159.9,180.91H104.28V68.07H159.9Zm-52.62-3H156.9V71.07H107.28Z"/><rect class="cls-8" x="94.07" y="110.61" width="75.95" height="4.68"/><path class="cls-5" d="M171.52,116.79h-79v-7.68h79Zm-76-3h73v-1.68h-73Z"/><path class="cls-5" d="M152.55,151.05c-.62,1.73-1.87,1.63-3.84,1.49-7.8-.58-16.41.1-31.18.72a11.41,11.41,0,0,1-3.37-.38c-1.2-.34-2.5-1.78-2.5-2.41,0-1.2,2.55-3.13,4.28-3.22.82-.05,7-.24,13.33-.39v-1.58a2.35,2.35,0,0,0-.15-.92l-3,.19a3.45,3.45,0,0,1-1.63.58c-1.25,0-2.84-1.11-2.79-2.26a63.67,63.67,0,0,0-.24-7.79,3.63,3.63,0,0,0-1.11-2.36c-.38-.43-.53-.87-.29-1.25a12.49,12.49,0,0,1,3-2.46,1.46,1.46,0,0,1,1.59.2,7.37,7.37,0,0,1,2.74,3.51c2-.15,4.77-.39,6.16-.43,1,0,2.22,1.1,2.7,1.92s.33,1.2,0,1.59a4,4,0,0,1-3.32,1.3c-1,0-2.94,0-4.91.14l.14,2.21c2.89.05,6,.1,8.95,0,.05-2.7,0-5.39-.09-7.27a2.82,2.82,0,0,0-1-1.83c-.38-.38-.24-.91.24-1.39a7.08,7.08,0,0,1,2.8-1.73,2.09,2.09,0,0,1,1.58.38c1,.67,2.41,2,2.41,3.13,0,3.37.67,7.46.43,11.11a3.67,3.67,0,0,1-2.74,3.08,5.14,5.14,0,0,1-2.41-.67c-.72,0-1.54-.05-2.4-.05v.34c.05.53.05,1.29.05,2.11,5.63-.14,9.76-.29,7.89-.29a33.66,33.66,0,0,1,4,.24,8.52,8.52,0,0,1,3.9,1.88C152.84,149.41,153,149.7,152.55,151.05Zm-7.21,7.65a37.79,37.79,0,0,1-.39,4.57c-.38,2-.91,3.41-1.83,4.23-.57.53-1.1,1-1.58,1.4a20.27,20.27,0,0,0-1.74,1.68,5.71,5.71,0,0,1-1.39-2.31,15.23,15.23,0,0,1-.43-3.17c0-1.11,0-2.89,0-4.62-4.09.05-10.3.19-12.51.29s-4.09-.82-6.21-2.31a.81.81,0,0,1-.38-1,6.23,6.23,0,0,1,.86-2.27c.48-.77.92-.81,1.45-.67a15.74,15.74,0,0,0,4.23.43c1.4,0,11.35-.33,12-.33a45.26,45.26,0,0,0,4.52-.44,3.28,3.28,0,0,1,1.93.53c.86.58,1.87,1.35,1.92,2.17A3.68,3.68,0,0,1,145.34,158.7Z"/><g class="cls-9"><polygon class="cls-4" points="61.47 145.61 94.11 194.57 94.11 96.66 61.47 145.61"/><path class="cls-5" d="M95.61,199.52,59.67,145.61,95.61,91.7ZM63.28,145.61l29.33,44v-88Z"/><polygon class="cls-10" points="94.11 106.82 94.11 184.4 68.25 145.61 94.11 106.82"/><path class="cls-5" d="M95.61,189.35,66.45,145.61l29.16-43.74ZM70.05,145.61l22.56,33.84V111.78Z"/><polygon class="cls-11" points="94.11 116.99 94.11 174.23 75.03 145.61 94.11 116.99"/><path class="cls-12" d="M95.11,177.54,73.83,145.61l21.28-31.92ZM76.23,145.61l16.88,25.32V120.29Z"/><polygon class="cls-4" points="94.11 127.16 94.11 164.06 81.81 145.61 94.11 127.16"/><path class="cls-5" d="M95.61,169,80,145.61l15.6-23.4Zm-12-23.41,9,13.5v-27Z"/><polygon class="cls-4" points="202.87 145.61 170.23 96.66 170.23 194.57 202.87 145.61"/><path class="cls-5" d="M168.73,199.52V91.7l35.94,53.91Zm3-97.91v88l29.33-44Z"/><polygon class="cls-10" points="170.23 184.4 170.23 106.82 196.09 145.61 170.23 184.4"/><path class="cls-5" d="M168.73,189.35V101.87l29.16,43.74Zm3-77.57v67.67l22.56-33.84Z"/><polygon class="cls-11" points="170.23 174.23 170.23 116.99 189.31 145.61 170.23 174.23"/><path class="cls-12" d="M169.23,177.54V113.69l21.28,31.92Zm2-57.25v50.64l16.88-25.32Z"/><polygon class="cls-4" points="170.23 164.06 170.23 127.16 182.53 145.61 170.23 164.06"/><path class="cls-5" d="M168.73,169V122.21l15.6,23.4Zm3-36.91v27l9-13.5Z"/></g></svg>