<svg id="레이어_1" data-name="레이어 1" xmlns="http://www.w3.org/2000/svg" xmlns:xlink="http://www.w3.org/1999/xlink" viewBox="0 0 165.58 243.38"><defs><style>.cls-1,.cls-10{fill:none;}.cls-2{clip-path:url(#clip-path);}.cls-3{fill:#c58968;stroke:#a46c4a;stroke-width:3px;}.cls-10,.cls-3{stroke-miterlimit:10;}.cls-4{fill:#f1ece8;}.cls-5{fill:#040000;}.cls-6{fill:#b32d2a;}.cls-7{fill:#1b1c1b;}.cls-8{fill:#a9a9a8;}.cls-9{fill:#bc2c2a;}.cls-10{stroke:#bc2c2a;stroke-width:5px;}</style><clipPath id="clip-path"><path class="cls-1" d="M-1328-1632.1H515.23a14.18,14.18,0,0,1,14.18,14.18v971.65a14.17,14.17,0,0,1-14.17,14.17H-1328a14.18,14.18,0,0,1-14.18-14.18v-971.65A14.18,14.18,0,0,1-1328-1632.1Z" transform="translate(-1538.47 -725.74) rotate(90)"/></clipPath></defs><g class="cls-2"><rect class="cls-3" x="-133.51" y="-24.46" width="299.65" height="69.91"/></g><rect class="cls-4" x="1.5" y="29.88" width="162.58" height="212"/><path class="cls-5" d="M165.58,243.38H0v-215H165.58ZM3,240.38H162.58v-209H3Z"/><path class="cls-5" d="M89.4,63.93c-.32.56-1,.77-2.09.74L84,64.54a31,31,0,0,0-4.1.18.78.78,0,0,1-.82-.39,3.76,3.76,0,0,1-.69-1.8,1.27,1.27,0,0,1,1-1.3A14.7,14.7,0,0,1,82.25,61a9.73,9.73,0,0,1,0-1.51c0-.9,0-5.82,0-6.88,0-.85-.08-1.86-.08-2.73a1.94,1.94,0,0,1-.34.16c-.8.32-1.67.77-2.28.13a6.45,6.45,0,0,1-1-1.48c-.24-.45-.13-.82.24-1,.95-.43,3.92-1.8,4.63-2.17s1.17-.43,1.64,0A3.76,3.76,0,0,1,86,47a.78.78,0,0,1-.16.72,3.64,3.64,0,0,1,.08.77c0,.92,0,1.88,0,2.8,0,1.67,0,3,0,4.66a22.93,22.93,0,0,1-.26,5h1.35c.92,0,1.4.53,2,1.43A2.11,2.11,0,0,1,89.4,63.93Z"/><path class="cls-5" d="M147.52,102.87c-.18.33-.57.45-1.22.43l-1.92-.07a19,19,0,0,0-2.39.1.45.45,0,0,1-.48-.23,2.24,2.24,0,0,1-.4-1,.74.74,0,0,1,.59-.75,8.4,8.4,0,0,1,1.66-.12,5.32,5.32,0,0,1,0-.88c0-.53,0-3.39,0-4s-.05-1.08-.05-1.59a.92.92,0,0,1-.2.1c-.46.18-1,.44-1.32.07a3.78,3.78,0,0,1-.57-.86c-.14-.26-.08-.48.14-.57.55-.25,2.28-1,2.69-1.26s.68-.25,1,0a2.2,2.2,0,0,1,.58.84.45.45,0,0,1-.09.42,2.06,2.06,0,0,1,.05.45c0,.54,0,1.09,0,1.63,0,1,0,1.74,0,2.71a13.34,13.34,0,0,1-.16,2.9h.79c.54,0,.82.31,1.15.83A1.24,1.24,0,0,1,147.52,102.87Z"/><path class="cls-5" d="M25.46,125.46a3.29,3.29,0,0,1-.26.88c-.22.52-.49,1.38-1.48,1.49s-5.15,0-5.52,0-.63-.43-.64-1A.84.84,0,0,1,18,126a27.31,27.31,0,0,1,3.27-3.7,3.38,3.38,0,0,0,1.33-2.4,1.18,1.18,0,0,0-1.24-1.23,3.05,3.05,0,0,0-1.88,1.09c-.38.34-.68.12-1.34-.74-.4-.52-.18-.71.16-1a6,6,0,0,1,.91-.67,4.42,4.42,0,0,1,2.45-.68,3,3,0,0,1,3.19,3.07,4.51,4.51,0,0,1-1.65,3.59,21.28,21.28,0,0,0-2.42,2.46c.92,0,2.4,0,3.37-.06A4.17,4.17,0,0,0,25.46,125.46Z"/><path class="cls-5" d="M43,127.72a4.45,4.45,0,0,1-4.06-.24,1.66,1.66,0,0,1-.83-1,4.42,4.42,0,0,0-.54-1.42,2.17,2.17,0,0,1,.74.13,6.79,6.79,0,0,0,2.7.88c1.19,0,2-.74,1.94-1.7s-.95-1.51-2.11-1.51c-.74,0-.89.09-1.09-.6-.14-.45-.27-.77.43-1a5.69,5.69,0,0,1,1.14-.25,2,2,0,0,0,1.14-1.63.88.88,0,0,0-1-.87,3.19,3.19,0,0,0-1.7,1c-.52.46-.79.27-1.31-.19s-.54-.85.05-1.36a4.21,4.21,0,0,1,3.06-1.31,3,3,0,0,1,3,2.28,2.75,2.75,0,0,1-1.13,2.61,2.94,2.94,0,0,1,1.64,2.09A3.55,3.55,0,0,1,43,127.72Z"/><path class="cls-5" d="M66.05,125a1.21,1.21,0,0,1-1.25.57c-.2,0-.47-.05-.83-.08a7.08,7.08,0,0,1-.63,2.85,12.81,12.81,0,0,0-1.4-.85c-.45-.24-.28-1.14-.17-2.08h-.5a14.51,14.51,0,0,0-2.82.16c-.53.12-.9-.08-1.27-.74a.93.93,0,0,1,0-1,1.89,1.89,0,0,1,.37-.85,53.2,53.2,0,0,1,4.21-5.36c.71-.66.83-1,1.22-1,.67-.09,1.41.88,1.18,1.34a4.14,4.14,0,0,0-.15,1.19c0,1.2,0,3,0,4.25a1.69,1.69,0,0,1,1.31.31C66,124.21,66.25,124.69,66.05,125Zm-4.57-1.56h.4c0-1.08,0-2.33,0-3.36-.85,1.08-1.85,2.43-2.53,3.36C60.06,123.39,60.64,123.39,61.48,123.41Z"/><path class="cls-5" d="M82.36,128.12a4.76,4.76,0,0,1-2.3-.6,1.94,1.94,0,0,1-.92-.87c-.19-.42-.42-1.22-.66-1.87a2.78,2.78,0,0,1,1.15.4,3.93,3.93,0,0,0,2.62.88,1.63,1.63,0,0,0,1.68-1.71c0-.94-.68-1.54-1.8-1.57a10.64,10.64,0,0,0-2.11.29.6.6,0,0,1-.62-.46,1.64,1.64,0,0,1,.2-1.23c.06-.76.26-1.81.43-2.95-.2-.11-.26-.34-.2-.69a1.5,1.5,0,0,1,.36-.83c.18-.2.37-.22.89-.1a5.75,5.75,0,0,0,1.3.08,14.33,14.33,0,0,0,1.63,0c.72-.07.88-.09,1.23.3s.62,1,.54,1.14-.24.34-.65.43a24.69,24.69,0,0,1-3,.12c-.1.56-.24,1.4-.35,2a6.57,6.57,0,0,1,1.16,0,3.43,3.43,0,0,1,3.22,3.27A3.75,3.75,0,0,1,82.36,128.12Z"/><path class="cls-5" d="M105.67,127.28a2.13,2.13,0,0,1-.83.37,2.2,2.2,0,0,1-1.52.47,3.61,3.61,0,0,1-2.9-1.34c-.59-.81-.77-2-.62-3.91a7.9,7.9,0,0,1,2-4.73,4.48,4.48,0,0,1,3.14-1.56c.64-.08.85,0,1,.31a2.25,2.25,0,0,1,.14,1.22c0,.26-.25.37-.89.44a3.25,3.25,0,0,0-2.18,1.24,4.32,4.32,0,0,0-.72,1.37,5.6,5.6,0,0,1,1.39-.16,3.13,3.13,0,0,1,3.25,3A4,4,0,0,1,105.67,127.28Zm-2-1.2.17,0a1.86,1.86,0,0,0,1-1.65c0-.92-.6-1.46-1.63-1.56a2.44,2.44,0,0,0-1.22.27,7.37,7.37,0,0,0,0,1.89A1.44,1.44,0,0,0,103.64,126.08Z"/><path class="cls-5" d="M127.84,118.32a.59.59,0,0,1-.5.5,16.94,16.94,0,0,0-2.41,5.88,9.66,9.66,0,0,0-.08,1.93,2.24,2.24,0,0,1-.14.82,2.15,2.15,0,0,1-.63.88,8.13,8.13,0,0,0-1.11-1.15c-.29-.27-.4-.86-.36-1.8a7.71,7.71,0,0,1,.22-1.54,20.25,20.25,0,0,1,1.93-4.93h-.87a21.17,21.17,0,0,0-2.19.11c-1,.1-1.15,0-1.14-.85a1.42,1.42,0,0,1,.5-1.2,1,1,0,0,1,.64-.13,5.67,5.67,0,0,0,.94.08c.87,0,3.06-.06,4.17-.14.66,0,.69-.07.81.16A3.41,3.41,0,0,1,127.84,118.32Z"/><path class="cls-5" d="M142.38,127.62l0,0a3.18,3.18,0,0,1-1.85-2.3,3.49,3.49,0,0,1,2-3.22,2.71,2.71,0,0,1-1.54-2.4,3.32,3.32,0,0,1,3.61-3,1.71,1.71,0,0,1,1.37.46,2.71,2.71,0,0,1,1.66,2.61,2.78,2.78,0,0,1-1.8,2.23c1.4.76,2.33,1.54,2.28,3.13a3.52,3.52,0,0,1-3.73,3.11A2.91,2.91,0,0,1,142.38,127.62Zm3.48-2.78c0-.63-.55-1.2-1.81-1.83-.91.49-1.38,1.06-1.38,1.71a1.5,1.5,0,0,0,.79,1.32,2.57,2.57,0,0,0,.86.13A1.48,1.48,0,0,0,145.86,124.84Zm-.74-6.1a2,2,0,0,0-1-.25A1.2,1.2,0,0,0,143,119.7c0,.66.31,1,1.16,1.4.86-.37,1.28-.76,1.34-1.22A1.27,1.27,0,0,0,145.12,118.74Z"/><path class="cls-5" d="M24.8,148.59c-.43,2.53-1.74,3.82-3.84,3.79a2.76,2.76,0,0,1-2.76-1.77,6.37,6.37,0,0,0-.54-1.34,3.61,3.61,0,0,1,1.47.45,3,3,0,0,0,1.88.61c1.25-.09,1.54-1,1.71-2l.09-.76A4,4,0,0,1,21,148a3.1,3.1,0,0,1-3.23-3.38,3.63,3.63,0,0,1,2.22-3.45.69.69,0,0,1,.39-.06,1.62,1.62,0,0,1,1-.26c1.82,0,3,1.17,3.45,3.37A12.85,12.85,0,0,1,24.8,148.59Zm-3.53-2.45a2.69,2.69,0,0,0,1.57-.52,5.37,5.37,0,0,0-.2-1.28c-.25-.8-.55-1.51-1.36-1.53a1.84,1.84,0,0,1-.4-.06.53.53,0,0,1-.2.15,1.73,1.73,0,0,0-.75,1.68C19.93,145.52,20.45,146.14,21.27,146.14Z"/><path class="cls-5" d="M41,151.74c-.19.32-.57.44-1.22.43l-1.93-.08a17.31,17.31,0,0,0-2.39.11A.45.45,0,0,1,35,152a2.14,2.14,0,0,1-.4-1.05.74.74,0,0,1,.58-.76,10.29,10.29,0,0,1,1.67-.12,5.33,5.33,0,0,1,0-.88c0-.52,0-3.39,0-4s0-1.07,0-1.58l-.2.09c-.46.18-1,.45-1.33.08a3.85,3.85,0,0,1-.57-.87.37.37,0,0,1,.14-.57c.56-.24,2.28-1,2.7-1.26s.68-.25.95,0a2.08,2.08,0,0,1,.59.85.44.44,0,0,1-.09.41,2.09,2.09,0,0,1,0,.45c0,.54,0,1.09,0,1.63,0,1,0,1.74,0,2.72a12.66,12.66,0,0,1-.15,2.89h.78c.54,0,.82.31,1.16.84A1.23,1.23,0,0,1,41,151.74Z"/><path class="cls-5" d="M46.5,152a1.8,1.8,0,0,1-.72.19,1.73,1.73,0,0,1-1.07.29c-2.43,0-4.1-2.84-4-5.56a7.31,7.31,0,0,1,2.4-5.28.42.42,0,0,1,.08-.15,1.78,1.78,0,0,1,1.43-.57c2.18,0,4.15,2.11,4.36,4.59C49.29,148.61,48.32,151.07,46.5,152Zm.37-5.66a3.57,3.57,0,0,0-2.23-3.39A6,6,0,0,0,43,146.8c0,1.87.58,3,1.82,3.33a1.73,1.73,0,0,1,.32.14h0C46.27,149.92,47,148.27,46.87,146.29Z"/><path class="cls-5" d="M62.09,151.74c-.19.32-.57.44-1.22.43L59,152.09a17.17,17.17,0,0,0-2.39.11.46.46,0,0,1-.48-.23,2.14,2.14,0,0,1-.4-1.05.74.74,0,0,1,.58-.76,10.47,10.47,0,0,1,1.67-.12,5.29,5.29,0,0,1,0-.88c0-.52,0-3.39,0-4s0-1.07,0-1.58l-.2.09c-.46.18-1,.45-1.33.08a3.85,3.85,0,0,1-.57-.87c-.13-.26-.07-.47.14-.57.56-.24,2.28-1,2.7-1.26s.68-.25,1,0a2.17,2.17,0,0,1,.58.85.44.44,0,0,1-.09.41,2.06,2.06,0,0,1,.05.45c0,.54,0,1.09,0,1.63,0,1,0,1.74,0,2.72a13.25,13.25,0,0,1-.16,2.89h.79c.54,0,.81.31,1.15.84A1.23,1.23,0,0,1,62.09,151.74Z"/><path class="cls-5" d="M68.39,151.74c-.18.32-.57.44-1.22.43l-1.92-.08a17.17,17.17,0,0,0-2.39.11.46.46,0,0,1-.48-.23,2.24,2.24,0,0,1-.4-1.05.74.74,0,0,1,.58-.76,10.47,10.47,0,0,1,1.67-.12,5.29,5.29,0,0,1,0-.88c0-.52,0-3.39,0-4s0-1.07,0-1.58l-.2.09c-.46.18-1,.45-1.32.08a3.85,3.85,0,0,1-.57-.87c-.14-.26-.08-.47.13-.57.56-.24,2.29-1,2.7-1.26s.68-.25,1,0a2.17,2.17,0,0,1,.58.85.44.44,0,0,1-.09.41,2.06,2.06,0,0,1,0,.45c0,.54,0,1.09,0,1.63,0,1,0,1.74,0,2.72a13.25,13.25,0,0,1-.16,2.89H67c.54,0,.82.31,1.15.84A1.23,1.23,0,0,1,68.39,151.74Z"/><path class="cls-5" d="M82.48,151.74c-.19.32-.57.44-1.22.43l-1.93-.08a17.31,17.31,0,0,0-2.39.11.45.45,0,0,1-.47-.23,2.14,2.14,0,0,1-.4-1.05.74.74,0,0,1,.58-.76,10.29,10.29,0,0,1,1.67-.12,5.33,5.33,0,0,1,0-.88c0-.52,0-3.39,0-4s0-1.07,0-1.58l-.2.09c-.46.18-1,.45-1.33.08a3.85,3.85,0,0,1-.57-.87.37.37,0,0,1,.14-.57c.56-.24,2.28-1,2.7-1.26s.68-.25,1,0a2.08,2.08,0,0,1,.59.85.44.44,0,0,1-.09.41,2.09,2.09,0,0,1,0,.45c0,.54,0,1.09,0,1.63,0,1,0,1.74,0,2.72a12.66,12.66,0,0,1-.15,2.89h.78c.54,0,.82.31,1.16.84A1.23,1.23,0,0,1,82.48,151.74Z"/><path class="cls-5" d="M90.21,149.69a3.14,3.14,0,0,1-.26.87c-.22.53-.49,1.39-1.48,1.5s-5.15,0-5.52.05-.63-.44-.65-1a.86.86,0,0,1,.48-.91,26.72,26.72,0,0,1,3.27-3.7,3.4,3.4,0,0,0,1.33-2.4,1.19,1.19,0,0,0-1.24-1.24,3.11,3.11,0,0,0-1.88,1.1c-.38.34-.68.12-1.34-.74-.4-.53-.18-.71.16-1a7.19,7.19,0,0,1,.9-.68,4.56,4.56,0,0,1,2.46-.68,3,3,0,0,1,3.19,3.07A4.48,4.48,0,0,1,88,147.51,22.12,22.12,0,0,0,85.56,150c.92,0,2.4,0,3.37-.06A4.17,4.17,0,0,0,90.21,149.69Z"/><path class="cls-5" d="M102.9,151.74c-.18.32-.57.44-1.21.43l-1.93-.08a17.31,17.31,0,0,0-2.39.11.47.47,0,0,1-.48-.23,2.24,2.24,0,0,1-.4-1.05.74.74,0,0,1,.59-.76,10.25,10.25,0,0,1,1.66-.12,6.64,6.64,0,0,1,0-.88c0-.52,0-3.39,0-4s0-1.07,0-1.58l-.2.09c-.47.18-1,.45-1.33.08a3.85,3.85,0,0,1-.57-.87c-.14-.26-.08-.47.14-.57.55-.24,2.28-1,2.7-1.26s.67-.25,1,0a2.08,2.08,0,0,1,.59.85.47.47,0,0,1-.09.41,2.09,2.09,0,0,1,0,.45c0,.54,0,1.09,0,1.63,0,1,0,1.74,0,2.72a12.66,12.66,0,0,1-.15,2.89h.78c.54,0,.82.31,1.16.84C102.87,151.12,103,151.58,102.9,151.74Z"/><path class="cls-5" d="M108.08,152a4.4,4.4,0,0,1-4-.25,1.64,1.64,0,0,1-.83-1,4.67,4.67,0,0,0-.54-1.42,2.49,2.49,0,0,1,.74.12,6.44,6.44,0,0,0,2.69.88c1.19,0,2-.74,1.94-1.69s-1-1.51-2.11-1.51c-.74,0-.89.09-1.09-.6-.14-.45-.26-.78.43-1a5.69,5.69,0,0,1,1.14-.24c.79-.5,1.16-1.05,1.14-1.64a.86.86,0,0,0-1-.86,3.24,3.24,0,0,0-1.7.94c-.52.46-.78.28-1.31-.18s-.53-.85,0-1.36a4.19,4.19,0,0,1,3.07-1.31,2.93,2.93,0,0,1,3,2.28,2.74,2.74,0,0,1-1.12,2.61,2.92,2.92,0,0,1,1.63,2.09A3.54,3.54,0,0,1,108.08,152Z"/><path class="cls-5" d="M123.52,151.74c-.19.32-.57.44-1.22.43l-1.93-.08a17.31,17.31,0,0,0-2.39.11.45.45,0,0,1-.47-.23,2.15,2.15,0,0,1-.41-1.05.75.75,0,0,1,.59-.76,10.25,10.25,0,0,1,1.66-.12,6.64,6.64,0,0,1,0-.88c0-.52,0-3.39,0-4s0-1.07,0-1.58l-.2.09c-.47.18-1,.45-1.33.08a3.85,3.85,0,0,1-.57-.87c-.14-.26-.08-.47.14-.57.56-.24,2.28-1,2.7-1.26s.68-.25,1,0a2.08,2.08,0,0,1,.59.85.44.44,0,0,1-.09.41,2.09,2.09,0,0,1,0,.45c0,.54,0,1.09,0,1.63,0,1,0,1.74,0,2.72a12.66,12.66,0,0,1-.15,2.89h.78c.54,0,.82.31,1.16.84A1.23,1.23,0,0,1,123.52,151.74Z"/><path class="cls-5" d="M131.74,149.19a1.19,1.19,0,0,1-1.24.57c-.2,0-.48,0-.84-.07a7.15,7.15,0,0,1-.63,2.85,9.71,9.71,0,0,0-1.4-.85c-.45-.25-.28-1.14-.17-2.08H127a15.35,15.35,0,0,0-2.82.15c-.54.13-.91-.07-1.28-.74a.93.93,0,0,1,0-1.05,1.86,1.86,0,0,1,.37-.84,54.58,54.58,0,0,1,4.21-5.37c.71-.66.83-1,1.22-.95.68-.09,1.42.88,1.18,1.34a4.48,4.48,0,0,0-.15,1.19c0,1.2,0,3,0,4.25.7,0,.93,0,1.31.31C131.7,148.44,131.94,148.92,131.74,149.19Zm-4.57-1.55h.4c0-1.08,0-2.33,0-3.36-.84,1.07-1.85,2.43-2.52,3.36C125.75,147.62,126.33,147.62,127.17,147.64Z"/><path class="cls-5" d="M144.22,151.74c-.18.32-.57.44-1.22.43l-1.92-.08a17.17,17.17,0,0,0-2.39.11.46.46,0,0,1-.48-.23,2.24,2.24,0,0,1-.4-1.05.74.74,0,0,1,.59-.76,10.25,10.25,0,0,1,1.66-.12,5.29,5.29,0,0,1,0-.88c0-.52,0-3.39,0-4s-.05-1.07-.05-1.58l-.2.09c-.46.18-1,.45-1.32.08a3.85,3.85,0,0,1-.57-.87c-.14-.26-.08-.47.14-.57.55-.24,2.28-1,2.69-1.26s.68-.25,1,0a2.17,2.17,0,0,1,.58.85.44.44,0,0,1-.09.41,2.06,2.06,0,0,1,.05.45c0,.54,0,1.09,0,1.63,0,1,0,1.74,0,2.72a13.25,13.25,0,0,1-.16,2.89h.79c.54,0,.82.31,1.15.84A1.23,1.23,0,0,1,144.22,151.74Z"/><path class="cls-5" d="M147.79,152.35a4.7,4.7,0,0,1-2.29-.6,2,2,0,0,1-.93-.88c-.18-.41-.41-1.22-.66-1.86a2.73,2.73,0,0,1,1.16.4,3.93,3.93,0,0,0,2.62.88,1.63,1.63,0,0,0,1.68-1.71c0-.94-.68-1.55-1.81-1.58a11.5,11.5,0,0,0-2.11.3.6.6,0,0,1-.61-.47,1.61,1.61,0,0,1,.2-1.23c.06-.75.26-1.8.43-2.94-.2-.11-.27-.34-.2-.7a1.49,1.49,0,0,1,.35-.83c.19-.2.37-.21.89-.09a5.79,5.79,0,0,0,1.3.08,14.33,14.33,0,0,0,1.63-.05c.73-.08.88-.09,1.24.29a1.71,1.71,0,0,1,.54,1.14c-.1.24-.25.34-.65.44a24.91,24.91,0,0,1-3,.12c-.11.55-.25,1.4-.36,2a7.57,7.57,0,0,1,1.16,0,3.42,3.42,0,0,1,3.22,3.26A3.75,3.75,0,0,1,147.79,152.35Z"/><path class="cls-5" d="M21.46,176.86c-.18.32-.57.44-1.22.43l-1.92-.08a17.17,17.17,0,0,0-2.39.11.46.46,0,0,1-.48-.23,2.24,2.24,0,0,1-.4-1.05.73.73,0,0,1,.59-.75,9.17,9.17,0,0,1,1.66-.13,5.25,5.25,0,0,1,0-.88c0-.52,0-3.39,0-4s-.05-1.08-.05-1.59a.56.56,0,0,1-.2.09c-.46.19-1,.45-1.32.08a4,4,0,0,1-.57-.86c-.14-.27-.08-.48.13-.57.56-.25,2.29-1.05,2.7-1.27s.68-.24,1,0a2.25,2.25,0,0,1,.58.85.46.46,0,0,1-.09.42,1.9,1.9,0,0,1,.05.44c0,.54,0,1.1,0,1.64,0,1,0,1.74,0,2.71a13.34,13.34,0,0,1-.16,2.9h.79c.54,0,.82.3,1.15.83A1.23,1.23,0,0,1,21.46,176.86Z"/><path class="cls-5" d="M27.38,176.63a2.17,2.17,0,0,1-.84.37,2.2,2.2,0,0,1-1.52.47,3.63,3.63,0,0,1-2.9-1.34c-.58-.81-.77-2-.62-3.91a8,8,0,0,1,2-4.73,4.45,4.45,0,0,1,3.15-1.56c.63-.08.84,0,1,.31a2.25,2.25,0,0,1,.14,1.22c0,.26-.24.37-.89.44a3.23,3.23,0,0,0-2.17,1.24,4.33,4.33,0,0,0-.73,1.37,5.65,5.65,0,0,1,1.39-.16,3.12,3.12,0,0,1,3.25,3A4,4,0,0,1,27.38,176.63Zm-2-1.21h.17a1.87,1.87,0,0,0,1-1.65c0-.93-.6-1.46-1.64-1.56a2.5,2.5,0,0,0-1.21.26,6.62,6.62,0,0,0,0,1.9A1.41,1.41,0,0,0,25.34,175.42Z"/><path class="cls-5" d="M41.57,176.86c-.18.32-.57.44-1.21.43l-1.93-.08a17.31,17.31,0,0,0-2.39.11.47.47,0,0,1-.48-.23,2.24,2.24,0,0,1-.4-1.05.73.73,0,0,1,.59-.75,9.17,9.17,0,0,1,1.66-.13,6.58,6.58,0,0,1,0-.88c0-.52,0-3.39,0-4s0-1.08,0-1.59a.78.78,0,0,1-.2.09c-.47.19-1,.45-1.33.08a4,4,0,0,1-.57-.86c-.14-.27-.08-.48.14-.57.55-.25,2.28-1.05,2.7-1.27s.67-.24,1,0a2.15,2.15,0,0,1,.59.85.49.49,0,0,1-.09.42,1.94,1.94,0,0,1,0,.44c0,.54,0,1.1,0,1.64,0,1,0,1.74,0,2.71a12.75,12.75,0,0,1-.15,2.9h.78c.54,0,.82.3,1.16.83C41.54,176.24,41.67,176.7,41.57,176.86Z"/><path class="cls-5" d="M48.68,167.67a.59.59,0,0,1-.5.5,17.15,17.15,0,0,0-2.42,5.88,10.42,10.42,0,0,0-.07,1.93,2.28,2.28,0,0,1-.14.82,2.13,2.13,0,0,1-.63.87,8.6,8.6,0,0,0-1.11-1.14c-.3-.27-.4-.86-.36-1.8a7.71,7.71,0,0,1,.22-1.54,20.32,20.32,0,0,1,1.92-4.93h-.86a18.69,18.69,0,0,0-2.19.11c-1,.1-1.15-.05-1.14-.85a1.42,1.42,0,0,1,.5-1.2,1,1,0,0,1,.64-.13,5.58,5.58,0,0,0,.94.08c.87,0,3.05-.06,4.16-.14.67,0,.7-.08.82.16A3.39,3.39,0,0,1,48.68,167.67Z"/><path class="cls-5" d="M61.66,176.86c-.18.32-.57.44-1.22.43l-1.92-.08a17.17,17.17,0,0,0-2.39.11.46.46,0,0,1-.48-.23,2.24,2.24,0,0,1-.4-1.05.73.73,0,0,1,.59-.75,9.17,9.17,0,0,1,1.66-.13,5.25,5.25,0,0,1,0-.88c0-.52,0-3.39,0-4s0-1.08,0-1.59a.56.56,0,0,1-.2.09c-.46.19-1,.45-1.32.08a4,4,0,0,1-.57-.86c-.14-.27-.08-.48.14-.57.55-.25,2.28-1.05,2.69-1.27s.68-.24,1,0a2.25,2.25,0,0,1,.58.85.46.46,0,0,1-.09.42,1.9,1.9,0,0,1,0,.44c0,.54,0,1.1,0,1.64,0,1,0,1.74,0,2.71a13.34,13.34,0,0,1-.16,2.9h.79c.54,0,.82.3,1.15.83A1.23,1.23,0,0,1,61.66,176.86Z"/><path class="cls-5" d="M63.55,177h0a3.18,3.18,0,0,1-1.85-2.3,3.47,3.47,0,0,1,2-3.22,2.68,2.68,0,0,1-1.54-2.4,3.31,3.31,0,0,1,3.6-3,1.7,1.7,0,0,1,1.37.46,2.71,2.71,0,0,1,1.67,2.6,2.78,2.78,0,0,1-1.81,2.24c1.41.75,2.33,1.54,2.29,3.13a3.53,3.53,0,0,1-3.73,3.11A2.86,2.86,0,0,1,63.55,177ZM67,174.19c0-.63-.56-1.2-1.82-1.83-.91.49-1.37,1.06-1.37,1.71a1.52,1.52,0,0,0,.78,1.32,2.59,2.59,0,0,0,.87.13A1.49,1.49,0,0,0,67,174.19Zm-.74-6.1a2,2,0,0,0-1-.25,1.19,1.19,0,0,0-1.15,1.2c0,.67.3,1,1.15,1.41.86-.37,1.28-.76,1.34-1.22A1.29,1.29,0,0,0,66.3,168.09Z"/><path class="cls-5" d="M82.44,176.86c-.18.32-.57.44-1.22.43l-1.92-.08a17.31,17.31,0,0,0-2.39.11.46.46,0,0,1-.48-.23A2.24,2.24,0,0,1,76,176a.73.73,0,0,1,.59-.75,9.17,9.17,0,0,1,1.66-.13,5.25,5.25,0,0,1,0-.88c0-.52,0-3.39,0-4s0-1.08,0-1.59a.56.56,0,0,1-.2.09c-.46.19-1,.45-1.32.08a4,4,0,0,1-.57-.86c-.14-.27-.08-.48.14-.57.55-.25,2.28-1.05,2.69-1.27s.68-.24,1,0a2.25,2.25,0,0,1,.58.85.46.46,0,0,1-.09.42,1.9,1.9,0,0,1,0,.44c0,.54,0,1.1,0,1.64,0,1,0,1.74,0,2.71a12.75,12.75,0,0,1-.16,2.9h.79c.54,0,.82.3,1.16.83A1.26,1.26,0,0,1,82.44,176.86Z"/><path class="cls-5" d="M89.51,173.71c-.43,2.53-1.74,3.83-3.83,3.79a2.75,2.75,0,0,1-2.76-1.77,7.23,7.23,0,0,0-.54-1.34,3.52,3.52,0,0,1,1.46.45,3.07,3.07,0,0,0,1.88.62c1.25-.1,1.54-1,1.71-2l.1-.75a4.19,4.19,0,0,1-1.87.49,3.09,3.09,0,0,1-3.22-3.38,3.63,3.63,0,0,1,2.22-3.45.66.66,0,0,1,.38-.06,1.65,1.65,0,0,1,1-.26c1.81,0,3,1.17,3.45,3.37A12.59,12.59,0,0,1,89.51,173.71ZM86,171.26a2.74,2.74,0,0,0,1.58-.52,6,6,0,0,0-.2-1.28c-.25-.8-.56-1.51-1.36-1.53a1.68,1.68,0,0,1-.4-.06.83.83,0,0,1-.2.16,1.71,1.71,0,0,0-.76,1.68A1.37,1.37,0,0,0,86,171.26Z"/><path class="cls-5" d="M103.32,174.81a3.29,3.29,0,0,1-.26.88c-.22.52-.49,1.38-1.48,1.49s-5.15,0-5.52,0-.63-.43-.64-1a.84.84,0,0,1,.47-.91,27.31,27.31,0,0,1,3.27-3.7,3.38,3.38,0,0,0,1.33-2.4A1.18,1.18,0,0,0,99.25,168a3.05,3.05,0,0,0-1.88,1.09c-.38.34-.67.12-1.34-.74-.4-.52-.18-.71.16-1a6,6,0,0,1,.91-.67,4.42,4.42,0,0,1,2.45-.68,3,3,0,0,1,3.19,3.06,4.48,4.48,0,0,1-1.65,3.59,22.12,22.12,0,0,0-2.42,2.47c.92,0,2.4,0,3.37-.06A4.17,4.17,0,0,0,103.32,174.81Z"/><path class="cls-5" d="M108.93,177.07a1.65,1.65,0,0,1-.73.19,1.7,1.7,0,0,1-1.06.29c-2.43,0-4.1-2.84-4-5.56a7.23,7.23,0,0,1,2.4-5.27.48.48,0,0,1,.08-.16,1.79,1.79,0,0,1,1.43-.57c2.17,0,4.15,2.11,4.36,4.59C111.72,173.73,110.75,176.19,108.93,177.07Zm.37-5.65a3.56,3.56,0,0,0-2.24-3.39,5.9,5.9,0,0,0-1.64,3.9c0,1.86.58,2.95,1.81,3.32a2.33,2.33,0,0,1,.33.14h0C108.7,175,109.38,173.39,109.3,171.42Z"/><path class="cls-5" d="M124.88,174.81a3.4,3.4,0,0,1-.27.88c-.21.52-.49,1.38-1.47,1.49s-5.15,0-5.52,0-.63-.43-.65-1a.83.83,0,0,1,.48-.91,27.31,27.31,0,0,1,3.27-3.7,3.4,3.4,0,0,0,1.32-2.4,1.18,1.18,0,0,0-1.23-1.23,3.05,3.05,0,0,0-1.88,1.09c-.39.34-.68.12-1.34-.74-.4-.52-.19-.71.15-1a6,6,0,0,1,.91-.67,4.44,4.44,0,0,1,2.45-.68,3,3,0,0,1,3.19,3.06,4.42,4.42,0,0,1-1.65,3.59,23,23,0,0,0-2.42,2.47c.93,0,2.41,0,3.38-.06A4.25,4.25,0,0,0,124.88,174.81Z"/><path class="cls-5" d="M131.15,176.86c-.19.32-.57.44-1.22.43l-1.93-.08a17.31,17.31,0,0,0-2.39.11.45.45,0,0,1-.47-.23,2.14,2.14,0,0,1-.4-1.05.73.73,0,0,1,.58-.75,9.21,9.21,0,0,1,1.67-.13,5.28,5.28,0,0,1,0-.88c0-.52,0-3.39,0-4s0-1.08,0-1.59a.78.78,0,0,1-.2.09c-.46.19-1,.45-1.33.08a4,4,0,0,1-.57-.86c-.14-.27-.07-.48.14-.57.56-.25,2.28-1.05,2.7-1.27s.68-.24.95,0a2.15,2.15,0,0,1,.59.85.46.46,0,0,1-.09.42,1.94,1.94,0,0,1,0,.44c0,.54,0,1.1,0,1.64,0,1,0,1.74,0,2.71a12.75,12.75,0,0,1-.15,2.9h.78c.54,0,.82.3,1.16.83A1.23,1.23,0,0,1,131.15,176.86Z"/><path class="cls-5" d="M144.8,174.81a3.71,3.71,0,0,1-.26.88c-.22.52-.5,1.38-1.48,1.49s-5.15,0-5.52,0-.63-.43-.65-1a.86.86,0,0,1,.48-.91,27.31,27.31,0,0,1,3.27-3.7,3.37,3.37,0,0,0,1.32-2.4,1.18,1.18,0,0,0-1.23-1.23,3.05,3.05,0,0,0-1.88,1.09c-.39.34-.68.12-1.34-.74-.4-.52-.19-.71.15-1a6.53,6.53,0,0,1,.91-.67A4.47,4.47,0,0,1,141,166a3,3,0,0,1,3.19,3.06,4.42,4.42,0,0,1-1.65,3.59,23,23,0,0,0-2.42,2.47c.93,0,2.41,0,3.38-.06A4.25,4.25,0,0,0,144.8,174.81Z"/><path class="cls-5" d="M152.5,174.81a3.29,3.29,0,0,1-.26.88c-.22.52-.49,1.38-1.48,1.49s-5.15,0-5.52,0-.63-.43-.65-1a.86.86,0,0,1,.48-.91,27.31,27.31,0,0,1,3.27-3.7,3.38,3.38,0,0,0,1.33-2.4,1.18,1.18,0,0,0-1.24-1.23,3.05,3.05,0,0,0-1.88,1.09c-.38.34-.68.12-1.34-.74-.4-.52-.18-.71.16-1a6.36,6.36,0,0,1,.9-.67,4.48,4.48,0,0,1,2.46-.68,3,3,0,0,1,3.19,3.06,4.48,4.48,0,0,1-1.65,3.59,22.12,22.12,0,0,0-2.42,2.47c.92,0,2.4,0,3.37-.06A4.17,4.17,0,0,0,152.5,174.81Z"/><path class="cls-5" d="M22,199.82a3.47,3.47,0,0,1-.26.88c-.22.53-.5,1.39-1.48,1.5s-5.15,0-5.52,0-.63-.43-.65-1a.85.85,0,0,1,.48-.91,26.72,26.72,0,0,1,3.27-3.7,3.38,3.38,0,0,0,1.32-2.4A1.19,1.19,0,0,0,18,193a3.11,3.11,0,0,0-1.88,1.1c-.39.34-.68.12-1.34-.74-.4-.53-.19-.71.15-1a6.5,6.5,0,0,1,.91-.68,4.47,4.47,0,0,1,2.45-.68,3,3,0,0,1,3.19,3.07,4.42,4.42,0,0,1-1.65,3.59,23,23,0,0,0-2.42,2.47c.93,0,2.41,0,3.38-.06A3.81,3.81,0,0,0,22,199.82Z"/><path class="cls-5" d="M27.18,202.09a4.43,4.43,0,0,1-4.05-.25,1.67,1.67,0,0,1-.83-1,4.57,4.57,0,0,0-.54-1.42,2.49,2.49,0,0,1,.74.12,6.44,6.44,0,0,0,2.69.88c1.19,0,2-.74,1.95-1.69s-1-1.51-2.11-1.51c-.75,0-.9.09-1.1-.61-.14-.44-.26-.77.43-1a5.06,5.06,0,0,1,1.14-.24c.79-.5,1.16-1,1.14-1.64a.86.86,0,0,0-1-.86,3.15,3.15,0,0,0-1.69.94c-.53.46-.79.28-1.31-.19s-.54-.84,0-1.35A4.19,4.19,0,0,1,25.75,191a2.93,2.93,0,0,1,3,2.28,2.7,2.7,0,0,1-1.12,2.6,3,3,0,0,1,1.63,2.1A3.54,3.54,0,0,1,27.18,202.09Z"/><path class="cls-5" d="M42.15,199.82a3.1,3.1,0,0,1-.26.88c-.22.53-.49,1.39-1.48,1.5s-5.15,0-5.52,0-.63-.43-.64-1a.83.83,0,0,1,.47-.91,26.72,26.72,0,0,1,3.27-3.7,3.4,3.4,0,0,0,1.33-2.4A1.19,1.19,0,0,0,38.08,193a3.11,3.11,0,0,0-1.88,1.1c-.38.34-.67.12-1.34-.74-.4-.53-.18-.71.16-1a6,6,0,0,1,.91-.68,4.42,4.42,0,0,1,2.45-.68,3,3,0,0,1,3.19,3.07,4.48,4.48,0,0,1-1.65,3.59,22.12,22.12,0,0,0-2.42,2.47c.92,0,2.4,0,3.37-.06A3.74,3.74,0,0,0,42.15,199.82Z"/><path class="cls-5" d="M50.61,199.33a1.21,1.21,0,0,1-1.25.57c-.2,0-.48-.05-.83-.08a7.08,7.08,0,0,1-.63,2.85,12,12,0,0,0-1.4-.84c-.45-.25-.28-1.14-.17-2.08h-.5a15.41,15.41,0,0,0-2.82.15c-.54.12-.91-.08-1.28-.74a.92.92,0,0,1,.05-1,1.75,1.75,0,0,1,.37-.84,54.58,54.58,0,0,1,4.21-5.37c.71-.66.83-1,1.21-1,.68-.1,1.42.88,1.19,1.34a3.72,3.72,0,0,0-.15,1.18c0,1.21,0,3,0,4.26a1.63,1.63,0,0,1,1.31.31C50.56,198.58,50.81,199.05,50.61,199.33ZM46,197.77h.4c0-1.07,0-2.32,0-3.35-.85,1.07-1.85,2.43-2.53,3.35C44.62,197.76,45.2,197.76,46,197.77Z"/><path class="cls-5" d="M63.09,199.82a2.8,2.8,0,0,1-.26.88c-.21.53-.49,1.39-1.48,1.5s-5.15,0-5.51,0-.64-.43-.65-1a.83.83,0,0,1,.48-.91,26,26,0,0,1,3.26-3.7,3.4,3.4,0,0,0,1.33-2.4A1.19,1.19,0,0,0,59,193a3.09,3.09,0,0,0-1.88,1.1c-.39.34-.68.12-1.35-.74-.4-.53-.18-.71.16-1a6,6,0,0,1,.91-.68,4.42,4.42,0,0,1,2.45-.68,3,3,0,0,1,3.19,3.07,4.45,4.45,0,0,1-1.65,3.59,23,23,0,0,0-2.42,2.47c.92,0,2.4,0,3.37-.06A3.67,3.67,0,0,0,63.09,199.82Z"/><path class="cls-5" d="M66.64,202.49a4.76,4.76,0,0,1-2.3-.6,2,2,0,0,1-.93-.88c-.18-.42-.41-1.22-.66-1.86a2.68,2.68,0,0,1,1.16.4,3.93,3.93,0,0,0,2.62.87,1.63,1.63,0,0,0,1.68-1.71c0-.94-.68-1.54-1.81-1.57a11.74,11.74,0,0,0-2.11.3.6.6,0,0,1-.61-.47,1.6,1.6,0,0,1,.2-1.23c.06-.75.26-1.8.43-2.94-.2-.11-.26-.34-.2-.7a1.49,1.49,0,0,1,.35-.83c.19-.2.37-.22.9-.09a6.49,6.49,0,0,0,1.29.07c.8,0,1.17,0,1.63,0,.73-.08.88-.09,1.24.29a1.71,1.71,0,0,1,.54,1.14c-.1.23-.25.34-.65.43a22.57,22.57,0,0,1-3,.13c-.11.55-.25,1.4-.36,2a7.57,7.57,0,0,1,1.16,0,3.41,3.41,0,0,1,3.22,3.26A3.74,3.74,0,0,1,66.64,202.49Z"/><path class="cls-5" d="M83,199.82a3.47,3.47,0,0,1-.26.88c-.22.53-.5,1.39-1.48,1.5s-5.15,0-5.52,0-.63-.43-.65-1a.85.85,0,0,1,.48-.91,26.72,26.72,0,0,1,3.27-3.7,3.38,3.38,0,0,0,1.32-2.4A1.19,1.19,0,0,0,79,193a3.11,3.11,0,0,0-1.88,1.1c-.39.34-.68.12-1.34-.74-.4-.53-.19-.71.15-1a6.5,6.5,0,0,1,.91-.68,4.47,4.47,0,0,1,2.45-.68,3,3,0,0,1,3.19,3.07,4.42,4.42,0,0,1-1.65,3.59,23,23,0,0,0-2.42,2.47c.93,0,2.41,0,3.38-.06A3.81,3.81,0,0,0,83,199.82Z"/><path class="cls-5" d="M88.9,201.64a1.87,1.87,0,0,1-.83.37,2.2,2.2,0,0,1-1.52.48,3.68,3.68,0,0,1-2.9-1.34c-.59-.82-.77-2-.62-3.91a8,8,0,0,1,2-4.74A4.41,4.41,0,0,1,88.19,191c.64-.08.85,0,1,.3a2.26,2.26,0,0,1,.14,1.22c0,.26-.25.37-.89.45a3.23,3.23,0,0,0-2.18,1.23,4.55,4.55,0,0,0-.72,1.37,5.58,5.58,0,0,1,1.39-.15,3.12,3.12,0,0,1,3.25,3A4,4,0,0,1,88.9,201.64Zm-2-1.2.17,0a1.83,1.83,0,0,0,.95-1.64c0-.93-.6-1.47-1.63-1.56a2.51,2.51,0,0,0-1.22.26,7.44,7.44,0,0,0,0,1.9A1.44,1.44,0,0,0,86.87,200.44Z"/><path class="cls-5" d="M103.32,199.82a3.1,3.1,0,0,1-.26.88c-.22.53-.49,1.39-1.48,1.5s-5.15,0-5.52,0-.63-.43-.64-1a.83.83,0,0,1,.47-.91,26.72,26.72,0,0,1,3.27-3.7,3.4,3.4,0,0,0,1.33-2.4A1.19,1.19,0,0,0,99.25,193a3.11,3.11,0,0,0-1.88,1.1c-.38.34-.67.12-1.34-.74-.4-.53-.18-.71.16-1a6,6,0,0,1,.91-.68,4.42,4.42,0,0,1,2.45-.68,3,3,0,0,1,3.19,3.07,4.48,4.48,0,0,1-1.65,3.59,22.12,22.12,0,0,0-2.42,2.47c.92,0,2.4,0,3.37-.06A3.74,3.74,0,0,0,103.32,199.82Z"/><path class="cls-5" d="M110.81,192.69a.58.58,0,0,1-.49.49,16.82,16.82,0,0,0-2.42,5.89,9.63,9.63,0,0,0-.08,1.93,2.23,2.23,0,0,1-.14.81,2,2,0,0,1-.63.88,7.53,7.53,0,0,0-1.11-1.14c-.29-.28-.4-.86-.35-1.8a7.74,7.74,0,0,1,.21-1.54,20.17,20.17,0,0,1,1.93-4.94h-.87a20.8,20.8,0,0,0-2.18.11c-1,.11-1.16,0-1.14-.85a1.41,1.41,0,0,1,.49-1.2,1,1,0,0,1,.65-.12,6.73,6.73,0,0,0,.94.08c.86,0,3-.07,4.16-.14.66-.05.69-.08.81.15A3.46,3.46,0,0,1,110.81,192.69Z"/><path class="cls-5" d="M124,199.82a3.1,3.1,0,0,1-.26.88c-.22.53-.49,1.39-1.48,1.5s-5.15,0-5.52,0-.63-.43-.65-1a.85.85,0,0,1,.48-.91,26.72,26.72,0,0,1,3.27-3.7,3.38,3.38,0,0,0,1.32-2.4A1.18,1.18,0,0,0,120,193a3.11,3.11,0,0,0-1.88,1.1c-.38.34-.68.12-1.34-.74-.4-.53-.18-.71.16-1a6.34,6.34,0,0,1,.9-.68,4.47,4.47,0,0,1,2.45-.68,3,3,0,0,1,3.19,3.07,4.44,4.44,0,0,1-1.64,3.59,22.12,22.12,0,0,0-2.42,2.47c.92,0,2.4,0,3.37-.06A3.74,3.74,0,0,0,124,199.82Z"/><path class="cls-5" d="M125.88,202h0a3.21,3.21,0,0,1-1.85-2.3,3.47,3.47,0,0,1,2-3.22,2.71,2.71,0,0,1-1.55-2.41,3.34,3.34,0,0,1,3.61-3,1.75,1.75,0,0,1,1.37.47,2.72,2.72,0,0,1,1.67,2.6,2.79,2.79,0,0,1-1.81,2.24c1.41.75,2.33,1.54,2.28,3.12a3.52,3.52,0,0,1-3.73,3.12A2.9,2.9,0,0,1,125.88,202Zm3.49-2.77c0-.63-.56-1.2-1.82-1.84-.91.5-1.37,1.07-1.37,1.71a1.55,1.55,0,0,0,.78,1.33,2.54,2.54,0,0,0,.86.12A1.5,1.5,0,0,0,129.37,199.21Zm-.74-6.11a2.16,2.16,0,0,0-1-.24,1.2,1.2,0,0,0-1.16,1.2c0,.66.31,1,1.16,1.4.86-.37,1.28-.75,1.34-1.21A1.31,1.31,0,0,0,128.63,193.1Z"/><path class="cls-5" d="M144.8,199.82a3.47,3.47,0,0,1-.26.88c-.22.53-.5,1.39-1.48,1.5s-5.15,0-5.52,0-.63-.43-.65-1a.85.85,0,0,1,.48-.91,26.72,26.72,0,0,1,3.27-3.7,3.38,3.38,0,0,0,1.32-2.4,1.19,1.19,0,0,0-1.23-1.24,3.11,3.11,0,0,0-1.88,1.1c-.39.34-.68.12-1.34-.74-.4-.53-.19-.71.15-1a6.5,6.5,0,0,1,.91-.68A4.47,4.47,0,0,1,141,191a3,3,0,0,1,3.19,3.07,4.42,4.42,0,0,1-1.65,3.59,23,23,0,0,0-2.42,2.47c.93,0,2.41,0,3.38-.06A3.81,3.81,0,0,0,144.8,199.82Z"/><path class="cls-5" d="M151.84,198.73c-.43,2.53-1.74,3.82-3.84,3.79a2.76,2.76,0,0,1-2.76-1.77,6.37,6.37,0,0,0-.54-1.34,3.6,3.6,0,0,1,1.47.44,2.93,2.93,0,0,0,1.88.62c1.25-.09,1.54-1,1.71-2l.09-.76a3.9,3.9,0,0,1-1.86.49,3.09,3.09,0,0,1-3.23-3.37,3.63,3.63,0,0,1,2.22-3.45.69.69,0,0,1,.39-.06,1.59,1.59,0,0,1,1-.27c1.82,0,3,1.18,3.45,3.38A12.85,12.85,0,0,1,151.84,198.73Zm-3.53-2.45a2.69,2.69,0,0,0,1.57-.52,5.37,5.37,0,0,0-.2-1.28c-.25-.81-.55-1.51-1.36-1.53a1.84,1.84,0,0,1-.4-.06.53.53,0,0,1-.2.15,1.73,1.73,0,0,0-.75,1.68C147,195.66,147.49,196.28,148.31,196.28Z"/><path class="cls-5" d="M19.48,226.56a4.43,4.43,0,0,1-4.05-.25,1.64,1.64,0,0,1-.84-1,4,4,0,0,0-.54-1.41,2.17,2.17,0,0,1,.74.12,6.69,6.69,0,0,0,2.7.88c1.19,0,2-.74,1.94-1.7s-.95-1.51-2.11-1.51c-.74,0-.89.09-1.09-.6-.14-.45-.26-.77.43-1a5.84,5.84,0,0,1,1.14-.25,1.93,1.93,0,0,0,1.14-1.63.87.87,0,0,0-1-.86,3.11,3.11,0,0,0-1.7.94c-.52.46-.78.28-1.31-.19s-.54-.85.05-1.35a4.19,4.19,0,0,1,3.07-1.31,2.92,2.92,0,0,1,3,2.28,2.72,2.72,0,0,1-1.12,2.6,2.94,2.94,0,0,1,1.63,2.1A3.54,3.54,0,0,1,19.48,226.56Z"/><path class="cls-5" d="M27.71,226.56a1.81,1.81,0,0,1-.73.18,1.63,1.63,0,0,1-1.06.3c-2.44,0-4.1-2.84-4-5.57a7.32,7.32,0,0,1,2.41-5.27.3.3,0,0,1,.07-.15,1.79,1.79,0,0,1,1.44-.57c2.17,0,4.14,2.11,4.36,4.59C30.5,223.21,29.53,225.68,27.71,226.56Zm.37-5.66a3.58,3.58,0,0,0-2.24-3.39,5.9,5.9,0,0,0-1.65,3.9c0,1.86.59,3,1.82,3.33a1.56,1.56,0,0,1,.33.14s0,0,0,0C27.48,224.52,28.15,222.87,28.08,220.9Z"/><path class="cls-6" d="M39.59,226.56a4.43,4.43,0,0,1-4.05-.25,1.66,1.66,0,0,1-.83-1,4.49,4.49,0,0,0-.54-1.41,2.17,2.17,0,0,1,.74.12,6.64,6.64,0,0,0,2.7.88c1.18,0,2-.74,1.94-1.7s-1-1.51-2.11-1.51c-.74,0-.9.09-1.1-.6-.14-.45-.26-.77.43-1a5.84,5.84,0,0,1,1.14-.25,1.93,1.93,0,0,0,1.14-1.63.86.86,0,0,0-1-.86,3.08,3.08,0,0,0-1.69.94c-.53.46-.79.28-1.31-.19s-.54-.85,0-1.35a4.21,4.21,0,0,1,3.07-1.31,2.93,2.93,0,0,1,3,2.28,2.73,2.73,0,0,1-1.13,2.6,2.94,2.94,0,0,1,1.63,2.1A3.54,3.54,0,0,1,39.59,226.56Z"/><path class="cls-6" d="M48.33,226.34c-.19.33-.57.45-1.22.43l-1.92-.07a18.87,18.87,0,0,0-2.39.1.45.45,0,0,1-.48-.23,2.14,2.14,0,0,1-.4-1,.74.74,0,0,1,.58-.75,8.56,8.56,0,0,1,1.67-.12,5.32,5.32,0,0,1,0-.88c0-.53,0-3.39,0-4s0-1.08,0-1.59l-.2.1c-.46.18-1,.44-1.32.07a3.22,3.22,0,0,1-.57-.86c-.14-.26-.08-.48.13-.57.56-.25,2.28-1,2.7-1.26s.68-.25,1,0a2.2,2.2,0,0,1,.58.84.45.45,0,0,1-.09.42,2.06,2.06,0,0,1,0,.45c0,.54,0,1.09,0,1.63,0,1,0,1.74,0,2.71a13.34,13.34,0,0,1-.16,2.9H47c.54,0,.81.31,1.15.83A1.24,1.24,0,0,1,48.33,226.34Z"/><rect class="cls-5" x="14.26" y="76.15" width="137.06" height="3"/><rect class="cls-7" x="1.5" y="22.89" width="162.58" height="7"/><path class="cls-5" d="M165.58,31.38H0v-10H165.58ZM3,28.38H162.58v-4H3Z"/><polygon class="cls-5" points="99.67 24 82.79 8.62 65.91 24 63.89 21.78 82.79 4.56 101.69 21.78 99.67 24"/><circle class="cls-8" cx="83.61" cy="7.34" r="5.84"/><path class="cls-5" d="M83.61,14.68A7.34,7.34,0,1,1,91,7.34,7.35,7.35,0,0,1,83.61,14.68ZM83.61,3A4.34,4.34,0,1,0,88,7.34,4.35,4.35,0,0,0,83.61,3Z"/><rect class="cls-9" x="136.83" y="95.17" width="14.49" height="5"/><rect class="cls-9" x="14.26" y="120.04" width="137.06" height="5"/><rect class="cls-9" x="14.26" y="144.91" width="137.06" height="5"/><rect class="cls-9" x="14.36" y="169.78" width="99.47" height="5"/><line class="cls-10" x1="136.83" y1="197.15" x2="151.32" y2="197.15"/></svg>