<svg id="레이어_1" data-name="레이어 1" xmlns="http://www.w3.org/2000/svg" viewBox="0 0 264.14 264.14"><defs><style>.cls-1{opacity:0.4;}.cls-2{fill:#e1d9d5;}.cls-3{fill:#302118;}.cls-4{fill:#f4f4f4;}.cls-5{fill:#040000;}</style></defs><g class="cls-1"><rect class="cls-2" x="4" y="4" width="256.14" height="256.14" rx="14.56"/><path class="cls-3" d="M245.58,264.14h-227A18.59,18.59,0,0,1,0,245.58v-227A18.59,18.59,0,0,1,18.56,0h227a18.59,18.59,0,0,1,18.56,18.56v227A18.59,18.59,0,0,1,245.58,264.14ZM18.56,8A10.58,10.58,0,0,0,8,18.56v227a10.58,10.58,0,0,0,10.56,10.56h227a10.58,10.58,0,0,0,10.56-10.56v-227A10.58,10.58,0,0,0,245.58,8Z"/></g><g class="cls-1"><rect class="cls-4" x="92.42" y="69.57" width="78.96" height="125"/><path class="cls-5" d="M172.88,196.07h-82v-128h82Zm-79-3h76v-122h-76Z"/><polygon class="cls-4" points="166.38 83.19 97.42 83.19 92.42 69.57 171.38 69.57 166.38 83.19"/><path class="cls-5" d="M167.08,84.19H96.72L91,68.57h81.82Zm-69-2h67.56L170,70.57H93.85Z"/><polygon class="cls-4" points="97.42 180.94 166.38 180.94 171.38 194.57 92.42 194.57 97.42 180.94"/><path class="cls-5" d="M172.81,195.57H91l5.73-15.63h70.36Zm-79-2H170l-4.27-11.63H98.12Z"/><rect class="cls-5" x="131.65" y="83.19" width="0.5" height="97.75"/><path class="cls-5" d="M152.43,136.89c-.62,1.73-1.87,1.63-3.84,1.49-7.8-.58-16.41.09-31.18.72a11.42,11.42,0,0,1-3.37-.39c-1.2-.33-2.5-1.78-2.5-2.4,0-1.21,2.55-3.13,4.28-3.23.82,0,7-.24,13.33-.38v-1.59a2.34,2.34,0,0,0-.15-.91l-3,.19a3.56,3.56,0,0,1-1.63.58c-1.25-.05-2.84-1.11-2.79-2.26a63.77,63.77,0,0,0-.24-7.8,3.63,3.63,0,0,0-1.11-2.35c-.38-.44-.53-.87-.29-1.26a12.21,12.21,0,0,1,3-2.45,1.44,1.44,0,0,1,1.59.19,7.44,7.44,0,0,1,2.74,3.52c2-.15,4.77-.39,6.16-.44,1-.05,2.22,1.11,2.7,1.93s.33,1.2,0,1.58a4,4,0,0,1-3.32,1.3c-1,0-2.94,0-4.91.15l.14,2.21c2.89,0,6,.1,9-.05.05-2.69,0-5.39-.09-7.26a2.77,2.77,0,0,0-1-1.83c-.38-.39-.24-.91.25-1.4a7.21,7.21,0,0,1,2.79-1.73,2.15,2.15,0,0,1,1.58.39c1,.67,2.41,2,2.41,3.12,0,3.37.67,7.46.43,11.12a3.67,3.67,0,0,1-2.74,3.08,5,5,0,0,1-2.41-.68c-.72,0-1.54,0-2.4,0v.33c.05.53.05,1.3.05,2.12,5.63-.15,9.76-.29,7.89-.29a31,31,0,0,1,4,.24,8.42,8.42,0,0,1,3.9,1.88C152.72,135.25,152.92,135.54,152.43,136.89Zm-7.21,7.64a38,38,0,0,1-.39,4.58c-.38,2-.91,3.41-1.82,4.23-.58.53-1.11,1-1.59,1.39a20.09,20.09,0,0,0-1.73,1.69,5.75,5.75,0,0,1-1.4-2.31,15.23,15.23,0,0,1-.43-3.18c0-1.1-.05-2.88,0-4.62-4.09.05-10.3.2-12.51.29s-4.09-.81-6.21-2.31a.8.8,0,0,1-.38-1,6.18,6.18,0,0,1,.86-2.26c.48-.77.92-.82,1.45-.67a16.15,16.15,0,0,0,4.23.43c1.4,0,11.35-.34,12-.34,1.54,0,3.51-.33,4.52-.43a3.2,3.2,0,0,1,1.93.53c.86.58,1.87,1.35,1.92,2.16A3.65,3.65,0,0,1,145.22,144.53Z"/></g></svg>