<svg id="레이어_1" data-name="레이어 1" xmlns="http://www.w3.org/2000/svg" viewBox="0 0 264.14 264.14"><defs><style>.cls-1{opacity:0.4;}.cls-2{fill:#e1d9d5;}.cls-3{fill:#302118;}.cls-4{fill:#f4f4f4;}.cls-5{fill:#040000;}</style></defs><g class="cls-1"><rect class="cls-2" x="4" y="4" width="256.14" height="256.14" rx="14.56"/><path class="cls-3" d="M245.58,264.14h-227A18.59,18.59,0,0,1,0,245.58v-227A18.59,18.59,0,0,1,18.56,0h227a18.59,18.59,0,0,1,18.56,18.56v227A18.59,18.59,0,0,1,245.58,264.14ZM18.56,8A10.58,10.58,0,0,0,8,18.56v227a10.58,10.58,0,0,0,10.56,10.56h227a10.58,10.58,0,0,0,10.56-10.56v-227A10.58,10.58,0,0,0,245.58,8Z"/></g><g class="cls-1"><rect class="cls-4" x="94.55" y="69.57" width="78.96" height="125"/><path class="cls-5" d="M175,196.07h-82v-128h82Zm-79-3h76v-122h-76Z"/><polygon class="cls-4" points="168.51 83.19 99.55 83.19 94.55 69.57 173.51 69.57 168.51 83.19"/><path class="cls-5" d="M169.21,84.19H98.85L93.12,68.57h81.82Zm-69-2h67.56l4.27-11.62H96Z"/><polygon class="cls-4" points="99.55 180.94 168.51 180.94 173.51 194.57 94.55 194.57 99.55 180.94"/><path class="cls-5" d="M174.94,195.57H93.12l5.73-15.63h70.36Zm-79-2h76.1l-4.27-11.63H100.25Z"/><rect class="cls-5" x="133.78" y="83.19" width="0.5" height="97.75"/><path class="cls-5" d="M152.44,137c-.1.77-2.94,2.12-3.8,2a30.68,30.68,0,0,0-4-.29c-3.47,0-21.46.82-25.6.82a5.58,5.58,0,0,1-3.85-1.78,2.36,2.36,0,0,1-.14-2.84,5.26,5.26,0,0,1,1.3-1.59,1.41,1.41,0,0,1,1.49-.33,6.57,6.57,0,0,0,2.88.48c1.06,0,5.3-.1,9.91-.24v-2.41a3.79,3.79,0,0,0-.14-1l-5.15.19a2.78,2.78,0,0,1-2.5-1,2.39,2.39,0,0,1-.67-1.88,3.37,3.37,0,0,1,.57-1.2c0-2.17,0-4.52-.09-6.69l-.19-.19a1.68,1.68,0,0,1-.48-1.93,10.59,10.59,0,0,1,1.87-2.59,1.24,1.24,0,0,1,1.2,0,7.41,7.41,0,0,0,2.46.57c3,0,10.2-.43,13-.62a2.26,2.26,0,0,1,1.82.62c1,.87,2.17,2.22,2.12,3,0,1.1-1.92,2.36-3.42,2.36-2,0-8,.14-11.59.24-.05,1-.05,2.21-.05,3.46,4.67-.05,13-.29,14.82-.43.63,0,1.78.81,1.54,1.58a7.2,7.2,0,0,1-2.6,3.8,5,5,0,0,1-2.74.68h-3.18v.38c.05.77.05,1.88.05,2.94,3.18-.1,5.82-.19,6.74-.29,3.46-.29,4-.14,5.87.91C152.44,135.1,152.53,136.31,152.44,137Zm-4.33,13.28c.09,1-1.16,2.07-2.46,2.88a6.09,6.09,0,0,1-2.88.92c-2.46.1-7.75.34-10.92.34s-4.14-.73-5.68-2.65a50.93,50.93,0,0,0-4-5,7.37,7.37,0,0,0-1.11-1.06c-.43-.29-1-.58-1.15-1a1.16,1.16,0,0,1,.28-1.25,8.11,8.11,0,0,1,4.14-1.88c1.06-.1,1.73-.24,2.5.53s2.84,3.27,4,4.57a3.34,3.34,0,0,0,2.69,1.44c2.84,0,5.58-.14,7.46-.33,2.12-.24,2.84-.53,3.66-.34C145.75,147.76,148.06,149.63,148.11,150.31Z"/></g></svg>