<svg id="레이어_1" data-name="레이어 1" xmlns="http://www.w3.org/2000/svg" xmlns:xlink="http://www.w3.org/1999/xlink" viewBox="0 0 264.14 264.14"><defs><style>.cls-1{fill:none;}.cls-2{opacity:0.4;}.cls-3{fill:#e1d9d5;}.cls-4{fill:#302118;}.cls-5{clip-path:url(#clip-path);}.cls-6{fill:#dd243d;}.cls-7{fill:#040000;}.cls-8{fill:#f5f4b0;}.cls-9{fill:#e5e5e5;}.cls-10{fill:#ea8f36;}.cls-11{fill:#4392ce;}.cls-12{fill:#e4ad40;}.cls-13{fill:#20877c;}.cls-14{fill:#b9ac31;}.cls-15{fill:#c6c6c6;}.cls-16{fill:#efefef;}.cls-17{fill:#e61b16;}</style><clipPath id="clip-path"><polygon class="cls-1" points="170.08 96.66 94.13 96.66 61.49 145.61 94.13 194.57 170.08 194.57 202.73 145.61 170.08 96.66"/></clipPath></defs><g class="cls-2"><rect class="cls-3" x="4" y="4" width="256.14" height="256.14" rx="14.56"/><path class="cls-4" d="M245.58,264.14h-227A18.59,18.59,0,0,1,0,245.58v-227A18.59,18.59,0,0,1,18.56,0h227a18.59,18.59,0,0,1,18.56,18.56v227A18.59,18.59,0,0,1,245.58,264.14ZM18.56,8A10.58,10.58,0,0,0,8,18.56v227a10.58,10.58,0,0,0,10.56,10.56h227a10.58,10.58,0,0,0,10.56-10.56v-227A10.58,10.58,0,0,0,245.58,8Z"/></g><g class="cls-2"><g class="cls-5"><rect class="cls-6" x="178.54" y="91.07" width="8.46" height="16.91"/><path class="cls-7" d="M188,109H177.54V90.07H188Zm-8.46-2H186V92.07h-6.46Z"/><rect class="cls-8" x="170.08" y="91.07" width="8.46" height="16.91"/><path class="cls-7" d="M179.54,109H169.08V90.07h10.46Zm-8.46-2h6.46V92.07h-6.46Z"/><rect class="cls-9" x="195.45" y="107.98" width="8.46" height="16.91"/><path class="cls-7" d="M204.91,125.89H194.45V107h10.46Zm-8.46-2h6.46V109h-6.46Z"/><rect class="cls-10" x="187" y="107.98" width="8.46" height="16.91"/><path class="cls-7" d="M196.45,125.89H186V107h10.45Zm-8.45-2h6.45V109H188Z"/><rect class="cls-11" x="191.22" y="95.3" width="8.46" height="16.91" transform="translate(299.2 -91.7) rotate(90)"/><path class="cls-7" d="M204.91,109H186V98.52h18.91ZM188,107h14.91v-6.46H188Z"/><rect class="cls-12" x="191.22" y="86.84" width="8.46" height="16.91" transform="translate(290.75 -100.16) rotate(90)"/><path class="cls-7" d="M204.91,100.52H186V90.07h18.91Zm-16.91-2h14.91V92.07H188Z"/><rect class="cls-13" x="174.31" y="112.21" width="8.46" height="16.91" transform="translate(299.2 -57.88) rotate(90)"/><path class="cls-7" d="M188,125.89H169.08V115.44H188Zm-16.92-2H186v-6.45H171.08Z"/><rect class="cls-14" x="174.31" y="103.75" width="8.46" height="16.91" transform="translate(290.75 -66.33) rotate(90)"/><path class="cls-7" d="M188,117.44H169.08V107H188Zm-16.92-2H186V109H171.08Z"/><rect class="cls-6" x="178.54" y="124.89" width="8.46" height="16.91"/><path class="cls-7" d="M188,142.8H177.54V123.89H188Zm-8.46-2H186V125.89h-6.46Z"/><rect class="cls-8" x="170.08" y="124.89" width="8.46" height="16.91"/><path class="cls-7" d="M179.54,142.8H169.08V123.89h10.46Zm-8.46-2h6.46V125.89h-6.46Z"/><rect class="cls-9" x="195.45" y="141.8" width="8.46" height="16.91"/><path class="cls-7" d="M204.91,159.72H194.45V140.8h10.46Zm-8.46-2h6.46V142.8h-6.46Z"/><rect class="cls-10" x="187" y="141.8" width="8.46" height="16.91"/><path class="cls-7" d="M196.45,159.72H186V140.8h10.45Zm-8.45-2h6.45V142.8H188Z"/><rect class="cls-11" x="191.22" y="129.12" width="8.46" height="16.91" transform="translate(333.03 -57.88) rotate(90)"/><path class="cls-7" d="M204.91,142.8H186V132.35h18.91Zm-16.91-2h14.91v-6.45H188Z"/><rect class="cls-12" x="191.22" y="120.66" width="8.46" height="16.91" transform="translate(324.57 -66.33) rotate(90)"/><path class="cls-7" d="M204.91,134.35H186V123.89h18.91Zm-16.91-2h14.91v-6.46H188Z"/><rect class="cls-13" x="174.31" y="146.03" width="8.46" height="16.91" transform="translate(333.03 -24.05) rotate(90)"/><path class="cls-7" d="M188,159.72H169.08V149.26H188Zm-16.92-2H186v-6.46H171.08Z"/><rect class="cls-14" x="174.31" y="137.58" width="8.46" height="16.91" transform="translate(324.57 -32.51) rotate(90)"/><path class="cls-7" d="M188,151.26H169.08V140.8H188Zm-16.92-2H186V142.8H171.08Z"/><rect class="cls-6" x="178.54" y="158.72" width="8.46" height="16.91"/><path class="cls-7" d="M188,176.63H177.54V157.72H188Zm-8.46-2H186V159.72h-6.46Z"/><rect class="cls-8" x="170.08" y="158.72" width="8.46" height="16.91"/><path class="cls-7" d="M179.54,176.63H169.08V157.72h10.46Zm-8.46-2h6.46V159.72h-6.46Z"/><rect class="cls-9" x="195.45" y="175.63" width="8.46" height="16.91"/><path class="cls-7" d="M204.91,193.54H194.45V174.63h10.46Zm-8.46-2h6.46V176.63h-6.46Z"/><rect class="cls-10" x="187" y="175.63" width="8.46" height="16.91"/><path class="cls-7" d="M196.45,193.54H186V174.63h10.45Zm-8.45-2h6.45V176.63H188Z"/><rect class="cls-11" x="191.22" y="162.94" width="8.46" height="16.91" transform="translate(366.85 -24.05) rotate(90)"/><path class="cls-7" d="M204.91,176.63H186V166.17h18.91Zm-16.91-2h14.91v-6.46H188Z"/><rect class="cls-12" x="191.22" y="154.49" width="8.46" height="16.91" transform="translate(358.4 -32.51) rotate(90)"/><path class="cls-7" d="M204.91,168.17H186V157.72h18.91Zm-16.91-2h14.91v-6.45H188Z"/><rect class="cls-13" x="174.31" y="179.86" width="8.46" height="16.91" transform="translate(366.85 9.77) rotate(90)"/><path class="cls-7" d="M188,193.54H169.08V183.08H188Zm-16.92-2H186v-6.46H171.08Z"/><rect class="cls-14" x="174.31" y="171.4" width="8.46" height="16.91" transform="translate(358.4 1.32) rotate(90)"/><path class="cls-7" d="M188,185.08H169.08V174.63H188Zm-16.92-2H186v-6.45H171.08Z"/><rect class="cls-6" x="178.54" y="192.54" width="8.46" height="16.91"/><path class="cls-7" d="M188,210.45H177.54V191.54H188Zm-8.46-2H186V193.54h-6.46Z"/><rect class="cls-8" x="170.08" y="192.54" width="8.46" height="16.91"/><path class="cls-7" d="M179.54,210.45H169.08V191.54h10.46Zm-8.46-2h6.46V193.54h-6.46Z"/><rect class="cls-9" x="195.45" y="209.45" width="8.46" height="16.91"/><path class="cls-7" d="M204.91,227.36H194.45V208.45h10.46Zm-8.46-2h6.46V210.45h-6.46Z"/><rect class="cls-10" x="187" y="209.45" width="8.46" height="16.91"/><path class="cls-7" d="M196.45,227.36H186V208.45h10.45Zm-8.45-2h6.45V210.45H188Z"/><rect class="cls-11" x="191.22" y="196.77" width="8.46" height="16.91" transform="translate(400.68 9.77) rotate(90)"/><path class="cls-7" d="M204.91,210.45H186V200h18.91Zm-16.91-2h14.91V202H188Z"/><rect class="cls-12" x="191.22" y="188.31" width="8.46" height="16.91" transform="translate(392.22 1.32) rotate(90)"/><path class="cls-7" d="M204.91,202H186V191.54h18.91ZM188,200h14.91v-6.46H188Z"/><rect class="cls-13" x="174.31" y="213.68" width="8.46" height="16.91" transform="translate(400.68 43.6) rotate(90)"/><path class="cls-7" d="M188,227.36H169.08V216.91H188Zm-16.92-2H186v-6.45H171.08Z"/><rect class="cls-14" x="174.31" y="205.22" width="8.46" height="16.91" transform="translate(392.22 35.14) rotate(90)"/><path class="cls-7" d="M188,218.91H169.08V208.45H188Zm-16.92-2H186v-6.46H171.08Z"/><rect class="cls-6" x="69.13" y="91.07" width="8.46" height="16.91"/><path class="cls-7" d="M78.58,109H68.13V90.07H78.58Zm-8.45-2h6.45V92.07H70.13Z"/><rect class="cls-8" x="60.67" y="91.07" width="8.46" height="16.91"/><path class="cls-7" d="M70.13,109H59.67V90.07H70.13Zm-8.46-2h6.46V92.07H61.67Z"/><rect class="cls-9" x="86.04" y="107.98" width="8.46" height="16.91"/><path class="cls-7" d="M95.5,125.89H85V107H95.5Zm-8.46-2H93.5V109H87Z"/><rect class="cls-10" x="77.58" y="107.98" width="8.46" height="16.91"/><path class="cls-7" d="M87,125.89H76.58V107H87Zm-8.46-2H85V109H78.58Z"/><rect class="cls-11" x="81.81" y="95.3" width="8.46" height="16.91" transform="translate(189.79 17.71) rotate(90)"/><path class="cls-7" d="M95.5,109H76.58V98.52H95.5Zm-16.92-2H93.5v-6.46H78.58Z"/><rect class="cls-12" x="81.81" y="86.84" width="8.46" height="16.91" transform="translate(181.34 9.26) rotate(90)"/><path class="cls-7" d="M95.5,100.52H76.58V90.07H95.5Zm-16.92-2H93.5V92.07H78.58Z"/><rect class="cls-13" x="64.9" y="112.21" width="8.46" height="16.91" transform="translate(189.79 51.54) rotate(90)"/><path class="cls-7" d="M78.58,125.89H59.67V115.44H78.58Zm-16.91-2H76.58v-6.45H61.67Z"/><rect class="cls-14" x="64.9" y="103.75" width="8.46" height="16.91" transform="translate(181.34 43.08) rotate(90)"/><path class="cls-7" d="M78.58,117.44H59.67V107H78.58Zm-16.91-2H76.58V109H61.67Z"/><rect class="cls-6" x="69.13" y="124.89" width="8.46" height="16.91"/><path class="cls-7" d="M78.58,142.8H68.13V123.89H78.58Zm-8.45-2h6.45V125.89H70.13Z"/><rect class="cls-8" x="60.67" y="124.89" width="8.46" height="16.91"/><path class="cls-7" d="M70.13,142.8H59.67V123.89H70.13Zm-8.46-2h6.46V125.89H61.67Z"/><rect class="cls-9" x="86.04" y="141.8" width="8.46" height="16.91"/><path class="cls-7" d="M95.5,159.72H85V140.8H95.5Zm-8.46-2H93.5V142.8H87Z"/><rect class="cls-10" x="77.58" y="141.8" width="8.46" height="16.91"/><path class="cls-7" d="M87,159.72H76.58V140.8H87Zm-8.46-2H85V142.8H78.58Z"/><rect class="cls-11" x="81.81" y="129.12" width="8.46" height="16.91" transform="translate(223.62 51.54) rotate(90)"/><path class="cls-7" d="M95.5,142.8H76.58V132.35H95.5Zm-16.92-2H93.5v-6.45H78.58Z"/><rect class="cls-12" x="81.81" y="120.66" width="8.46" height="16.91" transform="translate(215.16 43.08) rotate(90)"/><path class="cls-7" d="M95.5,134.35H76.58V123.89H95.5Zm-16.92-2H93.5v-6.46H78.58Z"/><rect class="cls-13" x="64.9" y="146.03" width="8.46" height="16.91" transform="translate(223.62 85.36) rotate(90)"/><path class="cls-7" d="M78.58,159.72H59.67V149.26H78.58Zm-16.91-2H76.58v-6.46H61.67Z"/><rect class="cls-14" x="64.9" y="137.58" width="8.46" height="16.91" transform="translate(215.16 76.9) rotate(90)"/><path class="cls-7" d="M78.58,151.26H59.67V140.8H78.58Zm-16.91-2H76.58V142.8H61.67Z"/><rect class="cls-6" x="69.13" y="158.72" width="8.46" height="16.91"/><path class="cls-7" d="M78.58,176.63H68.13V157.72H78.58Zm-8.45-2h6.45V159.72H70.13Z"/><rect class="cls-8" x="60.67" y="158.72" width="8.46" height="16.91"/><path class="cls-7" d="M70.13,176.63H59.67V157.72H70.13Zm-8.46-2h6.46V159.72H61.67Z"/><rect class="cls-9" x="86.04" y="175.63" width="8.46" height="16.91"/><path class="cls-7" d="M95.5,193.54H85V174.63H95.5Zm-8.46-2H93.5V176.63H87Z"/><rect class="cls-10" x="77.58" y="175.63" width="8.46" height="16.91"/><path class="cls-7" d="M87,193.54H76.58V174.63H87Zm-8.46-2H85V176.63H78.58Z"/><rect class="cls-11" x="81.81" y="162.94" width="8.46" height="16.91" transform="translate(257.44 85.36) rotate(90)"/><path class="cls-7" d="M95.5,176.63H76.58V166.17H95.5Zm-16.92-2H93.5v-6.46H78.58Z"/><rect class="cls-12" x="81.81" y="154.49" width="8.46" height="16.91" transform="translate(248.98 76.9) rotate(90)"/><path class="cls-7" d="M95.5,168.17H76.58V157.72H95.5Zm-16.92-2H93.5v-6.45H78.58Z"/><rect class="cls-13" x="64.9" y="179.86" width="8.46" height="16.91" transform="translate(257.44 119.18) rotate(90)"/><path class="cls-7" d="M78.58,193.54H59.67V183.08H78.58Zm-16.91-2H76.58v-6.46H61.67Z"/><rect class="cls-14" x="64.9" y="171.4" width="8.46" height="16.91" transform="translate(248.98 110.73) rotate(90)"/><path class="cls-7" d="M78.58,185.08H59.67V174.63H78.58Zm-16.91-2H76.58v-6.45H61.67Z"/><rect class="cls-6" x="69.13" y="192.54" width="8.46" height="16.91"/><path class="cls-7" d="M78.58,210.45H68.13V191.54H78.58Zm-8.45-2h6.45V193.54H70.13Z"/><rect class="cls-8" x="60.67" y="192.54" width="8.46" height="16.91"/><path class="cls-7" d="M70.13,210.45H59.67V191.54H70.13Zm-8.46-2h6.46V193.54H61.67Z"/><rect class="cls-9" x="86.04" y="209.45" width="8.46" height="16.91"/><path class="cls-7" d="M95.5,227.36H85V208.45H95.5Zm-8.46-2H93.5V210.45H87Z"/><rect class="cls-10" x="77.58" y="209.45" width="8.46" height="16.91"/><path class="cls-7" d="M87,227.36H76.58V208.45H87Zm-8.46-2H85V210.45H78.58Z"/><rect class="cls-11" x="81.81" y="196.77" width="8.46" height="16.91" transform="translate(291.26 119.18) rotate(90)"/><path class="cls-7" d="M95.5,210.45H76.58V200H95.5Zm-16.92-2H93.5V202H78.58Z"/><rect class="cls-12" x="81.81" y="188.31" width="8.46" height="16.91" transform="translate(282.81 110.73) rotate(90)"/><path class="cls-7" d="M95.5,202H76.58V191.54H95.5Zm-16.92-2H93.5v-6.46H78.58Z"/><rect class="cls-13" x="64.9" y="213.68" width="8.46" height="16.91" transform="translate(291.26 153.01) rotate(90)"/><path class="cls-7" d="M78.58,227.36H59.67V216.91H78.58Zm-16.91-2H76.58v-6.45H61.67Z"/><rect class="cls-14" x="64.9" y="205.22" width="8.46" height="16.91" transform="translate(282.81 144.55) rotate(90)"/><path class="cls-7" d="M78.58,218.91H59.67V208.45H78.58Zm-16.91-2H76.58v-6.46H61.67Z"/></g><path class="cls-7" d="M170.89,196.07H93.33L59.69,145.61,93.33,95.15h77.56l33.64,50.46Zm-75.95-3h74.34l31.64-47.46L169.28,98.15H94.94L63.3,145.61Z"/><rect class="cls-15" x="94.13" y="69.57" width="75.95" height="125"/><path class="cls-7" d="M171.58,196.07h-79v-128h79Zm-76-3h73v-122h-73Z"/><path class="cls-7" d="M152.58,151.05c-.63,1.73-1.88,1.63-3.85,1.49-7.8-.58-16.41.1-31.18.72a11.41,11.41,0,0,1-3.37-.38c-1.2-.34-2.5-1.78-2.5-2.41,0-1.2,2.55-3.12,4.28-3.22.82-.05,7-.24,13.33-.39v-1.58a2.58,2.58,0,0,0-.14-.92l-3,.19a3.45,3.45,0,0,1-1.63.58c-1.25,0-2.84-1.11-2.79-2.26a63.67,63.67,0,0,0-.24-7.79,3.63,3.63,0,0,0-1.11-2.36c-.38-.43-.53-.87-.29-1.25a12.34,12.34,0,0,1,3-2.46,1.45,1.45,0,0,1,1.58.2,7.46,7.46,0,0,1,2.75,3.51c2-.15,4.76-.39,6.15-.43,1,0,2.22,1.1,2.7,1.92s.33,1.2,0,1.59a4,4,0,0,1-3.32,1.3c-1,0-2.94,0-4.91.14l.15,2.21c2.88.05,6,.1,8.94,0,0-2.7,0-5.39-.09-7.27a2.86,2.86,0,0,0-1-1.83c-.39-.38-.24-.91.24-1.39a7,7,0,0,1,2.79-1.73,2.09,2.09,0,0,1,1.58.38c1,.67,2.41,2,2.41,3.13,0,3.37.67,7.46.43,11.11a3.67,3.67,0,0,1-2.74,3.08,5.14,5.14,0,0,1-2.41-.67c-.72,0-1.53-.05-2.4-.05v.34c0,.53,0,1.3,0,2.11,5.63-.14,9.76-.29,7.89-.29a33.66,33.66,0,0,1,4,.24,8.52,8.52,0,0,1,3.9,1.88C152.86,149.41,153.06,149.7,152.58,151.05Zm-7.22,7.65a37.79,37.79,0,0,1-.39,4.57c-.38,2-.91,3.41-1.82,4.23-.58.53-1.11,1-1.59,1.4a18.7,18.7,0,0,0-1.73,1.68,5.61,5.61,0,0,1-1.4-2.31,15.23,15.23,0,0,1-.43-3.17c0-1.11-.05-2.89,0-4.62-4.09.05-10.3.19-12.51.29s-4.09-.82-6.21-2.31a.81.81,0,0,1-.38-1,6.23,6.23,0,0,1,.86-2.27c.49-.76.92-.81,1.45-.67a15.78,15.78,0,0,0,4.23.43c1.4,0,11.36-.33,12-.33a45.26,45.26,0,0,0,4.52-.44,3.28,3.28,0,0,1,1.93.53c.86.58,1.87,1.35,1.92,2.17A3.68,3.68,0,0,1,145.36,158.7Z"/><rect class="cls-16" x="105.5" y="92.93" width="53.23" height="21.54"/><path class="cls-7" d="M159.72,115.47H104.5V91.93h55.22Zm-53.22-2h51.22V93.93H106.5Z"/><rect class="cls-17" x="94.55" y="101.66" width="75.11" height="4.08"/><path class="cls-7" d="M170.67,106.74H93.55v-6.08h77.12Zm-75.12-2h73.12v-2.08H95.55Z"/></g></svg>