<svg id="레이어_1" data-name="레이어 1" xmlns="http://www.w3.org/2000/svg" viewBox="0 0 264.14 264.14"><defs><style>.cls-1{opacity:0.4;}.cls-2{fill:#e1d9d5;}.cls-3{fill:#302118;}.cls-4{fill:#b4ba44;}.cls-5{fill:#040000;}.cls-6{fill:#e1dc4d;}.cls-7{fill:#e5e5e5;}.cls-8{fill:#dd243d;}.cls-9{fill:#2f7cc1;}</style></defs><g class="cls-1"><rect class="cls-2" x="4" y="4" width="256.14" height="256.14" rx="14.56"/><path class="cls-3" d="M245.58,264.14h-227A18.59,18.59,0,0,1,0,245.58v-227A18.59,18.59,0,0,1,18.56,0h227a18.59,18.59,0,0,1,18.56,18.56v227A18.59,18.59,0,0,1,245.58,264.14ZM18.56,8A10.58,10.58,0,0,0,8,18.56v227a10.58,10.58,0,0,0,10.56,10.56h227a10.58,10.58,0,0,0,10.56-10.56v-227A10.58,10.58,0,0,0,245.58,8Z"/></g><g class="cls-1"><polygon class="cls-4" points="171.96 96.76 96.01 96.76 63.37 145.72 96.01 194.67 171.96 194.67 204.6 145.72 171.96 96.76"/><path class="cls-5" d="M172.76,196.17H95.21L61.57,145.72,95.21,95.26h77.55l33.64,50.46Zm-75.95-3h74.35l31.64-47.45L171.16,98.26H96.81L65.17,145.72Z"/><ellipse class="cls-6" cx="82.47" cy="141.61" rx="1.4" ry="4.33"/><ellipse class="cls-6" cx="78.35" cy="144.6" rx="1.4" ry="4.33" transform="translate(-83.38 174.43) rotate(-72)"/><ellipse class="cls-6" cx="79.92" cy="149.44" rx="4.33" ry="1.4" transform="translate(-87.95 126.26) rotate(-54)"/><ellipse class="cls-6" cx="85.01" cy="149.44" rx="1.4" ry="4.33" transform="translate(-71.6 78.51) rotate(-36)"/><ellipse class="cls-6" cx="86.59" cy="144.6" rx="4.33" ry="1.4" transform="translate(-40.45 33.83) rotate(-18)"/><ellipse class="cls-6" cx="94.84" cy="165.91" rx="1.4" ry="4.33"/><ellipse class="cls-6" cx="90.73" cy="168.9" rx="1.4" ry="4.33" transform="translate(-97.94 202.99) rotate(-72)"/><ellipse class="cls-6" cx="92.3" cy="173.74" rx="4.33" ry="1.4" transform="translate(-102.51 146.29) rotate(-54)"/><ellipse class="cls-6" cx="97.39" cy="173.74" rx="1.4" ry="4.33" transform="translate(-83.52 90.42) rotate(-36)"/><ellipse class="cls-6" cx="98.96" cy="168.9" rx="4.33" ry="1.4" transform="translate(-47.35 38.85) rotate(-18)"/><ellipse class="cls-6" cx="94.84" cy="118.86" rx="1.4" ry="4.33"/><ellipse class="cls-6" cx="90.73" cy="121.85" rx="1.4" ry="4.33" transform="translate(-53.2 170.48) rotate(-72)"/><ellipse class="cls-6" cx="92.3" cy="126.69" rx="4.33" ry="1.4" transform="matrix(0.59, -0.81, 0.81, 0.59, -64.45, 126.9)"/><ellipse class="cls-6" cx="97.39" cy="126.69" rx="1.4" ry="4.33" transform="translate(-55.87 81.44) rotate(-36)"/><ellipse class="cls-6" cx="98.96" cy="121.85" rx="4.33" ry="1.4" transform="matrix(0.95, -0.31, 0.31, 0.95, -32.81, 36.54)"/><ellipse class="cls-6" cx="185.5" cy="141.61" rx="1.4" ry="4.33"/><ellipse class="cls-6" cx="189.62" cy="144.6" rx="4.33" ry="1.4" transform="translate(-35.4 65.67) rotate(-18)"/><ellipse class="cls-6" cx="188.04" cy="149.44" rx="1.4" ry="4.33" transform="translate(-51.92 139.07) rotate(-36)"/><ellipse class="cls-6" cx="182.96" cy="149.44" rx="4.33" ry="1.4" transform="translate(-45.48 209.61) rotate(-54)"/><ellipse class="cls-6" cx="181.38" cy="144.6" rx="1.4" ry="4.33" transform="translate(-12.19 272.42) rotate(-72)"/><ellipse class="cls-6" cx="173.13" cy="165.91" rx="1.4" ry="4.33"/><ellipse class="cls-6" cx="177.24" cy="168.9" rx="4.33" ry="1.4" transform="translate(-43.52 63.04) rotate(-18)"/><ellipse class="cls-6" cx="175.67" cy="173.74" rx="1.4" ry="4.33" transform="matrix(0.81, -0.59, 0.59, 0.81, -68.57, 136.44)"/><ellipse class="cls-6" cx="170.58" cy="173.74" rx="4.33" ry="1.4" transform="translate(-70.24 209.62) rotate(-54)"/><ellipse class="cls-6" cx="169.01" cy="168.9" rx="1.4" ry="4.33" transform="matrix(0.31, -0.95, 0.95, 0.31, -43.85, 277.44)"/><ellipse class="cls-6" cx="173.13" cy="118.86" rx="1.4" ry="4.33"/><ellipse class="cls-6" cx="177.24" cy="121.85" rx="4.33" ry="1.4" transform="translate(-28.98 60.74) rotate(-18)"/><ellipse class="cls-6" cx="175.67" cy="126.69" rx="1.4" ry="4.33" transform="translate(-40.92 127.45) rotate(-36)"/><ellipse class="cls-6" cx="170.58" cy="126.69" rx="4.33" ry="1.4" transform="matrix(0.59, -0.81, 0.81, 0.59, -32.18, 190.23)"/><ellipse class="cls-6" cx="169.01" cy="121.85" rx="1.4" ry="4.33" transform="translate(0.89 244.94) rotate(-72)"/><rect class="cls-4" x="96.01" y="69.46" width="75.95" height="125"/><path class="cls-5" d="M173.46,196H94.51V68h79Zm-75.95-3h73V71H97.51Z"/><circle class="cls-7" cx="133.98" cy="147.32" r="30.38"/><path class="cls-5" d="M134,179.2a31.88,31.88,0,1,1,31.88-31.88A31.92,31.92,0,0,1,134,179.2Zm0-60.76a28.88,28.88,0,1,0,28.88,28.88A28.91,28.91,0,0,0,134,118.44Z"/><path class="cls-5" d="M154.45,151.15c-.63,1.74-1.88,1.64-3.85,1.49-7.79-.57-16.4.1-31.17.73a11.38,11.38,0,0,1-3.37-.39c-1.21-.34-2.5-1.78-2.5-2.4,0-1.21,2.55-3.13,4.28-3.23.82,0,7-.24,13.32-.38v-1.59a2.35,2.35,0,0,0-.14-.91l-3,.19a3.6,3.6,0,0,1-1.64.58c-1.25-.05-2.83-1.11-2.79-2.27a61.73,61.73,0,0,0-.24-7.79,3.62,3.62,0,0,0-1.1-2.36c-.39-.43-.53-.86-.29-1.25a11.85,11.85,0,0,1,3-2.45,1.45,1.45,0,0,1,1.59.19,7.42,7.42,0,0,1,2.74,3.51c2-.14,4.76-.38,6.16-.43,1,0,2.21,1.11,2.69,1.92s.34,1.21,0,1.59a4,4,0,0,1-3.32,1.3c-1,0-2.93.05-4.9.15l.14,2.21c2.89.05,6,.1,9-.05,0-2.69,0-5.39-.1-7.26a2.81,2.81,0,0,0-1-1.83c-.38-.39-.24-.92.24-1.4a7.16,7.16,0,0,1,2.79-1.73,2.15,2.15,0,0,1,1.59.38c1,.68,2.4,2,2.4,3.13,0,3.37.68,7.46.44,11.12a3.68,3.68,0,0,1-2.75,3.08,5.08,5.08,0,0,1-2.4-.68c-.72,0-1.54,0-2.41,0v.34c0,.53,0,1.3,0,2.12,5.63-.15,9.77-.29,7.89-.29a31.14,31.14,0,0,1,4,.24,8.39,8.39,0,0,1,3.89,1.88C154.74,149.52,154.93,149.81,154.45,151.15Zm-7.22,7.65a38,38,0,0,1-.38,4.57c-.39,2-.91,3.42-1.83,4.24-.58.53-1.11,1-1.59,1.39a20,20,0,0,0-1.73,1.69,5.74,5.74,0,0,1-1.39-2.31,14.63,14.63,0,0,1-.44-3.18c0-1.1-.05-2.88,0-4.62-4.09,0-10.29.2-12.51.29s-4.09-.82-6.2-2.31a.82.82,0,0,1-.39-1,6.4,6.4,0,0,1,.87-2.26c.48-.77.91-.82,1.44-.67a16.23,16.23,0,0,0,4.24.43c1.39,0,11.35-.34,12-.34,1.54,0,3.51-.34,4.52-.43a3.09,3.09,0,0,1,1.92.53c.87.58,1.88,1.35,1.93,2.16A3.67,3.67,0,0,1,147.23,158.8Z"/><path class="cls-5" d="M173.46,196.17H94.51v-128h79Zm-75.95-3h73v-122H97.51Z"/><path class="cls-8" d="M96.46,70.23H115.3a0,0,0,0,1,0,0V95a9.42,9.42,0,0,1-9.42,9.42h0A9.42,9.42,0,0,1,96.46,95V70.23a0,0,0,0,1,0,0Z"/><path class="cls-5" d="M105.88,105.39A10.43,10.43,0,0,1,95.46,95V69.23H116.3V95A10.44,10.44,0,0,1,105.88,105.39ZM97.46,71.23V95a8.42,8.42,0,0,0,16.84,0V71.23Z"/><path class="cls-9" d="M105.88,101.07A6.11,6.11,0,0,1,99.77,95V70.23H112V95A6.11,6.11,0,0,1,105.88,101.07Z"/><path class="cls-5" d="M105.88,102.07A7.11,7.11,0,0,1,98.77,95V69.23H113V95A7.11,7.11,0,0,1,105.88,102.07Zm-5.11-30.84V95A5.11,5.11,0,0,0,111,95V71.23Z"/><path class="cls-4" d="M105.88,97.76a2.8,2.8,0,0,1-2.8-2.79V70.23h5.6V95A2.8,2.8,0,0,1,105.88,97.76Z"/><path class="cls-5" d="M105.88,98.76a3.8,3.8,0,0,1-3.8-3.79V69.23h7.6V95A3.8,3.8,0,0,1,105.88,98.76Zm-1.8-27.53V95a1.8,1.8,0,0,0,3.6,0V71.23Z"/><path class="cls-8" d="M115.19,70.23H134a0,0,0,0,1,0,0V95a9.42,9.42,0,0,1-9.42,9.42h0A9.42,9.42,0,0,1,115.19,95V70.23A0,0,0,0,1,115.19,70.23Z"/><path class="cls-5" d="M124.61,105.39A10.43,10.43,0,0,1,114.19,95V69.23H135V95A10.43,10.43,0,0,1,124.61,105.39Zm-8.42-34.16V95A8.42,8.42,0,1,0,133,95V71.23Z"/><path class="cls-9" d="M124.61,101.07A6.11,6.11,0,0,1,118.5,95V70.23h12.22V95A6.11,6.11,0,0,1,124.61,101.07Z"/><path class="cls-5" d="M124.61,102.07A7.11,7.11,0,0,1,117.5,95V69.23h14.22V95A7.11,7.11,0,0,1,124.61,102.07ZM119.5,71.23V95a5.11,5.11,0,0,0,10.22,0V71.23Z"/><path class="cls-4" d="M124.61,97.76a2.8,2.8,0,0,1-2.8-2.79V70.23h5.6V95A2.8,2.8,0,0,1,124.61,97.76Z"/><path class="cls-5" d="M124.61,98.76a3.8,3.8,0,0,1-3.8-3.79V69.23h7.6V95A3.8,3.8,0,0,1,124.61,98.76Zm-1.8-27.53V95a1.8,1.8,0,0,0,3.6,0V71.23Z"/><path class="cls-8" d="M133.92,70.23h18.84a0,0,0,0,1,0,0V95a9.42,9.42,0,0,1-9.42,9.42h0A9.42,9.42,0,0,1,133.92,95V70.23A0,0,0,0,1,133.92,70.23Z"/><path class="cls-5" d="M143.34,105.39A10.43,10.43,0,0,1,132.92,95V69.23h20.84V95A10.43,10.43,0,0,1,143.34,105.39Zm-8.42-34.16V95a8.42,8.42,0,1,0,16.84,0V71.23Z"/><path class="cls-9" d="M143.34,101.07a6.11,6.11,0,0,1-6.11-6.1V70.23h12.22V95A6.11,6.11,0,0,1,143.34,101.07Z"/><path class="cls-5" d="M143.34,102.07a7.11,7.11,0,0,1-7.11-7.1V69.23h14.22V95A7.11,7.11,0,0,1,143.34,102.07Zm-5.11-30.84V95a5.11,5.11,0,0,0,10.22,0V71.23Z"/><path class="cls-4" d="M143.34,97.76a2.8,2.8,0,0,1-2.8-2.79V70.23h5.6V95A2.8,2.8,0,0,1,143.34,97.76Z"/><path class="cls-5" d="M143.34,98.76a3.8,3.8,0,0,1-3.8-3.79V69.23h7.6V95A3.8,3.8,0,0,1,143.34,98.76Zm-1.8-27.53V95a1.8,1.8,0,0,0,3.6,0V71.23Z"/><path class="cls-8" d="M152.65,70.23h18.84a0,0,0,0,1,0,0V95a9.42,9.42,0,0,1-9.42,9.42h0A9.42,9.42,0,0,1,152.65,95V70.23a0,0,0,0,1,0,0Z"/><path class="cls-5" d="M162.07,105.39A10.44,10.44,0,0,1,151.65,95V69.23h20.84V95A10.43,10.43,0,0,1,162.07,105.39Zm-8.42-34.16V95a8.42,8.42,0,0,0,16.84,0V71.23Z"/><path class="cls-9" d="M162.07,101.07A6.11,6.11,0,0,1,156,95V70.23h12.22V95A6.11,6.11,0,0,1,162.07,101.07Z"/><path class="cls-5" d="M162.07,102.07A7.11,7.11,0,0,1,155,95V69.23h14.22V95A7.11,7.11,0,0,1,162.07,102.07ZM157,71.23V95a5.11,5.11,0,0,0,10.22,0V71.23Z"/><path class="cls-4" d="M162.07,97.76A2.79,2.79,0,0,1,159.28,95V70.23h5.59V95A2.8,2.8,0,0,1,162.07,97.76Z"/><path class="cls-5" d="M162.07,98.76a3.8,3.8,0,0,1-3.8-3.79V69.23h7.6V95A3.8,3.8,0,0,1,162.07,98.76Zm-1.8-27.53V95a1.8,1.8,0,0,0,3.6,0V71.23Z"/></g></svg>