<svg id="레이어_1" data-name="레이어 1" xmlns="http://www.w3.org/2000/svg" xmlns:xlink="http://www.w3.org/1999/xlink" viewBox="0 0 264.14 264.14"><defs><style>.cls-1{fill:none;}.cls-2{opacity:0.4;}.cls-3{fill:#e1d9d5;}.cls-4{fill:#302118;}.cls-5{fill:#e94a64;}.cls-6{fill:#040000;}.cls-7{fill:#c62c4e;}.cls-8{fill:#f0d68d;}.cls-9{fill:#4392ce;}.cls-10{fill:#e3242e;}.cls-11{clip-path:url(#clip-path);}.cls-12{fill:#f3c18f;}.cls-13{fill:#d6d6d6;}</style><clipPath id="clip-path"><rect class="cls-1" x="94.09" y="69.67" width="75.95" height="125"/></clipPath></defs><g class="cls-2"><rect class="cls-3" x="4" y="4" width="256.14" height="256.14" rx="14.56"/><path class="cls-4" d="M245.58,264.14h-227A18.59,18.59,0,0,1,0,245.58v-227A18.59,18.59,0,0,1,18.56,0h227a18.59,18.59,0,0,1,18.56,18.56v227A18.59,18.59,0,0,1,245.58,264.14ZM18.56,8A10.58,10.58,0,0,0,8,18.56v227a10.58,10.58,0,0,0,10.56,10.56h227a10.58,10.58,0,0,0,10.56-10.56v-227A10.58,10.58,0,0,0,245.58,8Z"/></g><g class="cls-2"><polygon class="cls-5" points="170.04 96.76 94.09 96.76 61.45 145.72 94.09 194.67 170.04 194.67 202.69 145.72 170.04 96.76"/><path class="cls-6" d="M170.85,196.17H93.29L59.65,145.72,93.29,95.26h77.56l33.64,50.46Zm-75.95-3h74.34l31.64-47.45L169.24,98.26H94.9L63.25,145.72Z"/><ellipse class="cls-7" cx="80.55" cy="141.61" rx="1.4" ry="4.33"/><ellipse class="cls-7" cx="76.44" cy="144.6" rx="1.4" ry="4.33" transform="translate(-84.7 172.61) rotate(-72)"/><ellipse class="cls-7" cx="78.01" cy="149.44" rx="4.33" ry="1.4" transform="translate(-88.74 124.71) rotate(-54)"/><ellipse class="cls-7" cx="83.1" cy="149.44" rx="1.4" ry="4.33" transform="translate(-71.97 77.38) rotate(-36)"/><ellipse class="cls-7" cx="84.67" cy="144.6" rx="4.33" ry="1.4" transform="translate(-40.54 33.24) rotate(-18)"/><ellipse class="cls-7" cx="92.93" cy="165.91" rx="1.4" ry="4.33"/><ellipse class="cls-7" cx="88.81" cy="168.9" rx="1.4" ry="4.33" transform="translate(-99.27 201.17) rotate(-72)"/><ellipse class="cls-7" cx="90.38" cy="173.74" rx="4.33" ry="1.4" transform="translate(-103.3 144.74) rotate(-54)"/><ellipse class="cls-7" cx="95.47" cy="173.74" rx="1.4" ry="4.33" transform="translate(-83.89 89.3) rotate(-36)"/><ellipse class="cls-7" cx="97.04" cy="168.9" rx="4.33" ry="1.4" transform="translate(-47.44 38.25) rotate(-18)"/><ellipse class="cls-7" cx="92.93" cy="118.86" rx="1.4" ry="4.33"/><ellipse class="cls-7" cx="88.81" cy="121.85" rx="1.4" ry="4.33" transform="translate(-54.53 168.66) rotate(-72)"/><ellipse class="cls-7" cx="90.38" cy="126.69" rx="4.33" ry="1.4" transform="translate(-65.24 125.34) rotate(-54)"/><ellipse class="cls-7" cx="95.47" cy="126.69" rx="1.4" ry="4.33" transform="matrix(0.81, -0.59, 0.59, 0.81, -56.24, 80.31)"/><ellipse class="cls-7" cx="97.04" cy="121.85" rx="4.33" ry="1.4" transform="translate(-32.91 35.95) rotate(-18)"/><ellipse class="cls-7" cx="183.58" cy="141.61" rx="1.4" ry="4.33"/><ellipse class="cls-7" cx="187.7" cy="144.6" rx="4.33" ry="1.4" transform="translate(-35.5 65.08) rotate(-18)"/><ellipse class="cls-7" cx="186.13" cy="149.44" rx="1.4" ry="4.33" transform="translate(-52.29 137.94) rotate(-36)"/><ellipse class="cls-7" cx="181.04" cy="149.44" rx="4.33" ry="1.4" transform="translate(-46.27 208.06) rotate(-54)"/><ellipse class="cls-7" cx="179.47" cy="144.6" rx="1.4" ry="4.33" transform="translate(-13.51 270.6) rotate(-72)"/><ellipse class="cls-7" cx="171.21" cy="165.91" rx="1.4" ry="4.33"/><ellipse class="cls-7" cx="175.33" cy="168.9" rx="4.33" ry="1.4" transform="translate(-43.61 62.45) rotate(-18)"/><ellipse class="cls-7" cx="173.76" cy="173.74" rx="1.4" ry="4.33" transform="translate(-68.94 135.31) rotate(-36)"/><ellipse class="cls-7" cx="168.67" cy="173.74" rx="4.33" ry="1.4" transform="translate(-71.03 208.07) rotate(-54)"/><ellipse class="cls-7" cx="167.09" cy="168.9" rx="1.4" ry="4.33" transform="translate(-45.17 275.62) rotate(-72)"/><ellipse class="cls-7" cx="171.21" cy="118.86" rx="1.4" ry="4.33"/><ellipse class="cls-7" cx="175.33" cy="121.85" rx="4.33" ry="1.4" transform="translate(-29.07 60.14) rotate(-18)"/><ellipse class="cls-7" cx="173.76" cy="126.69" rx="1.4" ry="4.33" transform="translate(-41.28 126.33) rotate(-36)"/><ellipse class="cls-7" cx="168.67" cy="126.69" rx="4.33" ry="1.4" transform="translate(-32.97 188.68) rotate(-54)"/><ellipse class="cls-7" cx="167.09" cy="121.85" rx="1.4" ry="4.33" transform="translate(-0.43 243.12) rotate(-72)"/><rect class="cls-5" x="94.09" y="69.67" width="75.95" height="125"/><path class="cls-6" d="M171.54,196.17H92.59v-128h78.95Zm-75.95-3h72.95v-122H95.59Z"/><rect class="cls-8" x="94.18" y="69.67" width="15.17" height="77.55"/><path class="cls-6" d="M110.85,148.72H92.68V68.17h18.17Zm-15.17-3h12.17V71.17H95.68Z"/><rect class="cls-9" x="109.35" y="69.67" width="15.17" height="77.55"/><path class="cls-6" d="M126,148.72H107.85V68.17H126Zm-15.17-3H123V71.17H110.85Z"/><rect class="cls-10" x="124.52" y="69.67" width="15.17" height="77.55"/><path class="cls-6" d="M141.2,148.72H123V68.17H141.2Zm-15.18-3H138.2V71.17H126Z"/><rect class="cls-9" x="139.7" y="69.67" width="15.17" height="77.55"/><path class="cls-6" d="M156.37,148.72H138.2V68.17h18.17Zm-15.17-3h12.17V71.17H141.2Z"/><rect class="cls-8" x="154.87" y="69.67" width="15.17" height="77.55"/><path class="cls-6" d="M171.54,148.72H153.37V68.17h18.17Zm-15.17-3h12.17V71.17H156.37Z"/><g class="cls-11"><rect class="cls-12" x="103.42" y="118.68" width="57.27" height="57.27" transform="translate(329.61 158.11) rotate(135)"/><path class="cls-6" d="M132.06,189.94,89.44,147.32l42.62-42.62,42.62,42.62ZM93.68,147.32l38.38,38.38,38.38-38.38-38.38-38.38Z"/><rect class="cls-13" x="109.09" y="124.35" width="45.94" height="45.94" transform="translate(142.85 -50.23) rotate(45)"/><path class="cls-6" d="M132.06,181.92l-34.6-34.6,34.6-34.6,34.6,34.6Zm-30.36-34.6,30.36,30.36,30.36-30.36L132.06,117Z"/><path class="cls-6" d="M148.63,149.53c-.5,1.4-1.51,1.33-3.11,1.21-6.3-.47-13.25.08-25.19.58a9.32,9.32,0,0,1-2.72-.31c-1-.27-2-1.44-2-1.94,0-1,2.06-2.53,3.46-2.61.66,0,5.63-.19,10.77-.31v-1.28a1.91,1.91,0,0,0-.12-.74l-2.45.16a2.85,2.85,0,0,1-1.32.46c-1,0-2.3-.89-2.26-1.83a50.64,50.64,0,0,0-.19-6.29,2.92,2.92,0,0,0-.9-1.91c-.31-.35-.42-.7-.23-1a9.69,9.69,0,0,1,2.41-2,1.16,1.16,0,0,1,1.28.15,6,6,0,0,1,2.22,2.84c1.63-.12,3.85-.31,5-.35.81,0,1.79.89,2.17,1.56s.28,1,0,1.28a3.24,3.24,0,0,1-2.68,1c-.81,0-2.37,0-4,.12l.11,1.78c2.34,0,4.86.08,7.23,0,0-2.18,0-4.36-.07-5.88a2.25,2.25,0,0,0-.78-1.47c-.31-.31-.2-.74.19-1.13a5.81,5.81,0,0,1,2.26-1.4,1.72,1.72,0,0,1,1.28.31c.82.54,1.95,1.59,1.95,2.53,0,2.72.54,6,.35,9a3,3,0,0,1-2.22,2.49,4.08,4.08,0,0,1-1.94-.55c-.59,0-1.25,0-1.95,0v.28c0,.42,0,1.05,0,1.71,4.55-.12,7.89-.24,6.38-.24a24.65,24.65,0,0,1,3.22.2,6.82,6.82,0,0,1,3.15,1.51C148.87,148.21,149,148.45,148.63,149.53Zm-5.83,6.19a31,31,0,0,1-.31,3.69,6.09,6.09,0,0,1-1.48,3.42c-.46.43-.89.82-1.28,1.13a15.31,15.31,0,0,0-1.4,1.36,4.72,4.72,0,0,1-1.13-1.87,12.57,12.57,0,0,1-.35-2.56c0-.9,0-2.34,0-3.74-3.3,0-8.32.16-10.11.24s-3.3-.66-5-1.87a.65.65,0,0,1-.31-.78,5.07,5.07,0,0,1,.7-1.82c.39-.63.74-.67,1.16-.55a13,13,0,0,0,3.43.35c1.12,0,9.17-.27,9.68-.27,1.24,0,2.83-.27,3.65-.35a2.58,2.58,0,0,1,1.56.43c.7.46,1.51,1.09,1.55,1.75A2.92,2.92,0,0,1,142.8,155.72Z"/></g></g></svg>